solid OpenSCAD_Model
  facet normal 1 0 0
    outer loop
      vertex 35 -55 10
      vertex 35 -63.2474 8
      vertex 35 -56.7526 8
    endloop
  endfacet
  facet normal 1 0 0
    outer loop
      vertex 35 -63.2474 8
      vertex 35 -65.0517 6.95795
      vertex 35 -63.2474 5
    endloop
  endfacet
  facet normal 1 0 0
    outer loop
      vertex 35 -63.2474 8
      vertex 35 -66.1779 8.50795
      vertex 35 -65.0517 6.95795
    endloop
  endfacet
  facet normal 1 0 0
    outer loop
      vertex 35 -55 10
      vertex 35 -66.1779 8.50795
      vertex 35 -63.2474 8
    endloop
  endfacet
  facet normal 1 0 0
    outer loop
      vertex 35 -55 10
      vertex 35 -68 9.1
      vertex 35 -66.1779 8.50795
    endloop
  endfacet
  facet normal 1 0 0
    outer loop
      vertex 35 -74.9654 5
      vertex 35 -70.9483 6.95795
      vertex 35 -74.9654 10
    endloop
  endfacet
  facet normal 1 0 0
    outer loop
      vertex 35 -69.8221 8.50795
      vertex 35 -74.9654 10
      vertex 35 -70.9483 6.95795
    endloop
  endfacet
  facet normal 1 0 0
    outer loop
      vertex 35 -68 9.1
      vertex 35 -74.9654 10
      vertex 35 -69.8221 8.50795
    endloop
  endfacet
  facet normal 1 -0 0
    outer loop
      vertex 35 -74.9654 10
      vertex 35 -68 9.1
      vertex 35 -55 10
    endloop
  endfacet
  facet normal 1 -0 0
    outer loop
      vertex 35 -56.7526 8
      vertex 35 -50 5
      vertex 35 -55 10
    endloop
  endfacet
  facet normal 1 0 0
    outer loop
      vertex 35 -50 5
      vertex 35 -56.7526 8
      vertex 35 -56.7526 5
    endloop
  endfacet
  facet normal 1 -0 0
    outer loop
      vertex 35 -65.0517 5.04205
      vertex 35 -63.2474 5
      vertex 35 -65.0517 6.95795
    endloop
  endfacet
  facet normal 1 0 0
    outer loop
      vertex 35 -63.2474 5
      vertex 35 -65.0517 5.04205
      vertex 35 -65.0823 5
    endloop
  endfacet
  facet normal 1 0 0
    outer loop
      vertex 35 -70.9483 6.95795
      vertex 35 -74.9654 5
      vertex 35 -70.9483 5.04205
    endloop
  endfacet
  facet normal 1 0 0
    outer loop
      vertex 35 -70.9483 5.04205
      vertex 35 -74.9654 5
      vertex 35 -70.9177 5
    endloop
  endfacet
  facet normal 0 0 1
    outer loop
      vertex 35 -55 10
      vertex 34.6262 -75 10
      vertex 35 -74.9654 10
    endloop
  endfacet
  facet normal 0 0 1
    outer loop
      vertex 35 -55 10
      vertex 30 -55.6326 10
      vertex 34.6262 -75 10
    endloop
  endfacet
  facet normal 0 0 1
    outer loop
      vertex 35 -55 10
      vertex 9.8 -55.6326 10
      vertex 30 -55.6326 10
    endloop
  endfacet
  facet normal -0 0 1
    outer loop
      vertex 5 -55 10
      vertex 9.8 -55.6326 10
      vertex 35 -55 10
    endloop
  endfacet
  facet normal 0 0 1
    outer loop
      vertex 0 -60 10
      vertex 9.8 -55.6326 10
      vertex 5 -55 10
    endloop
  endfacet
  facet normal 0 0 1
    outer loop
      vertex 9.8 -55.6326 10
      vertex 0 -60 10
      vertex 9.8 -75 10
    endloop
  endfacet
  facet normal 0 0 1
    outer loop
      vertex 9.8 -75 10
      vertex 0 -60 10
      vertex 0 -75 10
    endloop
  endfacet
  facet normal 0 0 1
    outer loop
      vertex 34.6262 -75 10
      vertex 30 -55.6326 10
      vertex 30 -75 10
    endloop
  endfacet
  facet normal 0 0 -1
    outer loop
      vertex 29.9868 -80 0
      vertex 9.8 -79.4809 0
      vertex 29.9868 -79.4809 0
    endloop
  endfacet
  facet normal 0 0 -1
    outer loop
      vertex 6.6617 -74.3383 0
      vertex 9.8 -79.4809 0
      vertex 7.35 -76 0
    endloop
  endfacet
  facet normal 0 0 -1
    outer loop
      vertex 9.8 -79.4809 0
      vertex 6.6617 -77.6617 0
      vertex 7.35 -76 0
    endloop
  endfacet
  facet normal 0 0 -1
    outer loop
      vertex 9.8 -79.4809 0
      vertex 5 -78.35 0
      vertex 6.6617 -77.6617 0
    endloop
  endfacet
  facet normal -0 0 -1
    outer loop
      vertex 3.3383 -77.6617 0
      vertex 0 -80 0
      vertex 2.65 -76 0
    endloop
  endfacet
  facet normal -0 0 -1
    outer loop
      vertex 5 -78.35 0
      vertex 0 -80 0
      vertex 3.3383 -77.6617 0
    endloop
  endfacet
  facet normal -0 0 -1
    outer loop
      vertex 9.8 -79.4809 0
      vertex 0 -80 0
      vertex 5 -78.35 0
    endloop
  endfacet
  facet normal 0 0 -1
    outer loop
      vertex 0 -80 0
      vertex 9.8 -79.4809 0
      vertex 29.9868 -80 0
    endloop
  endfacet
  facet normal 0 0 -1
    outer loop
      vertex 40 -75 0
      vertex 37.35 -60 0
      vertex 40 -50 0
    endloop
  endfacet
  facet normal 0 0 -1
    outer loop
      vertex 40 -75 0
      vertex 36.6617 -61.6617 0
      vertex 37.35 -60 0
    endloop
  endfacet
  facet normal 0 0 -1
    outer loop
      vertex 35 -62.35 0
      vertex 40 -75 0
      vertex 35.7456 -75 0
    endloop
  endfacet
  facet normal 0 0 -1
    outer loop
      vertex 35 -62.35 0
      vertex 35.7456 -75 0
      vertex 35.4706 -74.9218 0
    endloop
  endfacet
  facet normal 0 0 -1
    outer loop
      vertex 40 -75 0
      vertex 35 -62.35 0
      vertex 36.6617 -61.6617 0
    endloop
  endfacet
  facet normal 0 0 -1
    outer loop
      vertex 33.6043 -75.0947 0
      vertex 35 -62.35 0
      vertex 35.4706 -74.9218 0
    endloop
  endfacet
  facet normal 0 0 -1
    outer loop
      vertex 33.6043 -75.0947 0
      vertex 33.3383 -61.6617 0
      vertex 35 -62.35 0
    endloop
  endfacet
  facet normal 0 0 -1
    outer loop
      vertex 31.9266 -75.9301 0
      vertex 33.3383 -61.6617 0
      vertex 33.6043 -75.0947 0
    endloop
  endfacet
  facet normal 0 0 -1
    outer loop
      vertex 30.6639 -77.3152 0
      vertex 33.3383 -61.6617 0
      vertex 31.9266 -75.9301 0
    endloop
  endfacet
  facet normal 0 0 -1
    outer loop
      vertex 36.6617 -58.3383 0
      vertex 40 -50 0
      vertex 37.35 -60 0
    endloop
  endfacet
  facet normal 0 0 -1
    outer loop
      vertex 35 -57.65 0
      vertex 40 -50 0
      vertex 36.6617 -58.3383 0
    endloop
  endfacet
  facet normal 0 0 -1
    outer loop
      vertex 30 -56.5191 0
      vertex 35 -57.65 0
      vertex 33.3383 -58.3383 0
    endloop
  endfacet
  facet normal 0 0 -1
    outer loop
      vertex 30 -56.5191 0
      vertex 33.3383 -61.6617 0
      vertex 30.6639 -77.3152 0
    endloop
  endfacet
  facet normal 0 0 -1
    outer loop
      vertex 30 -56.5191 0
      vertex 30.6639 -77.3152 0
      vertex 30 -79.0289 0
    endloop
  endfacet
  facet normal 0 0 -1
    outer loop
      vertex 33.3383 -61.6617 0
      vertex 30 -56.5191 0
      vertex 32.65 -60 0
    endloop
  endfacet
  facet normal 0 0 -1
    outer loop
      vertex 30 -56.5191 0
      vertex 33.3383 -58.3383 0
      vertex 32.65 -60 0
    endloop
  endfacet
  facet normal 0 0 -1
    outer loop
      vertex 35 -57.65 0
      vertex 30 -56.5191 0
      vertex 40 -50 0
    endloop
  endfacet
  facet normal 0 0 -1
    outer loop
      vertex 30 -56.5191 0
      vertex 10 -50 0
      vertex 40 -50 0
    endloop
  endfacet
  facet normal 0 0 -1
    outer loop
      vertex 9.8 -56.5191 0
      vertex 10 -50 0
      vertex 30 -56.5191 0
    endloop
  endfacet
  facet normal 0 0 -1
    outer loop
      vertex 9.8 -79.4809 0
      vertex 6.6617 -74.3383 0
      vertex 9.8 -56.5191 0
    endloop
  endfacet
  facet normal 0 0 -1
    outer loop
      vertex 5 -73.65 0
      vertex 9.8 -56.5191 0
      vertex 6.6617 -74.3383 0
    endloop
  endfacet
  facet normal 0 0 -1
    outer loop
      vertex 9.8 -56.5191 0
      vertex 5 -73.65 0
      vertex 0 -60 0
    endloop
  endfacet
  facet normal 0 0 -1
    outer loop
      vertex 0 -60 0
      vertex 5 -73.65 0
      vertex 3.3383 -74.3383 0
    endloop
  endfacet
  facet normal 0 0 -1
    outer loop
      vertex 0 -60 0
      vertex 3.3383 -74.3383 0
      vertex 2.65 -76 0
    endloop
  endfacet
  facet normal 0 0 -1
    outer loop
      vertex 0 -60 0
      vertex 2.65 -76 0
      vertex 0 -80 0
    endloop
  endfacet
  facet normal -0 0 -1
    outer loop
      vertex 9.8 -56.5191 0
      vertex 0 -60 0
      vertex 10 -50 0
    endloop
  endfacet
  facet normal -1 0 0
    outer loop
      vertex 0 -60 0
      vertex 0 -65.0517 5.04205
      vertex 0 -60 10
    endloop
  endfacet
  facet normal -1 0 0
    outer loop
      vertex 0 -60 0
      vertex 0 -66.1779 3.49205
      vertex 0 -65.0517 5.04205
    endloop
  endfacet
  facet normal -1 0 0
    outer loop
      vertex 0 -60 0
      vertex 0 -68 2.9
      vertex 0 -66.1779 3.49205
    endloop
  endfacet
  facet normal -1 0 0
    outer loop
      vertex 0 -80 0
      vertex 0 -68 2.9
      vertex 0 -60 0
    endloop
  endfacet
  facet normal -1 0 0
    outer loop
      vertex 0 -70.9483 5.04205
      vertex 0 -75 10
      vertex 0 -70.9483 6.95795
    endloop
  endfacet
  facet normal -1 0 0
    outer loop
      vertex 0 -80 0
      vertex 0 -70.9483 5.04205
      vertex 0 -69.8221 3.49205
    endloop
  endfacet
  facet normal -1 -0 0
    outer loop
      vertex 0 -68 2.9
      vertex 0 -80 0
      vertex 0 -69.8221 3.49205
    endloop
  endfacet
  facet normal -1 0 0
    outer loop
      vertex 0 -70.9483 5.04205
      vertex 0 -80 0
      vertex 0 -80 5
    endloop
  endfacet
  facet normal -1 -0 0
    outer loop
      vertex 0 -70.9483 5.04205
      vertex 0 -80 5
      vertex 0 -75 10
    endloop
  endfacet
  facet normal -1 0 0
    outer loop
      vertex 0 -65.0517 6.95795
      vertex 0 -60 10
      vertex 0 -65.0517 5.04205
    endloop
  endfacet
  facet normal -1 0 0
    outer loop
      vertex 0 -66.1779 8.50795
      vertex 0 -60 10
      vertex 0 -65.0517 6.95795
    endloop
  endfacet
  facet normal -1 0 0
    outer loop
      vertex 0 -68 9.1
      vertex 0 -60 10
      vertex 0 -66.1779 8.50795
    endloop
  endfacet
  facet normal -1 0 0
    outer loop
      vertex 0 -68 9.1
      vertex 0 -75 10
      vertex 0 -60 10
    endloop
  endfacet
  facet normal -1 0 0
    outer loop
      vertex 0 -69.8221 8.50795
      vertex 0 -75 10
      vertex 0 -68 9.1
    endloop
  endfacet
  facet normal -1 0 0
    outer loop
      vertex 0 -75 10
      vertex 0 -69.8221 8.50795
      vertex 0 -70.9483 6.95795
    endloop
  endfacet
  facet normal 0 1 -0
    outer loop
      vertex 40 -50 0
      vertex 35 -50 5
      vertex 40 -50 5
    endloop
  endfacet
  facet normal 0 1 0
    outer loop
      vertex 10 -50 0
      vertex 35 -50 5
      vertex 40 -50 0
    endloop
  endfacet
  facet normal 0 1 0
    outer loop
      vertex 35 -50 5
      vertex 10 -50 0
      vertex 10 -50 5
    endloop
  endfacet
  facet normal 0 -1 0
    outer loop
      vertex 0 -80 5
      vertex 9.8 -80 1.16582
      vertex 9.8 -80 5
    endloop
  endfacet
  facet normal 0 -1 0
    outer loop
      vertex 0 -80 0
      vertex 9.8 -80 1.16582
      vertex 0 -80 5
    endloop
  endfacet
  facet normal 0 -1 0
    outer loop
      vertex 29.9868 -80 0
      vertex 9.8 -80 1.16582
      vertex 0 -80 0
    endloop
  endfacet
  facet normal 0 -1 0
    outer loop
      vertex 9.8 -80 1.16582
      vertex 29.9868 -80 0
      vertex 29.9868 -80 1.16582
    endloop
  endfacet
  facet normal 1 -0 0
    outer loop
      vertex 40 -65.0823 5
      vertex 40 -50 0
      vertex 40 -50 5
    endloop
  endfacet
  facet normal 1 -0 0
    outer loop
      vertex 40 -66.1779 3.49205
      vertex 40 -50 0
      vertex 40 -65.0823 5
    endloop
  endfacet
  facet normal 1 -0 0
    outer loop
      vertex 40 -68 2.9
      vertex 40 -50 0
      vertex 40 -66.1779 3.49205
    endloop
  endfacet
  facet normal 1 0 0
    outer loop
      vertex 40 -75 0
      vertex 40 -70.9177 5
      vertex 40 -75 5
    endloop
  endfacet
  facet normal 1 0 0
    outer loop
      vertex 40 -70.9177 5
      vertex 40 -75 0
      vertex 40 -69.8221 3.49205
    endloop
  endfacet
  facet normal 1 0 0
    outer loop
      vertex 40 -68 2.9
      vertex 40 -75 0
      vertex 40 -50 0
    endloop
  endfacet
  facet normal 1 0 0
    outer loop
      vertex 40 -69.8221 3.49205
      vertex 40 -75 0
      vertex 40 -68 2.9
    endloop
  endfacet
  facet normal 0 0 1
    outer loop
      vertex 40 -50 5
      vertex 38.35 -60 5
      vertex 40 -65.0823 5
    endloop
  endfacet
  facet normal 0 0 1
    outer loop
      vertex 40 -50 5
      vertex 37.8182 -58.1889 5
      vertex 38.35 -60 5
    endloop
  endfacet
  facet normal 0 0 1
    outer loop
      vertex 40 -50 5
      vertex 36.3916 -56.9527 5
      vertex 37.8182 -58.1889 5
    endloop
  endfacet
  facet normal -0 0 1
    outer loop
      vertex 35 -50 5
      vertex 36.3916 -56.9527 5
      vertex 40 -50 5
    endloop
  endfacet
  facet normal 0 0 1
    outer loop
      vertex 36.3916 -56.9527 5
      vertex 35 -50 5
      vertex 35 -56.7526 5
    endloop
  endfacet
  facet normal -0 0 1
    outer loop
      vertex 37.8182 -61.8111 5
      vertex 40 -65.0823 5
      vertex 38.35 -60 5
    endloop
  endfacet
  facet normal -0 0 1
    outer loop
      vertex 36.3916 -63.0473 5
      vertex 40 -65.0823 5
      vertex 37.8182 -61.8111 5
    endloop
  endfacet
  facet normal 0 0 1
    outer loop
      vertex 35 -65.0823 5
      vertex 36.3916 -63.0473 5
      vertex 35 -63.2474 5
    endloop
  endfacet
  facet normal 0 0 1
    outer loop
      vertex 36.3916 -63.0473 5
      vertex 35 -65.0823 5
      vertex 40 -65.0823 5
    endloop
  endfacet
  facet normal 0 0 1
    outer loop
      vertex 40 -70.9177 5
      vertex 35.7456 -75 5
      vertex 40 -75 5
    endloop
  endfacet
  facet normal -0 0 1
    outer loop
      vertex 35 -70.9177 5
      vertex 35.7456 -75 5
      vertex 40 -70.9177 5
    endloop
  endfacet
  facet normal 0 0 1
    outer loop
      vertex 35.7456 -75 5
      vertex 35 -70.9177 5
      vertex 35.4706 -74.9218 5
    endloop
  endfacet
  facet normal 0 0 1
    outer loop
      vertex 35.4706 -74.9218 5
      vertex 35 -70.9177 5
      vertex 35 -74.9654 5
    endloop
  endfacet
  facet normal 0 -1 0
    outer loop
      vertex 35.7456 -75 0
      vertex 40 -75 5
      vertex 35.7456 -75 5
    endloop
  endfacet
  facet normal 0 -1 -0
    outer loop
      vertex 40 -75 5
      vertex 35.7456 -75 0
      vertex 40 -75 0
    endloop
  endfacet
  facet normal 0.654874 0.755738 -0
    outer loop
      vertex 37.8182 -58.1889 5
      vertex 36.3916 -56.9527 8
      vertex 37.8182 -58.1889 8
    endloop
  endfacet
  facet normal 0.654874 0.755738 0
    outer loop
      vertex 36.3916 -56.9527 8
      vertex 37.8182 -58.1889 5
      vertex 36.3916 -56.9527 5
    endloop
  endfacet
  facet normal 0.959491 0.281739 0
    outer loop
      vertex 38.35 -60 8
      vertex 37.8182 -58.1889 5
      vertex 37.8182 -58.1889 8
    endloop
  endfacet
  facet normal 0.959491 0.281739 0
    outer loop
      vertex 37.8182 -58.1889 5
      vertex 38.35 -60 8
      vertex 38.35 -60 5
    endloop
  endfacet
  facet normal 0.142327 0.98982 -0
    outer loop
      vertex 36.3916 -56.9527 5
      vertex 35 -56.7526 8
      vertex 36.3916 -56.9527 8
    endloop
  endfacet
  facet normal 0.142327 0.98982 0
    outer loop
      vertex 35 -56.7526 8
      vertex 36.3916 -56.9527 5
      vertex 35 -56.7526 5
    endloop
  endfacet
  facet normal 0.654874 -0.755738 0
    outer loop
      vertex 36.3916 -63.0473 5
      vertex 37.8182 -61.8111 8
      vertex 36.3916 -63.0473 8
    endloop
  endfacet
  facet normal 0.654874 -0.755738 0
    outer loop
      vertex 37.8182 -61.8111 8
      vertex 36.3916 -63.0473 5
      vertex 37.8182 -61.8111 5
    endloop
  endfacet
  facet normal 0.142327 -0.98982 0
    outer loop
      vertex 35 -63.2474 5
      vertex 36.3916 -63.0473 8
      vertex 35 -63.2474 8
    endloop
  endfacet
  facet normal 0.142327 -0.98982 0
    outer loop
      vertex 36.3916 -63.0473 8
      vertex 35 -63.2474 5
      vertex 36.3916 -63.0473 5
    endloop
  endfacet
  facet normal 0.959491 -0.281739 0
    outer loop
      vertex 37.8182 -61.8111 8
      vertex 38.35 -60 5
      vertex 38.35 -60 8
    endloop
  endfacet
  facet normal 0.959491 -0.281739 0
    outer loop
      vertex 38.35 -60 5
      vertex 37.8182 -61.8111 8
      vertex 37.8182 -61.8111 5
    endloop
  endfacet
  facet normal 0 0 1
    outer loop
      vertex 35 -56.7526 8
      vertex 38.35 -60 8
      vertex 37.8182 -58.1889 8
    endloop
  endfacet
  facet normal 0 0 1
    outer loop
      vertex 35 -56.7526 8
      vertex 37.8182 -58.1889 8
      vertex 36.3916 -56.9527 8
    endloop
  endfacet
  facet normal 0 0 1
    outer loop
      vertex 35 -63.2474 8
      vertex 38.35 -60 8
      vertex 35 -56.7526 8
    endloop
  endfacet
  facet normal 0 0 1
    outer loop
      vertex 38.35 -60 8
      vertex 35 -63.2474 8
      vertex 37.8182 -61.8111 8
    endloop
  endfacet
  facet normal 0 0 1
    outer loop
      vertex 37.8182 -61.8111 8
      vertex 35 -63.2474 8
      vertex 36.3916 -63.0473 8
    endloop
  endfacet
  facet normal 1 0 0
    outer loop
      vertex 29.9868 -79.4809 0
      vertex 29.9868 -80 1.16582
      vertex 29.9868 -80 0
    endloop
  endfacet
  facet normal -0.27352 -0.961866 0
    outer loop
      vertex 35.4706 -74.9218 0
      vertex 35.7456 -75 5
      vertex 35.4706 -74.9218 5
    endloop
  endfacet
  facet normal -0.27352 -0.961866 -0
    outer loop
      vertex 35.7456 -75 5
      vertex 35.4706 -74.9218 0
      vertex 35.7456 -75 0
    endloop
  endfacet
  facet normal 0.739005 -0.6737 0
    outer loop
      vertex 30.6639 -77.3152 7.6848
      vertex 31.9266 -75.9301 0
      vertex 31.9266 -75.9301 9.06989
    endloop
  endfacet
  facet normal 0.739005 -0.6737 0
    outer loop
      vertex 31.9266 -75.9301 0
      vertex 30.6639 -77.3152 7.6848
      vertex 30.6639 -77.3152 0
    endloop
  endfacet
  facet normal 0.932471 -0.361246 0
    outer loop
      vertex 30 -79.0289 5.9711
      vertex 30.6639 -77.3152 0
      vertex 30.6639 -77.3152 7.6848
    endloop
  endfacet
  facet normal 0.932471 -0.361246 0
    outer loop
      vertex 30.6639 -77.3152 0
      vertex 30 -79.0289 5.9711
      vertex 30 -79.0289 0
    endloop
  endfacet
  facet normal 0.0922744 -0.995734 7.95829e-06
    outer loop
      vertex 35 -74.9654 5
      vertex 34.6262 -75 10
      vertex 33.6043 -75.0947 9.90531
    endloop
  endfacet
  facet normal 0.0921689 -0.995743 0
    outer loop
      vertex 34.6262 -75 10
      vertex 35 -74.9654 5
      vertex 35 -74.9654 10
    endloop
  endfacet
  facet normal 0.0922467 -0.995736 0
    outer loop
      vertex 33.6043 -75.0947 0
      vertex 35 -74.9654 5
      vertex 33.6043 -75.0947 9.90531
    endloop
  endfacet
  facet normal 0.0922482 -0.995736 -4.20425e-07
    outer loop
      vertex 35.4706 -74.9218 0
      vertex 35 -74.9654 5
      vertex 33.6043 -75.0947 0
    endloop
  endfacet
  facet normal 0.0922526 -0.995736 0
    outer loop
      vertex 35 -74.9654 5
      vertex 35.4706 -74.9218 0
      vertex 35.4706 -74.9218 5
    endloop
  endfacet
  facet normal 0.44574 -0.895162 0
    outer loop
      vertex 33.6043 -75.0947 0
      vertex 31.9266 -75.9301 9.06989
      vertex 31.9266 -75.9301 0
    endloop
  endfacet
  facet normal 0.44574 -0.895162 0
    outer loop
      vertex 31.9266 -75.9301 9.06989
      vertex 33.6043 -75.0947 0
      vertex 33.6043 -75.0947 9.90531
    endloop
  endfacet
  facet normal 0 0.809002 -0.587805
    outer loop
      vertex 9.8 -70.9483 6.95795
      vertex 0 -69.8221 8.50795
      vertex 9.8 -69.8221 8.50795
    endloop
  endfacet
  facet normal 0 0.809002 -0.587805
    outer loop
      vertex 0 -69.8221 8.50795
      vertex 9.8 -70.9483 6.95795
      vertex 0 -70.9483 6.95795
    endloop
  endfacet
  facet normal 0 0.809002 -0.587805
    outer loop
      vertex 35 -70.9483 6.95795
      vertex 30 -69.8221 8.50795
      vertex 35 -69.8221 8.50795
    endloop
  endfacet
  facet normal 0 0.809002 -0.587805
    outer loop
      vertex 30 -69.8221 8.50795
      vertex 35 -70.9483 6.95795
      vertex 30 -70.9483 6.95795
    endloop
  endfacet
  facet normal 0 0.309024 -0.951054
    outer loop
      vertex 0 -69.8221 8.50795
      vertex 9.8 -68 9.1
      vertex 9.8 -69.8221 8.50795
    endloop
  endfacet
  facet normal 0 0.309024 -0.951054
    outer loop
      vertex 9.8 -68 9.1
      vertex 0 -69.8221 8.50795
      vertex 0 -68 9.1
    endloop
  endfacet
  facet normal 0 0.309024 -0.951054
    outer loop
      vertex 30 -69.8221 8.50795
      vertex 35 -68 9.1
      vertex 35 -69.8221 8.50795
    endloop
  endfacet
  facet normal 0 0.309024 -0.951054
    outer loop
      vertex 35 -68 9.1
      vertex 30 -69.8221 8.50795
      vertex 30 -68 9.1
    endloop
  endfacet
  facet normal 0 -1 0
    outer loop
      vertex 0 -65.0517 5.04205
      vertex 9.8 -65.0517 6.95795
      vertex 0 -65.0517 6.95795
    endloop
  endfacet
  facet normal 0 -1 -0
    outer loop
      vertex 9.8 -65.0517 6.95795
      vertex 0 -65.0517 5.04205
      vertex 9.8 -65.0517 5.04205
    endloop
  endfacet
  facet normal 0 -1 0
    outer loop
      vertex 30 -65.0517 5.04205
      vertex 35 -65.0517 6.95795
      vertex 30 -65.0517 6.95795
    endloop
  endfacet
  facet normal 0 -1 -0
    outer loop
      vertex 35 -65.0517 6.95795
      vertex 30 -65.0517 5.04205
      vertex 35 -65.0517 5.04205
    endloop
  endfacet
  facet normal 0 -0.309024 0.951054
    outer loop
      vertex 30 -66.1779 3.49205
      vertex 40 -68 2.9
      vertex 40 -66.1779 3.49205
    endloop
  endfacet
  facet normal 0 -0.309024 0.951054
    outer loop
      vertex 40 -68 2.9
      vertex 30 -66.1779 3.49205
      vertex 30 -68 2.9
    endloop
  endfacet
  facet normal 0 -0.309024 0.951054
    outer loop
      vertex 0 -66.1779 3.49205
      vertex 9.8 -68 2.9
      vertex 9.8 -66.1779 3.49205
    endloop
  endfacet
  facet normal 0 -0.309024 0.951054
    outer loop
      vertex 9.8 -68 2.9
      vertex 0 -66.1779 3.49205
      vertex 0 -68 2.9
    endloop
  endfacet
  facet normal -0 0.309024 0.951054
    outer loop
      vertex 0 -68 2.9
      vertex 9.8 -69.8221 3.49205
      vertex 9.8 -68 2.9
    endloop
  endfacet
  facet normal 0 0.309024 0.951054
    outer loop
      vertex 9.8 -69.8221 3.49205
      vertex 0 -68 2.9
      vertex 0 -69.8221 3.49205
    endloop
  endfacet
  facet normal -0 0.309024 0.951054
    outer loop
      vertex 30 -68 2.9
      vertex 40 -69.8221 3.49205
      vertex 40 -68 2.9
    endloop
  endfacet
  facet normal 0 0.309024 0.951054
    outer loop
      vertex 40 -69.8221 3.49205
      vertex 30 -68 2.9
      vertex 30 -69.8221 3.49205
    endloop
  endfacet
  facet normal 0 -0.809002 -0.587805
    outer loop
      vertex 0 -65.0517 6.95795
      vertex 9.8 -66.1779 8.50795
      vertex 0 -66.1779 8.50795
    endloop
  endfacet
  facet normal 0 -0.809002 -0.587805
    outer loop
      vertex 9.8 -66.1779 8.50795
      vertex 0 -65.0517 6.95795
      vertex 9.8 -65.0517 6.95795
    endloop
  endfacet
  facet normal 0 -0.809002 -0.587805
    outer loop
      vertex 30 -65.0517 6.95795
      vertex 35 -66.1779 8.50795
      vertex 30 -66.1779 8.50795
    endloop
  endfacet
  facet normal 0 -0.809002 -0.587805
    outer loop
      vertex 35 -66.1779 8.50795
      vertex 30 -65.0517 6.95795
      vertex 35 -65.0517 6.95795
    endloop
  endfacet
  facet normal 0 -0.80857 0.5884
    outer loop
      vertex 30 -65.0517 5.04205
      vertex 35 -65.0823 5
      vertex 35 -65.0517 5.04205
    endloop
  endfacet
  facet normal -7.65055e-06 -0.809002 0.587805
    outer loop
      vertex 30 -66.1779 3.49205
      vertex 35 -65.0823 5
      vertex 30 -65.0517 5.04205
    endloop
  endfacet
  facet normal 0 -0.809014 0.587789
    outer loop
      vertex 40 -66.1779 3.49205
      vertex 35 -65.0823 5
      vertex 30 -66.1779 3.49205
    endloop
  endfacet
  facet normal 0 -0.809014 0.587789
    outer loop
      vertex 35 -65.0823 5
      vertex 40 -66.1779 3.49205
      vertex 40 -65.0823 5
    endloop
  endfacet
  facet normal 0 -0.809002 0.587805
    outer loop
      vertex 0 -66.1779 3.49205
      vertex 9.8 -65.0517 5.04205
      vertex 0 -65.0517 5.04205
    endloop
  endfacet
  facet normal 0 -0.809002 0.587805
    outer loop
      vertex 9.8 -65.0517 5.04205
      vertex 0 -66.1779 3.49205
      vertex 9.8 -66.1779 3.49205
    endloop
  endfacet
  facet normal 0 1 -0
    outer loop
      vertex 9.8 -70.9483 5.04205
      vertex 0 -70.9483 6.95795
      vertex 9.8 -70.9483 6.95795
    endloop
  endfacet
  facet normal 0 1 0
    outer loop
      vertex 0 -70.9483 6.95795
      vertex 9.8 -70.9483 5.04205
      vertex 0 -70.9483 5.04205
    endloop
  endfacet
  facet normal 0 1 -0
    outer loop
      vertex 35 -70.9483 5.04205
      vertex 30 -70.9483 6.95795
      vertex 35 -70.9483 6.95795
    endloop
  endfacet
  facet normal 0 1 0
    outer loop
      vertex 30 -70.9483 6.95795
      vertex 35 -70.9483 5.04205
      vertex 30 -70.9483 5.04205
    endloop
  endfacet
  facet normal 0 0.809002 0.587805
    outer loop
      vertex 9.8 -69.8221 3.49205
      vertex 0 -70.9483 5.04205
      vertex 9.8 -70.9483 5.04205
    endloop
  endfacet
  facet normal 0 0.809002 0.587805
    outer loop
      vertex 0 -70.9483 5.04205
      vertex 9.8 -69.8221 3.49205
      vertex 0 -69.8221 3.49205
    endloop
  endfacet
  facet normal 0 0.809014 0.587789
    outer loop
      vertex 40 -70.9177 5
      vertex 40 -69.8221 3.49205
      vertex 35 -70.9177 5
    endloop
  endfacet
  facet normal 0 0.80857 0.5884
    outer loop
      vertex 35 -70.9177 5
      vertex 30 -70.9483 5.04205
      vertex 35 -70.9483 5.04205
    endloop
  endfacet
  facet normal -0 0.809014 0.587789
    outer loop
      vertex 30 -69.8221 3.49205
      vertex 35 -70.9177 5
      vertex 40 -69.8221 3.49205
    endloop
  endfacet
  facet normal -7.65055e-06 0.809002 0.587805
    outer loop
      vertex 35 -70.9177 5
      vertex 30 -69.8221 3.49205
      vertex 30 -70.9483 5.04205
    endloop
  endfacet
  facet normal 0 -0.309024 -0.951054
    outer loop
      vertex 0 -68 9.1
      vertex 9.8 -66.1779 8.50795
      vertex 9.8 -68 9.1
    endloop
  endfacet
  facet normal -0 -0.309024 -0.951054
    outer loop
      vertex 9.8 -66.1779 8.50795
      vertex 0 -68 9.1
      vertex 0 -66.1779 8.50795
    endloop
  endfacet
  facet normal 0 -0.309024 -0.951054
    outer loop
      vertex 30 -68 9.1
      vertex 35 -66.1779 8.50795
      vertex 35 -68 9.1
    endloop
  endfacet
  facet normal -0 -0.309024 -0.951054
    outer loop
      vertex 35 -66.1779 8.50795
      vertex 30 -68 9.1
      vertex 30 -66.1779 8.50795
    endloop
  endfacet
  facet normal 0 -0.913544 0.40674
    outer loop
      vertex 9.8 -56.5191 0
      vertex 30 -55.6363 1.98278
      vertex 9.8 -55.6363 1.98278
    endloop
  endfacet
  facet normal 0 -0.913544 0.40674
    outer loop
      vertex 30 -55.6363 1.98278
      vertex 9.8 -56.5191 0
      vertex 30 -56.5191 0
    endloop
  endfacet
  facet normal -1 0 0
    outer loop
      vertex 30 -56.5191 0
      vertex 30 -66.1779 3.49205
      vertex 30 -65.0517 5.04205
    endloop
  endfacet
  facet normal -1 0 0
    outer loop
      vertex 30 -56.5191 0
      vertex 30 -68 2.9
      vertex 30 -66.1779 3.49205
    endloop
  endfacet
  facet normal -1 0 0
    outer loop
      vertex 30 -70.9483 5.04205
      vertex 30 -75 10
      vertex 30 -70.9483 6.95795
    endloop
  endfacet
  facet normal -1 0 0
    outer loop
      vertex 30 -79.0289 0
      vertex 30 -70.9483 5.04205
      vertex 30 -69.8221 3.49205
    endloop
  endfacet
  facet normal -1 0 0
    outer loop
      vertex 30 -79.0289 0
      vertex 30 -68 2.9
      vertex 30 -56.5191 0
    endloop
  endfacet
  facet normal -1 0 0
    outer loop
      vertex 30 -79.0289 0
      vertex 30 -69.8221 3.49205
      vertex 30 -68 2.9
    endloop
  endfacet
  facet normal -1 -0 0
    outer loop
      vertex 30 -70.9483 5.04205
      vertex 30 -79.0289 0
      vertex 30 -79.0289 5.9711
    endloop
  endfacet
  facet normal -1 0 0
    outer loop
      vertex 30 -70.9483 5.04205
      vertex 30 -79.0289 5.9711
      vertex 30 -75 10
    endloop
  endfacet
  facet normal -1 0 0
    outer loop
      vertex 30 -65.0517 6.95795
      vertex 30 -55.0712 7.35887
      vertex 30 -55.0712 4.64113
    endloop
  endfacet
  facet normal -1 0 0
    outer loop
      vertex 30 -65.0517 5.04205
      vertex 30 -55.0712 4.64113
      vertex 30 -55.6363 1.98278
    endloop
  endfacet
  facet normal -1 0 0
    outer loop
      vertex 30 -65.0517 5.04205
      vertex 30 -55.6363 1.98278
      vertex 30 -56.5191 0
    endloop
  endfacet
  facet normal -1 0 0
    outer loop
      vertex 30 -65.0517 6.95795
      vertex 30 -55.0712 4.64113
      vertex 30 -65.0517 5.04205
    endloop
  endfacet
  facet normal -1 -0 0
    outer loop
      vertex 30 -55.0712 7.35887
      vertex 30 -65.0517 6.95795
      vertex 30 -55.6326 10
    endloop
  endfacet
  facet normal -1 0 0
    outer loop
      vertex 30 -66.1779 8.50795
      vertex 30 -55.6326 10
      vertex 30 -65.0517 6.95795
    endloop
  endfacet
  facet normal -1 0 0
    outer loop
      vertex 30 -68 9.1
      vertex 30 -55.6326 10
      vertex 30 -66.1779 8.50795
    endloop
  endfacet
  facet normal -1 0 0
    outer loop
      vertex 30 -68 9.1
      vertex 30 -75 10
      vertex 30 -55.6326 10
    endloop
  endfacet
  facet normal -1 0 0
    outer loop
      vertex 30 -69.8221 8.50795
      vertex 30 -75 10
      vertex 30 -68 9.1
    endloop
  endfacet
  facet normal -1 0 0
    outer loop
      vertex 30 -75 10
      vertex 30 -69.8221 8.50795
      vertex 30 -70.9483 6.95795
    endloop
  endfacet
  facet normal 0 -0.978147 -0.207915
    outer loop
      vertex 9.8 -55.0712 7.35887
      vertex 30 -55.6326 10
      vertex 9.8 -55.6326 10
    endloop
  endfacet
  facet normal 0 -0.978147 -0.207915
    outer loop
      vertex 30 -55.6326 10
      vertex 9.8 -55.0712 7.35887
      vertex 30 -55.0712 7.35887
    endloop
  endfacet
  facet normal 1 0 0
    outer loop
      vertex 9.8 -65.0517 6.95795
      vertex 9.8 -55.0712 7.35887
      vertex 9.8 -55.6326 10
    endloop
  endfacet
  facet normal 1 0 0
    outer loop
      vertex 9.8 -55.0712 7.35887
      vertex 9.8 -65.0517 6.95795
      vertex 9.8 -55.0712 4.64113
    endloop
  endfacet
  facet normal 1 0 0
    outer loop
      vertex 9.8 -55.0712 4.64113
      vertex 9.8 -65.0517 5.04205
      vertex 9.8 -55.6363 1.98278
    endloop
  endfacet
  facet normal 1 0 0
    outer loop
      vertex 9.8 -55.0712 4.64113
      vertex 9.8 -65.0517 6.95795
      vertex 9.8 -65.0517 5.04205
    endloop
  endfacet
  facet normal 1 0 0
    outer loop
      vertex 9.8 -55.6326 10
      vertex 9.8 -66.1779 8.50795
      vertex 9.8 -65.0517 6.95795
    endloop
  endfacet
  facet normal 1 0 0
    outer loop
      vertex 9.8 -55.6326 10
      vertex 9.8 -68 9.1
      vertex 9.8 -66.1779 8.50795
    endloop
  endfacet
  facet normal 1 0 0
    outer loop
      vertex 9.8 -70.9483 6.95795
      vertex 9.8 -75 10
      vertex 9.8 -70.9483 5.04205
    endloop
  endfacet
  facet normal 1 0 0
    outer loop
      vertex 9.8 -69.8221 8.50795
      vertex 9.8 -75 10
      vertex 9.8 -70.9483 6.95795
    endloop
  endfacet
  facet normal 1 0 0
    outer loop
      vertex 9.8 -68 9.1
      vertex 9.8 -75 10
      vertex 9.8 -69.8221 8.50795
    endloop
  endfacet
  facet normal 1 -0 0
    outer loop
      vertex 9.8 -75 10
      vertex 9.8 -68 9.1
      vertex 9.8 -55.6326 10
    endloop
  endfacet
  facet normal 1 0 0
    outer loop
      vertex 9.8 -55.6363 1.98278
      vertex 9.8 -65.0517 5.04205
      vertex 9.8 -56.5191 0
    endloop
  endfacet
  facet normal 1 -0 0
    outer loop
      vertex 9.8 -66.1779 3.49205
      vertex 9.8 -56.5191 0
      vertex 9.8 -65.0517 5.04205
    endloop
  endfacet
  facet normal 1 -0 0
    outer loop
      vertex 9.8 -68 2.9
      vertex 9.8 -56.5191 0
      vertex 9.8 -66.1779 3.49205
    endloop
  endfacet
  facet normal 1 0 0
    outer loop
      vertex 9.8 -80 5
      vertex 9.8 -70.9483 5.04205
      vertex 9.8 -75 10
    endloop
  endfacet
  facet normal 1 0 0
    outer loop
      vertex 9.8 -68 2.9
      vertex 9.8 -79.4809 0
      vertex 9.8 -56.5191 0
    endloop
  endfacet
  facet normal 1 0 0
    outer loop
      vertex 9.8 -69.8221 3.49205
      vertex 9.8 -79.4809 0
      vertex 9.8 -68 2.9
    endloop
  endfacet
  facet normal 1 0 0
    outer loop
      vertex 9.8 -80 1.16582
      vertex 9.8 -70.9483 5.04205
      vertex 9.8 -80 5
    endloop
  endfacet
  facet normal 1 0 -0
    outer loop
      vertex 9.8 -79.4809 0
      vertex 9.8 -70.9483 5.04205
      vertex 9.8 -80 1.16582
    endloop
  endfacet
  facet normal 1 0 0
    outer loop
      vertex 9.8 -70.9483 5.04205
      vertex 9.8 -79.4809 0
      vertex 9.8 -69.8221 3.49205
    endloop
  endfacet
  facet normal 0 0.913533 0.406765
    outer loop
      vertex 29.9868 -79.4809 0
      vertex 9.8 -80 1.16582
      vertex 29.9868 -80 1.16582
    endloop
  endfacet
  facet normal 0 0.913533 0.406765
    outer loop
      vertex 9.8 -80 1.16582
      vertex 29.9868 -79.4809 0
      vertex 9.8 -79.4809 0
    endloop
  endfacet
  facet normal 0 -0.978144 0.207929
    outer loop
      vertex 9.8 -55.6363 1.98278
      vertex 30 -55.0712 4.64113
      vertex 9.8 -55.0712 4.64113
    endloop
  endfacet
  facet normal 0 -0.978144 0.207929
    outer loop
      vertex 30 -55.0712 4.64113
      vertex 9.8 -55.6363 1.98278
      vertex 30 -55.6363 1.98278
    endloop
  endfacet
  facet normal 0 -1 0
    outer loop
      vertex 9.8 -55.0712 4.64113
      vertex 30 -55.0712 7.35887
      vertex 9.8 -55.0712 7.35887
    endloop
  endfacet
  facet normal 0 -1 -0
    outer loop
      vertex 30 -55.0712 7.35887
      vertex 9.8 -55.0712 4.64113
      vertex 30 -55.0712 4.64113
    endloop
  endfacet
  facet normal -0.707107 0.707107 0
    outer loop
      vertex 0 -60 0
      vertex 10 -50 5
      vertex 10 -50 0
    endloop
  endfacet
  facet normal -0.707107 0.707107 0
    outer loop
      vertex 10 -50 5
      vertex 0 -60 0
      vertex 5 -55 10
    endloop
  endfacet
  facet normal -0.707107 0.707107 0
    outer loop
      vertex 5 -55 10
      vertex 0 -60 0
      vertex 0 -60 10
    endloop
  endfacet
  facet normal -0 0.707107 0.707107
    outer loop
      vertex 10 -50 5
      vertex 35 -55 10
      vertex 35 -50 5
    endloop
  endfacet
  facet normal 0 0.707107 0.707107
    outer loop
      vertex 35 -55 10
      vertex 10 -50 5
      vertex 5 -55 10
    endloop
  endfacet
  facet normal 0 -0.707107 0.707107
    outer loop
      vertex 0 -80 5
      vertex 9.8 -75 10
      vertex 0 -75 10
    endloop
  endfacet
  facet normal 0 -0.707107 0.707107
    outer loop
      vertex 9.8 -75 10
      vertex 0 -80 5
      vertex 9.8 -80 5
    endloop
  endfacet
  facet normal 0 -0.707069 0.707144
    outer loop
      vertex 30 -75 10
      vertex 33.6043 -75.0947 9.90531
      vertex 34.6262 -75 10
    endloop
  endfacet
  facet normal -2.28598e-06 -0.707113 0.707101
    outer loop
      vertex 30 -75 10
      vertex 31.9266 -75.9301 9.06989
      vertex 33.6043 -75.0947 9.90531
    endloop
  endfacet
  facet normal 4.25997e-06 -0.707106 0.707107
    outer loop
      vertex 30 -75 10
      vertex 30.6639 -77.3152 7.6848
      vertex 31.9266 -75.9301 9.06989
    endloop
  endfacet
  facet normal -9.03976e-15 -0.707107 0.707107
    outer loop
      vertex 30.6639 -77.3152 7.6848
      vertex 30 -75 10
      vertex 30 -79.0289 5.9711
    endloop
  endfacet
  facet normal -0.382684 -0.923879 0
    outer loop
      vertex 5 -73.65 0
      vertex 6.6617 -74.3383 6
      vertex 5 -73.65 6
    endloop
  endfacet
  facet normal -0.382684 -0.923879 -0
    outer loop
      vertex 6.6617 -74.3383 6
      vertex 5 -73.65 0
      vertex 6.6617 -74.3383 0
    endloop
  endfacet
  facet normal -0.923879 -0.382684 0
    outer loop
      vertex 7.35 -76 0
      vertex 6.6617 -74.3383 6
      vertex 6.6617 -74.3383 0
    endloop
  endfacet
  facet normal -0.923879 -0.382684 0
    outer loop
      vertex 6.6617 -74.3383 6
      vertex 7.35 -76 0
      vertex 7.35 -76 6
    endloop
  endfacet
  facet normal 0.382684 -0.923879 0
    outer loop
      vertex 3.3383 -74.3383 0
      vertex 5 -73.65 6
      vertex 3.3383 -74.3383 6
    endloop
  endfacet
  facet normal 0.382684 -0.923879 0
    outer loop
      vertex 5 -73.65 6
      vertex 3.3383 -74.3383 0
      vertex 5 -73.65 0
    endloop
  endfacet
  facet normal 0.923879 -0.382684 0
    outer loop
      vertex 2.65 -76 6
      vertex 3.3383 -74.3383 0
      vertex 3.3383 -74.3383 6
    endloop
  endfacet
  facet normal 0.923879 -0.382684 0
    outer loop
      vertex 3.3383 -74.3383 0
      vertex 2.65 -76 6
      vertex 2.65 -76 0
    endloop
  endfacet
  facet normal 0.382684 0.923879 -0
    outer loop
      vertex 5 -78.35 0
      vertex 3.3383 -77.6617 6
      vertex 5 -78.35 6
    endloop
  endfacet
  facet normal 0.382684 0.923879 0
    outer loop
      vertex 3.3383 -77.6617 6
      vertex 5 -78.35 0
      vertex 3.3383 -77.6617 0
    endloop
  endfacet
  facet normal -0.382684 0.923879 0
    outer loop
      vertex 6.6617 -77.6617 0
      vertex 5 -78.35 6
      vertex 6.6617 -77.6617 6
    endloop
  endfacet
  facet normal -0.382684 0.923879 0
    outer loop
      vertex 5 -78.35 6
      vertex 6.6617 -77.6617 0
      vertex 5 -78.35 0
    endloop
  endfacet
  facet normal -0.923879 0.382684 0
    outer loop
      vertex 6.6617 -77.6617 0
      vertex 7.35 -76 6
      vertex 7.35 -76 0
    endloop
  endfacet
  facet normal -0.923879 0.382684 0
    outer loop
      vertex 7.35 -76 6
      vertex 6.6617 -77.6617 0
      vertex 6.6617 -77.6617 6
    endloop
  endfacet
  facet normal 0.923879 0.382684 0
    outer loop
      vertex 3.3383 -77.6617 6
      vertex 2.65 -76 0
      vertex 2.65 -76 6
    endloop
  endfacet
  facet normal 0.923879 0.382684 0
    outer loop
      vertex 2.65 -76 0
      vertex 3.3383 -77.6617 6
      vertex 3.3383 -77.6617 0
    endloop
  endfacet
  facet normal 0 0 -1
    outer loop
      vertex 6.6617 -77.6617 6
      vertex 6.6617 -74.3383 6
      vertex 7.35 -76 6
    endloop
  endfacet
  facet normal 0 0 -1
    outer loop
      vertex 5 -78.35 6
      vertex 6.6617 -74.3383 6
      vertex 6.6617 -77.6617 6
    endloop
  endfacet
  facet normal 0 0 -1
    outer loop
      vertex 5 -78.35 6
      vertex 5 -73.65 6
      vertex 6.6617 -74.3383 6
    endloop
  endfacet
  facet normal 0 0 -1
    outer loop
      vertex 3.3383 -77.6617 6
      vertex 5 -73.65 6
      vertex 5 -78.35 6
    endloop
  endfacet
  facet normal 0 0 -1
    outer loop
      vertex 3.3383 -77.6617 6
      vertex 3.3383 -74.3383 6
      vertex 5 -73.65 6
    endloop
  endfacet
  facet normal 0 -0 -1
    outer loop
      vertex 3.3383 -74.3383 6
      vertex 3.3383 -77.6617 6
      vertex 2.65 -76 6
    endloop
  endfacet
  facet normal -0.382684 -0.923879 0
    outer loop
      vertex 35 -57.65 0
      vertex 36.6617 -58.3383 6
      vertex 35 -57.65 6
    endloop
  endfacet
  facet normal -0.382684 -0.923879 -0
    outer loop
      vertex 36.6617 -58.3383 6
      vertex 35 -57.65 0
      vertex 36.6617 -58.3383 0
    endloop
  endfacet
  facet normal -0.923879 -0.382684 0
    outer loop
      vertex 37.35 -60 0
      vertex 36.6617 -58.3383 6
      vertex 36.6617 -58.3383 0
    endloop
  endfacet
  facet normal -0.923879 -0.382684 0
    outer loop
      vertex 36.6617 -58.3383 6
      vertex 37.35 -60 0
      vertex 37.35 -60 6
    endloop
  endfacet
  facet normal 0.382684 -0.923879 0
    outer loop
      vertex 33.3383 -58.3383 0
      vertex 35 -57.65 6
      vertex 33.3383 -58.3383 6
    endloop
  endfacet
  facet normal 0.382684 -0.923879 0
    outer loop
      vertex 35 -57.65 6
      vertex 33.3383 -58.3383 0
      vertex 35 -57.65 0
    endloop
  endfacet
  facet normal 0.923879 -0.382684 0
    outer loop
      vertex 32.65 -60 6
      vertex 33.3383 -58.3383 0
      vertex 33.3383 -58.3383 6
    endloop
  endfacet
  facet normal 0.923879 -0.382684 0
    outer loop
      vertex 33.3383 -58.3383 0
      vertex 32.65 -60 6
      vertex 32.65 -60 0
    endloop
  endfacet
  facet normal 0.382684 0.923879 -0
    outer loop
      vertex 35 -62.35 0
      vertex 33.3383 -61.6617 6
      vertex 35 -62.35 6
    endloop
  endfacet
  facet normal 0.382684 0.923879 0
    outer loop
      vertex 33.3383 -61.6617 6
      vertex 35 -62.35 0
      vertex 33.3383 -61.6617 0
    endloop
  endfacet
  facet normal -0.382684 0.923879 0
    outer loop
      vertex 36.6617 -61.6617 0
      vertex 35 -62.35 6
      vertex 36.6617 -61.6617 6
    endloop
  endfacet
  facet normal -0.382684 0.923879 0
    outer loop
      vertex 35 -62.35 6
      vertex 36.6617 -61.6617 0
      vertex 35 -62.35 0
    endloop
  endfacet
  facet normal -0.923879 0.382684 0
    outer loop
      vertex 36.6617 -61.6617 0
      vertex 37.35 -60 6
      vertex 37.35 -60 0
    endloop
  endfacet
  facet normal -0.923879 0.382684 0
    outer loop
      vertex 37.35 -60 6
      vertex 36.6617 -61.6617 0
      vertex 36.6617 -61.6617 6
    endloop
  endfacet
  facet normal 0.923879 0.382684 0
    outer loop
      vertex 33.3383 -61.6617 6
      vertex 32.65 -60 0
      vertex 32.65 -60 6
    endloop
  endfacet
  facet normal 0.923879 0.382684 0
    outer loop
      vertex 32.65 -60 0
      vertex 33.3383 -61.6617 6
      vertex 33.3383 -61.6617 0
    endloop
  endfacet
  facet normal 0 0 -1
    outer loop
      vertex 36.6617 -61.6617 6
      vertex 36.6617 -58.3383 6
      vertex 37.35 -60 6
    endloop
  endfacet
  facet normal 0 0 -1
    outer loop
      vertex 35 -62.35 6
      vertex 36.6617 -58.3383 6
      vertex 36.6617 -61.6617 6
    endloop
  endfacet
  facet normal 0 0 -1
    outer loop
      vertex 35 -62.35 6
      vertex 35 -57.65 6
      vertex 36.6617 -58.3383 6
    endloop
  endfacet
  facet normal 0 0 -1
    outer loop
      vertex 33.3383 -61.6617 6
      vertex 35 -57.65 6
      vertex 35 -62.35 6
    endloop
  endfacet
  facet normal 0 0 -1
    outer loop
      vertex 33.3383 -61.6617 6
      vertex 33.3383 -58.3383 6
      vertex 35 -57.65 6
    endloop
  endfacet
  facet normal 0 -0 -1
    outer loop
      vertex 33.3383 -58.3383 6
      vertex 33.3383 -61.6617 6
      vertex 32.65 -60 6
    endloop
  endfacet
endsolid OpenSCAD_Model
