solid OpenSCAD_Model
  facet normal 0.705161 0.0741316 -0.705161
    outer loop
      vertex 10.5 0 0
      vertex 10.2705 2.18307 0
      vertex 12 0 1.5
    endloop
  endfacet
  facet normal -0.416765 0.573631 -0.705163
    outer loop
      vertex -7.02587 7.80302 0
      vertex -8.02957 8.91774 1.5
      vertex -6 10.3923 1.5
    endloop
  endfacet
  facet normal -0.288402 0.647745 -0.705161
    outer loop
      vertex -5.25 9.09327 0
      vertex -6 10.3923 1.5
      vertex -3.7082 11.4127 1.5
    endloop
  endfacet
  facet normal -0.614064 0.354519 -0.705153
    outer loop
      vertex -9.59223 4.27073 0
      vertex -10.9625 4.88084 1.5
      vertex -9.7082 7.05342 1.5
    endloop
  endfacet
  facet normal 0.416769 0.573631 -0.70516
    outer loop
      vertex 7.02587 7.80302 0
      vertex 5.25 9.09327 0
      vertex 6 10.3923 1.5
    endloop
  endfacet
  facet normal 0.614053 -0.354524 -0.705161
    outer loop
      vertex 9.7082 -7.05342 1.5
      vertex 8.49468 -6.17174 0
      vertex 9.59223 -4.27073 0
    endloop
  endfacet
  facet normal -0.674359 0.219096 -0.705151
    outer loop
      vertex -10.2705 2.18307 0
      vertex -10.9625 4.88084 1.5
      vertex -9.59223 4.27073 0
    endloop
  endfacet
  facet normal -0.674321 0.219121 -0.705179
    outer loop
      vertex -10.2705 2.18307 0
      vertex -11.7378 2.49494 1.5
      vertex -10.9625 4.88084 1.5
    endloop
  endfacet
  facet normal 0.147423 0.693547 -0.705166
    outer loop
      vertex 3.7082 11.4127 1.5
      vertex 1.09755 10.4425 0
      vertex 1.25434 11.9343 1.5
    endloop
  endfacet
  facet normal 0.526925 -0.474442 -0.705163
    outer loop
      vertex 8.02957 -8.91774 1.5
      vertex 7.02587 -7.80302 0
      vertex 9.7082 -7.05342 1.5
    endloop
  endfacet
  facet normal 0.147425 0.693545 -0.705168
    outer loop
      vertex 3.24468 9.98609 0
      vertex 1.09755 10.4425 0
      vertex 3.7082 11.4127 1.5
    endloop
  endfacet
  facet normal -0.614053 -0.354524 -0.705161
    outer loop
      vertex -8.49468 -6.17174 0
      vertex -9.7082 -7.05342 1.5
      vertex -9.59223 -4.27073 0
    endloop
  endfacet
  facet normal 0.674321 0.219121 -0.705179
    outer loop
      vertex 11.7378 2.49494 1.5
      vertex 10.2705 2.18307 0
      vertex 10.9625 4.88084 1.5
    endloop
  endfacet
  facet normal 0.614064 -0.354519 -0.705153
    outer loop
      vertex 9.7082 -7.05342 1.5
      vertex 9.59223 -4.27073 0
      vertex 10.9625 -4.88084 1.5
    endloop
  endfacet
  facet normal -0.526925 -0.474445 -0.705161
    outer loop
      vertex -7.02587 -7.80302 0
      vertex -9.7082 -7.05342 1.5
      vertex -8.49468 -6.17174 0
    endloop
  endfacet
  facet normal 0.526925 0.474442 -0.705163
    outer loop
      vertex 9.7082 7.05342 1.5
      vertex 7.02587 7.80302 0
      vertex 8.02957 8.91774 1.5
    endloop
  endfacet
  facet normal -0.705145 -0.0741056 -0.70518
    outer loop
      vertex -11.7378 -2.49494 1.5
      vertex -12 0 1.5
      vertex -10.2705 -2.18307 0
    endloop
  endfacet
  facet normal -0.147425 0.693545 -0.705168
    outer loop
      vertex -3.24468 9.98609 0
      vertex -3.7082 11.4127 1.5
      vertex -1.09755 10.4425 0
    endloop
  endfacet
  facet normal 0.614053 0.354524 -0.705161
    outer loop
      vertex 9.59223 4.27073 0
      vertex 8.49468 6.17174 0
      vertex 9.7082 7.05342 1.5
    endloop
  endfacet
  facet normal -0.288402 -0.647745 -0.705161
    outer loop
      vertex -3.7082 -11.4127 1.5
      vertex -6 -10.3923 1.5
      vertex -5.25 -9.09327 0
    endloop
  endfacet
  facet normal 0.526925 0.474445 -0.705161
    outer loop
      vertex 8.49468 6.17174 0
      vertex 7.02587 7.80302 0
      vertex 9.7082 7.05342 1.5
    endloop
  endfacet
  facet normal -0.288391 0.647742 -0.705167
    outer loop
      vertex -3.24468 9.98609 0
      vertex -5.25 9.09327 0
      vertex -3.7082 11.4127 1.5
    endloop
  endfacet
  facet normal 0.705145 -0.0741056 -0.70518
    outer loop
      vertex 11.7378 -2.49494 1.5
      vertex 10.2705 -2.18307 0
      vertex 12 0 1.5
    endloop
  endfacet
  facet normal 0.288402 0.647745 -0.705161
    outer loop
      vertex 5.25 9.09327 0
      vertex 3.7082 11.4127 1.5
      vertex 6 10.3923 1.5
    endloop
  endfacet
  facet normal 0.705145 0.0741056 -0.70518
    outer loop
      vertex 12 0 1.5
      vertex 10.2705 2.18307 0
      vertex 11.7378 2.49494 1.5
    endloop
  endfacet
  facet normal 0.705161 -0.0741316 -0.705161
    outer loop
      vertex 12 0 1.5
      vertex 10.2705 -2.18307 0
      vertex 10.5 0 0
    endloop
  endfacet
  facet normal 0.674321 -0.219121 -0.705179
    outer loop
      vertex 10.9625 -4.88084 1.5
      vertex 10.2705 -2.18307 0
      vertex 11.7378 -2.49494 1.5
    endloop
  endfacet
  facet normal -0.614064 -0.354519 -0.705153
    outer loop
      vertex -9.7082 -7.05342 1.5
      vertex -10.9625 -4.88084 1.5
      vertex -9.59223 -4.27073 0
    endloop
  endfacet
  facet normal -0.416769 -0.573631 -0.70516
    outer loop
      vertex -6 -10.3923 1.5
      vertex -7.02587 -7.80302 0
      vertex -5.25 -9.09327 0
    endloop
  endfacet
  facet normal -0.705161 -0.0741316 -0.705161
    outer loop
      vertex -10.2705 -2.18307 0
      vertex -12 0 1.5
      vertex -10.5 0 0
    endloop
  endfacet
  facet normal 0.674359 0.219096 -0.705151
    outer loop
      vertex 10.2705 2.18307 0
      vertex 9.59223 4.27073 0
      vertex 10.9625 4.88084 1.5
    endloop
  endfacet
  facet normal 0.416765 -0.573631 -0.705163
    outer loop
      vertex 8.02957 -8.91774 1.5
      vertex 6 -10.3923 1.5
      vertex 7.02587 -7.80302 0
    endloop
  endfacet
  facet normal 0 0.709042 -0.705166
    outer loop
      vertex 1.09755 10.4425 0
      vertex -1.25434 11.9343 1.5
      vertex 1.25434 11.9343 1.5
    endloop
  endfacet
  facet normal 0 0.709042 -0.705166
    outer loop
      vertex -1.25434 11.9343 1.5
      vertex 1.09755 10.4425 0
      vertex -1.09755 10.4425 0
    endloop
  endfacet
  facet normal -0.526925 0.474442 -0.705163
    outer loop
      vertex -7.02587 7.80302 0
      vertex -9.7082 7.05342 1.5
      vertex -8.02957 8.91774 1.5
    endloop
  endfacet
  facet normal -0.705145 0.0741056 -0.70518
    outer loop
      vertex -10.2705 2.18307 0
      vertex -12 0 1.5
      vertex -11.7378 2.49494 1.5
    endloop
  endfacet
  facet normal 0.288391 0.647742 -0.705167
    outer loop
      vertex 5.25 9.09327 0
      vertex 3.24468 9.98609 0
      vertex 3.7082 11.4127 1.5
    endloop
  endfacet
  facet normal 0.526925 -0.474445 -0.705161
    outer loop
      vertex 9.7082 -7.05342 1.5
      vertex 7.02587 -7.80302 0
      vertex 8.49468 -6.17174 0
    endloop
  endfacet
  facet normal 0.674359 -0.219096 -0.705151
    outer loop
      vertex 10.9625 -4.88084 1.5
      vertex 9.59223 -4.27073 0
      vertex 10.2705 -2.18307 0
    endloop
  endfacet
  facet normal -0.416765 -0.573631 -0.705163
    outer loop
      vertex -6 -10.3923 1.5
      vertex -8.02957 -8.91774 1.5
      vertex -7.02587 -7.80302 0
    endloop
  endfacet
  facet normal -0.526925 -0.474442 -0.705163
    outer loop
      vertex -8.02957 -8.91774 1.5
      vertex -9.7082 -7.05342 1.5
      vertex -7.02587 -7.80302 0
    endloop
  endfacet
  facet normal 0 -0.709042 -0.705166
    outer loop
      vertex -1.09755 -10.4425 0
      vertex 1.25434 -11.9343 1.5
      vertex -1.25434 -11.9343 1.5
    endloop
  endfacet
  facet normal 0 -0.709042 -0.705166
    outer loop
      vertex 1.25434 -11.9343 1.5
      vertex -1.09755 -10.4425 0
      vertex 1.09755 -10.4425 0
    endloop
  endfacet
  facet normal 0.416765 0.573631 -0.705163
    outer loop
      vertex 7.02587 7.80302 0
      vertex 6 10.3923 1.5
      vertex 8.02957 8.91774 1.5
    endloop
  endfacet
  facet normal 0.288391 -0.647742 -0.705167
    outer loop
      vertex 3.7082 -11.4127 1.5
      vertex 3.24468 -9.98609 0
      vertex 5.25 -9.09327 0
    endloop
  endfacet
  facet normal 0.288402 -0.647745 -0.705161
    outer loop
      vertex 6 -10.3923 1.5
      vertex 3.7082 -11.4127 1.5
      vertex 5.25 -9.09327 0
    endloop
  endfacet
  facet normal -0.416769 0.573631 -0.70516
    outer loop
      vertex -5.25 9.09327 0
      vertex -7.02587 7.80302 0
      vertex -6 10.3923 1.5
    endloop
  endfacet
  facet normal -0.674359 -0.219096 -0.705151
    outer loop
      vertex -9.59223 -4.27073 0
      vertex -10.9625 -4.88084 1.5
      vertex -10.2705 -2.18307 0
    endloop
  endfacet
  facet normal -0.674321 -0.219121 -0.705179
    outer loop
      vertex -10.9625 -4.88084 1.5
      vertex -11.7378 -2.49494 1.5
      vertex -10.2705 -2.18307 0
    endloop
  endfacet
  facet normal -0.705161 0.0741316 -0.705161
    outer loop
      vertex -10.5 0 0
      vertex -12 0 1.5
      vertex -10.2705 2.18307 0
    endloop
  endfacet
  facet normal -0.614053 0.354524 -0.705161
    outer loop
      vertex -9.59223 4.27073 0
      vertex -9.7082 7.05342 1.5
      vertex -8.49468 6.17174 0
    endloop
  endfacet
  facet normal -0.526925 0.474445 -0.705161
    outer loop
      vertex -8.49468 6.17174 0
      vertex -9.7082 7.05342 1.5
      vertex -7.02587 7.80302 0
    endloop
  endfacet
  facet normal 0.614064 0.354519 -0.705153
    outer loop
      vertex 10.9625 4.88084 1.5
      vertex 9.59223 4.27073 0
      vertex 9.7082 7.05342 1.5
    endloop
  endfacet
  facet normal 0.147425 -0.693545 -0.705168
    outer loop
      vertex 3.7082 -11.4127 1.5
      vertex 1.09755 -10.4425 0
      vertex 3.24468 -9.98609 0
    endloop
  endfacet
  facet normal -0.147423 0.693547 -0.705166
    outer loop
      vertex -1.09755 10.4425 0
      vertex -3.7082 11.4127 1.5
      vertex -1.25434 11.9343 1.5
    endloop
  endfacet
  facet normal -0.147423 -0.693547 -0.705166
    outer loop
      vertex -1.25434 -11.9343 1.5
      vertex -3.7082 -11.4127 1.5
      vertex -1.09755 -10.4425 0
    endloop
  endfacet
  facet normal -0.147425 -0.693545 -0.705168
    outer loop
      vertex -1.09755 -10.4425 0
      vertex -3.7082 -11.4127 1.5
      vertex -3.24468 -9.98609 0
    endloop
  endfacet
  facet normal 0.416769 -0.573631 -0.70516
    outer loop
      vertex 6 -10.3923 1.5
      vertex 5.25 -9.09327 0
      vertex 7.02587 -7.80302 0
    endloop
  endfacet
  facet normal 0.147423 -0.693547 -0.705166
    outer loop
      vertex 1.25434 -11.9343 1.5
      vertex 1.09755 -10.4425 0
      vertex 3.7082 -11.4127 1.5
    endloop
  endfacet
  facet normal -0.288391 -0.647742 -0.705167
    outer loop
      vertex -3.7082 -11.4127 1.5
      vertex -5.25 -9.09327 0
      vertex -3.24468 -9.98609 0
    endloop
  endfacet
  facet normal 0 0 -1
    outer loop
      vertex 3.1 0 0
      vertex 10.5 0 0
      vertex 10.2705 -2.18307 0
    endloop
  endfacet
  facet normal 0 0 -1
    outer loop
      vertex 3.1 0 0
      vertex 10.2705 -2.18307 0
      vertex 9.59223 -4.27073 0
    endloop
  endfacet
  facet normal 0 0 -1
    outer loop
      vertex 10.5 0 0
      vertex 3.1 0 0
      vertex 10.2705 2.18307 0
    endloop
  endfacet
  facet normal 0 0 -1
    outer loop
      vertex 2.50795 -1.82213 0
      vertex 9.59223 -4.27073 0
      vertex 8.49468 -6.17174 0
    endloop
  endfacet
  facet normal -0 0 -1
    outer loop
      vertex 10.2705 2.18307 0
      vertex 3.1 0 0
      vertex 9.59223 4.27073 0
    endloop
  endfacet
  facet normal 0 0 -1
    outer loop
      vertex 2.50795 -1.82213 0
      vertex 8.49468 -6.17174 0
      vertex 7.02587 -7.80302 0
    endloop
  endfacet
  facet normal 0 0 -1
    outer loop
      vertex 2.50795 1.82213 0
      vertex 9.59223 4.27073 0
      vertex 3.1 0 0
    endloop
  endfacet
  facet normal 0 0 -1
    outer loop
      vertex 2.50795 -1.82213 0
      vertex 7.02587 -7.80302 0
      vertex 5.25 -9.09327 0
    endloop
  endfacet
  facet normal -0 0 -1
    outer loop
      vertex 9.59223 4.27073 0
      vertex 2.50795 1.82213 0
      vertex 8.49468 6.17174 0
    endloop
  endfacet
  facet normal 0 0 -1
    outer loop
      vertex 0.957952 -2.94827 0
      vertex 5.25 -9.09327 0
      vertex 3.24468 -9.98609 0
    endloop
  endfacet
  facet normal -0 0 -1
    outer loop
      vertex 8.49468 6.17174 0
      vertex 2.50795 1.82213 0
      vertex 7.02587 7.80302 0
    endloop
  endfacet
  facet normal -0 0 -1
    outer loop
      vertex 7.02587 7.80302 0
      vertex 2.50795 1.82213 0
      vertex 5.25 9.09327 0
    endloop
  endfacet
  facet normal 0 0 -1
    outer loop
      vertex 9.59223 -4.27073 0
      vertex 2.50795 -1.82213 0
      vertex 3.1 0 0
    endloop
  endfacet
  facet normal 0 0 -1
    outer loop
      vertex 0.957952 -2.94827 0
      vertex 3.24468 -9.98609 0
      vertex 1.09755 -10.4425 0
    endloop
  endfacet
  facet normal 0 0 -1
    outer loop
      vertex 5.25 -9.09327 0
      vertex 0.957952 -2.94827 0
      vertex 2.50795 -1.82213 0
    endloop
  endfacet
  facet normal 0 0 -1
    outer loop
      vertex 1.09755 -10.4425 0
      vertex -0.957952 -2.94827 0
      vertex 0.957952 -2.94827 0
    endloop
  endfacet
  facet normal 0 0 -1
    outer loop
      vertex -1.09755 -10.4425 0
      vertex -0.957952 -2.94827 0
      vertex 1.09755 -10.4425 0
    endloop
  endfacet
  facet normal 0 0 -1
    outer loop
      vertex -3.24468 -9.98609 0
      vertex -0.957952 -2.94827 0
      vertex -1.09755 -10.4425 0
    endloop
  endfacet
  facet normal 0 0 -1
    outer loop
      vertex -5.25 -9.09327 0
      vertex -0.957952 -2.94827 0
      vertex -3.24468 -9.98609 0
    endloop
  endfacet
  facet normal -0 0 -1
    outer loop
      vertex -0.957952 -2.94827 0
      vertex -5.25 -9.09327 0
      vertex -2.50795 -1.82213 0
    endloop
  endfacet
  facet normal 0 0 -1
    outer loop
      vertex 0.957952 2.94827 0
      vertex 5.25 9.09327 0
      vertex 2.50795 1.82213 0
    endloop
  endfacet
  facet normal -0 0 -1
    outer loop
      vertex 5.25 9.09327 0
      vertex 0.957952 2.94827 0
      vertex 3.24468 9.98609 0
    endloop
  endfacet
  facet normal -0 0 -1
    outer loop
      vertex 3.24468 9.98609 0
      vertex 0.957952 2.94827 0
      vertex 1.09755 10.4425 0
    endloop
  endfacet
  facet normal 0 0 -1
    outer loop
      vertex -0.957952 2.94827 0
      vertex 1.09755 10.4425 0
      vertex 0.957952 2.94827 0
    endloop
  endfacet
  facet normal 0 0 -1
    outer loop
      vertex -0.957952 2.94827 0
      vertex -1.09755 10.4425 0
      vertex 1.09755 10.4425 0
    endloop
  endfacet
  facet normal 0 0 -1
    outer loop
      vertex -5.25 9.09327 0
      vertex -0.957952 2.94827 0
      vertex -2.50795 1.82213 0
    endloop
  endfacet
  facet normal 0 0 -1
    outer loop
      vertex -9.59223 4.27073 0
      vertex -2.50795 1.82213 0
      vertex -3.1 0 0
    endloop
  endfacet
  facet normal 0 0 -1
    outer loop
      vertex -0.957952 2.94827 0
      vertex -3.24468 9.98609 0
      vertex -1.09755 10.4425 0
    endloop
  endfacet
  facet normal 0 0 -1
    outer loop
      vertex -7.02587 -7.80302 0
      vertex -2.50795 -1.82213 0
      vertex -5.25 -9.09327 0
    endloop
  endfacet
  facet normal 0 0 -1
    outer loop
      vertex -8.49468 -6.17174 0
      vertex -2.50795 -1.82213 0
      vertex -7.02587 -7.80302 0
    endloop
  endfacet
  facet normal 0 0 -1
    outer loop
      vertex -0.957952 2.94827 0
      vertex -5.25 9.09327 0
      vertex -3.24468 9.98609 0
    endloop
  endfacet
  facet normal 0 0 -1
    outer loop
      vertex -9.59223 -4.27073 0
      vertex -2.50795 -1.82213 0
      vertex -8.49468 -6.17174 0
    endloop
  endfacet
  facet normal 0 0 -1
    outer loop
      vertex -2.50795 1.82213 0
      vertex -7.02587 7.80302 0
      vertex -5.25 9.09327 0
    endloop
  endfacet
  facet normal -0 0 -1
    outer loop
      vertex -2.50795 -1.82213 0
      vertex -9.59223 -4.27073 0
      vertex -3.1 0 0
    endloop
  endfacet
  facet normal 0 0 -1
    outer loop
      vertex -2.50795 1.82213 0
      vertex -8.49468 6.17174 0
      vertex -7.02587 7.80302 0
    endloop
  endfacet
  facet normal 0 0 -1
    outer loop
      vertex -10.2705 -2.18307 0
      vertex -3.1 0 0
      vertex -9.59223 -4.27073 0
    endloop
  endfacet
  facet normal 0 0 -1
    outer loop
      vertex -2.50795 1.82213 0
      vertex -9.59223 4.27073 0
      vertex -8.49468 6.17174 0
    endloop
  endfacet
  facet normal 0 0 -1
    outer loop
      vertex -10.5 0 0
      vertex -3.1 0 0
      vertex -10.2705 -2.18307 0
    endloop
  endfacet
  facet normal 0 0 -1
    outer loop
      vertex -3.1 0 0
      vertex -10.2705 2.18307 0
      vertex -9.59223 4.27073 0
    endloop
  endfacet
  facet normal 0 0 -1
    outer loop
      vertex -3.1 0 0
      vertex -10.5 0 0
      vertex -10.2705 2.18307 0
    endloop
  endfacet
  facet normal 0.406745 0.913542 -0
    outer loop
      vertex 6 10.3923 1.5
      vertex 3.7082 11.4127 15.5
      vertex 6 10.3923 15.5
    endloop
  endfacet
  facet normal 0.406745 0.913542 0
    outer loop
      vertex 3.7082 11.4127 15.5
      vertex 6 10.3923 1.5
      vertex 3.7082 11.4127 1.5
    endloop
  endfacet
  facet normal 0.951048 0.309044 0
    outer loop
      vertex 11.7378 2.49494 15.5
      vertex 10.9625 4.88084 1.5
      vertex 10.9625 4.88084 15.5
    endloop
  endfacet
  facet normal 0.951048 0.309044 0
    outer loop
      vertex 10.9625 4.88084 1.5
      vertex 11.7378 2.49494 15.5
      vertex 11.7378 2.49494 1.5
    endloop
  endfacet
  facet normal 0.994546 0.104299 0
    outer loop
      vertex 11.7378 2.49494 15.5
      vertex 11.753 2.35 6
      vertex 11.7378 2.49494 1.5
    endloop
  endfacet
  facet normal 0.994529 0.104461 -2.49406e-06
    outer loop
      vertex 11.7378 2.49494 15.5
      vertex 11.8253 1.6617 7.6617
      vertex 11.753 2.35 6
    endloop
  endfacet
  facet normal 0.994523 0.104517 -0
    outer loop
      vertex 12 0 8.35
      vertex 11.7378 2.49494 15.5
      vertex 12 0 15.5
    endloop
  endfacet
  facet normal 0.994519 0.104552 -1.2307e-05
    outer loop
      vertex 11.7378 2.49494 15.5
      vertex 12 0 8.35
      vertex 11.8253 1.6617 7.6617
    endloop
  endfacet
  facet normal 0.99453 0.104455 5.06531e-06
    outer loop
      vertex 11.8253 1.6617 4.3383
      vertex 11.7378 2.49494 1.5
      vertex 11.753 2.35 6
    endloop
  endfacet
  facet normal 0.99452 0.104544 3.16367e-05
    outer loop
      vertex 12 0 3.65
      vertex 11.7378 2.49494 1.5
      vertex 11.8253 1.6617 4.3383
    endloop
  endfacet
  facet normal 0.994523 0.104517 0
    outer loop
      vertex 11.7378 2.49494 1.5
      vertex 12 0 3.65
      vertex 12 0 1.5
    endloop
  endfacet
  facet normal 0.866032 0.499988 0
    outer loop
      vertex 10.9625 4.88084 15.5
      vertex 9.7082 7.05342 1.5
      vertex 9.7082 7.05342 15.5
    endloop
  endfacet
  facet normal 0.866032 0.499988 0
    outer loop
      vertex 9.7082 7.05342 1.5
      vertex 10.9625 4.88084 15.5
      vertex 10.9625 4.88084 1.5
    endloop
  endfacet
  facet normal 0.951048 -0.309044 0
    outer loop
      vertex 10.9625 -4.88084 15.5
      vertex 11.7378 -2.49494 1.5
      vertex 11.7378 -2.49494 15.5
    endloop
  endfacet
  facet normal 0.951048 -0.309044 0
    outer loop
      vertex 11.7378 -2.49494 1.5
      vertex 10.9625 -4.88084 15.5
      vertex 10.9625 -4.88084 1.5
    endloop
  endfacet
  facet normal 0.207918 -0.978146 0
    outer loop
      vertex 1.25434 -11.9343 1.5
      vertex 3.7082 -11.4127 15.5
      vertex 1.25434 -11.9343 15.5
    endloop
  endfacet
  facet normal 0.207918 -0.978146 0
    outer loop
      vertex 3.7082 -11.4127 15.5
      vertex 1.25434 -11.9343 1.5
      vertex 3.7082 -11.4127 1.5
    endloop
  endfacet
  facet normal 0.743147 0.669128 0
    outer loop
      vertex 9.7082 7.05342 15.5
      vertex 8.02957 8.91774 1.5
      vertex 8.02957 8.91774 15.5
    endloop
  endfacet
  facet normal 0.743147 0.669128 0
    outer loop
      vertex 8.02957 8.91774 1.5
      vertex 9.7082 7.05342 15.5
      vertex 9.7082 7.05342 1.5
    endloop
  endfacet
  facet normal 0.743147 -0.669128 0
    outer loop
      vertex 8.02957 -8.91774 15.5
      vertex 9.7082 -7.05342 1.5
      vertex 9.7082 -7.05342 15.5
    endloop
  endfacet
  facet normal 0.743147 -0.669128 0
    outer loop
      vertex 9.7082 -7.05342 1.5
      vertex 8.02957 -8.91774 15.5
      vertex 8.02957 -8.91774 1.5
    endloop
  endfacet
  facet normal -0.951048 -0.309044 0
    outer loop
      vertex -10.9625 -4.88084 1.5
      vertex -11.7378 -2.49494 15.5
      vertex -11.7378 -2.49494 1.5
    endloop
  endfacet
  facet normal -0.951048 -0.309044 0
    outer loop
      vertex -11.7378 -2.49494 15.5
      vertex -10.9625 -4.88084 1.5
      vertex -10.9625 -4.88084 15.5
    endloop
  endfacet
  facet normal 0.866032 -0.499988 0
    outer loop
      vertex 9.7082 -7.05342 15.5
      vertex 10.9625 -4.88084 1.5
      vertex 10.9625 -4.88084 15.5
    endloop
  endfacet
  facet normal 0.866032 -0.499988 0
    outer loop
      vertex 10.9625 -4.88084 1.5
      vertex 9.7082 -7.05342 15.5
      vertex 9.7082 -7.05342 1.5
    endloop
  endfacet
  facet normal -0.406745 0.913542 0
    outer loop
      vertex -3.7082 11.4127 1.5
      vertex -6 10.3923 15.5
      vertex -3.7082 11.4127 15.5
    endloop
  endfacet
  facet normal -0.406745 0.913542 0
    outer loop
      vertex -6 10.3923 15.5
      vertex -3.7082 11.4127 1.5
      vertex -6 10.3923 1.5
    endloop
  endfacet
  facet normal -0.587783 0.809019 0
    outer loop
      vertex -6 10.3923 1.5
      vertex -8.02957 8.91774 15.5
      vertex -6 10.3923 15.5
    endloop
  endfacet
  facet normal -0.587783 0.809019 0
    outer loop
      vertex -8.02957 8.91774 15.5
      vertex -6 10.3923 1.5
      vertex -8.02957 8.91774 1.5
    endloop
  endfacet
  facet normal -0.743147 0.669128 0
    outer loop
      vertex -9.7082 7.05342 1.5
      vertex -8.02957 8.91774 15.5
      vertex -8.02957 8.91774 1.5
    endloop
  endfacet
  facet normal -0.743147 0.669128 0
    outer loop
      vertex -8.02957 8.91774 15.5
      vertex -9.7082 7.05342 1.5
      vertex -9.7082 7.05342 15.5
    endloop
  endfacet
  facet normal -0.866032 0.499988 0
    outer loop
      vertex -10.9625 4.88084 1.5
      vertex -9.7082 7.05342 15.5
      vertex -9.7082 7.05342 1.5
    endloop
  endfacet
  facet normal -0.866032 0.499988 0
    outer loop
      vertex -9.7082 7.05342 15.5
      vertex -10.9625 4.88084 1.5
      vertex -10.9625 4.88084 15.5
    endloop
  endfacet
  facet normal 0.587783 -0.809019 0
    outer loop
      vertex 6 -10.3923 1.5
      vertex 8.02957 -8.91774 15.5
      vertex 6 -10.3923 15.5
    endloop
  endfacet
  facet normal 0.587783 -0.809019 0
    outer loop
      vertex 8.02957 -8.91774 15.5
      vertex 6 -10.3923 1.5
      vertex 8.02957 -8.91774 1.5
    endloop
  endfacet
  facet normal 0.207918 0.978146 -0
    outer loop
      vertex 3.7082 11.4127 1.5
      vertex 1.25434 11.9343 15.5
      vertex 3.7082 11.4127 15.5
    endloop
  endfacet
  facet normal 0.207918 0.978146 0
    outer loop
      vertex 1.25434 11.9343 15.5
      vertex 3.7082 11.4127 1.5
      vertex 1.25434 11.9343 1.5
    endloop
  endfacet
  facet normal -0.994523 -0.104517 0
    outer loop
      vertex -11.7378 -2.49494 1.5
      vertex -12 0 3.65
      vertex -12 0 1.5
    endloop
  endfacet
  facet normal -0.99453 -0.104455 5.06531e-06
    outer loop
      vertex -11.8253 -1.6617 4.3383
      vertex -11.7378 -2.49494 1.5
      vertex -11.753 -2.35 6
    endloop
  endfacet
  facet normal -0.99452 -0.104544 3.16367e-05
    outer loop
      vertex -12 0 3.65
      vertex -11.7378 -2.49494 1.5
      vertex -11.8253 -1.6617 4.3383
    endloop
  endfacet
  facet normal -0.994519 -0.104552 -1.2307e-05
    outer loop
      vertex -11.7378 -2.49494 15.5
      vertex -12 0 8.35
      vertex -11.8253 -1.6617 7.6617
    endloop
  endfacet
  facet normal -0.994529 -0.104461 -2.49406e-06
    outer loop
      vertex -11.7378 -2.49494 15.5
      vertex -11.8253 -1.6617 7.6617
      vertex -11.753 -2.35 6
    endloop
  endfacet
  facet normal -0.994523 -0.104517 0
    outer loop
      vertex -12 0 8.35
      vertex -11.7378 -2.49494 15.5
      vertex -12 0 15.5
    endloop
  endfacet
  facet normal -0.994546 -0.104299 -0
    outer loop
      vertex -11.7378 -2.49494 15.5
      vertex -11.753 -2.35 6
      vertex -11.7378 -2.49494 1.5
    endloop
  endfacet
  facet normal 0.994523 -0.104517 0
    outer loop
      vertex 11.7378 -2.49494 15.5
      vertex 12 0 8.35
      vertex 12 0 15.5
    endloop
  endfacet
  facet normal 0.994519 -0.104552 -1.2307e-05
    outer loop
      vertex 12 0 8.35
      vertex 11.7378 -2.49494 15.5
      vertex 11.8253 -1.6617 7.6617
    endloop
  endfacet
  facet normal 0.994529 -0.104461 -2.49406e-06
    outer loop
      vertex 11.8253 -1.6617 7.6617
      vertex 11.7378 -2.49494 15.5
      vertex 11.753 -2.35 6
    endloop
  endfacet
  facet normal 0.99452 -0.104544 3.16367e-05
    outer loop
      vertex 11.7378 -2.49494 1.5
      vertex 12 0 3.65
      vertex 11.8253 -1.6617 4.3383
    endloop
  endfacet
  facet normal 0.994523 -0.104517 0
    outer loop
      vertex 12 0 3.65
      vertex 11.7378 -2.49494 1.5
      vertex 12 0 1.5
    endloop
  endfacet
  facet normal 0.99453 -0.104455 5.06531e-06
    outer loop
      vertex 11.753 -2.35 6
      vertex 11.7378 -2.49494 1.5
      vertex 11.8253 -1.6617 4.3383
    endloop
  endfacet
  facet normal 0.994546 -0.104299 0
    outer loop
      vertex 11.7378 -2.49494 1.5
      vertex 11.753 -2.35 6
      vertex 11.7378 -2.49494 15.5
    endloop
  endfacet
  facet normal -0.866032 -0.499988 0
    outer loop
      vertex -9.7082 -7.05342 1.5
      vertex -10.9625 -4.88084 15.5
      vertex -10.9625 -4.88084 1.5
    endloop
  endfacet
  facet normal -0.866032 -0.499988 0
    outer loop
      vertex -10.9625 -4.88084 15.5
      vertex -9.7082 -7.05342 1.5
      vertex -9.7082 -7.05342 15.5
    endloop
  endfacet
  facet normal -0.587783 -0.809019 0
    outer loop
      vertex -8.02957 -8.91774 1.5
      vertex -6 -10.3923 15.5
      vertex -8.02957 -8.91774 15.5
    endloop
  endfacet
  facet normal -0.587783 -0.809019 -0
    outer loop
      vertex -6 -10.3923 15.5
      vertex -8.02957 -8.91774 1.5
      vertex -6 -10.3923 1.5
    endloop
  endfacet
  facet normal 0 1 -0
    outer loop
      vertex 1.25434 11.9343 1.5
      vertex -1.25434 11.9343 15.5
      vertex 1.25434 11.9343 15.5
    endloop
  endfacet
  facet normal 0 1 0
    outer loop
      vertex -1.25434 11.9343 15.5
      vertex 1.25434 11.9343 1.5
      vertex -1.25434 11.9343 1.5
    endloop
  endfacet
  facet normal -0.951048 0.309044 0
    outer loop
      vertex -11.7378 2.49494 1.5
      vertex -10.9625 4.88084 15.5
      vertex -10.9625 4.88084 1.5
    endloop
  endfacet
  facet normal -0.951048 0.309044 0
    outer loop
      vertex -10.9625 4.88084 15.5
      vertex -11.7378 2.49494 1.5
      vertex -11.7378 2.49494 15.5
    endloop
  endfacet
  facet normal 0.406745 -0.913542 0
    outer loop
      vertex 3.7082 -11.4127 1.5
      vertex 6 -10.3923 15.5
      vertex 3.7082 -11.4127 15.5
    endloop
  endfacet
  facet normal 0.406745 -0.913542 0
    outer loop
      vertex 6 -10.3923 15.5
      vertex 3.7082 -11.4127 1.5
      vertex 6 -10.3923 1.5
    endloop
  endfacet
  facet normal 0.587783 0.809019 -0
    outer loop
      vertex 8.02957 8.91774 1.5
      vertex 6 10.3923 15.5
      vertex 8.02957 8.91774 15.5
    endloop
  endfacet
  facet normal 0.587783 0.809019 0
    outer loop
      vertex 6 10.3923 15.5
      vertex 8.02957 8.91774 1.5
      vertex 6 10.3923 1.5
    endloop
  endfacet
  facet normal -0.994546 0.104299 0
    outer loop
      vertex -11.7378 2.49494 1.5
      vertex -11.753 2.35 6
      vertex -11.7378 2.49494 15.5
    endloop
  endfacet
  facet normal -0.99453 0.104455 5.06531e-06
    outer loop
      vertex -11.7378 2.49494 1.5
      vertex -11.8253 1.6617 4.3383
      vertex -11.753 2.35 6
    endloop
  endfacet
  facet normal -0.994523 0.104517 0
    outer loop
      vertex -12 0 3.65
      vertex -11.7378 2.49494 1.5
      vertex -12 0 1.5
    endloop
  endfacet
  facet normal -0.99452 0.104544 3.16367e-05
    outer loop
      vertex -11.7378 2.49494 1.5
      vertex -12 0 3.65
      vertex -11.8253 1.6617 4.3383
    endloop
  endfacet
  facet normal -0.994529 0.104461 -2.49406e-06
    outer loop
      vertex -11.8253 1.6617 7.6617
      vertex -11.7378 2.49494 15.5
      vertex -11.753 2.35 6
    endloop
  endfacet
  facet normal -0.994519 0.104552 -1.2307e-05
    outer loop
      vertex -12 0 8.35
      vertex -11.7378 2.49494 15.5
      vertex -11.8253 1.6617 7.6617
    endloop
  endfacet
  facet normal -0.994523 0.104517 0
    outer loop
      vertex -11.7378 2.49494 15.5
      vertex -12 0 8.35
      vertex -12 0 15.5
    endloop
  endfacet
  facet normal -0.207918 0.978146 0
    outer loop
      vertex -1.25434 11.9343 1.5
      vertex -3.7082 11.4127 15.5
      vertex -1.25434 11.9343 15.5
    endloop
  endfacet
  facet normal -0.207918 0.978146 0
    outer loop
      vertex -3.7082 11.4127 15.5
      vertex -1.25434 11.9343 1.5
      vertex -3.7082 11.4127 1.5
    endloop
  endfacet
  facet normal -0.743147 -0.669128 0
    outer loop
      vertex -8.02957 -8.91774 1.5
      vertex -9.7082 -7.05342 15.5
      vertex -9.7082 -7.05342 1.5
    endloop
  endfacet
  facet normal -0.743147 -0.669128 0
    outer loop
      vertex -9.7082 -7.05342 15.5
      vertex -8.02957 -8.91774 1.5
      vertex -8.02957 -8.91774 15.5
    endloop
  endfacet
  facet normal 0 -1 0
    outer loop
      vertex -1.25434 -11.9343 1.5
      vertex 1.25434 -11.9343 15.5
      vertex -1.25434 -11.9343 15.5
    endloop
  endfacet
  facet normal 0 -1 -0
    outer loop
      vertex 1.25434 -11.9343 15.5
      vertex -1.25434 -11.9343 1.5
      vertex 1.25434 -11.9343 1.5
    endloop
  endfacet
  facet normal -0.207918 -0.978146 0
    outer loop
      vertex -3.7082 -11.4127 1.5
      vertex -1.25434 -11.9343 15.5
      vertex -3.7082 -11.4127 15.5
    endloop
  endfacet
  facet normal -0.207918 -0.978146 -0
    outer loop
      vertex -1.25434 -11.9343 15.5
      vertex -3.7082 -11.4127 1.5
      vertex -1.25434 -11.9343 1.5
    endloop
  endfacet
  facet normal -0.406745 -0.913542 0
    outer loop
      vertex -6 -10.3923 1.5
      vertex -3.7082 -11.4127 15.5
      vertex -6 -10.3923 15.5
    endloop
  endfacet
  facet normal -0.406745 -0.913542 -0
    outer loop
      vertex -3.7082 -11.4127 15.5
      vertex -6 -10.3923 1.5
      vertex -3.7082 -11.4127 1.5
    endloop
  endfacet
  facet normal -0.614064 -0.354519 0.705153
    outer loop
      vertex -9.59223 -4.27073 17
      vertex -10.9625 -4.88084 15.5
      vertex -9.7082 -7.05342 15.5
    endloop
  endfacet
  facet normal 0.705161 0.0741316 0.705161
    outer loop
      vertex 12 0 15.5
      vertex 10.2705 2.18307 17
      vertex 10.5 0 17
    endloop
  endfacet
  facet normal 0.705145 0.0741056 0.70518
    outer loop
      vertex 11.7378 2.49494 15.5
      vertex 10.2705 2.18307 17
      vertex 12 0 15.5
    endloop
  endfacet
  facet normal -0.288402 -0.647745 0.705161
    outer loop
      vertex -5.25 -9.09327 17
      vertex -6 -10.3923 15.5
      vertex -3.7082 -11.4127 15.5
    endloop
  endfacet
  facet normal -0.674321 -0.219121 0.705179
    outer loop
      vertex -10.2705 -2.18307 17
      vertex -11.7378 -2.49494 15.5
      vertex -10.9625 -4.88084 15.5
    endloop
  endfacet
  facet normal -0.674359 -0.219096 0.705151
    outer loop
      vertex -10.2705 -2.18307 17
      vertex -10.9625 -4.88084 15.5
      vertex -9.59223 -4.27073 17
    endloop
  endfacet
  facet normal 0.147425 0.693545 0.705168
    outer loop
      vertex 3.7082 11.4127 15.5
      vertex 1.09755 10.4425 17
      vertex 3.24468 9.98609 17
    endloop
  endfacet
  facet normal 0.614064 -0.354519 0.705153
    outer loop
      vertex 10.9625 -4.88084 15.5
      vertex 9.59223 -4.27073 17
      vertex 9.7082 -7.05342 15.5
    endloop
  endfacet
  facet normal -0.526925 -0.474442 0.705163
    outer loop
      vertex -7.02587 -7.80302 17
      vertex -9.7082 -7.05342 15.5
      vertex -8.02957 -8.91774 15.5
    endloop
  endfacet
  facet normal -0.674359 0.219096 0.705151
    outer loop
      vertex -9.59223 4.27073 17
      vertex -10.9625 4.88084 15.5
      vertex -10.2705 2.18307 17
    endloop
  endfacet
  facet normal 0.614064 0.354519 0.705153
    outer loop
      vertex 9.7082 7.05342 15.5
      vertex 9.59223 4.27073 17
      vertex 10.9625 4.88084 15.5
    endloop
  endfacet
  facet normal 0.614053 -0.354524 0.705161
    outer loop
      vertex 9.59223 -4.27073 17
      vertex 8.49468 -6.17174 17
      vertex 9.7082 -7.05342 15.5
    endloop
  endfacet
  facet normal -0.288391 0.647742 0.705167
    outer loop
      vertex -3.7082 11.4127 15.5
      vertex -5.25 9.09327 17
      vertex -3.24468 9.98609 17
    endloop
  endfacet
  facet normal 0.288391 0.647742 0.705167
    outer loop
      vertex 3.7082 11.4127 15.5
      vertex 3.24468 9.98609 17
      vertex 5.25 9.09327 17
    endloop
  endfacet
  facet normal 0.147425 -0.693545 0.705168
    outer loop
      vertex 3.24468 -9.98609 17
      vertex 1.09755 -10.4425 17
      vertex 3.7082 -11.4127 15.5
    endloop
  endfacet
  facet normal 0.526925 0.474442 0.705163
    outer loop
      vertex 8.02957 8.91774 15.5
      vertex 7.02587 7.80302 17
      vertex 9.7082 7.05342 15.5
    endloop
  endfacet
  facet normal -0.526925 -0.474445 0.705161
    outer loop
      vertex -8.49468 -6.17174 17
      vertex -9.7082 -7.05342 15.5
      vertex -7.02587 -7.80302 17
    endloop
  endfacet
  facet normal 0 0.709042 0.705166
    outer loop
      vertex 1.25434 11.9343 15.5
      vertex -1.09755 10.4425 17
      vertex 1.09755 10.4425 17
    endloop
  endfacet
  facet normal 0 0.709042 0.705166
    outer loop
      vertex -1.09755 10.4425 17
      vertex 1.25434 11.9343 15.5
      vertex -1.25434 11.9343 15.5
    endloop
  endfacet
  facet normal 0.147423 -0.693547 0.705166
    outer loop
      vertex 3.7082 -11.4127 15.5
      vertex 1.09755 -10.4425 17
      vertex 1.25434 -11.9343 15.5
    endloop
  endfacet
  facet normal -0.705145 -0.0741056 0.70518
    outer loop
      vertex -10.2705 -2.18307 17
      vertex -12 0 15.5
      vertex -11.7378 -2.49494 15.5
    endloop
  endfacet
  facet normal 0.614053 0.354524 0.705161
    outer loop
      vertex 9.7082 7.05342 15.5
      vertex 8.49468 6.17174 17
      vertex 9.59223 4.27073 17
    endloop
  endfacet
  facet normal -0.416765 0.573631 0.705163
    outer loop
      vertex -6 10.3923 15.5
      vertex -8.02957 8.91774 15.5
      vertex -7.02587 7.80302 17
    endloop
  endfacet
  facet normal 0.416769 0.573631 0.70516
    outer loop
      vertex 6 10.3923 15.5
      vertex 5.25 9.09327 17
      vertex 7.02587 7.80302 17
    endloop
  endfacet
  facet normal 0.416765 -0.573631 0.705163
    outer loop
      vertex 7.02587 -7.80302 17
      vertex 6 -10.3923 15.5
      vertex 8.02957 -8.91774 15.5
    endloop
  endfacet
  facet normal 0.526925 -0.474442 0.705163
    outer loop
      vertex 9.7082 -7.05342 15.5
      vertex 7.02587 -7.80302 17
      vertex 8.02957 -8.91774 15.5
    endloop
  endfacet
  facet normal 0.526925 -0.474445 0.705161
    outer loop
      vertex 8.49468 -6.17174 17
      vertex 7.02587 -7.80302 17
      vertex 9.7082 -7.05342 15.5
    endloop
  endfacet
  facet normal 0.416765 0.573631 0.705163
    outer loop
      vertex 8.02957 8.91774 15.5
      vertex 6 10.3923 15.5
      vertex 7.02587 7.80302 17
    endloop
  endfacet
  facet normal -0.526925 0.474442 0.705163
    outer loop
      vertex -8.02957 8.91774 15.5
      vertex -9.7082 7.05342 15.5
      vertex -7.02587 7.80302 17
    endloop
  endfacet
  facet normal -0.288402 0.647745 0.705161
    outer loop
      vertex -3.7082 11.4127 15.5
      vertex -6 10.3923 15.5
      vertex -5.25 9.09327 17
    endloop
  endfacet
  facet normal 0.674359 0.219096 0.705151
    outer loop
      vertex 10.9625 4.88084 15.5
      vertex 9.59223 4.27073 17
      vertex 10.2705 2.18307 17
    endloop
  endfacet
  facet normal 0.674321 0.219121 0.705179
    outer loop
      vertex 10.9625 4.88084 15.5
      vertex 10.2705 2.18307 17
      vertex 11.7378 2.49494 15.5
    endloop
  endfacet
  facet normal -0.147423 -0.693547 0.705166
    outer loop
      vertex -1.09755 -10.4425 17
      vertex -3.7082 -11.4127 15.5
      vertex -1.25434 -11.9343 15.5
    endloop
  endfacet
  facet normal 0.526925 0.474445 0.705161
    outer loop
      vertex 9.7082 7.05342 15.5
      vertex 7.02587 7.80302 17
      vertex 8.49468 6.17174 17
    endloop
  endfacet
  facet normal 0.674321 -0.219121 0.705179
    outer loop
      vertex 11.7378 -2.49494 15.5
      vertex 10.2705 -2.18307 17
      vertex 10.9625 -4.88084 15.5
    endloop
  endfacet
  facet normal -0.147423 0.693547 0.705166
    outer loop
      vertex -1.25434 11.9343 15.5
      vertex -3.7082 11.4127 15.5
      vertex -1.09755 10.4425 17
    endloop
  endfacet
  facet normal -0.705145 0.0741056 0.70518
    outer loop
      vertex -11.7378 2.49494 15.5
      vertex -12 0 15.5
      vertex -10.2705 2.18307 17
    endloop
  endfacet
  facet normal 0.147423 0.693547 0.705166
    outer loop
      vertex 1.25434 11.9343 15.5
      vertex 1.09755 10.4425 17
      vertex 3.7082 11.4127 15.5
    endloop
  endfacet
  facet normal -0.416765 -0.573631 0.705163
    outer loop
      vertex -7.02587 -7.80302 17
      vertex -8.02957 -8.91774 15.5
      vertex -6 -10.3923 15.5
    endloop
  endfacet
  facet normal -0.614053 -0.354524 0.705161
    outer loop
      vertex -9.59223 -4.27073 17
      vertex -9.7082 -7.05342 15.5
      vertex -8.49468 -6.17174 17
    endloop
  endfacet
  facet normal 0.705145 -0.0741056 0.70518
    outer loop
      vertex 12 0 15.5
      vertex 10.2705 -2.18307 17
      vertex 11.7378 -2.49494 15.5
    endloop
  endfacet
  facet normal 0.705161 -0.0741316 0.705161
    outer loop
      vertex 10.5 0 17
      vertex 10.2705 -2.18307 17
      vertex 12 0 15.5
    endloop
  endfacet
  facet normal 0.416769 -0.573631 0.70516
    outer loop
      vertex 7.02587 -7.80302 17
      vertex 5.25 -9.09327 17
      vertex 6 -10.3923 15.5
    endloop
  endfacet
  facet normal 0.288402 0.647745 0.705161
    outer loop
      vertex 6 10.3923 15.5
      vertex 3.7082 11.4127 15.5
      vertex 5.25 9.09327 17
    endloop
  endfacet
  facet normal -0.705161 0.0741316 0.705161
    outer loop
      vertex -10.2705 2.18307 17
      vertex -12 0 15.5
      vertex -10.5 0 17
    endloop
  endfacet
  facet normal -0.705161 -0.0741316 0.705161
    outer loop
      vertex -10.5 0 17
      vertex -12 0 15.5
      vertex -10.2705 -2.18307 17
    endloop
  endfacet
  facet normal -0.147425 -0.693545 0.705168
    outer loop
      vertex -3.24468 -9.98609 17
      vertex -3.7082 -11.4127 15.5
      vertex -1.09755 -10.4425 17
    endloop
  endfacet
  facet normal -0.416769 -0.573631 0.70516
    outer loop
      vertex -5.25 -9.09327 17
      vertex -7.02587 -7.80302 17
      vertex -6 -10.3923 15.5
    endloop
  endfacet
  facet normal -0.674321 0.219121 0.705179
    outer loop
      vertex -10.9625 4.88084 15.5
      vertex -11.7378 2.49494 15.5
      vertex -10.2705 2.18307 17
    endloop
  endfacet
  facet normal 0.288402 -0.647745 0.705161
    outer loop
      vertex 5.25 -9.09327 17
      vertex 3.7082 -11.4127 15.5
      vertex 6 -10.3923 15.5
    endloop
  endfacet
  facet normal 0 -0.709042 0.705166
    outer loop
      vertex -1.25434 -11.9343 15.5
      vertex 1.09755 -10.4425 17
      vertex -1.09755 -10.4425 17
    endloop
  endfacet
  facet normal 0 -0.709042 0.705166
    outer loop
      vertex 1.09755 -10.4425 17
      vertex -1.25434 -11.9343 15.5
      vertex 1.25434 -11.9343 15.5
    endloop
  endfacet
  facet normal 0.674359 -0.219096 0.705151
    outer loop
      vertex 10.2705 -2.18307 17
      vertex 9.59223 -4.27073 17
      vertex 10.9625 -4.88084 15.5
    endloop
  endfacet
  facet normal -0.416769 0.573631 0.70516
    outer loop
      vertex -6 10.3923 15.5
      vertex -7.02587 7.80302 17
      vertex -5.25 9.09327 17
    endloop
  endfacet
  facet normal -0.147425 0.693545 0.705168
    outer loop
      vertex -1.09755 10.4425 17
      vertex -3.7082 11.4127 15.5
      vertex -3.24468 9.98609 17
    endloop
  endfacet
  facet normal -0.288391 -0.647742 0.705167
    outer loop
      vertex -3.24468 -9.98609 17
      vertex -5.25 -9.09327 17
      vertex -3.7082 -11.4127 15.5
    endloop
  endfacet
  facet normal -0.614064 0.354519 0.705153
    outer loop
      vertex -9.7082 7.05342 15.5
      vertex -10.9625 4.88084 15.5
      vertex -9.59223 4.27073 17
    endloop
  endfacet
  facet normal -0.526925 0.474445 0.705161
    outer loop
      vertex -7.02587 7.80302 17
      vertex -9.7082 7.05342 15.5
      vertex -8.49468 6.17174 17
    endloop
  endfacet
  facet normal 0.288391 -0.647742 0.705167
    outer loop
      vertex 5.25 -9.09327 17
      vertex 3.24468 -9.98609 17
      vertex 3.7082 -11.4127 15.5
    endloop
  endfacet
  facet normal -0.614053 0.354524 0.705161
    outer loop
      vertex -8.49468 6.17174 17
      vertex -9.7082 7.05342 15.5
      vertex -9.59223 4.27073 17
    endloop
  endfacet
  facet normal 0 0 1
    outer loop
      vertex 3.1 0 17
      vertex 10.5 0 17
      vertex 10.2705 2.18307 17
    endloop
  endfacet
  facet normal 0 0 1
    outer loop
      vertex 3.1 0 17
      vertex 10.2705 2.18307 17
      vertex 9.59223 4.27073 17
    endloop
  endfacet
  facet normal 0 0 1
    outer loop
      vertex 10.5 0 17
      vertex 3.1 0 17
      vertex 10.2705 -2.18307 17
    endloop
  endfacet
  facet normal 0 0 1
    outer loop
      vertex 2.50795 1.82213 17
      vertex 9.59223 4.27073 17
      vertex 8.49468 6.17174 17
    endloop
  endfacet
  facet normal 0 0 1
    outer loop
      vertex 10.2705 -2.18307 17
      vertex 3.1 0 17
      vertex 9.59223 -4.27073 17
    endloop
  endfacet
  facet normal 0 0 1
    outer loop
      vertex 2.50795 1.82213 17
      vertex 8.49468 6.17174 17
      vertex 7.02587 7.80302 17
    endloop
  endfacet
  facet normal -0 0 1
    outer loop
      vertex 2.50795 -1.82213 17
      vertex 9.59223 -4.27073 17
      vertex 3.1 0 17
    endloop
  endfacet
  facet normal 0 0 1
    outer loop
      vertex 2.50795 1.82213 17
      vertex 7.02587 7.80302 17
      vertex 5.25 9.09327 17
    endloop
  endfacet
  facet normal 0 0 1
    outer loop
      vertex 9.59223 -4.27073 17
      vertex 2.50795 -1.82213 17
      vertex 8.49468 -6.17174 17
    endloop
  endfacet
  facet normal 0 0 1
    outer loop
      vertex 0.957952 2.94827 17
      vertex 5.25 9.09327 17
      vertex 3.24468 9.98609 17
    endloop
  endfacet
  facet normal 0 0 1
    outer loop
      vertex 8.49468 -6.17174 17
      vertex 2.50795 -1.82213 17
      vertex 7.02587 -7.80302 17
    endloop
  endfacet
  facet normal 0 0 1
    outer loop
      vertex 7.02587 -7.80302 17
      vertex 2.50795 -1.82213 17
      vertex 5.25 -9.09327 17
    endloop
  endfacet
  facet normal 0 0 1
    outer loop
      vertex 9.59223 4.27073 17
      vertex 2.50795 1.82213 17
      vertex 3.1 0 17
    endloop
  endfacet
  facet normal 0 0 1
    outer loop
      vertex 0.957952 2.94827 17
      vertex 3.24468 9.98609 17
      vertex 1.09755 10.4425 17
    endloop
  endfacet
  facet normal 0 0 1
    outer loop
      vertex 5.25 9.09327 17
      vertex 0.957952 2.94827 17
      vertex 2.50795 1.82213 17
    endloop
  endfacet
  facet normal 0 0 1
    outer loop
      vertex 1.09755 10.4425 17
      vertex -0.957952 2.94827 17
      vertex 0.957952 2.94827 17
    endloop
  endfacet
  facet normal -0 0 1
    outer loop
      vertex -1.09755 10.4425 17
      vertex -0.957952 2.94827 17
      vertex 1.09755 10.4425 17
    endloop
  endfacet
  facet normal -0 0 1
    outer loop
      vertex -3.24468 9.98609 17
      vertex -0.957952 2.94827 17
      vertex -1.09755 10.4425 17
    endloop
  endfacet
  facet normal -0 0 1
    outer loop
      vertex -5.25 9.09327 17
      vertex -0.957952 2.94827 17
      vertex -3.24468 9.98609 17
    endloop
  endfacet
  facet normal 0 0 1
    outer loop
      vertex -0.957952 2.94827 17
      vertex -5.25 9.09327 17
      vertex -2.50795 1.82213 17
    endloop
  endfacet
  facet normal -0 0 1
    outer loop
      vertex 0.957952 -2.94827 17
      vertex 5.25 -9.09327 17
      vertex 2.50795 -1.82213 17
    endloop
  endfacet
  facet normal 0 0 1
    outer loop
      vertex 5.25 -9.09327 17
      vertex 0.957952 -2.94827 17
      vertex 3.24468 -9.98609 17
    endloop
  endfacet
  facet normal 0 0 1
    outer loop
      vertex 3.24468 -9.98609 17
      vertex 0.957952 -2.94827 17
      vertex 1.09755 -10.4425 17
    endloop
  endfacet
  facet normal -0 0 1
    outer loop
      vertex -0.957952 -2.94827 17
      vertex 1.09755 -10.4425 17
      vertex 0.957952 -2.94827 17
    endloop
  endfacet
  facet normal 0 0 1
    outer loop
      vertex -0.957952 -2.94827 17
      vertex -1.09755 -10.4425 17
      vertex 1.09755 -10.4425 17
    endloop
  endfacet
  facet normal 0 0 1
    outer loop
      vertex -5.25 -9.09327 17
      vertex -0.957952 -2.94827 17
      vertex -2.50795 -1.82213 17
    endloop
  endfacet
  facet normal 0 0 1
    outer loop
      vertex -9.59223 -4.27073 17
      vertex -2.50795 -1.82213 17
      vertex -3.1 0 17
    endloop
  endfacet
  facet normal 0 0 1
    outer loop
      vertex -0.957952 -2.94827 17
      vertex -3.24468 -9.98609 17
      vertex -1.09755 -10.4425 17
    endloop
  endfacet
  facet normal -0 0 1
    outer loop
      vertex -7.02587 7.80302 17
      vertex -2.50795 1.82213 17
      vertex -5.25 9.09327 17
    endloop
  endfacet
  facet normal -0 0 1
    outer loop
      vertex -8.49468 6.17174 17
      vertex -2.50795 1.82213 17
      vertex -7.02587 7.80302 17
    endloop
  endfacet
  facet normal 0 0 1
    outer loop
      vertex -0.957952 -2.94827 17
      vertex -5.25 -9.09327 17
      vertex -3.24468 -9.98609 17
    endloop
  endfacet
  facet normal -0 0 1
    outer loop
      vertex -9.59223 4.27073 17
      vertex -2.50795 1.82213 17
      vertex -8.49468 6.17174 17
    endloop
  endfacet
  facet normal 0 0 1
    outer loop
      vertex -2.50795 -1.82213 17
      vertex -7.02587 -7.80302 17
      vertex -5.25 -9.09327 17
    endloop
  endfacet
  facet normal 0 0 1
    outer loop
      vertex -2.50795 1.82213 17
      vertex -9.59223 4.27073 17
      vertex -3.1 0 17
    endloop
  endfacet
  facet normal 0 0 1
    outer loop
      vertex -2.50795 -1.82213 17
      vertex -8.49468 -6.17174 17
      vertex -7.02587 -7.80302 17
    endloop
  endfacet
  facet normal -0 0 1
    outer loop
      vertex -10.2705 2.18307 17
      vertex -3.1 0 17
      vertex -9.59223 4.27073 17
    endloop
  endfacet
  facet normal 0 0 1
    outer loop
      vertex -2.50795 -1.82213 17
      vertex -9.59223 -4.27073 17
      vertex -8.49468 -6.17174 17
    endloop
  endfacet
  facet normal 0 0 1
    outer loop
      vertex -10.5 0 17
      vertex -3.1 0 17
      vertex -10.2705 2.18307 17
    endloop
  endfacet
  facet normal 0 0 1
    outer loop
      vertex -3.1 0 17
      vertex -10.2705 -2.18307 17
      vertex -9.59223 -4.27073 17
    endloop
  endfacet
  facet normal 0 0 1
    outer loop
      vertex -3.1 0 17
      vertex -10.5 0 17
      vertex -10.2705 -2.18307 17
    endloop
  endfacet
  facet normal 0.951056 0.309019 0
    outer loop
      vertex -2.50795 -1.82213 17
      vertex -3.1 0 8.35
      vertex -3.1 0 17
    endloop
  endfacet
  facet normal 0.951056 0.309018 -3.07653e-07
    outer loop
      vertex -3.1 0 8.35
      vertex -2.50795 -1.82213 17
      vertex -2.56008 -1.6617 7.6617
    endloop
  endfacet
  facet normal 0.951051 0.309034 0
    outer loop
      vertex -2.56008 -1.6617 7.6617
      vertex -2.50795 -1.82213 17
      vertex -2.50795 -1.82213 7.27438
    endloop
  endfacet
  facet normal 0.951056 0.309018 6.56882e-07
    outer loop
      vertex -2.50795 -1.82213 0
      vertex -3.1 0 3.65
      vertex -2.56008 -1.6617 4.3383
    endloop
  endfacet
  facet normal 0.951051 0.309034 -0
    outer loop
      vertex -2.50795 -1.82213 0
      vertex -2.56008 -1.6617 4.3383
      vertex -2.50795 -1.82213 4.72562
    endloop
  endfacet
  facet normal 0.951056 0.309019 0
    outer loop
      vertex -3.1 0 3.65
      vertex -2.50795 -1.82213 0
      vertex -3.1 0 0
    endloop
  endfacet
  facet normal -0.587785 -0.809017 0
    outer loop
      vertex 0.957952 2.94827 17
      vertex 2.50795 1.82213 7.27438
      vertex 2.50795 1.82213 17
    endloop
  endfacet
  facet normal -0.58779 -0.809014 -1.04589e-06
    outer loop
      vertex 0.957952 2.94827 17
      vertex 1.78141 2.35 6
      vertex 2.50795 1.82213 7.27438
    endloop
  endfacet
  facet normal -0.587781 -0.80902 0
    outer loop
      vertex 0.957952 2.94827 0
      vertex 1.78141 2.35 6
      vertex 0.957952 2.94827 17
    endloop
  endfacet
  facet normal -0.587789 -0.809014 1.74837e-06
    outer loop
      vertex 0.957952 2.94827 0
      vertex 2.50795 1.82213 4.72562
      vertex 1.78141 2.35 6
    endloop
  endfacet
  facet normal -0.587785 -0.809017 -0
    outer loop
      vertex 2.50795 1.82213 4.72562
      vertex 0.957952 2.94827 0
      vertex 2.50795 1.82213 0
    endloop
  endfacet
  facet normal -0.951051 -0.309034 0
    outer loop
      vertex 2.56008 1.6617 7.6617
      vertex 2.50795 1.82213 17
      vertex 2.50795 1.82213 7.27438
    endloop
  endfacet
  facet normal -0.951056 -0.309018 -3.07653e-07
    outer loop
      vertex 3.1 0 8.35
      vertex 2.50795 1.82213 17
      vertex 2.56008 1.6617 7.6617
    endloop
  endfacet
  facet normal -0.951056 -0.309019 0
    outer loop
      vertex 2.50795 1.82213 17
      vertex 3.1 0 8.35
      vertex 3.1 0 17
    endloop
  endfacet
  facet normal -0.951051 -0.309034 0
    outer loop
      vertex 2.50795 1.82213 0
      vertex 2.56008 1.6617 4.3383
      vertex 2.50795 1.82213 4.72562
    endloop
  endfacet
  facet normal -0.951056 -0.309019 -0
    outer loop
      vertex 3.1 0 3.65
      vertex 2.50795 1.82213 0
      vertex 3.1 0 0
    endloop
  endfacet
  facet normal -0.951056 -0.309018 6.56882e-07
    outer loop
      vertex 2.50795 1.82213 0
      vertex 3.1 0 3.65
      vertex 2.56008 1.6617 4.3383
    endloop
  endfacet
  facet normal 0 -1 0
    outer loop
      vertex -0.957952 2.94827 0
      vertex 0.957952 2.94827 17
      vertex -0.957952 2.94827 17
    endloop
  endfacet
  facet normal 0 -1 -0
    outer loop
      vertex 0.957952 2.94827 17
      vertex -0.957952 2.94827 0
      vertex 0.957952 2.94827 0
    endloop
  endfacet
  facet normal -0.587785 0.809017 0
    outer loop
      vertex 2.50795 -1.82213 7.27438
      vertex 0.957952 -2.94827 17
      vertex 2.50795 -1.82213 17
    endloop
  endfacet
  facet normal -0.58779 0.809014 -1.04589e-06
    outer loop
      vertex 1.78141 -2.35 6
      vertex 0.957952 -2.94827 17
      vertex 2.50795 -1.82213 7.27438
    endloop
  endfacet
  facet normal -0.587785 0.809017 0
    outer loop
      vertex 0.957952 -2.94827 0
      vertex 2.50795 -1.82213 4.72562
      vertex 2.50795 -1.82213 0
    endloop
  endfacet
  facet normal -0.587781 0.80902 0
    outer loop
      vertex 1.78141 -2.35 6
      vertex 0.957952 -2.94827 0
      vertex 0.957952 -2.94827 17
    endloop
  endfacet
  facet normal -0.587789 0.809014 1.74837e-06
    outer loop
      vertex 2.50795 -1.82213 4.72562
      vertex 0.957952 -2.94827 0
      vertex 1.78141 -2.35 6
    endloop
  endfacet
  facet normal 0.587785 0.809017 0
    outer loop
      vertex -0.957952 -2.94827 17
      vertex -2.50795 -1.82213 7.27438
      vertex -2.50795 -1.82213 17
    endloop
  endfacet
  facet normal 0.58779 0.809014 -1.04589e-06
    outer loop
      vertex -0.957952 -2.94827 17
      vertex -1.78141 -2.35 6
      vertex -2.50795 -1.82213 7.27438
    endloop
  endfacet
  facet normal 0.587781 0.80902 -0
    outer loop
      vertex -0.957952 -2.94827 0
      vertex -1.78141 -2.35 6
      vertex -0.957952 -2.94827 17
    endloop
  endfacet
  facet normal 0.587789 0.809014 1.74837e-06
    outer loop
      vertex -0.957952 -2.94827 0
      vertex -2.50795 -1.82213 4.72562
      vertex -1.78141 -2.35 6
    endloop
  endfacet
  facet normal 0.587785 0.809017 0
    outer loop
      vertex -2.50795 -1.82213 4.72562
      vertex -0.957952 -2.94827 0
      vertex -2.50795 -1.82213 0
    endloop
  endfacet
  facet normal -0.951056 0.309019 0
    outer loop
      vertex 2.50795 -1.82213 0
      vertex 3.1 0 3.65
      vertex 3.1 0 0
    endloop
  endfacet
  facet normal -0.951056 0.309018 6.56882e-07
    outer loop
      vertex 3.1 0 3.65
      vertex 2.50795 -1.82213 0
      vertex 2.56008 -1.6617 4.3383
    endloop
  endfacet
  facet normal -0.951051 0.309034 0
    outer loop
      vertex 2.56008 -1.6617 4.3383
      vertex 2.50795 -1.82213 0
      vertex 2.50795 -1.82213 4.72562
    endloop
  endfacet
  facet normal -0.951056 0.309018 -3.07653e-07
    outer loop
      vertex 2.50795 -1.82213 17
      vertex 3.1 0 8.35
      vertex 2.56008 -1.6617 7.6617
    endloop
  endfacet
  facet normal -0.951051 0.309034 0
    outer loop
      vertex 2.50795 -1.82213 17
      vertex 2.56008 -1.6617 7.6617
      vertex 2.50795 -1.82213 7.27438
    endloop
  endfacet
  facet normal -0.951056 0.309019 0
    outer loop
      vertex 3.1 0 8.35
      vertex 2.50795 -1.82213 17
      vertex 3.1 0 17
    endloop
  endfacet
  facet normal 0.587785 -0.809017 0
    outer loop
      vertex -2.50795 1.82213 7.27438
      vertex -0.957952 2.94827 17
      vertex -2.50795 1.82213 17
    endloop
  endfacet
  facet normal 0.58779 -0.809014 -1.04589e-06
    outer loop
      vertex -1.78141 2.35 6
      vertex -0.957952 2.94827 17
      vertex -2.50795 1.82213 7.27438
    endloop
  endfacet
  facet normal 0.587785 -0.809017 0
    outer loop
      vertex -0.957952 2.94827 0
      vertex -2.50795 1.82213 4.72562
      vertex -2.50795 1.82213 0
    endloop
  endfacet
  facet normal 0.587781 -0.80902 0
    outer loop
      vertex -1.78141 2.35 6
      vertex -0.957952 2.94827 0
      vertex -0.957952 2.94827 17
    endloop
  endfacet
  facet normal 0.587789 -0.809014 1.74837e-06
    outer loop
      vertex -2.50795 1.82213 4.72562
      vertex -0.957952 2.94827 0
      vertex -1.78141 2.35 6
    endloop
  endfacet
  facet normal 0 1 -0
    outer loop
      vertex 0.957952 -2.94827 0
      vertex -0.957952 -2.94827 17
      vertex 0.957952 -2.94827 17
    endloop
  endfacet
  facet normal 0 1 0
    outer loop
      vertex -0.957952 -2.94827 17
      vertex 0.957952 -2.94827 0
      vertex -0.957952 -2.94827 0
    endloop
  endfacet
  facet normal 0.951051 -0.309034 0
    outer loop
      vertex -2.50795 1.82213 17
      vertex -2.56008 1.6617 7.6617
      vertex -2.50795 1.82213 7.27438
    endloop
  endfacet
  facet normal 0.951056 -0.309019 0
    outer loop
      vertex -3.1 0 8.35
      vertex -2.50795 1.82213 17
      vertex -3.1 0 17
    endloop
  endfacet
  facet normal 0.951056 -0.309018 -3.07653e-07
    outer loop
      vertex -2.50795 1.82213 17
      vertex -3.1 0 8.35
      vertex -2.56008 1.6617 7.6617
    endloop
  endfacet
  facet normal 0.951051 -0.309034 0
    outer loop
      vertex -2.56008 1.6617 4.3383
      vertex -2.50795 1.82213 0
      vertex -2.50795 1.82213 4.72562
    endloop
  endfacet
  facet normal 0.951056 -0.309018 6.56882e-07
    outer loop
      vertex -3.1 0 3.65
      vertex -2.50795 1.82213 0
      vertex -2.56008 1.6617 4.3383
    endloop
  endfacet
  facet normal 0.951056 -0.309019 0
    outer loop
      vertex -2.50795 1.82213 0
      vertex -3.1 0 3.65
      vertex -3.1 0 0
    endloop
  endfacet
  facet normal 0 0.382684 -0.923879
    outer loop
      vertex 11.8253 -1.6617 7.6617
      vertex 3.1 0 8.35
      vertex 12 0 8.35
    endloop
  endfacet
  facet normal 0 0.382684 -0.923879
    outer loop
      vertex 3.1 0 8.35
      vertex 11.8253 -1.6617 7.6617
      vertex 2.56008 -1.6617 7.6617
    endloop
  endfacet
  facet normal 0 0.382684 -0.923879
    outer loop
      vertex -11.8253 -1.6617 7.6617
      vertex -3.1 0 8.35
      vertex -2.56008 -1.6617 7.6617
    endloop
  endfacet
  facet normal 0 0.382684 -0.923879
    outer loop
      vertex -3.1 0 8.35
      vertex -11.8253 -1.6617 7.6617
      vertex -12 0 8.35
    endloop
  endfacet
  facet normal 0 0.382684 0.923879
    outer loop
      vertex -3.1 0 3.65
      vertex -11.8253 -1.6617 4.3383
      vertex -2.56008 -1.6617 4.3383
    endloop
  endfacet
  facet normal 0 0.382684 0.923879
    outer loop
      vertex -11.8253 -1.6617 4.3383
      vertex -3.1 0 3.65
      vertex -12 0 3.65
    endloop
  endfacet
  facet normal -0 0.382684 0.923879
    outer loop
      vertex 3.1 0 3.65
      vertex 11.8253 -1.6617 4.3383
      vertex 12 0 3.65
    endloop
  endfacet
  facet normal 0 0.382684 0.923879
    outer loop
      vertex 11.8253 -1.6617 4.3383
      vertex 3.1 0 3.65
      vertex 2.56008 -1.6617 4.3383
    endloop
  endfacet
  facet normal 0 -0.382684 0.923879
    outer loop
      vertex -11.8253 1.6617 4.3383
      vertex -3.1 0 3.65
      vertex -2.56008 1.6617 4.3383
    endloop
  endfacet
  facet normal 0 -0.382684 0.923879
    outer loop
      vertex -3.1 0 3.65
      vertex -11.8253 1.6617 4.3383
      vertex -12 0 3.65
    endloop
  endfacet
  facet normal 0 -0.382684 0.923879
    outer loop
      vertex 11.8253 1.6617 4.3383
      vertex 3.1 0 3.65
      vertex 12 0 3.65
    endloop
  endfacet
  facet normal 0 -0.382684 0.923879
    outer loop
      vertex 3.1 0 3.65
      vertex 11.8253 1.6617 4.3383
      vertex 2.56008 1.6617 4.3383
    endloop
  endfacet
  facet normal 0 -0.923878 0.382686
    outer loop
      vertex -11.753 2.35 6
      vertex -2.50795 1.82213 4.72562
      vertex -1.78141 2.35 6
    endloop
  endfacet
  facet normal 0 -0.923879 0.382684
    outer loop
      vertex -2.56008 1.6617 4.3383
      vertex -11.753 2.35 6
      vertex -11.8253 1.6617 4.3383
    endloop
  endfacet
  facet normal -1.47554e-06 -0.923882 0.382677
    outer loop
      vertex -11.753 2.35 6
      vertex -2.56008 1.6617 4.3383
      vertex -2.50795 1.82213 4.72562
    endloop
  endfacet
  facet normal 0 -0.923878 0.382686
    outer loop
      vertex 2.50795 1.82213 4.72562
      vertex 11.753 2.35 6
      vertex 1.78141 2.35 6
    endloop
  endfacet
  facet normal 1.47554e-06 -0.923882 0.382677
    outer loop
      vertex 2.56008 1.6617 4.3383
      vertex 11.753 2.35 6
      vertex 2.50795 1.82213 4.72562
    endloop
  endfacet
  facet normal 0 -0.923879 0.382684
    outer loop
      vertex 11.753 2.35 6
      vertex 2.56008 1.6617 4.3383
      vertex 11.8253 1.6617 4.3383
    endloop
  endfacet
  facet normal 0 -0.382684 -0.923879
    outer loop
      vertex 3.1 0 8.35
      vertex 11.8253 1.6617 7.6617
      vertex 12 0 8.35
    endloop
  endfacet
  facet normal -0 -0.382684 -0.923879
    outer loop
      vertex 11.8253 1.6617 7.6617
      vertex 3.1 0 8.35
      vertex 2.56008 1.6617 7.6617
    endloop
  endfacet
  facet normal 0 -0.382684 -0.923879
    outer loop
      vertex -3.1 0 8.35
      vertex -11.8253 1.6617 7.6617
      vertex -2.56008 1.6617 7.6617
    endloop
  endfacet
  facet normal 0 -0.382684 -0.923879
    outer loop
      vertex -11.8253 1.6617 7.6617
      vertex -3.1 0 8.35
      vertex -12 0 8.35
    endloop
  endfacet
  facet normal -1.47554e-06 0.923882 -0.382677
    outer loop
      vertex -11.753 -2.35 6
      vertex -2.56008 -1.6617 7.6617
      vertex -2.50795 -1.82213 7.27438
    endloop
  endfacet
  facet normal 0 0.923878 -0.382686
    outer loop
      vertex -11.753 -2.35 6
      vertex -2.50795 -1.82213 7.27438
      vertex -1.78141 -2.35 6
    endloop
  endfacet
  facet normal 0 0.923879 -0.382684
    outer loop
      vertex -2.56008 -1.6617 7.6617
      vertex -11.753 -2.35 6
      vertex -11.8253 -1.6617 7.6617
    endloop
  endfacet
  facet normal 0 0.923879 -0.382684
    outer loop
      vertex 11.753 -2.35 6
      vertex 2.56008 -1.6617 7.6617
      vertex 11.8253 -1.6617 7.6617
    endloop
  endfacet
  facet normal 1.47554e-06 0.923882 -0.382677
    outer loop
      vertex 2.56008 -1.6617 7.6617
      vertex 11.753 -2.35 6
      vertex 2.50795 -1.82213 7.27438
    endloop
  endfacet
  facet normal 0 0.923878 -0.382686
    outer loop
      vertex 2.50795 -1.82213 7.27438
      vertex 11.753 -2.35 6
      vertex 1.78141 -2.35 6
    endloop
  endfacet
  facet normal 0 0.923878 0.382686
    outer loop
      vertex -2.50795 -1.82213 4.72562
      vertex -11.753 -2.35 6
      vertex -1.78141 -2.35 6
    endloop
  endfacet
  facet normal -1.47554e-06 0.923882 0.382677
    outer loop
      vertex -2.56008 -1.6617 4.3383
      vertex -11.753 -2.35 6
      vertex -2.50795 -1.82213 4.72562
    endloop
  endfacet
  facet normal 0 0.923879 0.382684
    outer loop
      vertex -11.753 -2.35 6
      vertex -2.56008 -1.6617 4.3383
      vertex -11.8253 -1.6617 4.3383
    endloop
  endfacet
  facet normal 0 0.923878 0.382686
    outer loop
      vertex 11.753 -2.35 6
      vertex 2.50795 -1.82213 4.72562
      vertex 1.78141 -2.35 6
    endloop
  endfacet
  facet normal -0 0.923879 0.382684
    outer loop
      vertex 2.56008 -1.6617 4.3383
      vertex 11.753 -2.35 6
      vertex 11.8253 -1.6617 4.3383
    endloop
  endfacet
  facet normal 1.47554e-06 0.923882 0.382677
    outer loop
      vertex 11.753 -2.35 6
      vertex 2.56008 -1.6617 4.3383
      vertex 2.50795 -1.82213 4.72562
    endloop
  endfacet
  facet normal 0 -0.923879 -0.382684
    outer loop
      vertex -11.753 2.35 6
      vertex -2.56008 1.6617 7.6617
      vertex -11.8253 1.6617 7.6617
    endloop
  endfacet
  facet normal -1.47554e-06 -0.923882 -0.382677
    outer loop
      vertex -2.56008 1.6617 7.6617
      vertex -11.753 2.35 6
      vertex -2.50795 1.82213 7.27438
    endloop
  endfacet
  facet normal 0 -0.923878 -0.382686
    outer loop
      vertex -2.50795 1.82213 7.27438
      vertex -11.753 2.35 6
      vertex -1.78141 2.35 6
    endloop
  endfacet
  facet normal 1.47554e-06 -0.923882 -0.382677
    outer loop
      vertex 11.753 2.35 6
      vertex 2.56008 1.6617 7.6617
      vertex 2.50795 1.82213 7.27438
    endloop
  endfacet
  facet normal -0 -0.923878 -0.382686
    outer loop
      vertex 11.753 2.35 6
      vertex 2.50795 1.82213 7.27438
      vertex 1.78141 2.35 6
    endloop
  endfacet
  facet normal 0 -0.923879 -0.382684
    outer loop
      vertex 2.56008 1.6617 7.6617
      vertex 11.753 2.35 6
      vertex 11.8253 1.6617 7.6617
    endloop
  endfacet
endsolid OpenSCAD_Model
