solid OpenSCAD_Model
  facet normal -1 0 0
    outer loop
      vertex 5 40 0
      vertex 5 39.5073 3
      vertex 5 40 3
    endloop
  endfacet
  facet normal -1 0 0
    outer loop
      vertex 5 36.4927 3
      vertex 5 39.5073 3
      vertex 5 40 0
    endloop
  endfacet
  facet normal -1 0 0
    outer loop
      vertex 5 39.5073 3
      vertex 5 36.4927 3
      vertex 5 38.8678 3.80194
    endloop
  endfacet
  facet normal -1 -0 0
    outer loop
      vertex 5 38.8678 3.80194
      vertex 5 36.4927 3
      vertex 5 37.1322 3.80194
    endloop
  endfacet
  facet normal -1 0 0
    outer loop
      vertex 5 19.8 0
      vertex 5 36.4927 3
      vertex 5 40 0
    endloop
  endfacet
  facet normal -1 -0 0
    outer loop
      vertex 5 36.4927 3
      vertex 5 19.8 0
      vertex 5 19.8 3
    endloop
  endfacet
  facet normal -1 0 0
    outer loop
      vertex 5 -19.8 0
      vertex 5 -36.4927 3
      vertex 5 -19.8 3
    endloop
  endfacet
  facet normal -1 0 0
    outer loop
      vertex 5 -36.4927 3
      vertex 5 -38.8678 3.80194
      vertex 5 -37.1322 3.80194
    endloop
  endfacet
  facet normal -1 0 0
    outer loop
      vertex 5 -36.4927 3
      vertex 5 -39.5073 3
      vertex 5 -38.8678 3.80194
    endloop
  endfacet
  facet normal -1 0 0
    outer loop
      vertex 5 -40 0
      vertex 5 -36.4927 3
      vertex 5 -19.8 0
    endloop
  endfacet
  facet normal -1 -0 0
    outer loop
      vertex 5 -36.4927 3
      vertex 5 -40 0
      vertex 5 -39.5073 3
    endloop
  endfacet
  facet normal -1 -0 0
    outer loop
      vertex 5 -39.5073 3
      vertex 5 -40 0
      vertex 5 -40 3
    endloop
  endfacet
  facet normal -0 0 1
    outer loop
      vertex 0.263525 13.5734 3
      vertex 1.3 -15 3
      vertex 1.3 15 3
    endloop
  endfacet
  facet normal 0 0 1
    outer loop
      vertex 0.263525 13.5734 3
      vertex 0.263525 -13.5734 3
      vertex 1.3 -15 3
    endloop
  endfacet
  facet normal 0 0 1
    outer loop
      vertex -1.41352 14.1183 3
      vertex 0.263525 -13.5734 3
      vertex 0.263525 13.5734 3
    endloop
  endfacet
  facet normal 0 0 1
    outer loop
      vertex 0.263525 -13.5734 3
      vertex -1.41352 14.1183 3
      vertex -1.41352 -14.1183 3
    endloop
  endfacet
  facet normal 0 0 1
    outer loop
      vertex 5 19.8 3
      vertex 1.3 15 3
      vertex 5 -19.8 3
    endloop
  endfacet
  facet normal 0 0 1
    outer loop
      vertex 5 19.8 3
      vertex 0.263525 16.4266 3
      vertex 1.3 15 3
    endloop
  endfacet
  facet normal -0 0 1
    outer loop
      vertex -5 19.8 3
      vertex 0.263525 16.4266 3
      vertex 5 19.8 3
    endloop
  endfacet
  facet normal 0 0 1
    outer loop
      vertex -5 19.8 3
      vertex -1.41352 14.1183 3
      vertex -1.41352 15.8817 3
    endloop
  endfacet
  facet normal 0 0 1
    outer loop
      vertex -1.41352 14.1183 3
      vertex -5 19.8 3
      vertex -1.41352 -14.1183 3
    endloop
  endfacet
  facet normal 0 0 1
    outer loop
      vertex -5 -19.8 3
      vertex -1.41352 -14.1183 3
      vertex -5 19.8 3
    endloop
  endfacet
  facet normal 0 0 1
    outer loop
      vertex 0.263525 16.4266 3
      vertex -5 19.8 3
      vertex -1.41352 15.8817 3
    endloop
  endfacet
  facet normal 0 0 1
    outer loop
      vertex 5 19.8 3
      vertex 8 36.4927 3
      vertex 5 36.4927 3
    endloop
  endfacet
  facet normal 0 0 1
    outer loop
      vertex 8 36.4927 3
      vertex 5 19.8 3
      vertex 8 -36.4927 3
    endloop
  endfacet
  facet normal -0 0 1
    outer loop
      vertex 5 -19.8 3
      vertex 8 -36.4927 3
      vertex 5 19.8 3
    endloop
  endfacet
  facet normal 0 0 1
    outer loop
      vertex 8 -36.4927 3
      vertex 5 -19.8 3
      vertex 5 -36.4927 3
    endloop
  endfacet
  facet normal -0 0 1
    outer loop
      vertex 1.3 -15 3
      vertex 5 -19.8 3
      vertex 1.3 15 3
    endloop
  endfacet
  facet normal -0 0 1
    outer loop
      vertex 0.263525 -16.4266 3
      vertex 5 -19.8 3
      vertex 1.3 -15 3
    endloop
  endfacet
  facet normal 0 0 1
    outer loop
      vertex -5 -19.8 3
      vertex 0.263525 -16.4266 3
      vertex -1.41352 -15.8817 3
    endloop
  endfacet
  facet normal 0 0 1
    outer loop
      vertex 0.263525 -16.4266 3
      vertex -5 -19.8 3
      vertex 5 -19.8 3
    endloop
  endfacet
  facet normal 0 0 1
    outer loop
      vertex -1.41352 -14.1183 3
      vertex -5 -19.8 3
      vertex -1.41352 -15.8817 3
    endloop
  endfacet
  facet normal -0 0 1
    outer loop
      vertex 5 40 3
      vertex 8 39.5073 3
      vertex 8 40 3
    endloop
  endfacet
  facet normal 0 0 1
    outer loop
      vertex 8 39.5073 3
      vertex 5 40 3
      vertex 5 39.5073 3
    endloop
  endfacet
  facet normal -0 0 1
    outer loop
      vertex 5 -39.5073 3
      vertex 8 -40 3
      vertex 8 -39.5073 3
    endloop
  endfacet
  facet normal 0 0 1
    outer loop
      vertex 8 -40 3
      vertex 5 -39.5073 3
      vertex 5 -40 3
    endloop
  endfacet
  facet normal 0 0 -1
    outer loop
      vertex 0.263525 -13.5734 0
      vertex 1.3 15 0
      vertex 1.3 -15 0
    endloop
  endfacet
  facet normal 0 0 -1
    outer loop
      vertex 0.263525 -13.5734 0
      vertex 0.263525 13.5734 0
      vertex 1.3 15 0
    endloop
  endfacet
  facet normal 0 0 -1
    outer loop
      vertex -1.41352 -14.1183 0
      vertex 0.263525 13.5734 0
      vertex 0.263525 -13.5734 0
    endloop
  endfacet
  facet normal -0 0 -1
    outer loop
      vertex 0.263525 13.5734 0
      vertex -1.41352 -14.1183 0
      vertex -1.41352 14.1183 0
    endloop
  endfacet
  facet normal 0 0 -1
    outer loop
      vertex 5 -19.8 0
      vertex 1.3 -15 0
      vertex 5 19.8 0
    endloop
  endfacet
  facet normal 0 0 -1
    outer loop
      vertex 5 -19.8 0
      vertex 0.263525 -16.4266 0
      vertex 1.3 -15 0
    endloop
  endfacet
  facet normal 0 0 -1
    outer loop
      vertex -5 -19.8 0
      vertex 0.263525 -16.4266 0
      vertex 5 -19.8 0
    endloop
  endfacet
  facet normal 0 0 -1
    outer loop
      vertex -5 -19.8 0
      vertex -1.41352 -14.1183 0
      vertex -1.41352 -15.8817 0
    endloop
  endfacet
  facet normal -0 0 -1
    outer loop
      vertex -1.41352 -14.1183 0
      vertex -5 -19.8 0
      vertex -1.41352 14.1183 0
    endloop
  endfacet
  facet normal 0 0 -1
    outer loop
      vertex -5 19.8 0
      vertex -1.41352 14.1183 0
      vertex -5 -19.8 0
    endloop
  endfacet
  facet normal -0 0 -1
    outer loop
      vertex 0.263525 -16.4266 0
      vertex -5 -19.8 0
      vertex -1.41352 -15.8817 0
    endloop
  endfacet
  facet normal 0 0 -1
    outer loop
      vertex 5 -19.8 0
      vertex 8 -40 0
      vertex 5 -40 0
    endloop
  endfacet
  facet normal 0 0 -1
    outer loop
      vertex 8 -40 0
      vertex 5 -19.8 0
      vertex 8 40 0
    endloop
  endfacet
  facet normal 0 0 -1
    outer loop
      vertex 5 19.8 0
      vertex 8 40 0
      vertex 5 -19.8 0
    endloop
  endfacet
  facet normal -0 0 -1
    outer loop
      vertex 8 40 0
      vertex 5 19.8 0
      vertex 5 40 0
    endloop
  endfacet
  facet normal 0 0 -1
    outer loop
      vertex 1.3 15 0
      vertex 5 19.8 0
      vertex 1.3 -15 0
    endloop
  endfacet
  facet normal 0 0 -1
    outer loop
      vertex 0.263525 16.4266 0
      vertex 5 19.8 0
      vertex 1.3 15 0
    endloop
  endfacet
  facet normal 0 0 -1
    outer loop
      vertex -5 19.8 0
      vertex 0.263525 16.4266 0
      vertex -1.41352 15.8817 0
    endloop
  endfacet
  facet normal 0 0 -1
    outer loop
      vertex 0.263525 16.4266 0
      vertex -5 19.8 0
      vertex 5 19.8 0
    endloop
  endfacet
  facet normal 0 0 -1
    outer loop
      vertex -1.41352 14.1183 0
      vertex -5 19.8 0
      vertex -1.41352 15.8817 0
    endloop
  endfacet
  facet normal -1 0 0
    outer loop
      vertex -5 -19.8 0
      vertex -5 19.8 3
      vertex -5 19.8 0
    endloop
  endfacet
  facet normal -1 -0 0
    outer loop
      vertex -5 19.8 3
      vertex -5 -19.8 0
      vertex -5 -19.8 3
    endloop
  endfacet
  facet normal 0 1 -0
    outer loop
      vertex 5 19.8 0
      vertex -5 19.8 3
      vertex 5 19.8 3
    endloop
  endfacet
  facet normal 0 1 0
    outer loop
      vertex -5 19.8 3
      vertex 5 19.8 0
      vertex -5 19.8 0
    endloop
  endfacet
  facet normal 0 -1 0
    outer loop
      vertex -5 -19.8 0
      vertex 5 -19.8 3
      vertex -5 -19.8 3
    endloop
  endfacet
  facet normal 0 -1 -0
    outer loop
      vertex 5 -19.8 3
      vertex -5 -19.8 0
      vertex 5 -19.8 0
    endloop
  endfacet
  facet normal 1 -0 0
    outer loop
      vertex 8 39.5073 3
      vertex 8 40 0
      vertex 8 40 3
    endloop
  endfacet
  facet normal 1 0 0
    outer loop
      vertex 8 36.4927 3
      vertex 8 39.5073 3
      vertex 8 38.8678 3.80194
    endloop
  endfacet
  facet normal 1 0 0
    outer loop
      vertex 8 36.4927 3
      vertex 8 38.8678 3.80194
      vertex 8 37.1322 3.80194
    endloop
  endfacet
  facet normal 1 0 0
    outer loop
      vertex 8 39.5073 3
      vertex 8 36.4927 3
      vertex 8 40 0
    endloop
  endfacet
  facet normal 1 -0 0
    outer loop
      vertex 8 -36.4927 3
      vertex 8 40 0
      vertex 8 36.4927 3
    endloop
  endfacet
  facet normal 1 -0 0
    outer loop
      vertex 8 -38.8678 3.80194
      vertex 8 -36.4927 3
      vertex 8 -37.1322 3.80194
    endloop
  endfacet
  facet normal 1 0 0
    outer loop
      vertex 8 -39.5073 3
      vertex 8 -36.4927 3
      vertex 8 -38.8678 3.80194
    endloop
  endfacet
  facet normal 1 0 0
    outer loop
      vertex 8 -40 0
      vertex 8 -36.4927 3
      vertex 8 -39.5073 3
    endloop
  endfacet
  facet normal 1 0 0
    outer loop
      vertex 8 -40 0
      vertex 8 -39.5073 3
      vertex 8 -40 3
    endloop
  endfacet
  facet normal 1 0 0
    outer loop
      vertex 8 -36.4927 3
      vertex 8 -40 0
      vertex 8 40 0
    endloop
  endfacet
  facet normal 0 1 -0
    outer loop
      vertex 8 40 0
      vertex 5 40 3
      vertex 8 40 3
    endloop
  endfacet
  facet normal 0 1 0
    outer loop
      vertex 5 40 3
      vertex 8 40 0
      vertex 5 40 0
    endloop
  endfacet
  facet normal 0 -1 0
    outer loop
      vertex 5 -40 0
      vertex 8 -40 3
      vertex 5 -40 3
    endloop
  endfacet
  facet normal 0 -1 -0
    outer loop
      vertex 8 -40 3
      vertex 5 -40 0
      vertex 8 -40 0
    endloop
  endfacet
  facet normal 0 -0.781844 0.623474
    outer loop
      vertex 5 -39.5073 3
      vertex 8 -38.8678 3.80194
      vertex 5 -38.8678 3.80194
    endloop
  endfacet
  facet normal 0 -0.781844 0.623474
    outer loop
      vertex 8 -38.8678 3.80194
      vertex 5 -39.5073 3
      vertex 8 -39.5073 3
    endloop
  endfacet
  facet normal -0 0 1
    outer loop
      vertex 5 -37.1322 3.80194
      vertex 8 -38.8678 3.80194
      vertex 8 -37.1322 3.80194
    endloop
  endfacet
  facet normal 0 0 1
    outer loop
      vertex 8 -38.8678 3.80194
      vertex 5 -37.1322 3.80194
      vertex 5 -38.8678 3.80194
    endloop
  endfacet
  facet normal 0 0.781844 0.623474
    outer loop
      vertex 8 -36.4927 3
      vertex 5 -37.1322 3.80194
      vertex 8 -37.1322 3.80194
    endloop
  endfacet
  facet normal 0 0.781844 0.623474
    outer loop
      vertex 5 -37.1322 3.80194
      vertex 8 -36.4927 3
      vertex 5 -36.4927 3
    endloop
  endfacet
  facet normal 0 0.781844 0.623474
    outer loop
      vertex 8 39.5073 3
      vertex 5 38.8678 3.80194
      vertex 8 38.8678 3.80194
    endloop
  endfacet
  facet normal 0 0.781844 0.623474
    outer loop
      vertex 5 38.8678 3.80194
      vertex 8 39.5073 3
      vertex 5 39.5073 3
    endloop
  endfacet
  facet normal 0 -0.781844 0.623474
    outer loop
      vertex 5 36.4927 3
      vertex 8 37.1322 3.80194
      vertex 5 37.1322 3.80194
    endloop
  endfacet
  facet normal 0 -0.781844 0.623474
    outer loop
      vertex 8 37.1322 3.80194
      vertex 5 36.4927 3
      vertex 8 36.4927 3
    endloop
  endfacet
  facet normal -0 0 1
    outer loop
      vertex 5 38.8678 3.80194
      vertex 8 37.1322 3.80194
      vertex 8 38.8678 3.80194
    endloop
  endfacet
  facet normal 0 0 1
    outer loop
      vertex 8 37.1322 3.80194
      vertex 5 38.8678 3.80194
      vertex 5 37.1322 3.80194
    endloop
  endfacet
  facet normal 0.309014 0.951057 -0
    outer loop
      vertex 0.263525 -16.4266 0
      vertex -1.41352 -15.8817 3
      vertex 0.263525 -16.4266 3
    endloop
  endfacet
  facet normal 0.309014 0.951057 0
    outer loop
      vertex -1.41352 -15.8817 3
      vertex 0.263525 -16.4266 0
      vertex -1.41352 -15.8817 0
    endloop
  endfacet
  facet normal 0.309014 -0.951057 0
    outer loop
      vertex -1.41352 -14.1183 0
      vertex 0.263525 -13.5734 3
      vertex -1.41352 -14.1183 3
    endloop
  endfacet
  facet normal 0.309014 -0.951057 0
    outer loop
      vertex 0.263525 -13.5734 3
      vertex -1.41352 -14.1183 0
      vertex 0.263525 -13.5734 0
    endloop
  endfacet
  facet normal -0.80902 -0.587781 0
    outer loop
      vertex 1.3 -15 0
      vertex 0.263525 -13.5734 3
      vertex 0.263525 -13.5734 0
    endloop
  endfacet
  facet normal -0.80902 -0.587781 0
    outer loop
      vertex 0.263525 -13.5734 3
      vertex 1.3 -15 0
      vertex 1.3 -15 3
    endloop
  endfacet
  facet normal 1 -0 0
    outer loop
      vertex -1.41352 -15.8817 3
      vertex -1.41352 -14.1183 0
      vertex -1.41352 -14.1183 3
    endloop
  endfacet
  facet normal 1 0 0
    outer loop
      vertex -1.41352 -14.1183 0
      vertex -1.41352 -15.8817 3
      vertex -1.41352 -15.8817 0
    endloop
  endfacet
  facet normal -0.80902 0.587781 0
    outer loop
      vertex 0.263525 -16.4266 0
      vertex 1.3 -15 3
      vertex 1.3 -15 0
    endloop
  endfacet
  facet normal -0.80902 0.587781 0
    outer loop
      vertex 1.3 -15 3
      vertex 0.263525 -16.4266 0
      vertex 0.263525 -16.4266 3
    endloop
  endfacet
  facet normal 0.309014 0.951057 -0
    outer loop
      vertex 0.263525 13.5734 0
      vertex -1.41352 14.1183 3
      vertex 0.263525 13.5734 3
    endloop
  endfacet
  facet normal 0.309014 0.951057 0
    outer loop
      vertex -1.41352 14.1183 3
      vertex 0.263525 13.5734 0
      vertex -1.41352 14.1183 0
    endloop
  endfacet
  facet normal 0.309014 -0.951057 0
    outer loop
      vertex -1.41352 15.8817 0
      vertex 0.263525 16.4266 3
      vertex -1.41352 15.8817 3
    endloop
  endfacet
  facet normal 0.309014 -0.951057 0
    outer loop
      vertex 0.263525 16.4266 3
      vertex -1.41352 15.8817 0
      vertex 0.263525 16.4266 0
    endloop
  endfacet
  facet normal -0.80902 -0.587781 0
    outer loop
      vertex 1.3 15 0
      vertex 0.263525 16.4266 3
      vertex 0.263525 16.4266 0
    endloop
  endfacet
  facet normal -0.80902 -0.587781 0
    outer loop
      vertex 0.263525 16.4266 3
      vertex 1.3 15 0
      vertex 1.3 15 3
    endloop
  endfacet
  facet normal 1 -0 0
    outer loop
      vertex -1.41352 14.1183 3
      vertex -1.41352 15.8817 0
      vertex -1.41352 15.8817 3
    endloop
  endfacet
  facet normal 1 0 0
    outer loop
      vertex -1.41352 15.8817 0
      vertex -1.41352 14.1183 3
      vertex -1.41352 14.1183 0
    endloop
  endfacet
  facet normal -0.80902 0.587781 0
    outer loop
      vertex 0.263525 13.5734 0
      vertex 1.3 15 3
      vertex 1.3 15 0
    endloop
  endfacet
  facet normal -0.80902 0.587781 0
    outer loop
      vertex 1.3 15 3
      vertex 0.263525 13.5734 0
      vertex 0.263525 13.5734 3
    endloop
  endfacet
  facet normal -1 0 0
    outer loop
      vertex 55 40 0
      vertex 55 39.5073 3
      vertex 55 40 3
    endloop
  endfacet
  facet normal -1 0 0
    outer loop
      vertex 55 36.4927 3
      vertex 55 39.5073 3
      vertex 55 40 0
    endloop
  endfacet
  facet normal -1 0 0
    outer loop
      vertex 55 39.5073 3
      vertex 55 36.4927 3
      vertex 55 38.8678 3.80194
    endloop
  endfacet
  facet normal -1 -0 0
    outer loop
      vertex 55 38.8678 3.80194
      vertex 55 36.4927 3
      vertex 55 37.1322 3.80194
    endloop
  endfacet
  facet normal -1 0 0
    outer loop
      vertex 55 19.8 0
      vertex 55 36.4927 3
      vertex 55 40 0
    endloop
  endfacet
  facet normal -1 -0 0
    outer loop
      vertex 55 36.4927 3
      vertex 55 19.8 0
      vertex 55 19.8 3
    endloop
  endfacet
  facet normal -1 0 0
    outer loop
      vertex 55 -19.8 0
      vertex 55 -36.4927 3
      vertex 55 -19.8 3
    endloop
  endfacet
  facet normal -1 0 0
    outer loop
      vertex 55 -36.4927 3
      vertex 55 -38.8678 3.80194
      vertex 55 -37.1322 3.80194
    endloop
  endfacet
  facet normal -1 0 0
    outer loop
      vertex 55 -36.4927 3
      vertex 55 -39.5073 3
      vertex 55 -38.8678 3.80194
    endloop
  endfacet
  facet normal -1 0 0
    outer loop
      vertex 55 -40 0
      vertex 55 -36.4927 3
      vertex 55 -19.8 0
    endloop
  endfacet
  facet normal -1 -0 0
    outer loop
      vertex 55 -36.4927 3
      vertex 55 -40 0
      vertex 55 -39.5073 3
    endloop
  endfacet
  facet normal -1 -0 0
    outer loop
      vertex 55 -39.5073 3
      vertex 55 -40 0
      vertex 55 -40 3
    endloop
  endfacet
  facet normal -0 0 1
    outer loop
      vertex 50.2635 13.5734 3
      vertex 51.3 -15 3
      vertex 51.3 15 3
    endloop
  endfacet
  facet normal 0 0 1
    outer loop
      vertex 50.2635 13.5734 3
      vertex 50.2635 -13.5734 3
      vertex 51.3 -15 3
    endloop
  endfacet
  facet normal 0 0 1
    outer loop
      vertex 48.5865 14.1183 3
      vertex 50.2635 -13.5734 3
      vertex 50.2635 13.5734 3
    endloop
  endfacet
  facet normal 0 0 1
    outer loop
      vertex 50.2635 -13.5734 3
      vertex 48.5865 14.1183 3
      vertex 48.5865 -14.1183 3
    endloop
  endfacet
  facet normal 0 0 1
    outer loop
      vertex 55 19.8 3
      vertex 51.3 15 3
      vertex 55 -19.8 3
    endloop
  endfacet
  facet normal 0 0 1
    outer loop
      vertex 55 19.8 3
      vertex 50.2635 16.4266 3
      vertex 51.3 15 3
    endloop
  endfacet
  facet normal -0 0 1
    outer loop
      vertex 45 19.8 3
      vertex 50.2635 16.4266 3
      vertex 55 19.8 3
    endloop
  endfacet
  facet normal 0 0 1
    outer loop
      vertex 45 19.8 3
      vertex 48.5865 14.1183 3
      vertex 48.5865 15.8817 3
    endloop
  endfacet
  facet normal 0 0 1
    outer loop
      vertex 48.5865 14.1183 3
      vertex 45 19.8 3
      vertex 48.5865 -14.1183 3
    endloop
  endfacet
  facet normal 0 0 1
    outer loop
      vertex 45 -19.8 3
      vertex 48.5865 -14.1183 3
      vertex 45 19.8 3
    endloop
  endfacet
  facet normal 0 0 1
    outer loop
      vertex 50.2635 16.4266 3
      vertex 45 19.8 3
      vertex 48.5865 15.8817 3
    endloop
  endfacet
  facet normal 0 0 1
    outer loop
      vertex 55 19.8 3
      vertex 58 36.4927 3
      vertex 55 36.4927 3
    endloop
  endfacet
  facet normal 0 0 1
    outer loop
      vertex 58 36.4927 3
      vertex 55 19.8 3
      vertex 58 -36.4927 3
    endloop
  endfacet
  facet normal -0 0 1
    outer loop
      vertex 55 -19.8 3
      vertex 58 -36.4927 3
      vertex 55 19.8 3
    endloop
  endfacet
  facet normal 0 0 1
    outer loop
      vertex 58 -36.4927 3
      vertex 55 -19.8 3
      vertex 55 -36.4927 3
    endloop
  endfacet
  facet normal -0 0 1
    outer loop
      vertex 51.3 -15 3
      vertex 55 -19.8 3
      vertex 51.3 15 3
    endloop
  endfacet
  facet normal -0 0 1
    outer loop
      vertex 50.2635 -16.4266 3
      vertex 55 -19.8 3
      vertex 51.3 -15 3
    endloop
  endfacet
  facet normal 0 0 1
    outer loop
      vertex 45 -19.8 3
      vertex 50.2635 -16.4266 3
      vertex 48.5865 -15.8817 3
    endloop
  endfacet
  facet normal 0 0 1
    outer loop
      vertex 50.2635 -16.4266 3
      vertex 45 -19.8 3
      vertex 55 -19.8 3
    endloop
  endfacet
  facet normal 0 0 1
    outer loop
      vertex 48.5865 -14.1183 3
      vertex 45 -19.8 3
      vertex 48.5865 -15.8817 3
    endloop
  endfacet
  facet normal -0 0 1
    outer loop
      vertex 55 40 3
      vertex 58 39.5073 3
      vertex 58 40 3
    endloop
  endfacet
  facet normal 0 0 1
    outer loop
      vertex 58 39.5073 3
      vertex 55 40 3
      vertex 55 39.5073 3
    endloop
  endfacet
  facet normal -0 0 1
    outer loop
      vertex 55 -39.5073 3
      vertex 58 -40 3
      vertex 58 -39.5073 3
    endloop
  endfacet
  facet normal 0 0 1
    outer loop
      vertex 58 -40 3
      vertex 55 -39.5073 3
      vertex 55 -40 3
    endloop
  endfacet
  facet normal 0 0 -1
    outer loop
      vertex 50.2635 -13.5734 0
      vertex 51.3 15 0
      vertex 51.3 -15 0
    endloop
  endfacet
  facet normal 0 0 -1
    outer loop
      vertex 50.2635 -13.5734 0
      vertex 50.2635 13.5734 0
      vertex 51.3 15 0
    endloop
  endfacet
  facet normal 0 0 -1
    outer loop
      vertex 48.5865 -14.1183 0
      vertex 50.2635 13.5734 0
      vertex 50.2635 -13.5734 0
    endloop
  endfacet
  facet normal -0 0 -1
    outer loop
      vertex 50.2635 13.5734 0
      vertex 48.5865 -14.1183 0
      vertex 48.5865 14.1183 0
    endloop
  endfacet
  facet normal 0 0 -1
    outer loop
      vertex 55 -19.8 0
      vertex 51.3 -15 0
      vertex 55 19.8 0
    endloop
  endfacet
  facet normal 0 0 -1
    outer loop
      vertex 55 -19.8 0
      vertex 50.2635 -16.4266 0
      vertex 51.3 -15 0
    endloop
  endfacet
  facet normal 0 0 -1
    outer loop
      vertex 45 -19.8 0
      vertex 50.2635 -16.4266 0
      vertex 55 -19.8 0
    endloop
  endfacet
  facet normal 0 0 -1
    outer loop
      vertex 45 -19.8 0
      vertex 48.5865 -14.1183 0
      vertex 48.5865 -15.8817 0
    endloop
  endfacet
  facet normal -0 0 -1
    outer loop
      vertex 48.5865 -14.1183 0
      vertex 45 -19.8 0
      vertex 48.5865 14.1183 0
    endloop
  endfacet
  facet normal 0 0 -1
    outer loop
      vertex 45 19.8 0
      vertex 48.5865 14.1183 0
      vertex 45 -19.8 0
    endloop
  endfacet
  facet normal -0 0 -1
    outer loop
      vertex 50.2635 -16.4266 0
      vertex 45 -19.8 0
      vertex 48.5865 -15.8817 0
    endloop
  endfacet
  facet normal 0 0 -1
    outer loop
      vertex 55 -19.8 0
      vertex 58 -40 0
      vertex 55 -40 0
    endloop
  endfacet
  facet normal 0 0 -1
    outer loop
      vertex 58 -40 0
      vertex 55 -19.8 0
      vertex 58 40 0
    endloop
  endfacet
  facet normal 0 0 -1
    outer loop
      vertex 55 19.8 0
      vertex 58 40 0
      vertex 55 -19.8 0
    endloop
  endfacet
  facet normal -0 0 -1
    outer loop
      vertex 58 40 0
      vertex 55 19.8 0
      vertex 55 40 0
    endloop
  endfacet
  facet normal 0 0 -1
    outer loop
      vertex 51.3 15 0
      vertex 55 19.8 0
      vertex 51.3 -15 0
    endloop
  endfacet
  facet normal 0 0 -1
    outer loop
      vertex 50.2635 16.4266 0
      vertex 55 19.8 0
      vertex 51.3 15 0
    endloop
  endfacet
  facet normal 0 0 -1
    outer loop
      vertex 45 19.8 0
      vertex 50.2635 16.4266 0
      vertex 48.5865 15.8817 0
    endloop
  endfacet
  facet normal 0 0 -1
    outer loop
      vertex 50.2635 16.4266 0
      vertex 45 19.8 0
      vertex 55 19.8 0
    endloop
  endfacet
  facet normal 0 0 -1
    outer loop
      vertex 48.5865 14.1183 0
      vertex 45 19.8 0
      vertex 48.5865 15.8817 0
    endloop
  endfacet
  facet normal -1 0 0
    outer loop
      vertex 45 -19.8 0
      vertex 45 19.8 3
      vertex 45 19.8 0
    endloop
  endfacet
  facet normal -1 -0 0
    outer loop
      vertex 45 19.8 3
      vertex 45 -19.8 0
      vertex 45 -19.8 3
    endloop
  endfacet
  facet normal 0 1 -0
    outer loop
      vertex 55 19.8 0
      vertex 45 19.8 3
      vertex 55 19.8 3
    endloop
  endfacet
  facet normal 0 1 0
    outer loop
      vertex 45 19.8 3
      vertex 55 19.8 0
      vertex 45 19.8 0
    endloop
  endfacet
  facet normal 0 -1 0
    outer loop
      vertex 45 -19.8 0
      vertex 55 -19.8 3
      vertex 45 -19.8 3
    endloop
  endfacet
  facet normal 0 -1 -0
    outer loop
      vertex 55 -19.8 3
      vertex 45 -19.8 0
      vertex 55 -19.8 0
    endloop
  endfacet
  facet normal 1 -0 0
    outer loop
      vertex 58 39.5073 3
      vertex 58 40 0
      vertex 58 40 3
    endloop
  endfacet
  facet normal 1 0 0
    outer loop
      vertex 58 36.4927 3
      vertex 58 39.5073 3
      vertex 58 38.8678 3.80194
    endloop
  endfacet
  facet normal 1 0 0
    outer loop
      vertex 58 36.4927 3
      vertex 58 38.8678 3.80194
      vertex 58 37.1322 3.80194
    endloop
  endfacet
  facet normal 1 0 0
    outer loop
      vertex 58 39.5073 3
      vertex 58 36.4927 3
      vertex 58 40 0
    endloop
  endfacet
  facet normal 1 -0 0
    outer loop
      vertex 58 -36.4927 3
      vertex 58 40 0
      vertex 58 36.4927 3
    endloop
  endfacet
  facet normal 1 -0 0
    outer loop
      vertex 58 -38.8678 3.80194
      vertex 58 -36.4927 3
      vertex 58 -37.1322 3.80194
    endloop
  endfacet
  facet normal 1 0 0
    outer loop
      vertex 58 -39.5073 3
      vertex 58 -36.4927 3
      vertex 58 -38.8678 3.80194
    endloop
  endfacet
  facet normal 1 0 0
    outer loop
      vertex 58 -40 0
      vertex 58 -36.4927 3
      vertex 58 -39.5073 3
    endloop
  endfacet
  facet normal 1 0 0
    outer loop
      vertex 58 -40 0
      vertex 58 -39.5073 3
      vertex 58 -40 3
    endloop
  endfacet
  facet normal 1 0 0
    outer loop
      vertex 58 -36.4927 3
      vertex 58 -40 0
      vertex 58 40 0
    endloop
  endfacet
  facet normal 0 1 -0
    outer loop
      vertex 58 40 0
      vertex 55 40 3
      vertex 58 40 3
    endloop
  endfacet
  facet normal 0 1 0
    outer loop
      vertex 55 40 3
      vertex 58 40 0
      vertex 55 40 0
    endloop
  endfacet
  facet normal 0 -1 0
    outer loop
      vertex 55 -40 0
      vertex 58 -40 3
      vertex 55 -40 3
    endloop
  endfacet
  facet normal 0 -1 -0
    outer loop
      vertex 58 -40 3
      vertex 55 -40 0
      vertex 58 -40 0
    endloop
  endfacet
  facet normal 0 -0.781844 0.623474
    outer loop
      vertex 55 -39.5073 3
      vertex 58 -38.8678 3.80194
      vertex 55 -38.8678 3.80194
    endloop
  endfacet
  facet normal 0 -0.781844 0.623474
    outer loop
      vertex 58 -38.8678 3.80194
      vertex 55 -39.5073 3
      vertex 58 -39.5073 3
    endloop
  endfacet
  facet normal -0 0 1
    outer loop
      vertex 55 -37.1322 3.80194
      vertex 58 -38.8678 3.80194
      vertex 58 -37.1322 3.80194
    endloop
  endfacet
  facet normal 0 0 1
    outer loop
      vertex 58 -38.8678 3.80194
      vertex 55 -37.1322 3.80194
      vertex 55 -38.8678 3.80194
    endloop
  endfacet
  facet normal 0 0.781844 0.623474
    outer loop
      vertex 58 -36.4927 3
      vertex 55 -37.1322 3.80194
      vertex 58 -37.1322 3.80194
    endloop
  endfacet
  facet normal 0 0.781844 0.623474
    outer loop
      vertex 55 -37.1322 3.80194
      vertex 58 -36.4927 3
      vertex 55 -36.4927 3
    endloop
  endfacet
  facet normal 0 0.781844 0.623474
    outer loop
      vertex 58 39.5073 3
      vertex 55 38.8678 3.80194
      vertex 58 38.8678 3.80194
    endloop
  endfacet
  facet normal 0 0.781844 0.623474
    outer loop
      vertex 55 38.8678 3.80194
      vertex 58 39.5073 3
      vertex 55 39.5073 3
    endloop
  endfacet
  facet normal 0 -0.781844 0.623474
    outer loop
      vertex 55 36.4927 3
      vertex 58 37.1322 3.80194
      vertex 55 37.1322 3.80194
    endloop
  endfacet
  facet normal 0 -0.781844 0.623474
    outer loop
      vertex 58 37.1322 3.80194
      vertex 55 36.4927 3
      vertex 58 36.4927 3
    endloop
  endfacet
  facet normal -0 0 1
    outer loop
      vertex 55 38.8678 3.80194
      vertex 58 37.1322 3.80194
      vertex 58 38.8678 3.80194
    endloop
  endfacet
  facet normal 0 0 1
    outer loop
      vertex 58 37.1322 3.80194
      vertex 55 38.8678 3.80194
      vertex 55 37.1322 3.80194
    endloop
  endfacet
  facet normal 0.309022 0.951055 -0
    outer loop
      vertex 50.2635 -16.4266 0
      vertex 48.5865 -15.8817 3
      vertex 50.2635 -16.4266 3
    endloop
  endfacet
  facet normal 0.309022 0.951055 0
    outer loop
      vertex 48.5865 -15.8817 3
      vertex 50.2635 -16.4266 0
      vertex 48.5865 -15.8817 0
    endloop
  endfacet
  facet normal 0.309022 -0.951055 0
    outer loop
      vertex 48.5865 -14.1183 0
      vertex 50.2635 -13.5734 3
      vertex 48.5865 -14.1183 3
    endloop
  endfacet
  facet normal 0.309022 -0.951055 0
    outer loop
      vertex 50.2635 -13.5734 3
      vertex 48.5865 -14.1183 0
      vertex 50.2635 -13.5734 0
    endloop
  endfacet
  facet normal -0.809013 -0.587791 0
    outer loop
      vertex 51.3 -15 0
      vertex 50.2635 -13.5734 3
      vertex 50.2635 -13.5734 0
    endloop
  endfacet
  facet normal -0.809013 -0.587791 0
    outer loop
      vertex 50.2635 -13.5734 3
      vertex 51.3 -15 0
      vertex 51.3 -15 3
    endloop
  endfacet
  facet normal 1 -0 0
    outer loop
      vertex 48.5865 -15.8817 3
      vertex 48.5865 -14.1183 0
      vertex 48.5865 -14.1183 3
    endloop
  endfacet
  facet normal 1 0 0
    outer loop
      vertex 48.5865 -14.1183 0
      vertex 48.5865 -15.8817 3
      vertex 48.5865 -15.8817 0
    endloop
  endfacet
  facet normal -0.809013 0.587791 0
    outer loop
      vertex 50.2635 -16.4266 0
      vertex 51.3 -15 3
      vertex 51.3 -15 0
    endloop
  endfacet
  facet normal -0.809013 0.587791 0
    outer loop
      vertex 51.3 -15 3
      vertex 50.2635 -16.4266 0
      vertex 50.2635 -16.4266 3
    endloop
  endfacet
  facet normal 0.309022 0.951055 -0
    outer loop
      vertex 50.2635 13.5734 0
      vertex 48.5865 14.1183 3
      vertex 50.2635 13.5734 3
    endloop
  endfacet
  facet normal 0.309022 0.951055 0
    outer loop
      vertex 48.5865 14.1183 3
      vertex 50.2635 13.5734 0
      vertex 48.5865 14.1183 0
    endloop
  endfacet
  facet normal 0.309022 -0.951055 0
    outer loop
      vertex 48.5865 15.8817 0
      vertex 50.2635 16.4266 3
      vertex 48.5865 15.8817 3
    endloop
  endfacet
  facet normal 0.309022 -0.951055 0
    outer loop
      vertex 50.2635 16.4266 3
      vertex 48.5865 15.8817 0
      vertex 50.2635 16.4266 0
    endloop
  endfacet
  facet normal -0.809013 -0.587791 0
    outer loop
      vertex 51.3 15 0
      vertex 50.2635 16.4266 3
      vertex 50.2635 16.4266 0
    endloop
  endfacet
  facet normal -0.809013 -0.587791 0
    outer loop
      vertex 50.2635 16.4266 3
      vertex 51.3 15 0
      vertex 51.3 15 3
    endloop
  endfacet
  facet normal 1 -0 0
    outer loop
      vertex 48.5865 14.1183 3
      vertex 48.5865 15.8817 0
      vertex 48.5865 15.8817 3
    endloop
  endfacet
  facet normal 1 0 0
    outer loop
      vertex 48.5865 15.8817 0
      vertex 48.5865 14.1183 3
      vertex 48.5865 14.1183 0
    endloop
  endfacet
  facet normal -0.809013 0.587791 0
    outer loop
      vertex 50.2635 13.5734 0
      vertex 51.3 15 3
      vertex 51.3 15 0
    endloop
  endfacet
  facet normal -0.809013 0.587791 0
    outer loop
      vertex 51.3 15 3
      vertex 50.2635 13.5734 0
      vertex 50.2635 13.5734 3
    endloop
  endfacet
endsolid OpenSCAD_Model
