solid OpenSCAD_Model
  facet normal 0 0 -1
    outer loop
      vertex 26.8 0 0
      vertex 8.07038 0.901544 0
      vertex 24.5592 8.9507 0
    endloop
  endfacet
  facet normal 0 0 -1
    outer loop
      vertex 7.09555 2.4184 0
      vertex 24.5592 8.9507 0
      vertex 8.07038 0.901544 0
    endloop
  endfacet
  facet normal 0 0 -1
    outer loop
      vertex 1 8.5 0
      vertex 7.09555 2.4184 0
      vertex 5.45541 3.16743 0
    endloop
  endfacet
  facet normal 0 0 -1
    outer loop
      vertex 1 8.5 0
      vertex 5.45541 3.16743 0
      vertex 3.67067 2.91082 0
    endloop
  endfacet
  facet normal 0 0 -1
    outer loop
      vertex 7.09555 2.4184 0
      vertex 1 8.5 0
      vertex 24.5592 8.9507 0
    endloop
  endfacet
  facet normal 0 0 -1
    outer loop
      vertex 2.30799 1.73005 0
      vertex 1 8.5 0
      vertex 3.67067 2.91082 0
    endloop
  endfacet
  facet normal 0 0 -1
    outer loop
      vertex 1.8 0 0
      vertex 1 8.5 0
      vertex 2.30799 1.73005 0
    endloop
  endfacet
  facet normal 0 0 -1
    outer loop
      vertex 1 8.5 0
      vertex 1.8 0 0
      vertex 1 -8.5 0
    endloop
  endfacet
  facet normal 0 0 -1
    outer loop
      vertex 33.0704 -0.901544 0
      vertex 34.5 0 0
      vertex 34.3033 -1.8712 0
    endloop
  endfacet
  facet normal 0 0 -1
    outer loop
      vertex 32.0956 -2.4184 0
      vertex 34.3033 -1.8712 0
      vertex 33.7219 -3.66063 0
    endloop
  endfacet
  facet normal 0 0 -1
    outer loop
      vertex 33.0704 0.901544 0
      vertex 34.5 0 0
      vertex 33.0704 -0.901544 0
    endloop
  endfacet
  facet normal 0 0 -1
    outer loop
      vertex 34.5 0 0
      vertex 33.0704 0.901544 0
      vertex 34.3033 1.8712 0
    endloop
  endfacet
  facet normal 0 0 -1
    outer loop
      vertex 32.0956 -2.4184 0
      vertex 33.7219 -3.66063 0
      vertex 32.7812 -5.29007 0
    endloop
  endfacet
  facet normal -0 0 -1
    outer loop
      vertex 34.3033 -1.8712 0
      vertex 32.0956 -2.4184 0
      vertex 33.0704 -0.901544 0
    endloop
  endfacet
  facet normal 0 0 -1
    outer loop
      vertex 30.4554 -3.16743 0
      vertex 32.7812 -5.29007 0
      vertex 31.5222 -6.6883 0
    endloop
  endfacet
  facet normal 0 0 -1
    outer loop
      vertex 32.7812 -5.29007 0
      vertex 30.4554 -3.16743 0
      vertex 32.0956 -2.4184 0
    endloop
  endfacet
  facet normal 0 0 -1
    outer loop
      vertex 30 -7.79423 0
      vertex 30.4554 -3.16743 0
      vertex 31.5222 -6.6883 0
    endloop
  endfacet
  facet normal 0 0 -1
    outer loop
      vertex 30 -7.79423 0
      vertex 28.6707 -2.91082 0
      vertex 30.4554 -3.16743 0
    endloop
  endfacet
  facet normal 0 0 -1
    outer loop
      vertex 28.2812 -8.55951 0
      vertex 28.6707 -2.91082 0
      vertex 30 -7.79423 0
    endloop
  endfacet
  facet normal 0 0 -1
    outer loop
      vertex 26.4408 -8.9507 0
      vertex 28.6707 -2.91082 0
      vertex 28.2812 -8.55951 0
    endloop
  endfacet
  facet normal -0 0 -1
    outer loop
      vertex 28.6707 -2.91082 0
      vertex 26.4408 -8.9507 0
      vertex 27.308 -1.73005 0
    endloop
  endfacet
  facet normal 0 0 -1
    outer loop
      vertex 24.5592 -8.9507 0
      vertex 27.308 -1.73005 0
      vertex 26.4408 -8.9507 0
    endloop
  endfacet
  facet normal 0 0 -1
    outer loop
      vertex 32.0956 2.4184 0
      vertex 34.3033 1.8712 0
      vertex 33.0704 0.901544 0
    endloop
  endfacet
  facet normal 0 0 -1
    outer loop
      vertex 34.3033 1.8712 0
      vertex 32.0956 2.4184 0
      vertex 33.7219 3.66063 0
    endloop
  endfacet
  facet normal -0 0 -1
    outer loop
      vertex 33.7219 3.66063 0
      vertex 32.0956 2.4184 0
      vertex 32.7812 5.29007 0
    endloop
  endfacet
  facet normal 0 0 -1
    outer loop
      vertex 30.4554 3.16743 0
      vertex 32.7812 5.29007 0
      vertex 32.0956 2.4184 0
    endloop
  endfacet
  facet normal -0 0 -1
    outer loop
      vertex 32.7812 5.29007 0
      vertex 30.4554 3.16743 0
      vertex 31.5222 6.6883 0
    endloop
  endfacet
  facet normal 0 0 -1
    outer loop
      vertex 30.4554 3.16743 0
      vertex 30 7.79423 0
      vertex 31.5222 6.6883 0
    endloop
  endfacet
  facet normal 0 0 -1
    outer loop
      vertex 28.6707 2.91082 0
      vertex 30 7.79423 0
      vertex 30.4554 3.16743 0
    endloop
  endfacet
  facet normal 0 0 -1
    outer loop
      vertex 28.6707 2.91082 0
      vertex 28.2812 8.55951 0
      vertex 30 7.79423 0
    endloop
  endfacet
  facet normal 0 0 -1
    outer loop
      vertex 26.4408 8.9507 0
      vertex 28.6707 2.91082 0
      vertex 27.308 1.73005 0
    endloop
  endfacet
  facet normal 0 0 -1
    outer loop
      vertex 24.5592 8.9507 0
      vertex 27.308 1.73005 0
      vertex 26.8 0 0
    endloop
  endfacet
  facet normal 0 0 -1
    outer loop
      vertex 28.6707 2.91082 0
      vertex 26.4408 8.9507 0
      vertex 28.2812 8.55951 0
    endloop
  endfacet
  facet normal -0 0 -1
    outer loop
      vertex 27.308 -1.73005 0
      vertex 24.5592 -8.9507 0
      vertex 26.8 0 0
    endloop
  endfacet
  facet normal 0 0 -1
    outer loop
      vertex 8.07038 -0.901544 0
      vertex 26.8 0 0
      vertex 24.5592 -8.9507 0
    endloop
  endfacet
  facet normal 0 0 -1
    outer loop
      vertex 27.308 1.73005 0
      vertex 24.5592 8.9507 0
      vertex 26.4408 8.9507 0
    endloop
  endfacet
  facet normal 0 0 -1
    outer loop
      vertex 8.07038 0.901544 0
      vertex 26.8 0 0
      vertex 8.07038 -0.901544 0
    endloop
  endfacet
  facet normal 0 0 -1
    outer loop
      vertex 24.5592 -8.9507 0
      vertex 7.09555 -2.4184 0
      vertex 8.07038 -0.901544 0
    endloop
  endfacet
  facet normal 0 0 -1
    outer loop
      vertex 1 -8.5 0
      vertex 7.09555 -2.4184 0
      vertex 24.5592 -8.9507 0
    endloop
  endfacet
  facet normal 0 0 -1
    outer loop
      vertex 7.09555 -2.4184 0
      vertex 1 -8.5 0
      vertex 5.45541 -3.16743 0
    endloop
  endfacet
  facet normal -0 0 -1
    outer loop
      vertex 2.30799 -1.73005 0
      vertex 1 -8.5 0
      vertex 1.8 0 0
    endloop
  endfacet
  facet normal -0 0 -1
    outer loop
      vertex 3.67067 -2.91082 0
      vertex 1 -8.5 0
      vertex 2.30799 -1.73005 0
    endloop
  endfacet
  facet normal -0 0 -1
    outer loop
      vertex 5.45541 -3.16743 0
      vertex 1 -8.5 0
      vertex 3.67067 -2.91082 0
    endloop
  endfacet
  facet normal 0.692343 0.203289 -0.69234
    outer loop
      vertex 2.30799 -1.73005 0
      vertex 2.8 0 1
      vertex 3.14924 -1.18941 1
    endloop
  endfacet
  facet normal 0.692341 0.20329 -0.692341
    outer loop
      vertex 2.8 0 1
      vertex 2.30799 -1.73005 0
      vertex 1.8 0 0
    endloop
  endfacet
  facet normal -0.721568 0 -0.692344
    outer loop
      vertex 8.07038 0.901544 0
      vertex 7.11088 -0.619811 1
      vertex 7.11088 0.619811 1
    endloop
  endfacet
  facet normal -0.721568 0 -0.692344
    outer loop
      vertex 7.11088 -0.619811 1
      vertex 8.07038 0.901544 0
      vertex 8.07038 -0.901544 0
    endloop
  endfacet
  facet normal 0.692342 -0.203289 -0.692342
    outer loop
      vertex 1.8 0 0
      vertex 3.14924 1.18941 1
      vertex 2.8 0 1
    endloop
  endfacet
  facet normal 0.692342 -0.203291 -0.69234
    outer loop
      vertex 3.14924 1.18941 1
      vertex 1.8 0 0
      vertex 2.30799 1.73005 0
    endloop
  endfacet
  facet normal 0.102691 -0.714226 -0.692341
    outer loop
      vertex 5.45541 3.16743 0
      vertex 4.08609 2.00119 1
      vertex 3.67067 2.91082 0
    endloop
  endfacet
  facet normal 0.102693 -0.714226 -0.69234
    outer loop
      vertex 4.08609 2.00119 1
      vertex 5.45541 3.16743 0
      vertex 5.31309 2.17761 1
    endloop
  endfacet
  facet normal -0.607021 0.390111 -0.692343
    outer loop
      vertex 7.09555 -2.4184 0
      vertex 7.11088 -0.619811 1
      vertex 8.07038 -0.901544 0
    endloop
  endfacet
  facet normal -0.607024 0.39011 -0.692341
    outer loop
      vertex 7.11088 -0.619811 1
      vertex 7.09555 -2.4184 0
      vertex 6.44069 -1.66265 1
    endloop
  endfacet
  facet normal -0.299752 0.656363 -0.692342
    outer loop
      vertex 5.45541 -3.16743 0
      vertex 6.44069 -1.66265 1
      vertex 7.09555 -2.4184 0
    endloop
  endfacet
  facet normal -0.299752 0.656363 -0.692342
    outer loop
      vertex 6.44069 -1.66265 1
      vertex 5.45541 -3.16743 0
      vertex 5.31309 -2.17761 1
    endloop
  endfacet
  facet normal -0.299752 -0.656363 -0.692342
    outer loop
      vertex 6.44069 1.66265 1
      vertex 5.45541 3.16743 0
      vertex 7.09555 2.4184 0
    endloop
  endfacet
  facet normal -0.299752 -0.656363 -0.692342
    outer loop
      vertex 5.45541 3.16743 0
      vertex 6.44069 1.66265 1
      vertex 5.31309 2.17761 1
    endloop
  endfacet
  facet normal 0.102693 0.714226 -0.69234
    outer loop
      vertex 5.45541 -3.16743 0
      vertex 4.08609 -2.00119 1
      vertex 5.31309 -2.17761 1
    endloop
  endfacet
  facet normal 0.102691 0.714226 -0.692341
    outer loop
      vertex 4.08609 -2.00119 1
      vertex 5.45541 -3.16743 0
      vertex 3.67067 -2.91082 0
    endloop
  endfacet
  facet normal 0.472526 0.545327 -0.692342
    outer loop
      vertex 3.67067 -2.91082 0
      vertex 3.14924 -1.18941 1
      vertex 4.08609 -2.00119 1
    endloop
  endfacet
  facet normal 0.472529 0.545327 -0.69234
    outer loop
      vertex 3.14924 -1.18941 1
      vertex 3.67067 -2.91082 0
      vertex 2.30799 -1.73005 0
    endloop
  endfacet
  facet normal -0.607021 -0.390111 -0.692343
    outer loop
      vertex 7.11088 0.619811 1
      vertex 7.09555 2.4184 0
      vertex 8.07038 0.901544 0
    endloop
  endfacet
  facet normal -0.607024 -0.39011 -0.692341
    outer loop
      vertex 7.09555 2.4184 0
      vertex 7.11088 0.619811 1
      vertex 6.44069 1.66265 1
    endloop
  endfacet
  facet normal 0.472526 -0.545327 -0.692342
    outer loop
      vertex 3.14924 1.18941 1
      vertex 3.67067 2.91082 0
      vertex 4.08609 2.00119 1
    endloop
  endfacet
  facet normal 0.472529 -0.545327 -0.69234
    outer loop
      vertex 3.67067 2.91082 0
      vertex 3.14924 1.18941 1
      vertex 2.30799 1.73005 0
    endloop
  endfacet
  facet normal 0.692369 0.203273 -0.692319
    outer loop
      vertex 27.308 -1.73005 0
      vertex 27.8 0 1
      vertex 28.1492 -1.18941 1
    endloop
  endfacet
  facet normal 0.692341 0.203294 -0.692341
    outer loop
      vertex 27.8 0 1
      vertex 27.308 -1.73005 0
      vertex 26.8 0 0
    endloop
  endfacet
  facet normal -0.721568 0 -0.692344
    outer loop
      vertex 33.0704 0.901544 0
      vertex 32.1109 -0.619811 1
      vertex 32.1109 0.619811 1
    endloop
  endfacet
  facet normal -0.721568 0 -0.692344
    outer loop
      vertex 32.1109 -0.619811 1
      vertex 33.0704 0.901544 0
      vertex 33.0704 -0.901544 0
    endloop
  endfacet
  facet normal 0.692345 -0.203266 -0.692345
    outer loop
      vertex 26.8 0 0
      vertex 28.1492 1.18941 1
      vertex 27.8 0 1
    endloop
  endfacet
  facet normal 0.692357 -0.203299 -0.692323
    outer loop
      vertex 28.1492 1.18941 1
      vertex 26.8 0 0
      vertex 27.308 1.73005 0
    endloop
  endfacet
  facet normal 0.102694 -0.714226 -0.69234
    outer loop
      vertex 30.4554 3.16743 0
      vertex 29.0861 2.00119 1
      vertex 28.6707 2.91082 0
    endloop
  endfacet
  facet normal 0.102692 -0.714225 -0.692341
    outer loop
      vertex 29.0861 2.00119 1
      vertex 30.4554 3.16743 0
      vertex 30.3131 2.17761 1
    endloop
  endfacet
  facet normal -0.607025 0.390102 -0.692345
    outer loop
      vertex 32.0956 -2.4184 0
      vertex 32.1109 -0.619811 1
      vertex 33.0704 -0.901544 0
    endloop
  endfacet
  facet normal -0.607011 0.390107 -0.692354
    outer loop
      vertex 32.1109 -0.619811 1
      vertex 32.0956 -2.4184 0
      vertex 31.4407 -1.66265 1
    endloop
  endfacet
  facet normal -0.299741 0.656363 -0.692346
    outer loop
      vertex 30.4554 -3.16743 0
      vertex 31.4407 -1.66265 1
      vertex 32.0956 -2.4184 0
    endloop
  endfacet
  facet normal -0.299753 0.656365 -0.692338
    outer loop
      vertex 31.4407 -1.66265 1
      vertex 30.4554 -3.16743 0
      vertex 30.3131 -2.17761 1
    endloop
  endfacet
  facet normal -0.299741 -0.656363 -0.692346
    outer loop
      vertex 31.4407 1.66265 1
      vertex 30.4554 3.16743 0
      vertex 32.0956 2.4184 0
    endloop
  endfacet
  facet normal -0.299753 -0.656365 -0.692338
    outer loop
      vertex 30.4554 3.16743 0
      vertex 31.4407 1.66265 1
      vertex 30.3131 2.17761 1
    endloop
  endfacet
  facet normal 0.102692 0.714225 -0.692341
    outer loop
      vertex 30.4554 -3.16743 0
      vertex 29.0861 -2.00119 1
      vertex 30.3131 -2.17761 1
    endloop
  endfacet
  facet normal 0.102694 0.714226 -0.69234
    outer loop
      vertex 29.0861 -2.00119 1
      vertex 30.4554 -3.16743 0
      vertex 28.6707 -2.91082 0
    endloop
  endfacet
  facet normal 0.472513 0.545341 -0.69234
    outer loop
      vertex 28.6707 -2.91082 0
      vertex 28.1492 -1.18941 1
      vertex 29.0861 -2.00119 1
    endloop
  endfacet
  facet normal 0.472533 0.54534 -0.692327
    outer loop
      vertex 28.1492 -1.18941 1
      vertex 28.6707 -2.91082 0
      vertex 27.308 -1.73005 0
    endloop
  endfacet
  facet normal -0.607025 -0.390102 -0.692345
    outer loop
      vertex 32.1109 0.619811 1
      vertex 32.0956 2.4184 0
      vertex 33.0704 0.901544 0
    endloop
  endfacet
  facet normal -0.607011 -0.390107 -0.692354
    outer loop
      vertex 32.0956 2.4184 0
      vertex 32.1109 0.619811 1
      vertex 31.4407 1.66265 1
    endloop
  endfacet
  facet normal 0.472513 -0.545341 -0.69234
    outer loop
      vertex 28.1492 1.18941 1
      vertex 28.6707 2.91082 0
      vertex 29.0861 2.00119 1
    endloop
  endfacet
  facet normal 0.472533 -0.54534 -0.692327
    outer loop
      vertex 28.6707 2.91082 0
      vertex 28.1492 1.18941 1
      vertex 27.308 1.73005 0
    endloop
  endfacet
  facet normal 0 1 -0
    outer loop
      vertex 25.5 9.5 1
      vertex 0 9.5 4
      vertex 25.5 9.5 4
    endloop
  endfacet
  facet normal 0 1 0
    outer loop
      vertex 0 9.5 4
      vertex 25.5 9.5 1
      vertex 0 9.5 1
    endloop
  endfacet
  facet normal 0.775459 -0.447684 -0.445243
    outer loop
      vertex 33.1857 -5.58396 1
      vertex 32.7812 -5.29007 0
      vertex 33.7219 -3.66063 0
    endloop
  endfacet
  facet normal 0.95106 0.309007 0
    outer loop
      vertex 34.7924 1.97516 4
      vertex 34.1787 3.864 1
      vertex 34.1787 3.864 4
    endloop
  endfacet
  facet normal 0.95106 0.309007 0
    outer loop
      vertex 34.1787 3.864 1
      vertex 34.7924 1.97516 4
      vertex 34.7924 1.97516 1
    endloop
  endfacet
  facet normal 0.207905 -0.978149 0
    outer loop
      vertex 26.493 -9.44796 1
      vertex 28.4357 -9.03504 4
      vertex 26.493 -9.44796 4
    endloop
  endfacet
  facet normal 0.207905 -0.978149 0
    outer loop
      vertex 28.4357 -9.03504 4
      vertex 26.493 -9.44796 1
      vertex 28.4357 -9.03504 1
    endloop
  endfacet
  facet normal 0.665412 0.599153 -0.445244
    outer loop
      vertex 32.7812 5.29007 0
      vertex 31.5222 6.6883 0
      vertex 33.1857 5.58396 1
    endloop
  endfacet
  facet normal -1 0 0
    outer loop
      vertex 0 9.5 1
      vertex 0 8 1.5
      vertex 0 9.5 4
    endloop
  endfacet
  facet normal -1 0 0
    outer loop
      vertex 0 9.5 1
      vertex 0 -8 1.5
      vertex 0 8 1.5
    endloop
  endfacet
  facet normal -1 0 0
    outer loop
      vertex 0 -9.5 1
      vertex 0 -8 1.5
      vertex 0 9.5 1
    endloop
  endfacet
  facet normal -1 0 0
    outer loop
      vertex 0 -9.5 4
      vertex 0 -8 1.5
      vertex 0 -9.5 1
    endloop
  endfacet
  facet normal -1 0 0
    outer loop
      vertex 0 -8 1.5
      vertex 0 -9.5 4
      vertex 0 -8 4
    endloop
  endfacet
  facet normal -1 -0 0
    outer loop
      vertex 0 9.5 4
      vertex 0 8 1.5
      vertex 0 8 4
    endloop
  endfacet
  facet normal -0.0133974 0.700313 -0.71371
    outer loop
      vertex 1 8.5 0
      vertex 0 9.5 1
      vertex 24.5592 8.9507 0
    endloop
  endfacet
  facet normal 0.743126 0.669152 0
    outer loop
      vertex 33.1857 5.58396 4
      vertex 31.8567 7.05988 1
      vertex 31.8567 7.05988 4
    endloop
  endfacet
  facet normal 0.743126 0.669152 0
    outer loop
      vertex 31.8567 7.05988 1
      vertex 33.1857 5.58396 4
      vertex 33.1857 5.58396 1
    endloop
  endfacet
  facet normal 0.587793 -0.809011 0
    outer loop
      vertex 30.25 -8.22724 1
      vertex 31.8567 -7.05988 4
      vertex 30.25 -8.22724 4
    endloop
  endfacet
  facet normal 0.587793 -0.809011 0
    outer loop
      vertex 31.8567 -7.05988 4
      vertex 30.25 -8.22724 1
      vertex 31.8567 -7.05988 1
    endloop
  endfacet
  facet normal 0.18616 -0.875841 -0.44525
    outer loop
      vertex 28.4357 -9.03504 1
      vertex 26.493 -9.44796 1
      vertex 28.2812 -8.55951 0
    endloop
  endfacet
  facet normal 0 -1 0
    outer loop
      vertex 0 -9.5 1
      vertex 25.5 -9.5 4
      vertex 0 -9.5 4
    endloop
  endfacet
  facet normal 0 -1 -0
    outer loop
      vertex 25.5 -9.5 4
      vertex 0 -9.5 1
      vertex 25.5 -9.5 1
    endloop
  endfacet
  facet normal 0.18616 0.875841 -0.44525
    outer loop
      vertex 28.2812 8.55951 0
      vertex 26.493 9.44796 1
      vertex 28.4357 9.03504 1
    endloop
  endfacet
  facet normal -0.707107 0 -0.707107
    outer loop
      vertex 1 -8.5 0
      vertex 0 9.5 1
      vertex 1 8.5 0
    endloop
  endfacet
  facet normal -0.707107 -0 -0.707107
    outer loop
      vertex 0 9.5 1
      vertex 1 -8.5 0
      vertex 0 -9.5 1
    endloop
  endfacet
  facet normal 0.052335 -0.99863 0
    outer loop
      vertex 25.5 -9.5 1
      vertex 26.493 -9.44796 4
      vertex 25.5 -9.5 4
    endloop
  endfacet
  facet normal 0.052335 -0.99863 0
    outer loop
      vertex 26.493 -9.44796 4
      vertex 25.5 -9.5 1
      vertex 26.493 -9.44796 1
    endloop
  endfacet
  facet normal 0 0.876475 -0.481448
    outer loop
      vertex 24.5592 8.9507 0
      vertex 25.5 9.5 1
      vertex 26.4408 8.9507 0
    endloop
  endfacet
  facet normal 0 0.876475 -0.481448
    outer loop
      vertex 25.5 9.5 1
      vertex 24.5592 8.9507 0
      vertex 0 9.5 1
    endloop
  endfacet
  facet normal 0.406746 0.913541 -0
    outer loop
      vertex 30.25 8.22724 1
      vertex 28.4357 9.03504 4
      vertex 30.25 8.22724 4
    endloop
  endfacet
  facet normal 0.406746 0.913541 0
    outer loop
      vertex 28.4357 9.03504 4
      vertex 30.25 8.22724 1
      vertex 28.4357 9.03504 1
    endloop
  endfacet
  facet normal 0.364203 0.817991 -0.445249
    outer loop
      vertex 30 7.79423 0
      vertex 28.2812 8.55951 0
      vertex 28.4357 9.03504 1
    endloop
  endfacet
  facet normal 0.526314 0.724394 -0.445249
    outer loop
      vertex 31.8567 7.05988 1
      vertex 30 7.79423 0
      vertex 30.25 8.22724 1
    endloop
  endfacet
  facet normal 0.364203 -0.817991 -0.445249
    outer loop
      vertex 28.4357 -9.03504 1
      vertex 28.2812 -8.55951 0
      vertex 30 -7.79423 0
    endloop
  endfacet
  facet normal 0.052335 0.99863 -0
    outer loop
      vertex 26.493 9.44796 1
      vertex 25.5 9.5 4
      vertex 26.493 9.44796 4
    endloop
  endfacet
  facet normal 0.052335 0.99863 0
    outer loop
      vertex 25.5 9.5 4
      vertex 26.493 9.44796 1
      vertex 25.5 9.5 1
    endloop
  endfacet
  facet normal 0 -0.876475 -0.481448
    outer loop
      vertex 24.5592 -8.9507 0
      vertex 25.5 -9.5 1
      vertex 0 -9.5 1
    endloop
  endfacet
  facet normal 0 -0.876475 -0.481448
    outer loop
      vertex 25.5 -9.5 1
      vertex 24.5592 -8.9507 0
      vertex 26.4408 -8.9507 0
    endloop
  endfacet
  facet normal 0.364203 0.817991 -0.445249
    outer loop
      vertex 30 7.79423 0
      vertex 28.4357 9.03504 1
      vertex 30.25 8.22724 1
    endloop
  endfacet
  facet normal 0.95106 -0.309007 0
    outer loop
      vertex 34.1787 -3.864 4
      vertex 34.7924 -1.97516 1
      vertex 34.7924 -1.97516 4
    endloop
  endfacet
  facet normal 0.95106 -0.309007 0
    outer loop
      vertex 34.7924 -1.97516 1
      vertex 34.1787 -3.864 4
      vertex 34.1787 -3.864 1
    endloop
  endfacet
  facet normal 0.86603 0.499993 0
    outer loop
      vertex 34.1787 3.864 4
      vertex 33.1857 5.58396 1
      vertex 33.1857 5.58396 4
    endloop
  endfacet
  facet normal 0.86603 0.499993 0
    outer loop
      vertex 33.1857 5.58396 1
      vertex 34.1787 3.864 4
      vertex 34.1787 3.864 1
    endloop
  endfacet
  facet normal 0.526309 -0.724411 -0.445227
    outer loop
      vertex 31.8567 -7.05988 1
      vertex 30 -7.79423 0
      vertex 31.5222 -6.6883 0
    endloop
  endfacet
  facet normal 0.851576 0.276684 -0.445269
    outer loop
      vertex 34.7924 1.97516 1
      vertex 33.7219 3.66063 0
      vertex 34.1787 3.864 1
    endloop
  endfacet
  facet normal 0.994522 0.10453 0
    outer loop
      vertex 35 0 4
      vertex 34.7924 1.97516 1
      vertex 34.7924 1.97516 4
    endloop
  endfacet
  facet normal 0.994522 0.10453 0
    outer loop
      vertex 34.7924 1.97516 1
      vertex 35 0 4
      vertex 35 0 1
    endloop
  endfacet
  facet normal 0.364203 -0.817991 -0.445249
    outer loop
      vertex 30.25 -8.22724 1
      vertex 28.4357 -9.03504 1
      vertex 30 -7.79423 0
    endloop
  endfacet
  facet normal -0.0133974 -0.700313 -0.71371
    outer loop
      vertex 24.5592 -8.9507 0
      vertex 0 -9.5 1
      vertex 1 -8.5 0
    endloop
  endfacet
  facet normal 0.406746 -0.913541 0
    outer loop
      vertex 28.4357 -9.03504 1
      vertex 30.25 -8.22724 4
      vertex 28.4357 -9.03504 4
    endloop
  endfacet
  facet normal 0.406746 -0.913541 0
    outer loop
      vertex 30.25 -8.22724 4
      vertex 28.4357 -9.03504 1
      vertex 30.25 -8.22724 1
    endloop
  endfacet
  facet normal 0.0468228 -0.893448 -0.44672
    outer loop
      vertex 26.493 -9.44796 1
      vertex 25.5 -9.5 1
      vertex 26.4408 -8.9507 0
    endloop
  endfacet
  facet normal 0.186167 -0.875844 -0.44524
    outer loop
      vertex 26.493 -9.44796 1
      vertex 26.4408 -8.9507 0
      vertex 28.2812 -8.55951 0
    endloop
  endfacet
  facet normal 0.77544 -0.447692 -0.445268
    outer loop
      vertex 34.1787 -3.864 1
      vertex 33.1857 -5.58396 1
      vertex 33.7219 -3.66063 0
    endloop
  endfacet
  facet normal 0.86603 -0.499993 0
    outer loop
      vertex 33.1857 -5.58396 4
      vertex 34.1787 -3.864 1
      vertex 34.1787 -3.864 4
    endloop
  endfacet
  facet normal 0.86603 -0.499993 0
    outer loop
      vertex 34.1787 -3.864 1
      vertex 33.1857 -5.58396 4
      vertex 33.1857 -5.58396 1
    endloop
  endfacet
  facet normal 0.743126 -0.669152 0
    outer loop
      vertex 31.8567 -7.05988 4
      vertex 33.1857 -5.58396 1
      vertex 33.1857 -5.58396 4
    endloop
  endfacet
  facet normal 0.743126 -0.669152 0
    outer loop
      vertex 33.1857 -5.58396 1
      vertex 31.8567 -7.05988 4
      vertex 31.8567 -7.05988 1
    endloop
  endfacet
  facet normal 0.89049 0.093608 -0.44527
    outer loop
      vertex 34.5 0 0
      vertex 34.3033 1.8712 0
      vertex 34.7924 1.97516 1
    endloop
  endfacet
  facet normal 0.186167 0.875844 -0.44524
    outer loop
      vertex 28.2812 8.55951 0
      vertex 26.4408 8.9507 0
      vertex 26.493 9.44796 1
    endloop
  endfacet
  facet normal 0.0468228 0.893448 -0.44672
    outer loop
      vertex 26.4408 8.9507 0
      vertex 25.5 9.5 1
      vertex 26.493 9.44796 1
    endloop
  endfacet
  facet normal 0.890501 0.0935965 -0.44525
    outer loop
      vertex 35 0 1
      vertex 34.5 0 0
      vertex 34.7924 1.97516 1
    endloop
  endfacet
  facet normal 0.665412 -0.599153 -0.445244
    outer loop
      vertex 33.1857 -5.58396 1
      vertex 31.5222 -6.6883 0
      vertex 32.7812 -5.29007 0
    endloop
  endfacet
  facet normal 0.851576 0.276684 -0.44527
    outer loop
      vertex 34.3033 1.8712 0
      vertex 33.7219 3.66063 0
      vertex 34.7924 1.97516 1
    endloop
  endfacet
  facet normal 0.207905 0.978149 -0
    outer loop
      vertex 28.4357 9.03504 1
      vertex 26.493 9.44796 4
      vertex 28.4357 9.03504 4
    endloop
  endfacet
  facet normal 0.207905 0.978149 0
    outer loop
      vertex 26.493 9.44796 4
      vertex 28.4357 9.03504 1
      vertex 26.493 9.44796 1
    endloop
  endfacet
  facet normal 0.851576 -0.276684 -0.445269
    outer loop
      vertex 34.1787 -3.864 1
      vertex 33.7219 -3.66063 0
      vertex 34.7924 -1.97516 1
    endloop
  endfacet
  facet normal 0.89049 -0.093608 -0.44527
    outer loop
      vertex 34.7924 -1.97516 1
      vertex 34.3033 -1.8712 0
      vertex 34.5 0 0
    endloop
  endfacet
  facet normal 0.526314 -0.724394 -0.445249
    outer loop
      vertex 30.25 -8.22724 1
      vertex 30 -7.79423 0
      vertex 31.8567 -7.05988 1
    endloop
  endfacet
  facet normal 0.665411 -0.599172 -0.44522
    outer loop
      vertex 31.8567 -7.05988 1
      vertex 31.5222 -6.6883 0
      vertex 33.1857 -5.58396 1
    endloop
  endfacet
  facet normal 0.77544 0.447692 -0.445268
    outer loop
      vertex 33.7219 3.66063 0
      vertex 33.1857 5.58396 1
      vertex 34.1787 3.864 1
    endloop
  endfacet
  facet normal 0.665411 0.599172 -0.44522
    outer loop
      vertex 33.1857 5.58396 1
      vertex 31.5222 6.6883 0
      vertex 31.8567 7.05988 1
    endloop
  endfacet
  facet normal 0.890501 -0.0935965 -0.44525
    outer loop
      vertex 34.7924 -1.97516 1
      vertex 34.5 0 0
      vertex 35 0 1
    endloop
  endfacet
  facet normal 0.994522 -0.10453 0
    outer loop
      vertex 34.7924 -1.97516 4
      vertex 35 0 1
      vertex 35 0 4
    endloop
  endfacet
  facet normal 0.994522 -0.10453 0
    outer loop
      vertex 35 0 1
      vertex 34.7924 -1.97516 4
      vertex 34.7924 -1.97516 1
    endloop
  endfacet
  facet normal 0.851576 -0.276684 -0.44527
    outer loop
      vertex 34.7924 -1.97516 1
      vertex 33.7219 -3.66063 0
      vertex 34.3033 -1.8712 0
    endloop
  endfacet
  facet normal 0.775459 0.447684 -0.445243
    outer loop
      vertex 33.7219 3.66063 0
      vertex 32.7812 5.29007 0
      vertex 33.1857 5.58396 1
    endloop
  endfacet
  facet normal 0.587793 0.809011 -0
    outer loop
      vertex 31.8567 7.05988 1
      vertex 30.25 8.22724 4
      vertex 31.8567 7.05988 4
    endloop
  endfacet
  facet normal 0.587793 0.809011 0
    outer loop
      vertex 30.25 8.22724 4
      vertex 31.8567 7.05988 1
      vertex 30.25 8.22724 1
    endloop
  endfacet
  facet normal 0 0 1
    outer loop
      vertex 33.5 0 4
      vertex 35 0 4
      vertex 34.7924 1.97516 4
    endloop
  endfacet
  facet normal 0 0 1
    outer loop
      vertex 33.2675 1.91453 4
      vertex 34.7924 1.97516 4
      vertex 34.1787 3.864 4
    endloop
  endfacet
  facet normal 0 0 1
    outer loop
      vertex 35 0 4
      vertex 33.5 0 4
      vertex 34.7924 -1.97516 4
    endloop
  endfacet
  facet normal -0 0 1
    outer loop
      vertex 33.2675 -1.91453 4
      vertex 34.7924 -1.97516 4
      vertex 33.5 0 4
    endloop
  endfacet
  facet normal 0 0 1
    outer loop
      vertex 34.7924 1.97516 4
      vertex 33.2675 1.91453 4
      vertex 33.5 0 4
    endloop
  endfacet
  facet normal 0 0 1
    outer loop
      vertex 32.5836 3.71778 4
      vertex 34.1787 3.864 4
      vertex 33.1857 5.58396 4
    endloop
  endfacet
  facet normal 0 0 1
    outer loop
      vertex 34.1787 3.864 4
      vertex 32.5836 3.71778 4
      vertex 33.2675 1.91453 4
    endloop
  endfacet
  facet normal 0 0 1
    outer loop
      vertex 31.4881 5.30498 4
      vertex 33.1857 5.58396 4
      vertex 31.8567 7.05988 4
    endloop
  endfacet
  facet normal 0 0 1
    outer loop
      vertex 33.1857 5.58396 4
      vertex 31.4881 5.30498 4
      vertex 32.5836 3.71778 4
    endloop
  endfacet
  facet normal 0 0 1
    outer loop
      vertex 30.0445 6.58387 4
      vertex 31.8567 7.05988 4
      vertex 30.25 8.22724 4
    endloop
  endfacet
  facet normal 0 0 1
    outer loop
      vertex 31.8567 7.05988 4
      vertex 30.0445 6.58387 4
      vertex 31.4881 5.30498 4
    endloop
  endfacet
  facet normal 0 0 1
    outer loop
      vertex 28.3368 7.48013 4
      vertex 30.25 8.22724 4
      vertex 28.4357 9.03504 4
    endloop
  endfacet
  facet normal 0 0 1
    outer loop
      vertex 30.25 8.22724 4
      vertex 28.3368 7.48013 4
      vertex 30.0445 6.58387 4
    endloop
  endfacet
  facet normal 0 0 1
    outer loop
      vertex 26.4643 7.94167 4
      vertex 28.4357 9.03504 4
      vertex 26.493 9.44796 4
    endloop
  endfacet
  facet normal 0 0 1
    outer loop
      vertex 28.4357 9.03504 4
      vertex 26.4643 7.94167 4
      vertex 28.3368 7.48013 4
    endloop
  endfacet
  facet normal 0 0 1
    outer loop
      vertex 25.5 8 4
      vertex 26.493 9.44796 4
      vertex 25.5 9.5 4
    endloop
  endfacet
  facet normal 0 0 1
    outer loop
      vertex 26.493 9.44796 4
      vertex 25.5 8 4
      vertex 26.4643 7.94167 4
    endloop
  endfacet
  facet normal -0 0 1
    outer loop
      vertex 0 9.5 4
      vertex 25.5 8 4
      vertex 25.5 9.5 4
    endloop
  endfacet
  facet normal 0 0 1
    outer loop
      vertex 25.5 8 4
      vertex 0 9.5 4
      vertex 0 8 4
    endloop
  endfacet
  facet normal 0 0 1
    outer loop
      vertex 34.7924 -1.97516 4
      vertex 33.2675 -1.91453 4
      vertex 34.1787 -3.864 4
    endloop
  endfacet
  facet normal -0 0 1
    outer loop
      vertex 32.5836 -3.71778 4
      vertex 34.1787 -3.864 4
      vertex 33.2675 -1.91453 4
    endloop
  endfacet
  facet normal 0 0 1
    outer loop
      vertex 34.1787 -3.864 4
      vertex 32.5836 -3.71778 4
      vertex 33.1857 -5.58396 4
    endloop
  endfacet
  facet normal -0 0 1
    outer loop
      vertex 31.4881 -5.30498 4
      vertex 33.1857 -5.58396 4
      vertex 32.5836 -3.71778 4
    endloop
  endfacet
  facet normal 0 0 1
    outer loop
      vertex 33.1857 -5.58396 4
      vertex 31.4881 -5.30498 4
      vertex 31.8567 -7.05988 4
    endloop
  endfacet
  facet normal -0 0 1
    outer loop
      vertex 30.0445 -6.58387 4
      vertex 31.8567 -7.05988 4
      vertex 31.4881 -5.30498 4
    endloop
  endfacet
  facet normal 0 0 1
    outer loop
      vertex 31.8567 -7.05988 4
      vertex 30.0445 -6.58387 4
      vertex 30.25 -8.22724 4
    endloop
  endfacet
  facet normal -0 0 1
    outer loop
      vertex 28.3368 -7.48013 4
      vertex 30.25 -8.22724 4
      vertex 30.0445 -6.58387 4
    endloop
  endfacet
  facet normal 0 0 1
    outer loop
      vertex 30.25 -8.22724 4
      vertex 28.3368 -7.48013 4
      vertex 28.4357 -9.03504 4
    endloop
  endfacet
  facet normal -0 0 1
    outer loop
      vertex 26.4643 -7.94167 4
      vertex 28.4357 -9.03504 4
      vertex 28.3368 -7.48013 4
    endloop
  endfacet
  facet normal 0 0 1
    outer loop
      vertex 28.4357 -9.03504 4
      vertex 26.4643 -7.94167 4
      vertex 26.493 -9.44796 4
    endloop
  endfacet
  facet normal -0 0 1
    outer loop
      vertex 25.5 -8 4
      vertex 26.493 -9.44796 4
      vertex 26.4643 -7.94167 4
    endloop
  endfacet
  facet normal 0 0 1
    outer loop
      vertex 25.5 -8 4
      vertex 25.5 -9.5 4
      vertex 26.493 -9.44796 4
    endloop
  endfacet
  facet normal -0 0 1
    outer loop
      vertex 0 -8 4
      vertex 25.5 -9.5 4
      vertex 25.5 -8 4
    endloop
  endfacet
  facet normal 0 0 1
    outer loop
      vertex 25.5 -9.5 4
      vertex 0 -8 4
      vertex 0 -9.5 4
    endloop
  endfacet
  facet normal 0.526309 0.724411 -0.445227
    outer loop
      vertex 31.5222 6.6883 0
      vertex 30 7.79423 0
      vertex 31.8567 7.05988 1
    endloop
  endfacet
  facet normal -0.823 -0.568042 0
    outer loop
      vertex 32.5836 3.71778 1.5
      vertex 31.4881 5.30498 4
      vertex 31.4881 5.30498 1.5
    endloop
  endfacet
  facet normal -0.823 -0.568042 0
    outer loop
      vertex 31.4881 5.30498 4
      vertex 32.5836 3.71778 1.5
      vertex 32.5836 3.71778 4
    endloop
  endfacet
  facet normal -0.214369 -0.869711 0.444576
    outer loop
      vertex 28.2482 7.24638 1
      vertex 28.3368 7.48013 1.5
      vertex 26.4643 7.94167 1.5
    endloop
  endfacet
  facet normal 0.00566227 -0.704259 0.709921
    outer loop
      vertex 0.5 7.5 1
      vertex 24.5658 7.69349 1
      vertex 0 8 1.5
    endloop
  endfacet
  facet normal -0.214369 0.869711 0.444576
    outer loop
      vertex 28.3368 -7.48013 1.5
      vertex 28.2482 -7.24638 1
      vertex 26.4643 -7.94167 1.5
    endloop
  endfacet
  facet normal -0.464719 -0.885458 0
    outer loop
      vertex 28.3368 7.48013 1.5
      vertex 30.0445 6.58387 4
      vertex 28.3368 7.48013 4
    endloop
  endfacet
  facet normal -0.464719 -0.885458 -0
    outer loop
      vertex 30.0445 6.58387 4
      vertex 28.3368 7.48013 1.5
      vertex 30.0445 6.58387 1.5
    endloop
  endfacet
  facet normal -0 0.852557 0.522634
    outer loop
      vertex 24.5658 -7.69349 1
      vertex 25.5 -8 1.5
      vertex 26.4342 -7.69349 1
    endloop
  endfacet
  facet normal 0 0.852557 0.522634
    outer loop
      vertex 25.5 -8 1.5
      vertex 24.5658 -7.69349 1
      vertex 0 -8 1.5
    endloop
  endfacet
  facet normal -0.59398 0.67048 0.444572
    outer loop
      vertex 31.4881 -5.30498 1.5
      vertex 31.301 -5.1392 1
      vertex 30.0445 -6.58387 1.5
    endloop
  endfacet
  facet normal -0.889197 -0.107984 0.444599
    outer loop
      vertex 33.5 0 1.5
      vertex 33.2675 1.91453 1.5
      vertex 33.25 0 1
    endloop
  endfacet
  facet normal -0.837545 0.317633 0.444552
    outer loop
      vertex 33.2675 -1.91453 1.5
      vertex 33.0248 -1.8547 1
      vertex 32.3623 -3.6016 1
    endloop
  endfacet
  facet normal -0.59398 -0.67048 0.444572
    outer loop
      vertex 31.301 5.1392 1
      vertex 31.4881 5.30498 1.5
      vertex 30.0445 6.58387 1.5
    endloop
  endfacet
  facet normal -0.214363 -0.869705 0.444591
    outer loop
      vertex 28.2482 7.24638 1
      vertex 26.4643 7.94167 1.5
      vertex 26.4342 7.69349 1
    endloop
  endfacet
  facet normal -0.663115 0.748518 0
    outer loop
      vertex 31.4881 -5.30498 1.5
      vertex 30.0445 -6.58387 4
      vertex 31.4881 -5.30498 4
    endloop
  endfacet
  facet normal -0.663115 0.748518 0
    outer loop
      vertex 30.0445 -6.58387 4
      vertex 31.4881 -5.30498 1.5
      vertex 30.0445 -6.58387 1.5
    endloop
  endfacet
  facet normal -0.935013 -0.354613 0
    outer loop
      vertex 33.2675 1.91453 1.5
      vertex 32.5836 3.71778 4
      vertex 32.5836 3.71778 1.5
    endloop
  endfacet
  facet normal -0.935013 -0.354613 0
    outer loop
      vertex 32.5836 3.71778 4
      vertex 33.2675 1.91453 1.5
      vertex 33.2675 1.91453 4
    endloop
  endfacet
  facet normal -0.214363 0.869705 0.444591
    outer loop
      vertex 26.4643 -7.94167 1.5
      vertex 28.2482 -7.24638 1
      vertex 26.4342 -7.69349 1
    endloop
  endfacet
  facet normal -0.737191 0.508833 0.444565
    outer loop
      vertex 31.4881 -5.30498 1.5
      vertex 32.3623 -3.6016 1
      vertex 31.301 -5.1392 1
    endloop
  endfacet
  facet normal 0 -0.852557 0.522634
    outer loop
      vertex 24.5658 7.69349 1
      vertex 25.5 8 1.5
      vertex 0 8 1.5
    endloop
  endfacet
  facet normal 0 -0.852557 0.522634
    outer loop
      vertex 25.5 8 1.5
      vertex 24.5658 7.69349 1
      vertex 26.4342 7.69349 1
    endloop
  endfacet
  facet normal 0 1 -0
    outer loop
      vertex 25.5 -8 1.5
      vertex 0 -8 4
      vertex 25.5 -8 4
    endloop
  endfacet
  facet normal 0 1 0
    outer loop
      vertex 0 -8 4
      vertex 25.5 -8 1.5
      vertex 0 -8 1.5
    endloop
  endfacet
  facet normal -0.0603791 0.998176 0
    outer loop
      vertex 26.4643 -7.94167 1.5
      vertex 25.5 -8 4
      vertex 26.4643 -7.94167 4
    endloop
  endfacet
  facet normal -0.0603791 0.998176 0
    outer loop
      vertex 25.5 -8 4
      vertex 26.4643 -7.94167 1.5
      vertex 25.5 -8 1.5
    endloop
  endfacet
  facet normal -0.59397 0.670477 0.444589
    outer loop
      vertex 30.0445 -6.58387 1.5
      vertex 31.301 -5.1392 1
      vertex 29.9025 -6.37812 1
    endloop
  endfacet
  facet normal -0.889224 -0.107971 0.444549
    outer loop
      vertex 33.25 0 1
      vertex 33.2675 1.91453 1.5
      vertex 33.0248 1.8547 1
    endloop
  endfacet
  facet normal -0.737216 -0.508833 0.444524
    outer loop
      vertex 32.3623 3.6016 1
      vertex 32.5836 3.71778 1.5
      vertex 31.4881 5.30498 1.5
    endloop
  endfacet
  facet normal -0.823 0.568042 0
    outer loop
      vertex 31.4881 -5.30498 1.5
      vertex 32.5836 -3.71778 4
      vertex 32.5836 -3.71778 1.5
    endloop
  endfacet
  facet normal -0.823 0.568042 0
    outer loop
      vertex 32.5836 -3.71778 4
      vertex 31.4881 -5.30498 1.5
      vertex 31.4881 -5.30498 4
    endloop
  endfacet
  facet normal -0.992707 0.120554 0
    outer loop
      vertex 33.2675 -1.91453 1.5
      vertex 33.5 0 4
      vertex 33.5 0 1.5
    endloop
  endfacet
  facet normal -0.992707 0.120554 0
    outer loop
      vertex 33.5 0 4
      vertex 33.2675 -1.91453 1.5
      vertex 33.2675 -1.91453 4
    endloop
  endfacet
  facet normal -0.416274 0.793128 0.444594
    outer loop
      vertex 30.0445 -6.58387 1.5
      vertex 29.9025 -6.37812 1
      vertex 28.2482 -7.24638 1
    endloop
  endfacet
  facet normal -0.837559 0.317652 0.444513
    outer loop
      vertex 32.5836 -3.71778 1.5
      vertex 33.2675 -1.91453 1.5
      vertex 32.3623 -3.6016 1
    endloop
  endfacet
  facet normal -0.464719 0.885458 0
    outer loop
      vertex 30.0445 -6.58387 1.5
      vertex 28.3368 -7.48013 4
      vertex 30.0445 -6.58387 4
    endloop
  endfacet
  facet normal -0.464719 0.885458 0
    outer loop
      vertex 28.3368 -7.48013 4
      vertex 30.0445 -6.58387 1.5
      vertex 28.3368 -7.48013 1.5
    endloop
  endfacet
  facet normal -0.992707 -0.120554 0
    outer loop
      vertex 33.5 0 1.5
      vertex 33.2675 1.91453 4
      vertex 33.2675 1.91453 1.5
    endloop
  endfacet
  facet normal -0.992707 -0.120554 0
    outer loop
      vertex 33.2675 1.91453 4
      vertex 33.5 0 1.5
      vertex 33.5 0 4
    endloop
  endfacet
  facet normal -0.0540244 -0.89312 0.446562
    outer loop
      vertex 26.4342 7.69349 1
      vertex 26.4643 7.94167 1.5
      vertex 25.5 8 1.5
    endloop
  endfacet
  facet normal -0.416274 -0.793128 0.444594
    outer loop
      vertex 29.9025 6.37812 1
      vertex 30.0445 6.58387 1.5
      vertex 28.2482 7.24638 1
    endloop
  endfacet
  facet normal -0.737191 -0.508833 0.444565
    outer loop
      vertex 32.3623 3.6016 1
      vertex 31.4881 5.30498 1.5
      vertex 31.301 5.1392 1
    endloop
  endfacet
  facet normal -0.837545 -0.317633 0.444552
    outer loop
      vertex 33.0248 1.8547 1
      vertex 33.2675 1.91453 1.5
      vertex 32.3623 3.6016 1
    endloop
  endfacet
  facet normal -0.663115 -0.748518 0
    outer loop
      vertex 30.0445 6.58387 1.5
      vertex 31.4881 5.30498 4
      vertex 30.0445 6.58387 4
    endloop
  endfacet
  facet normal -0.663115 -0.748518 -0
    outer loop
      vertex 31.4881 5.30498 4
      vertex 30.0445 6.58387 1.5
      vertex 31.4881 5.30498 1.5
    endloop
  endfacet
  facet normal -0.889197 0.107984 0.444599
    outer loop
      vertex 33.2675 -1.91453 1.5
      vertex 33.5 0 1.5
      vertex 33.25 0 1
    endloop
  endfacet
  facet normal -0.889224 0.107971 0.444549
    outer loop
      vertex 33.2675 -1.91453 1.5
      vertex 33.25 0 1
      vertex 33.0248 -1.8547 1
    endloop
  endfacet
  facet normal -0.416272 0.793148 0.44456
    outer loop
      vertex 28.3368 -7.48013 1.5
      vertex 30.0445 -6.58387 1.5
      vertex 28.2482 -7.24638 1
    endloop
  endfacet
  facet normal -0.837559 -0.317652 0.444513
    outer loop
      vertex 33.2675 1.91453 1.5
      vertex 32.5836 3.71778 1.5
      vertex 32.3623 3.6016 1
    endloop
  endfacet
  facet normal -0.935013 0.354613 0
    outer loop
      vertex 32.5836 -3.71778 1.5
      vertex 33.2675 -1.91453 4
      vertex 33.2675 -1.91453 1.5
    endloop
  endfacet
  facet normal -0.935013 0.354613 0
    outer loop
      vertex 33.2675 -1.91453 4
      vertex 32.5836 -3.71778 1.5
      vertex 32.5836 -3.71778 4
    endloop
  endfacet
  facet normal -0.0603791 -0.998176 0
    outer loop
      vertex 25.5 8 1.5
      vertex 26.4643 7.94167 4
      vertex 25.5 8 4
    endloop
  endfacet
  facet normal -0.0603791 -0.998176 -0
    outer loop
      vertex 26.4643 7.94167 4
      vertex 25.5 8 1.5
      vertex 26.4643 7.94167 1.5
    endloop
  endfacet
  facet normal -0.737216 0.508833 0.444524
    outer loop
      vertex 32.5836 -3.71778 1.5
      vertex 32.3623 -3.6016 1
      vertex 31.4881 -5.30498 1.5
    endloop
  endfacet
  facet normal -0.239321 0.970941 0
    outer loop
      vertex 28.3368 -7.48013 1.5
      vertex 26.4643 -7.94167 4
      vertex 28.3368 -7.48013 4
    endloop
  endfacet
  facet normal -0.239321 0.970941 0
    outer loop
      vertex 26.4643 -7.94167 4
      vertex 28.3368 -7.48013 1.5
      vertex 26.4643 -7.94167 1.5
    endloop
  endfacet
  facet normal 0.00566227 0.704259 0.709921
    outer loop
      vertex 24.5658 -7.69349 1
      vertex 0.5 -7.5 1
      vertex 0 -8 1.5
    endloop
  endfacet
  facet normal -0.239321 -0.970941 0
    outer loop
      vertex 26.4643 7.94167 1.5
      vertex 28.3368 7.48013 4
      vertex 26.4643 7.94167 4
    endloop
  endfacet
  facet normal -0.239321 -0.970941 -0
    outer loop
      vertex 28.3368 7.48013 4
      vertex 26.4643 7.94167 1.5
      vertex 28.3368 7.48013 1.5
    endloop
  endfacet
  facet normal 0 0 1
    outer loop
      vertex 27.8 0 1
      vertex 7.11088 -0.619811 1
      vertex 24.5658 -7.69349 1
    endloop
  endfacet
  facet normal -0 0 1
    outer loop
      vertex 6.44069 -1.66265 1
      vertex 24.5658 -7.69349 1
      vertex 7.11088 -0.619811 1
    endloop
  endfacet
  facet normal 0 0 1
    outer loop
      vertex 0.5 -7.5 1
      vertex 6.44069 -1.66265 1
      vertex 5.31309 -2.17761 1
    endloop
  endfacet
  facet normal 0 0 1
    outer loop
      vertex 0.5 -7.5 1
      vertex 5.31309 -2.17761 1
      vertex 4.08609 -2.00119 1
    endloop
  endfacet
  facet normal 0 0 1
    outer loop
      vertex 0.5 -7.5 1
      vertex 2.8 0 1
      vertex 0.5 7.5 1
    endloop
  endfacet
  facet normal 0 0 1
    outer loop
      vertex 6.44069 -1.66265 1
      vertex 0.5 -7.5 1
      vertex 24.5658 -7.69349 1
    endloop
  endfacet
  facet normal 0 0 1
    outer loop
      vertex 3.14924 -1.18941 1
      vertex 0.5 -7.5 1
      vertex 4.08609 -2.00119 1
    endloop
  endfacet
  facet normal 0 0 1
    outer loop
      vertex 2.8 0 1
      vertex 0.5 -7.5 1
      vertex 3.14924 -1.18941 1
    endloop
  endfacet
  facet normal -0 0 1
    outer loop
      vertex 32.1109 0.619811 1
      vertex 33.25 0 1
      vertex 33.0248 1.8547 1
    endloop
  endfacet
  facet normal 0 0 1
    outer loop
      vertex 31.4407 1.66265 1
      vertex 33.0248 1.8547 1
      vertex 32.3623 3.6016 1
    endloop
  endfacet
  facet normal 0 0 1
    outer loop
      vertex 32.1109 -0.619811 1
      vertex 33.25 0 1
      vertex 32.1109 0.619811 1
    endloop
  endfacet
  facet normal 0 0 1
    outer loop
      vertex 33.25 0 1
      vertex 32.1109 -0.619811 1
      vertex 33.0248 -1.8547 1
    endloop
  endfacet
  facet normal 0 0 1
    outer loop
      vertex 33.0248 1.8547 1
      vertex 31.4407 1.66265 1
      vertex 32.1109 0.619811 1
    endloop
  endfacet
  facet normal 0 0 1
    outer loop
      vertex 30.3131 2.17761 1
      vertex 32.3623 3.6016 1
      vertex 31.301 5.1392 1
    endloop
  endfacet
  facet normal 0 0 1
    outer loop
      vertex 32.3623 3.6016 1
      vertex 30.3131 2.17761 1
      vertex 31.4407 1.66265 1
    endloop
  endfacet
  facet normal 0 0 1
    outer loop
      vertex 29.0861 2.00119 1
      vertex 31.301 5.1392 1
      vertex 29.9025 6.37812 1
    endloop
  endfacet
  facet normal 0 0 1
    outer loop
      vertex 31.301 5.1392 1
      vertex 29.0861 2.00119 1
      vertex 30.3131 2.17761 1
    endloop
  endfacet
  facet normal 0 0 1
    outer loop
      vertex 28.2482 7.24638 1
      vertex 29.0861 2.00119 1
      vertex 29.9025 6.37812 1
    endloop
  endfacet
  facet normal 0 0 1
    outer loop
      vertex 26.4342 7.69349 1
      vertex 29.0861 2.00119 1
      vertex 28.2482 7.24638 1
    endloop
  endfacet
  facet normal 0 0 1
    outer loop
      vertex 29.0861 2.00119 1
      vertex 26.4342 7.69349 1
      vertex 28.1492 1.18941 1
    endloop
  endfacet
  facet normal -0 0 1
    outer loop
      vertex 24.5658 7.69349 1
      vertex 28.1492 1.18941 1
      vertex 26.4342 7.69349 1
    endloop
  endfacet
  facet normal -0 0 1
    outer loop
      vertex 31.4407 -1.66265 1
      vertex 33.0248 -1.8547 1
      vertex 32.1109 -0.619811 1
    endloop
  endfacet
  facet normal 0 0 1
    outer loop
      vertex 33.0248 -1.8547 1
      vertex 31.4407 -1.66265 1
      vertex 32.3623 -3.6016 1
    endloop
  endfacet
  facet normal -0 0 1
    outer loop
      vertex 30.3131 -2.17761 1
      vertex 32.3623 -3.6016 1
      vertex 31.4407 -1.66265 1
    endloop
  endfacet
  facet normal 0 0 1
    outer loop
      vertex 32.3623 -3.6016 1
      vertex 30.3131 -2.17761 1
      vertex 31.301 -5.1392 1
    endloop
  endfacet
  facet normal 0 0 1
    outer loop
      vertex 29.0861 -2.00119 1
      vertex 31.301 -5.1392 1
      vertex 30.3131 -2.17761 1
    endloop
  endfacet
  facet normal 0 0 1
    outer loop
      vertex 31.301 -5.1392 1
      vertex 29.0861 -2.00119 1
      vertex 29.9025 -6.37812 1
    endloop
  endfacet
  facet normal 0 0 1
    outer loop
      vertex 29.0861 -2.00119 1
      vertex 28.2482 -7.24638 1
      vertex 29.9025 -6.37812 1
    endloop
  endfacet
  facet normal 0 0 1
    outer loop
      vertex 26.4342 -7.69349 1
      vertex 29.0861 -2.00119 1
      vertex 28.1492 -1.18941 1
    endloop
  endfacet
  facet normal 0 0 1
    outer loop
      vertex 24.5658 -7.69349 1
      vertex 28.1492 -1.18941 1
      vertex 27.8 0 1
    endloop
  endfacet
  facet normal 0 0 1
    outer loop
      vertex 28.1492 1.18941 1
      vertex 24.5658 7.69349 1
      vertex 27.8 0 1
    endloop
  endfacet
  facet normal 0 0 1
    outer loop
      vertex 29.0861 -2.00119 1
      vertex 26.4342 -7.69349 1
      vertex 28.2482 -7.24638 1
    endloop
  endfacet
  facet normal -0 0 1
    outer loop
      vertex 7.11088 0.619811 1
      vertex 27.8 0 1
      vertex 24.5658 7.69349 1
    endloop
  endfacet
  facet normal 0 0 1
    outer loop
      vertex 28.1492 -1.18941 1
      vertex 24.5658 -7.69349 1
      vertex 26.4342 -7.69349 1
    endloop
  endfacet
  facet normal 0 0 1
    outer loop
      vertex 7.11088 -0.619811 1
      vertex 27.8 0 1
      vertex 7.11088 0.619811 1
    endloop
  endfacet
  facet normal 0 0 1
    outer loop
      vertex 24.5658 7.69349 1
      vertex 6.44069 1.66265 1
      vertex 7.11088 0.619811 1
    endloop
  endfacet
  facet normal -0 0 1
    outer loop
      vertex 0.5 7.5 1
      vertex 6.44069 1.66265 1
      vertex 24.5658 7.69349 1
    endloop
  endfacet
  facet normal 0 0 1
    outer loop
      vertex 6.44069 1.66265 1
      vertex 0.5 7.5 1
      vertex 5.31309 2.17761 1
    endloop
  endfacet
  facet normal 0 0 1
    outer loop
      vertex 3.14924 1.18941 1
      vertex 0.5 7.5 1
      vertex 2.8 0 1
    endloop
  endfacet
  facet normal 0 0 1
    outer loop
      vertex 4.08609 2.00119 1
      vertex 0.5 7.5 1
      vertex 3.14924 1.18941 1
    endloop
  endfacet
  facet normal 0 0 1
    outer loop
      vertex 5.31309 2.17761 1
      vertex 0.5 7.5 1
      vertex 4.08609 2.00119 1
    endloop
  endfacet
  facet normal -0.59397 -0.670477 0.444589
    outer loop
      vertex 31.301 5.1392 1
      vertex 30.0445 6.58387 1.5
      vertex 29.9025 6.37812 1
    endloop
  endfacet
  facet normal 0 -1 0
    outer loop
      vertex 0 8 1.5
      vertex 25.5 8 4
      vertex 0 8 4
    endloop
  endfacet
  facet normal 0 -1 -0
    outer loop
      vertex 25.5 8 4
      vertex 0 8 1.5
      vertex 25.5 8 1.5
    endloop
  endfacet
  facet normal 0.707107 0 0.707107
    outer loop
      vertex 0 8 1.5
      vertex 0.5 -7.5 1
      vertex 0.5 7.5 1
    endloop
  endfacet
  facet normal 0.707107 0 0.707107
    outer loop
      vertex 0.5 -7.5 1
      vertex 0 8 1.5
      vertex 0 -8 1.5
    endloop
  endfacet
  facet normal -0.416272 -0.793148 0.44456
    outer loop
      vertex 30.0445 6.58387 1.5
      vertex 28.3368 7.48013 1.5
      vertex 28.2482 7.24638 1
    endloop
  endfacet
  facet normal -0.0540244 0.89312 0.446562
    outer loop
      vertex 26.4643 -7.94167 1.5
      vertex 26.4342 -7.69349 1
      vertex 25.5 -8 1.5
    endloop
  endfacet
  facet normal 0 0 -1
    outer loop
      vertex 26.8 50 0
      vertex 8.07038 50.9015 0
      vertex 24.5592 58.9507 0
    endloop
  endfacet
  facet normal 0 0 -1
    outer loop
      vertex 7.09555 52.4184 0
      vertex 24.5592 58.9507 0
      vertex 8.07038 50.9015 0
    endloop
  endfacet
  facet normal 0 0 -1
    outer loop
      vertex 1 58.5 0
      vertex 7.09555 52.4184 0
      vertex 5.45541 53.1674 0
    endloop
  endfacet
  facet normal 0 0 -1
    outer loop
      vertex 1 58.5 0
      vertex 5.45541 53.1674 0
      vertex 3.67067 52.9108 0
    endloop
  endfacet
  facet normal 0 0 -1
    outer loop
      vertex 7.09555 52.4184 0
      vertex 1 58.5 0
      vertex 24.5592 58.9507 0
    endloop
  endfacet
  facet normal 0 0 -1
    outer loop
      vertex 2.30799 51.73 0
      vertex 1 58.5 0
      vertex 3.67067 52.9108 0
    endloop
  endfacet
  facet normal 0 0 -1
    outer loop
      vertex 1.8 50 0
      vertex 1 58.5 0
      vertex 2.30799 51.73 0
    endloop
  endfacet
  facet normal 0 0 -1
    outer loop
      vertex 1 58.5 0
      vertex 1.8 50 0
      vertex 1 41.5 0
    endloop
  endfacet
  facet normal 0 0 -1
    outer loop
      vertex 33.0704 49.0985 0
      vertex 34.5 50 0
      vertex 34.3033 48.1288 0
    endloop
  endfacet
  facet normal 0 0 -1
    outer loop
      vertex 32.0956 47.5816 0
      vertex 34.3033 48.1288 0
      vertex 33.7219 46.3394 0
    endloop
  endfacet
  facet normal 0 0 -1
    outer loop
      vertex 33.0704 50.9015 0
      vertex 34.5 50 0
      vertex 33.0704 49.0985 0
    endloop
  endfacet
  facet normal 0 0 -1
    outer loop
      vertex 34.5 50 0
      vertex 33.0704 50.9015 0
      vertex 34.3033 51.8712 0
    endloop
  endfacet
  facet normal 0 0 -1
    outer loop
      vertex 32.0956 47.5816 0
      vertex 33.7219 46.3394 0
      vertex 32.7812 44.7099 0
    endloop
  endfacet
  facet normal -0 0 -1
    outer loop
      vertex 34.3033 48.1288 0
      vertex 32.0956 47.5816 0
      vertex 33.0704 49.0985 0
    endloop
  endfacet
  facet normal 0 0 -1
    outer loop
      vertex 30.4554 46.8326 0
      vertex 32.7812 44.7099 0
      vertex 31.5222 43.3117 0
    endloop
  endfacet
  facet normal 0 0 -1
    outer loop
      vertex 32.7812 44.7099 0
      vertex 30.4554 46.8326 0
      vertex 32.0956 47.5816 0
    endloop
  endfacet
  facet normal 0 0 -1
    outer loop
      vertex 30 42.2058 0
      vertex 30.4554 46.8326 0
      vertex 31.5222 43.3117 0
    endloop
  endfacet
  facet normal 0 0 -1
    outer loop
      vertex 30 42.2058 0
      vertex 28.6707 47.0892 0
      vertex 30.4554 46.8326 0
    endloop
  endfacet
  facet normal 0 0 -1
    outer loop
      vertex 28.2812 41.4405 0
      vertex 28.6707 47.0892 0
      vertex 30 42.2058 0
    endloop
  endfacet
  facet normal 0 0 -1
    outer loop
      vertex 26.4408 41.0493 0
      vertex 28.6707 47.0892 0
      vertex 28.2812 41.4405 0
    endloop
  endfacet
  facet normal -0 0 -1
    outer loop
      vertex 28.6707 47.0892 0
      vertex 26.4408 41.0493 0
      vertex 27.308 48.27 0
    endloop
  endfacet
  facet normal 0 0 -1
    outer loop
      vertex 24.5592 41.0493 0
      vertex 27.308 48.27 0
      vertex 26.4408 41.0493 0
    endloop
  endfacet
  facet normal 0 0 -1
    outer loop
      vertex 32.0956 52.4184 0
      vertex 34.3033 51.8712 0
      vertex 33.0704 50.9015 0
    endloop
  endfacet
  facet normal 0 0 -1
    outer loop
      vertex 34.3033 51.8712 0
      vertex 32.0956 52.4184 0
      vertex 33.7219 53.6606 0
    endloop
  endfacet
  facet normal -0 0 -1
    outer loop
      vertex 33.7219 53.6606 0
      vertex 32.0956 52.4184 0
      vertex 32.7812 55.2901 0
    endloop
  endfacet
  facet normal 0 0 -1
    outer loop
      vertex 30.4554 53.1674 0
      vertex 32.7812 55.2901 0
      vertex 32.0956 52.4184 0
    endloop
  endfacet
  facet normal -0 0 -1
    outer loop
      vertex 32.7812 55.2901 0
      vertex 30.4554 53.1674 0
      vertex 31.5222 56.6883 0
    endloop
  endfacet
  facet normal 0 0 -1
    outer loop
      vertex 30.4554 53.1674 0
      vertex 30 57.7942 0
      vertex 31.5222 56.6883 0
    endloop
  endfacet
  facet normal 0 0 -1
    outer loop
      vertex 28.6707 52.9108 0
      vertex 30 57.7942 0
      vertex 30.4554 53.1674 0
    endloop
  endfacet
  facet normal 0 0 -1
    outer loop
      vertex 28.6707 52.9108 0
      vertex 28.2812 58.5595 0
      vertex 30 57.7942 0
    endloop
  endfacet
  facet normal 0 0 -1
    outer loop
      vertex 26.4408 58.9507 0
      vertex 28.6707 52.9108 0
      vertex 27.308 51.73 0
    endloop
  endfacet
  facet normal 0 0 -1
    outer loop
      vertex 24.5592 58.9507 0
      vertex 27.308 51.73 0
      vertex 26.8 50 0
    endloop
  endfacet
  facet normal 0 0 -1
    outer loop
      vertex 28.6707 52.9108 0
      vertex 26.4408 58.9507 0
      vertex 28.2812 58.5595 0
    endloop
  endfacet
  facet normal -0 0 -1
    outer loop
      vertex 27.308 48.27 0
      vertex 24.5592 41.0493 0
      vertex 26.8 50 0
    endloop
  endfacet
  facet normal 0 0 -1
    outer loop
      vertex 8.07038 49.0985 0
      vertex 26.8 50 0
      vertex 24.5592 41.0493 0
    endloop
  endfacet
  facet normal 0 0 -1
    outer loop
      vertex 27.308 51.73 0
      vertex 24.5592 58.9507 0
      vertex 26.4408 58.9507 0
    endloop
  endfacet
  facet normal 0 0 -1
    outer loop
      vertex 8.07038 50.9015 0
      vertex 26.8 50 0
      vertex 8.07038 49.0985 0
    endloop
  endfacet
  facet normal 0 0 -1
    outer loop
      vertex 24.5592 41.0493 0
      vertex 7.09555 47.5816 0
      vertex 8.07038 49.0985 0
    endloop
  endfacet
  facet normal 0 0 -1
    outer loop
      vertex 1 41.5 0
      vertex 7.09555 47.5816 0
      vertex 24.5592 41.0493 0
    endloop
  endfacet
  facet normal 0 0 -1
    outer loop
      vertex 7.09555 47.5816 0
      vertex 1 41.5 0
      vertex 5.45541 46.8326 0
    endloop
  endfacet
  facet normal -0 0 -1
    outer loop
      vertex 2.30799 48.27 0
      vertex 1 41.5 0
      vertex 1.8 50 0
    endloop
  endfacet
  facet normal -0 0 -1
    outer loop
      vertex 3.67067 47.0892 0
      vertex 1 41.5 0
      vertex 2.30799 48.27 0
    endloop
  endfacet
  facet normal -0 0 -1
    outer loop
      vertex 5.45541 46.8326 0
      vertex 1 41.5 0
      vertex 3.67067 47.0892 0
    endloop
  endfacet
  facet normal 0.692341 0.20329 -0.692341
    outer loop
      vertex 3.14924 48.8106 1
      vertex 1.8 50 0
      vertex 2.8 50 1
    endloop
  endfacet
  facet normal 0.692344 0.203297 -0.692337
    outer loop
      vertex 1.8 50 0
      vertex 3.14924 48.8106 1
      vertex 2.30799 48.27 0
    endloop
  endfacet
  facet normal -0.721568 0 -0.692344
    outer loop
      vertex 8.07038 50.9015 0
      vertex 7.11088 49.3802 1
      vertex 7.11088 50.6198 1
    endloop
  endfacet
  facet normal -0.721568 0 -0.692344
    outer loop
      vertex 7.11088 49.3802 1
      vertex 8.07038 50.9015 0
      vertex 8.07038 49.0985 0
    endloop
  endfacet
  facet normal 0.692341 -0.20329 -0.692341
    outer loop
      vertex 1.8 50 0
      vertex 3.14924 51.1894 1
      vertex 2.8 50 1
    endloop
  endfacet
  facet normal 0.692344 -0.203297 -0.692337
    outer loop
      vertex 3.14924 51.1894 1
      vertex 1.8 50 0
      vertex 2.30799 51.73 0
    endloop
  endfacet
  facet normal 0.102689 -0.714237 -0.692329
    outer loop
      vertex 5.45541 53.1674 0
      vertex 4.08609 52.0012 1
      vertex 3.67067 52.9108 0
    endloop
  endfacet
  facet normal 0.102682 -0.714233 -0.692335
    outer loop
      vertex 4.08609 52.0012 1
      vertex 5.45541 53.1674 0
      vertex 5.31309 52.1776 1
    endloop
  endfacet
  facet normal -0.60703 0.390106 -0.692338
    outer loop
      vertex 7.09555 47.5816 0
      vertex 7.11088 49.3802 1
      vertex 8.07038 49.0985 0
    endloop
  endfacet
  facet normal -0.607008 0.390114 -0.692353
    outer loop
      vertex 7.11088 49.3802 1
      vertex 7.09555 47.5816 0
      vertex 6.44069 48.3374 1
    endloop
  endfacet
  facet normal -0.299736 0.656354 -0.692357
    outer loop
      vertex 5.45541 46.8326 0
      vertex 6.44069 48.3374 1
      vertex 7.09555 47.5816 0
    endloop
  endfacet
  facet normal -0.299775 0.656362 -0.692332
    outer loop
      vertex 6.44069 48.3374 1
      vertex 5.45541 46.8326 0
      vertex 5.31309 47.8224 1
    endloop
  endfacet
  facet normal -0.299736 -0.656354 -0.692357
    outer loop
      vertex 6.44069 51.6626 1
      vertex 5.45541 53.1674 0
      vertex 7.09555 52.4184 0
    endloop
  endfacet
  facet normal -0.299775 -0.656362 -0.692332
    outer loop
      vertex 5.45541 53.1674 0
      vertex 6.44069 51.6626 1
      vertex 5.31309 52.1776 1
    endloop
  endfacet
  facet normal 0.102682 0.714233 -0.692335
    outer loop
      vertex 5.45541 46.8326 0
      vertex 4.08609 47.9988 1
      vertex 5.31309 47.8224 1
    endloop
  endfacet
  facet normal 0.102689 0.714237 -0.692329
    outer loop
      vertex 4.08609 47.9988 1
      vertex 5.45541 46.8326 0
      vertex 3.67067 47.0892 0
    endloop
  endfacet
  facet normal 0.472538 0.545328 -0.692333
    outer loop
      vertex 3.67067 47.0892 0
      vertex 3.14924 48.8106 1
      vertex 4.08609 47.9988 1
    endloop
  endfacet
  facet normal 0.472542 0.545328 -0.69233
    outer loop
      vertex 3.14924 48.8106 1
      vertex 3.67067 47.0892 0
      vertex 2.30799 48.27 0
    endloop
  endfacet
  facet normal -0.60703 -0.390106 -0.692338
    outer loop
      vertex 7.11088 50.6198 1
      vertex 7.09555 52.4184 0
      vertex 8.07038 50.9015 0
    endloop
  endfacet
  facet normal -0.607008 -0.390114 -0.692353
    outer loop
      vertex 7.09555 52.4184 0
      vertex 7.11088 50.6198 1
      vertex 6.44069 51.6626 1
    endloop
  endfacet
  facet normal 0.472538 -0.545328 -0.692333
    outer loop
      vertex 3.14924 51.1894 1
      vertex 3.67067 52.9108 0
      vertex 4.08609 52.0012 1
    endloop
  endfacet
  facet normal 0.472542 -0.545328 -0.69233
    outer loop
      vertex 3.67067 52.9108 0
      vertex 3.14924 51.1894 1
      vertex 2.30799 51.73 0
    endloop
  endfacet
  facet normal 0.692345 0.203268 -0.692345
    outer loop
      vertex 28.1492 48.8106 1
      vertex 26.8 50 0
      vertex 27.8 50 1
    endloop
  endfacet
  facet normal 0.692359 0.203305 -0.692319
    outer loop
      vertex 26.8 50 0
      vertex 28.1492 48.8106 1
      vertex 27.308 48.27 0
    endloop
  endfacet
  facet normal -0.721568 0 -0.692344
    outer loop
      vertex 33.0704 50.9015 0
      vertex 32.1109 49.3802 1
      vertex 32.1109 50.6198 1
    endloop
  endfacet
  facet normal -0.721568 0 -0.692344
    outer loop
      vertex 32.1109 49.3802 1
      vertex 33.0704 50.9015 0
      vertex 33.0704 49.0985 0
    endloop
  endfacet
  facet normal 0.692345 -0.203268 -0.692345
    outer loop
      vertex 26.8 50 0
      vertex 28.1492 51.1894 1
      vertex 27.8 50 1
    endloop
  endfacet
  facet normal 0.692359 -0.203305 -0.692319
    outer loop
      vertex 28.1492 51.1894 1
      vertex 26.8 50 0
      vertex 27.308 51.73 0
    endloop
  endfacet
  facet normal 0.102691 -0.714238 -0.692329
    outer loop
      vertex 30.4554 53.1674 0
      vertex 29.0861 52.0012 1
      vertex 28.6707 52.9108 0
    endloop
  endfacet
  facet normal 0.102682 -0.714232 -0.692336
    outer loop
      vertex 29.0861 52.0012 1
      vertex 30.4554 53.1674 0
      vertex 30.3131 52.1776 1
    endloop
  endfacet
  facet normal -0.607034 0.390096 -0.69234
    outer loop
      vertex 32.0956 47.5816 0
      vertex 32.1109 49.3802 1
      vertex 33.0704 49.0985 0
    endloop
  endfacet
  facet normal -0.606994 0.390111 -0.692366
    outer loop
      vertex 32.1109 49.3802 1
      vertex 32.0956 47.5816 0
      vertex 31.4407 48.3374 1
    endloop
  endfacet
  facet normal -0.299725 0.656354 -0.692362
    outer loop
      vertex 30.4554 46.8326 0
      vertex 31.4407 48.3374 1
      vertex 32.0956 47.5816 0
    endloop
  endfacet
  facet normal -0.299777 0.656365 -0.692328
    outer loop
      vertex 31.4407 48.3374 1
      vertex 30.4554 46.8326 0
      vertex 30.3131 47.8224 1
    endloop
  endfacet
  facet normal -0.299725 -0.656354 -0.692362
    outer loop
      vertex 31.4407 51.6626 1
      vertex 30.4554 53.1674 0
      vertex 32.0956 52.4184 0
    endloop
  endfacet
  facet normal -0.299777 -0.656365 -0.692328
    outer loop
      vertex 30.4554 53.1674 0
      vertex 31.4407 51.6626 1
      vertex 30.3131 52.1776 1
    endloop
  endfacet
  facet normal 0.102682 0.714232 -0.692336
    outer loop
      vertex 30.4554 46.8326 0
      vertex 29.0861 47.9988 1
      vertex 30.3131 47.8224 1
    endloop
  endfacet
  facet normal 0.102691 0.714238 -0.692329
    outer loop
      vertex 29.0861 47.9988 1
      vertex 30.4554 46.8326 0
      vertex 28.6707 47.0892 0
    endloop
  endfacet
  facet normal 0.472525 0.545342 -0.69233
    outer loop
      vertex 28.6707 47.0892 0
      vertex 28.1492 48.8106 1
      vertex 29.0861 47.9988 1
    endloop
  endfacet
  facet normal 0.472546 0.545341 -0.692317
    outer loop
      vertex 28.1492 48.8106 1
      vertex 28.6707 47.0892 0
      vertex 27.308 48.27 0
    endloop
  endfacet
  facet normal -0.607034 -0.390096 -0.69234
    outer loop
      vertex 32.1109 50.6198 1
      vertex 32.0956 52.4184 0
      vertex 33.0704 50.9015 0
    endloop
  endfacet
  facet normal -0.606994 -0.390111 -0.692366
    outer loop
      vertex 32.0956 52.4184 0
      vertex 32.1109 50.6198 1
      vertex 31.4407 51.6626 1
    endloop
  endfacet
  facet normal 0.472525 -0.545342 -0.69233
    outer loop
      vertex 28.1492 51.1894 1
      vertex 28.6707 52.9108 0
      vertex 29.0861 52.0012 1
    endloop
  endfacet
  facet normal 0.472546 -0.545341 -0.692317
    outer loop
      vertex 28.6707 52.9108 0
      vertex 28.1492 51.1894 1
      vertex 27.308 51.73 0
    endloop
  endfacet
  facet normal 0 1 -0
    outer loop
      vertex 25.5 59.5 1
      vertex 0 59.5 4
      vertex 25.5 59.5 4
    endloop
  endfacet
  facet normal 0 1 0
    outer loop
      vertex 0 59.5 4
      vertex 25.5 59.5 1
      vertex 0 59.5 1
    endloop
  endfacet
  facet normal 0.775465 -0.447671 -0.445246
    outer loop
      vertex 33.1857 44.416 1
      vertex 32.7812 44.7099 0
      vertex 33.7219 46.3394 0
    endloop
  endfacet
  facet normal 0.951058 0.309013 0
    outer loop
      vertex 34.7924 51.9752 4
      vertex 34.1787 53.864 1
      vertex 34.1787 53.864 4
    endloop
  endfacet
  facet normal 0.951058 0.309013 0
    outer loop
      vertex 34.1787 53.864 1
      vertex 34.7924 51.9752 4
      vertex 34.7924 51.9752 1
    endloop
  endfacet
  facet normal 0.207944 -0.978141 0
    outer loop
      vertex 26.493 40.552 1
      vertex 28.4357 40.965 4
      vertex 26.493 40.552 4
    endloop
  endfacet
  facet normal 0.207944 -0.978141 0
    outer loop
      vertex 28.4357 40.965 4
      vertex 26.493 40.552 1
      vertex 28.4357 40.965 1
    endloop
  endfacet
  facet normal 0.665404 0.599159 -0.445249
    outer loop
      vertex 32.7812 55.2901 0
      vertex 31.5222 56.6883 0
      vertex 33.1857 55.584 1
    endloop
  endfacet
  facet normal -1 0 0
    outer loop
      vertex 0 59.5 1
      vertex 0 58 1.5
      vertex 0 59.5 4
    endloop
  endfacet
  facet normal -1 0 0
    outer loop
      vertex 0 59.5 1
      vertex 0 42 1.5
      vertex 0 58 1.5
    endloop
  endfacet
  facet normal -1 0 0
    outer loop
      vertex 0 40.5 1
      vertex 0 42 1.5
      vertex 0 59.5 1
    endloop
  endfacet
  facet normal -1 0 0
    outer loop
      vertex 0 40.5 4
      vertex 0 42 1.5
      vertex 0 40.5 1
    endloop
  endfacet
  facet normal -1 0 0
    outer loop
      vertex 0 42 1.5
      vertex 0 40.5 4
      vertex 0 42 4
    endloop
  endfacet
  facet normal -1 -0 0
    outer loop
      vertex 0 59.5 4
      vertex 0 58 1.5
      vertex 0 58 4
    endloop
  endfacet
  facet normal -0.0133974 0.700313 -0.71371
    outer loop
      vertex 1 58.5 0
      vertex 0 59.5 1
      vertex 24.5592 58.9507 0
    endloop
  endfacet
  facet normal 0.743121 0.669157 0
    outer loop
      vertex 33.1857 55.584 4
      vertex 31.8567 57.0599 1
      vertex 31.8567 57.0599 4
    endloop
  endfacet
  facet normal 0.743121 0.669157 0
    outer loop
      vertex 31.8567 57.0599 1
      vertex 33.1857 55.584 4
      vertex 33.1857 55.584 1
    endloop
  endfacet
  facet normal 0.587773 -0.809026 0
    outer loop
      vertex 30.25 41.7728 1
      vertex 31.8567 42.9401 4
      vertex 30.25 41.7728 4
    endloop
  endfacet
  facet normal 0.587773 -0.809026 0
    outer loop
      vertex 31.8567 42.9401 4
      vertex 30.25 41.7728 1
      vertex 31.8567 42.9401 1
    endloop
  endfacet
  facet normal 0.186196 -0.875843 -0.445231
    outer loop
      vertex 28.4357 40.965 1
      vertex 26.493 40.552 1
      vertex 28.2812 41.4405 0
    endloop
  endfacet
  facet normal 0 -1 0
    outer loop
      vertex 0 40.5 1
      vertex 25.5 40.5 4
      vertex 0 40.5 4
    endloop
  endfacet
  facet normal 0 -1 -0
    outer loop
      vertex 25.5 40.5 4
      vertex 0 40.5 1
      vertex 25.5 40.5 1
    endloop
  endfacet
  facet normal 0.186196 0.875843 -0.445231
    outer loop
      vertex 28.2812 58.5595 0
      vertex 26.493 59.448 1
      vertex 28.4357 59.035 1
    endloop
  endfacet
  facet normal -0.707107 0 -0.707107
    outer loop
      vertex 1 41.5 0
      vertex 0 59.5 1
      vertex 1 58.5 0
    endloop
  endfacet
  facet normal -0.707107 -0 -0.707107
    outer loop
      vertex 0 59.5 1
      vertex 1 41.5 0
      vertex 0 40.5 1
    endloop
  endfacet
  facet normal 0.0522949 -0.998632 0
    outer loop
      vertex 25.5 40.5 1
      vertex 26.493 40.552 4
      vertex 25.5 40.5 4
    endloop
  endfacet
  facet normal 0.0522949 -0.998632 0
    outer loop
      vertex 26.493 40.552 4
      vertex 25.5 40.5 1
      vertex 26.493 40.552 1
    endloop
  endfacet
  facet normal 0 0.876475 -0.481448
    outer loop
      vertex 24.5592 58.9507 0
      vertex 25.5 59.5 1
      vertex 26.4408 58.9507 0
    endloop
  endfacet
  facet normal 0 0.876475 -0.481448
    outer loop
      vertex 25.5 59.5 1
      vertex 24.5592 58.9507 0
      vertex 0 59.5 1
    endloop
  endfacet
  facet normal 0.406746 0.913541 -0
    outer loop
      vertex 30.25 58.2272 1
      vertex 28.4357 59.035 4
      vertex 30.25 58.2272 4
    endloop
  endfacet
  facet normal 0.406746 0.913541 0
    outer loop
      vertex 28.4357 59.035 4
      vertex 30.25 58.2272 1
      vertex 28.4357 59.035 1
    endloop
  endfacet
  facet normal 0.364215 0.817997 -0.445229
    outer loop
      vertex 30 57.7942 0
      vertex 28.2812 58.5595 0
      vertex 28.4357 59.035 1
    endloop
  endfacet
  facet normal 0.526298 0.724409 -0.445244
    outer loop
      vertex 31.8567 57.0599 1
      vertex 30 57.7942 0
      vertex 30.25 58.2272 1
    endloop
  endfacet
  facet normal 0.364215 -0.817997 -0.445229
    outer loop
      vertex 28.4357 40.965 1
      vertex 28.2812 41.4405 0
      vertex 30 42.2058 0
    endloop
  endfacet
  facet normal 0.0522949 0.998632 -0
    outer loop
      vertex 26.493 59.448 1
      vertex 25.5 59.5 4
      vertex 26.493 59.448 4
    endloop
  endfacet
  facet normal 0.0522949 0.998632 0
    outer loop
      vertex 25.5 59.5 4
      vertex 26.493 59.448 1
      vertex 25.5 59.5 1
    endloop
  endfacet
  facet normal 0 -0.876475 -0.481448
    outer loop
      vertex 24.5592 41.0493 0
      vertex 25.5 40.5 1
      vertex 0 40.5 1
    endloop
  endfacet
  facet normal 0 -0.876475 -0.481448
    outer loop
      vertex 25.5 40.5 1
      vertex 24.5592 41.0493 0
      vertex 26.4408 41.0493 0
    endloop
  endfacet
  facet normal 0.364204 0.817994 -0.445243
    outer loop
      vertex 30 57.7942 0
      vertex 28.4357 59.035 1
      vertex 30.25 58.2272 1
    endloop
  endfacet
  facet normal 0.951058 -0.309013 0
    outer loop
      vertex 34.1787 46.136 4
      vertex 34.7924 48.0248 1
      vertex 34.7924 48.0248 4
    endloop
  endfacet
  facet normal 0.951058 -0.309013 0
    outer loop
      vertex 34.7924 48.0248 1
      vertex 34.1787 46.136 4
      vertex 34.1787 46.136 1
    endloop
  endfacet
  facet normal 0.866035 0.499984 0
    outer loop
      vertex 34.1787 53.864 4
      vertex 33.1857 55.584 1
      vertex 33.1857 55.584 4
    endloop
  endfacet
  facet normal 0.866035 0.499984 0
    outer loop
      vertex 33.1857 55.584 1
      vertex 34.1787 53.864 4
      vertex 34.1787 53.864 1
    endloop
  endfacet
  facet normal 0.526297 -0.724413 -0.445238
    outer loop
      vertex 31.8567 42.9401 1
      vertex 30 42.2058 0
      vertex 31.5222 43.3117 0
    endloop
  endfacet
  facet normal 0.851571 0.276688 -0.445276
    outer loop
      vertex 34.7924 51.9752 1
      vertex 33.7219 53.6606 0
      vertex 34.1787 53.864 1
    endloop
  endfacet
  facet normal 0.994522 0.104528 0
    outer loop
      vertex 35 50 4
      vertex 34.7924 51.9752 1
      vertex 34.7924 51.9752 4
    endloop
  endfacet
  facet normal 0.994522 0.104528 0
    outer loop
      vertex 34.7924 51.9752 1
      vertex 35 50 4
      vertex 35 50 1
    endloop
  endfacet
  facet normal 0.364204 -0.817994 -0.445243
    outer loop
      vertex 30.25 41.7728 1
      vertex 28.4357 40.965 1
      vertex 30 42.2058 0
    endloop
  endfacet
  facet normal -0.0133974 -0.700313 -0.71371
    outer loop
      vertex 24.5592 41.0493 0
      vertex 0 40.5 1
      vertex 1 41.5 0
    endloop
  endfacet
  facet normal 0.406746 -0.913541 0
    outer loop
      vertex 28.4357 40.965 1
      vertex 30.25 41.7728 4
      vertex 28.4357 40.965 4
    endloop
  endfacet
  facet normal 0.406746 -0.913541 0
    outer loop
      vertex 30.25 41.7728 4
      vertex 28.4357 40.965 1
      vertex 30.25 41.7728 1
    endloop
  endfacet
  facet normal 0.0467862 -0.893436 -0.446748
    outer loop
      vertex 26.493 40.552 1
      vertex 25.5 40.5 1
      vertex 26.4408 41.0493 0
    endloop
  endfacet
  facet normal 0.186169 -0.87583 -0.445268
    outer loop
      vertex 26.493 40.552 1
      vertex 26.4408 41.0493 0
      vertex 28.2812 41.4405 0
    endloop
  endfacet
  facet normal 0.77544 -0.447681 -0.445279
    outer loop
      vertex 34.1787 46.136 1
      vertex 33.1857 44.416 1
      vertex 33.7219 46.3394 0
    endloop
  endfacet
  facet normal 0.866035 -0.499984 0
    outer loop
      vertex 33.1857 44.416 4
      vertex 34.1787 46.136 1
      vertex 34.1787 46.136 4
    endloop
  endfacet
  facet normal 0.866035 -0.499984 0
    outer loop
      vertex 34.1787 46.136 1
      vertex 33.1857 44.416 4
      vertex 33.1857 44.416 1
    endloop
  endfacet
  facet normal 0.743121 -0.669157 0
    outer loop
      vertex 31.8567 42.9401 4
      vertex 33.1857 44.416 1
      vertex 33.1857 44.416 4
    endloop
  endfacet
  facet normal 0.743121 -0.669157 0
    outer loop
      vertex 33.1857 44.416 1
      vertex 31.8567 42.9401 4
      vertex 31.8567 42.9401 1
    endloop
  endfacet
  facet normal 0.890488 0.0936079 -0.445273
    outer loop
      vertex 34.5 50 0
      vertex 34.3033 51.8712 0
      vertex 34.7924 51.9752 1
    endloop
  endfacet
  facet normal 0.186169 0.87583 -0.445268
    outer loop
      vertex 28.2812 58.5595 0
      vertex 26.4408 58.9507 0
      vertex 26.493 59.448 1
    endloop
  endfacet
  facet normal 0.0467862 0.893436 -0.446748
    outer loop
      vertex 26.4408 58.9507 0
      vertex 25.5 59.5 1
      vertex 26.493 59.448 1
    endloop
  endfacet
  facet normal 0.890501 0.0935946 -0.445251
    outer loop
      vertex 35 50 1
      vertex 34.5 50 0
      vertex 34.7924 51.9752 1
    endloop
  endfacet
  facet normal 0.665404 -0.599159 -0.445249
    outer loop
      vertex 33.1857 44.416 1
      vertex 31.5222 43.3117 0
      vertex 32.7812 44.7099 0
    endloop
  endfacet
  facet normal 0.85157 0.276687 -0.445278
    outer loop
      vertex 34.3033 51.8712 0
      vertex 33.7219 53.6606 0
      vertex 34.7924 51.9752 1
    endloop
  endfacet
  facet normal 0.207944 0.978141 -0
    outer loop
      vertex 28.4357 59.035 1
      vertex 26.493 59.448 4
      vertex 28.4357 59.035 4
    endloop
  endfacet
  facet normal 0.207944 0.978141 0
    outer loop
      vertex 26.493 59.448 4
      vertex 28.4357 59.035 1
      vertex 26.493 59.448 1
    endloop
  endfacet
  facet normal 0.851571 -0.276688 -0.445276
    outer loop
      vertex 34.1787 46.136 1
      vertex 33.7219 46.3394 0
      vertex 34.7924 48.0248 1
    endloop
  endfacet
  facet normal 0.890488 -0.0936079 -0.445273
    outer loop
      vertex 34.7924 48.0248 1
      vertex 34.3033 48.1288 0
      vertex 34.5 50 0
    endloop
  endfacet
  facet normal 0.526298 -0.724409 -0.445244
    outer loop
      vertex 30.25 41.7728 1
      vertex 30 42.2058 0
      vertex 31.8567 42.9401 1
    endloop
  endfacet
  facet normal 0.665403 -0.599174 -0.44523
    outer loop
      vertex 31.8567 42.9401 1
      vertex 31.5222 43.3117 0
      vertex 33.1857 44.416 1
    endloop
  endfacet
  facet normal 0.77544 0.447681 -0.445279
    outer loop
      vertex 33.7219 53.6606 0
      vertex 33.1857 55.584 1
      vertex 34.1787 53.864 1
    endloop
  endfacet
  facet normal 0.665403 0.599174 -0.44523
    outer loop
      vertex 33.1857 55.584 1
      vertex 31.5222 56.6883 0
      vertex 31.8567 57.0599 1
    endloop
  endfacet
  facet normal 0.890501 -0.0935946 -0.445251
    outer loop
      vertex 34.7924 48.0248 1
      vertex 34.5 50 0
      vertex 35 50 1
    endloop
  endfacet
  facet normal 0.994522 -0.104528 0
    outer loop
      vertex 34.7924 48.0248 4
      vertex 35 50 1
      vertex 35 50 4
    endloop
  endfacet
  facet normal 0.994522 -0.104528 0
    outer loop
      vertex 35 50 1
      vertex 34.7924 48.0248 4
      vertex 34.7924 48.0248 1
    endloop
  endfacet
  facet normal 0.85157 -0.276687 -0.445278
    outer loop
      vertex 34.7924 48.0248 1
      vertex 33.7219 46.3394 0
      vertex 34.3033 48.1288 0
    endloop
  endfacet
  facet normal 0.775465 0.447671 -0.445246
    outer loop
      vertex 33.7219 53.6606 0
      vertex 32.7812 55.2901 0
      vertex 33.1857 55.584 1
    endloop
  endfacet
  facet normal 0.587773 0.809026 -0
    outer loop
      vertex 31.8567 57.0599 1
      vertex 30.25 58.2272 4
      vertex 31.8567 57.0599 4
    endloop
  endfacet
  facet normal 0.587773 0.809026 0
    outer loop
      vertex 30.25 58.2272 4
      vertex 31.8567 57.0599 1
      vertex 30.25 58.2272 1
    endloop
  endfacet
  facet normal 0 0 1
    outer loop
      vertex 33.5 50 4
      vertex 35 50 4
      vertex 34.7924 51.9752 4
    endloop
  endfacet
  facet normal 0 0 1
    outer loop
      vertex 33.2675 51.9145 4
      vertex 34.7924 51.9752 4
      vertex 34.1787 53.864 4
    endloop
  endfacet
  facet normal 0 0 1
    outer loop
      vertex 35 50 4
      vertex 33.5 50 4
      vertex 34.7924 48.0248 4
    endloop
  endfacet
  facet normal -0 0 1
    outer loop
      vertex 33.2675 48.0855 4
      vertex 34.7924 48.0248 4
      vertex 33.5 50 4
    endloop
  endfacet
  facet normal 0 0 1
    outer loop
      vertex 34.7924 51.9752 4
      vertex 33.2675 51.9145 4
      vertex 33.5 50 4
    endloop
  endfacet
  facet normal 0 0 1
    outer loop
      vertex 32.5836 53.7178 4
      vertex 34.1787 53.864 4
      vertex 33.1857 55.584 4
    endloop
  endfacet
  facet normal 0 0 1
    outer loop
      vertex 34.1787 53.864 4
      vertex 32.5836 53.7178 4
      vertex 33.2675 51.9145 4
    endloop
  endfacet
  facet normal 0 0 1
    outer loop
      vertex 31.4881 55.305 4
      vertex 33.1857 55.584 4
      vertex 31.8567 57.0599 4
    endloop
  endfacet
  facet normal 0 0 1
    outer loop
      vertex 33.1857 55.584 4
      vertex 31.4881 55.305 4
      vertex 32.5836 53.7178 4
    endloop
  endfacet
  facet normal 0 0 1
    outer loop
      vertex 30.0445 56.5839 4
      vertex 31.8567 57.0599 4
      vertex 30.25 58.2272 4
    endloop
  endfacet
  facet normal 0 0 1
    outer loop
      vertex 31.8567 57.0599 4
      vertex 30.0445 56.5839 4
      vertex 31.4881 55.305 4
    endloop
  endfacet
  facet normal 0 0 1
    outer loop
      vertex 28.3368 57.4801 4
      vertex 30.25 58.2272 4
      vertex 28.4357 59.035 4
    endloop
  endfacet
  facet normal 0 0 1
    outer loop
      vertex 30.25 58.2272 4
      vertex 28.3368 57.4801 4
      vertex 30.0445 56.5839 4
    endloop
  endfacet
  facet normal 0 0 1
    outer loop
      vertex 26.4643 57.9417 4
      vertex 28.4357 59.035 4
      vertex 26.493 59.448 4
    endloop
  endfacet
  facet normal 0 0 1
    outer loop
      vertex 28.4357 59.035 4
      vertex 26.4643 57.9417 4
      vertex 28.3368 57.4801 4
    endloop
  endfacet
  facet normal 0 0 1
    outer loop
      vertex 25.5 58 4
      vertex 26.493 59.448 4
      vertex 25.5 59.5 4
    endloop
  endfacet
  facet normal 0 0 1
    outer loop
      vertex 26.493 59.448 4
      vertex 25.5 58 4
      vertex 26.4643 57.9417 4
    endloop
  endfacet
  facet normal -0 0 1
    outer loop
      vertex 0 59.5 4
      vertex 25.5 58 4
      vertex 25.5 59.5 4
    endloop
  endfacet
  facet normal 0 0 1
    outer loop
      vertex 25.5 58 4
      vertex 0 59.5 4
      vertex 0 58 4
    endloop
  endfacet
  facet normal 0 0 1
    outer loop
      vertex 34.7924 48.0248 4
      vertex 33.2675 48.0855 4
      vertex 34.1787 46.136 4
    endloop
  endfacet
  facet normal -0 0 1
    outer loop
      vertex 32.5836 46.2822 4
      vertex 34.1787 46.136 4
      vertex 33.2675 48.0855 4
    endloop
  endfacet
  facet normal 0 0 1
    outer loop
      vertex 34.1787 46.136 4
      vertex 32.5836 46.2822 4
      vertex 33.1857 44.416 4
    endloop
  endfacet
  facet normal -0 0 1
    outer loop
      vertex 31.4881 44.695 4
      vertex 33.1857 44.416 4
      vertex 32.5836 46.2822 4
    endloop
  endfacet
  facet normal 0 0 1
    outer loop
      vertex 33.1857 44.416 4
      vertex 31.4881 44.695 4
      vertex 31.8567 42.9401 4
    endloop
  endfacet
  facet normal -0 0 1
    outer loop
      vertex 30.0445 43.4161 4
      vertex 31.8567 42.9401 4
      vertex 31.4881 44.695 4
    endloop
  endfacet
  facet normal 0 0 1
    outer loop
      vertex 31.8567 42.9401 4
      vertex 30.0445 43.4161 4
      vertex 30.25 41.7728 4
    endloop
  endfacet
  facet normal -0 0 1
    outer loop
      vertex 28.3368 42.5199 4
      vertex 30.25 41.7728 4
      vertex 30.0445 43.4161 4
    endloop
  endfacet
  facet normal 0 0 1
    outer loop
      vertex 30.25 41.7728 4
      vertex 28.3368 42.5199 4
      vertex 28.4357 40.965 4
    endloop
  endfacet
  facet normal -0 0 1
    outer loop
      vertex 26.4643 42.0583 4
      vertex 28.4357 40.965 4
      vertex 28.3368 42.5199 4
    endloop
  endfacet
  facet normal 0 0 1
    outer loop
      vertex 28.4357 40.965 4
      vertex 26.4643 42.0583 4
      vertex 26.493 40.552 4
    endloop
  endfacet
  facet normal -0 0 1
    outer loop
      vertex 25.5 42 4
      vertex 26.493 40.552 4
      vertex 26.4643 42.0583 4
    endloop
  endfacet
  facet normal 0 0 1
    outer loop
      vertex 25.5 42 4
      vertex 25.5 40.5 4
      vertex 26.493 40.552 4
    endloop
  endfacet
  facet normal -0 0 1
    outer loop
      vertex 0 42 4
      vertex 25.5 40.5 4
      vertex 25.5 42 4
    endloop
  endfacet
  facet normal 0 0 1
    outer loop
      vertex 25.5 40.5 4
      vertex 0 42 4
      vertex 0 40.5 4
    endloop
  endfacet
  facet normal 0.526297 0.724413 -0.445238
    outer loop
      vertex 31.5222 56.6883 0
      vertex 30 57.7942 0
      vertex 31.8567 57.0599 1
    endloop
  endfacet
  facet normal -0.823 -0.568042 0
    outer loop
      vertex 32.5836 53.7178 1.5
      vertex 31.4881 55.305 4
      vertex 31.4881 55.305 1.5
    endloop
  endfacet
  facet normal -0.823 -0.568042 0
    outer loop
      vertex 31.4881 55.305 4
      vertex 32.5836 53.7178 1.5
      vertex 32.5836 53.7178 4
    endloop
  endfacet
  facet normal -0.214404 -0.869738 0.444508
    outer loop
      vertex 28.2482 57.2464 1
      vertex 28.3368 57.4801 1.5
      vertex 26.4643 57.9417 1.5
    endloop
  endfacet
  facet normal 0.00566256 -0.704258 0.709921
    outer loop
      vertex 0.5 57.5 1
      vertex 24.5658 57.6935 1
      vertex 0 58 1.5
    endloop
  endfacet
  facet normal -0.214404 0.869738 0.444508
    outer loop
      vertex 28.3368 42.5199 1.5
      vertex 28.2482 42.7536 1
      vertex 26.4643 42.0583 1.5
    endloop
  endfacet
  facet normal -0.464695 -0.885471 0
    outer loop
      vertex 28.3368 57.4801 1.5
      vertex 30.0445 56.5839 4
      vertex 28.3368 57.4801 4
    endloop
  endfacet
  facet normal -0.464695 -0.885471 -0
    outer loop
      vertex 30.0445 56.5839 4
      vertex 28.3368 57.4801 1.5
      vertex 30.0445 56.5839 1.5
    endloop
  endfacet
  facet normal -0 0.852564 0.522622
    outer loop
      vertex 24.5658 42.3065 1
      vertex 25.5 42 1.5
      vertex 26.4342 42.3065 1
    endloop
  endfacet
  facet normal 0 0.852564 0.522622
    outer loop
      vertex 25.5 42 1.5
      vertex 24.5658 42.3065 1
      vertex 0 42 1.5
    endloop
  endfacet
  facet normal -0.593976 0.67047 0.444593
    outer loop
      vertex 31.4881 44.695 1.5
      vertex 31.301 44.8608 1
      vertex 30.0445 43.4161 1.5
    endloop
  endfacet
  facet normal -0.889197 -0.107986 0.444598
    outer loop
      vertex 33.5 50 1.5
      vertex 33.2675 51.9145 1.5
      vertex 33.25 50 1
    endloop
  endfacet
  facet normal -0.837552 0.317636 0.444537
    outer loop
      vertex 33.2675 48.0855 1.5
      vertex 33.0248 48.1453 1
      vertex 32.3623 46.3984 1
    endloop
  endfacet
  facet normal -0.593976 -0.67047 0.444593
    outer loop
      vertex 31.301 55.1392 1
      vertex 31.4881 55.305 1.5
      vertex 30.0445 56.5839 1.5
    endloop
  endfacet
  facet normal -0.214355 -0.869693 0.44462
    outer loop
      vertex 28.2482 57.2464 1
      vertex 26.4643 57.9417 1.5
      vertex 26.4342 57.6935 1
    endloop
  endfacet
  facet normal -0.663117 0.748515 0
    outer loop
      vertex 31.4881 44.695 1.5
      vertex 30.0445 43.4161 4
      vertex 31.4881 44.695 4
    endloop
  endfacet
  facet normal -0.663117 0.748515 0
    outer loop
      vertex 30.0445 43.4161 4
      vertex 31.4881 44.695 1.5
      vertex 30.0445 43.4161 1.5
    endloop
  endfacet
  facet normal -0.935016 -0.354604 0
    outer loop
      vertex 33.2675 51.9145 1.5
      vertex 32.5836 53.7178 4
      vertex 32.5836 53.7178 1.5
    endloop
  endfacet
  facet normal -0.935016 -0.354604 0
    outer loop
      vertex 32.5836 53.7178 4
      vertex 33.2675 51.9145 1.5
      vertex 33.2675 51.9145 4
    endloop
  endfacet
  facet normal -0.214355 0.869693 0.44462
    outer loop
      vertex 26.4643 42.0583 1.5
      vertex 28.2482 42.7536 1
      vertex 26.4342 42.3065 1
    endloop
  endfacet
  facet normal -0.737185 0.508828 0.444582
    outer loop
      vertex 31.4881 44.695 1.5
      vertex 32.3623 46.3984 1
      vertex 31.301 44.8608 1
    endloop
  endfacet
  facet normal 0 -0.852564 0.522622
    outer loop
      vertex 24.5658 57.6935 1
      vertex 25.5 58 1.5
      vertex 0 58 1.5
    endloop
  endfacet
  facet normal 0 -0.852564 0.522622
    outer loop
      vertex 25.5 58 1.5
      vertex 24.5658 57.6935 1
      vertex 26.4342 57.6935 1
    endloop
  endfacet
  facet normal 0 1 -0
    outer loop
      vertex 25.5 42 1.5
      vertex 0 42 4
      vertex 25.5 42 4
    endloop
  endfacet
  facet normal 0 1 0
    outer loop
      vertex 0 42 4
      vertex 25.5 42 1.5
      vertex 0 42 1.5
    endloop
  endfacet
  facet normal -0.0603482 0.998177 0
    outer loop
      vertex 26.4643 42.0583 1.5
      vertex 25.5 42 4
      vertex 26.4643 42.0583 4
    endloop
  endfacet
  facet normal -0.0603482 0.998177 0
    outer loop
      vertex 25.5 42 4
      vertex 26.4643 42.0583 1.5
      vertex 25.5 42 1.5
    endloop
  endfacet
  facet normal -0.593947 0.670462 0.444643
    outer loop
      vertex 30.0445 43.4161 1.5
      vertex 31.301 44.8608 1
      vertex 29.9025 43.6219 1
    endloop
  endfacet
  facet normal -0.889226 -0.107971 0.444544
    outer loop
      vertex 33.25 50 1
      vertex 33.2675 51.9145 1.5
      vertex 33.0248 51.8547 1
    endloop
  endfacet
  facet normal -0.737209 -0.508829 0.444541
    outer loop
      vertex 32.3623 53.6016 1
      vertex 32.5836 53.7178 1.5
      vertex 31.4881 55.305 1.5
    endloop
  endfacet
  facet normal -0.823 0.568042 0
    outer loop
      vertex 31.4881 44.695 1.5
      vertex 32.5836 46.2822 4
      vertex 32.5836 46.2822 1.5
    endloop
  endfacet
  facet normal -0.823 0.568042 0
    outer loop
      vertex 32.5836 46.2822 4
      vertex 31.4881 44.695 1.5
      vertex 31.4881 44.695 4
    endloop
  endfacet
  facet normal -0.992707 0.120556 0
    outer loop
      vertex 33.2675 48.0855 1.5
      vertex 33.5 50 4
      vertex 33.5 50 1.5
    endloop
  endfacet
  facet normal -0.992707 0.120556 0
    outer loop
      vertex 33.5 50 4
      vertex 33.2675 48.0855 1.5
      vertex 33.2675 48.0855 4
    endloop
  endfacet
  facet normal -0.416274 0.793092 0.444658
    outer loop
      vertex 30.0445 43.4161 1.5
      vertex 29.9025 43.6219 1
      vertex 28.2482 42.7536 1
    endloop
  endfacet
  facet normal -0.837557 0.317643 0.444523
    outer loop
      vertex 32.5836 46.2822 1.5
      vertex 33.2675 48.0855 1.5
      vertex 32.3623 46.3984 1
    endloop
  endfacet
  facet normal -0.464695 0.885471 0
    outer loop
      vertex 30.0445 43.4161 1.5
      vertex 28.3368 42.5199 4
      vertex 30.0445 43.4161 4
    endloop
  endfacet
  facet normal -0.464695 0.885471 0
    outer loop
      vertex 28.3368 42.5199 4
      vertex 30.0445 43.4161 1.5
      vertex 28.3368 42.5199 1.5
    endloop
  endfacet
  facet normal -0.992707 -0.120556 0
    outer loop
      vertex 33.5 50 1.5
      vertex 33.2675 51.9145 4
      vertex 33.2675 51.9145 1.5
    endloop
  endfacet
  facet normal -0.992707 -0.120556 0
    outer loop
      vertex 33.2675 51.9145 4
      vertex 33.5 50 1.5
      vertex 33.5 50 4
    endloop
  endfacet
  facet normal -0.0539959 -0.893108 0.446589
    outer loop
      vertex 26.4342 57.6935 1
      vertex 26.4643 57.9417 1.5
      vertex 25.5 58 1.5
    endloop
  endfacet
  facet normal -0.416274 -0.793092 0.444658
    outer loop
      vertex 29.9025 56.3781 1
      vertex 30.0445 56.5839 1.5
      vertex 28.2482 57.2464 1
    endloop
  endfacet
  facet normal -0.737185 -0.508828 0.444582
    outer loop
      vertex 32.3623 53.6016 1
      vertex 31.4881 55.305 1.5
      vertex 31.301 55.1392 1
    endloop
  endfacet
  facet normal -0.837552 -0.317636 0.444537
    outer loop
      vertex 33.0248 51.8547 1
      vertex 33.2675 51.9145 1.5
      vertex 32.3623 53.6016 1
    endloop
  endfacet
  facet normal -0.663117 -0.748515 0
    outer loop
      vertex 30.0445 56.5839 1.5
      vertex 31.4881 55.305 4
      vertex 30.0445 56.5839 4
    endloop
  endfacet
  facet normal -0.663117 -0.748515 -0
    outer loop
      vertex 31.4881 55.305 4
      vertex 30.0445 56.5839 1.5
      vertex 31.4881 55.305 1.5
    endloop
  endfacet
  facet normal -0.889197 0.107986 0.444598
    outer loop
      vertex 33.2675 48.0855 1.5
      vertex 33.5 50 1.5
      vertex 33.25 50 1
    endloop
  endfacet
  facet normal -0.889226 0.107971 0.444544
    outer loop
      vertex 33.2675 48.0855 1.5
      vertex 33.25 50 1
      vertex 33.0248 48.1453 1
    endloop
  endfacet
  facet normal -0.416264 0.793187 0.444498
    outer loop
      vertex 28.3368 42.5199 1.5
      vertex 30.0445 43.4161 1.5
      vertex 28.2482 42.7536 1
    endloop
  endfacet
  facet normal -0.837557 -0.317643 0.444523
    outer loop
      vertex 33.2675 51.9145 1.5
      vertex 32.5836 53.7178 1.5
      vertex 32.3623 53.6016 1
    endloop
  endfacet
  facet normal -0.935016 0.354604 0
    outer loop
      vertex 32.5836 46.2822 1.5
      vertex 33.2675 48.0855 4
      vertex 33.2675 48.0855 1.5
    endloop
  endfacet
  facet normal -0.935016 0.354604 0
    outer loop
      vertex 33.2675 48.0855 4
      vertex 32.5836 46.2822 1.5
      vertex 32.5836 46.2822 4
    endloop
  endfacet
  facet normal -0.0603482 -0.998177 0
    outer loop
      vertex 25.5 58 1.5
      vertex 26.4643 57.9417 4
      vertex 25.5 58 4
    endloop
  endfacet
  facet normal -0.0603482 -0.998177 -0
    outer loop
      vertex 26.4643 57.9417 4
      vertex 25.5 58 1.5
      vertex 26.4643 57.9417 1.5
    endloop
  endfacet
  facet normal -0.737209 0.508829 0.444541
    outer loop
      vertex 32.5836 46.2822 1.5
      vertex 32.3623 46.3984 1
      vertex 31.4881 44.695 1.5
    endloop
  endfacet
  facet normal -0.23935 0.970933 0
    outer loop
      vertex 28.3368 42.5199 1.5
      vertex 26.4643 42.0583 4
      vertex 28.3368 42.5199 4
    endloop
  endfacet
  facet normal -0.23935 0.970933 0
    outer loop
      vertex 26.4643 42.0583 4
      vertex 28.3368 42.5199 1.5
      vertex 26.4643 42.0583 1.5
    endloop
  endfacet
  facet normal 0.00566256 0.704258 0.709921
    outer loop
      vertex 24.5658 42.3065 1
      vertex 0.5 42.5 1
      vertex 0 42 1.5
    endloop
  endfacet
  facet normal -0.23935 -0.970933 0
    outer loop
      vertex 26.4643 57.9417 1.5
      vertex 28.3368 57.4801 4
      vertex 26.4643 57.9417 4
    endloop
  endfacet
  facet normal -0.23935 -0.970933 -0
    outer loop
      vertex 28.3368 57.4801 4
      vertex 26.4643 57.9417 1.5
      vertex 28.3368 57.4801 1.5
    endloop
  endfacet
  facet normal 0 0 1
    outer loop
      vertex 27.8 50 1
      vertex 7.11088 49.3802 1
      vertex 24.5658 42.3065 1
    endloop
  endfacet
  facet normal -0 0 1
    outer loop
      vertex 6.44069 48.3374 1
      vertex 24.5658 42.3065 1
      vertex 7.11088 49.3802 1
    endloop
  endfacet
  facet normal 0 0 1
    outer loop
      vertex 0.5 42.5 1
      vertex 6.44069 48.3374 1
      vertex 5.31309 47.8224 1
    endloop
  endfacet
  facet normal 0 0 1
    outer loop
      vertex 0.5 42.5 1
      vertex 5.31309 47.8224 1
      vertex 4.08609 47.9988 1
    endloop
  endfacet
  facet normal 0 0 1
    outer loop
      vertex 0.5 42.5 1
      vertex 2.8 50 1
      vertex 0.5 57.5 1
    endloop
  endfacet
  facet normal 0 0 1
    outer loop
      vertex 6.44069 48.3374 1
      vertex 0.5 42.5 1
      vertex 24.5658 42.3065 1
    endloop
  endfacet
  facet normal 0 0 1
    outer loop
      vertex 3.14924 48.8106 1
      vertex 0.5 42.5 1
      vertex 4.08609 47.9988 1
    endloop
  endfacet
  facet normal 0 0 1
    outer loop
      vertex 2.8 50 1
      vertex 0.5 42.5 1
      vertex 3.14924 48.8106 1
    endloop
  endfacet
  facet normal -0 0 1
    outer loop
      vertex 32.1109 50.6198 1
      vertex 33.25 50 1
      vertex 33.0248 51.8547 1
    endloop
  endfacet
  facet normal 0 0 1
    outer loop
      vertex 31.4407 51.6626 1
      vertex 33.0248 51.8547 1
      vertex 32.3623 53.6016 1
    endloop
  endfacet
  facet normal 0 0 1
    outer loop
      vertex 32.1109 49.3802 1
      vertex 33.25 50 1
      vertex 32.1109 50.6198 1
    endloop
  endfacet
  facet normal 0 0 1
    outer loop
      vertex 33.25 50 1
      vertex 32.1109 49.3802 1
      vertex 33.0248 48.1453 1
    endloop
  endfacet
  facet normal 0 0 1
    outer loop
      vertex 33.0248 51.8547 1
      vertex 31.4407 51.6626 1
      vertex 32.1109 50.6198 1
    endloop
  endfacet
  facet normal 0 0 1
    outer loop
      vertex 30.3131 52.1776 1
      vertex 32.3623 53.6016 1
      vertex 31.301 55.1392 1
    endloop
  endfacet
  facet normal 0 0 1
    outer loop
      vertex 32.3623 53.6016 1
      vertex 30.3131 52.1776 1
      vertex 31.4407 51.6626 1
    endloop
  endfacet
  facet normal 0 0 1
    outer loop
      vertex 29.0861 52.0012 1
      vertex 31.301 55.1392 1
      vertex 29.9025 56.3781 1
    endloop
  endfacet
  facet normal 0 0 1
    outer loop
      vertex 31.301 55.1392 1
      vertex 29.0861 52.0012 1
      vertex 30.3131 52.1776 1
    endloop
  endfacet
  facet normal 0 0 1
    outer loop
      vertex 28.2482 57.2464 1
      vertex 29.0861 52.0012 1
      vertex 29.9025 56.3781 1
    endloop
  endfacet
  facet normal 0 0 1
    outer loop
      vertex 26.4342 57.6935 1
      vertex 29.0861 52.0012 1
      vertex 28.2482 57.2464 1
    endloop
  endfacet
  facet normal 0 0 1
    outer loop
      vertex 29.0861 52.0012 1
      vertex 26.4342 57.6935 1
      vertex 28.1492 51.1894 1
    endloop
  endfacet
  facet normal -0 0 1
    outer loop
      vertex 24.5658 57.6935 1
      vertex 28.1492 51.1894 1
      vertex 26.4342 57.6935 1
    endloop
  endfacet
  facet normal -0 0 1
    outer loop
      vertex 31.4407 48.3374 1
      vertex 33.0248 48.1453 1
      vertex 32.1109 49.3802 1
    endloop
  endfacet
  facet normal 0 0 1
    outer loop
      vertex 33.0248 48.1453 1
      vertex 31.4407 48.3374 1
      vertex 32.3623 46.3984 1
    endloop
  endfacet
  facet normal -0 0 1
    outer loop
      vertex 30.3131 47.8224 1
      vertex 32.3623 46.3984 1
      vertex 31.4407 48.3374 1
    endloop
  endfacet
  facet normal 0 0 1
    outer loop
      vertex 32.3623 46.3984 1
      vertex 30.3131 47.8224 1
      vertex 31.301 44.8608 1
    endloop
  endfacet
  facet normal 0 0 1
    outer loop
      vertex 29.0861 47.9988 1
      vertex 31.301 44.8608 1
      vertex 30.3131 47.8224 1
    endloop
  endfacet
  facet normal 0 0 1
    outer loop
      vertex 31.301 44.8608 1
      vertex 29.0861 47.9988 1
      vertex 29.9025 43.6219 1
    endloop
  endfacet
  facet normal 0 0 1
    outer loop
      vertex 29.0861 47.9988 1
      vertex 28.2482 42.7536 1
      vertex 29.9025 43.6219 1
    endloop
  endfacet
  facet normal 0 0 1
    outer loop
      vertex 26.4342 42.3065 1
      vertex 29.0861 47.9988 1
      vertex 28.1492 48.8106 1
    endloop
  endfacet
  facet normal 0 0 1
    outer loop
      vertex 24.5658 42.3065 1
      vertex 28.1492 48.8106 1
      vertex 27.8 50 1
    endloop
  endfacet
  facet normal 0 0 1
    outer loop
      vertex 28.1492 51.1894 1
      vertex 24.5658 57.6935 1
      vertex 27.8 50 1
    endloop
  endfacet
  facet normal 0 0 1
    outer loop
      vertex 29.0861 47.9988 1
      vertex 26.4342 42.3065 1
      vertex 28.2482 42.7536 1
    endloop
  endfacet
  facet normal -0 0 1
    outer loop
      vertex 7.11088 50.6198 1
      vertex 27.8 50 1
      vertex 24.5658 57.6935 1
    endloop
  endfacet
  facet normal 0 0 1
    outer loop
      vertex 28.1492 48.8106 1
      vertex 24.5658 42.3065 1
      vertex 26.4342 42.3065 1
    endloop
  endfacet
  facet normal 0 0 1
    outer loop
      vertex 7.11088 49.3802 1
      vertex 27.8 50 1
      vertex 7.11088 50.6198 1
    endloop
  endfacet
  facet normal 0 0 1
    outer loop
      vertex 24.5658 57.6935 1
      vertex 6.44069 51.6626 1
      vertex 7.11088 50.6198 1
    endloop
  endfacet
  facet normal -0 0 1
    outer loop
      vertex 0.5 57.5 1
      vertex 6.44069 51.6626 1
      vertex 24.5658 57.6935 1
    endloop
  endfacet
  facet normal 0 0 1
    outer loop
      vertex 6.44069 51.6626 1
      vertex 0.5 57.5 1
      vertex 5.31309 52.1776 1
    endloop
  endfacet
  facet normal 0 0 1
    outer loop
      vertex 3.14924 51.1894 1
      vertex 0.5 57.5 1
      vertex 2.8 50 1
    endloop
  endfacet
  facet normal 0 0 1
    outer loop
      vertex 4.08609 52.0012 1
      vertex 0.5 57.5 1
      vertex 3.14924 51.1894 1
    endloop
  endfacet
  facet normal 0 0 1
    outer loop
      vertex 5.31309 52.1776 1
      vertex 0.5 57.5 1
      vertex 4.08609 52.0012 1
    endloop
  endfacet
  facet normal -0.593947 -0.670462 0.444643
    outer loop
      vertex 31.301 55.1392 1
      vertex 30.0445 56.5839 1.5
      vertex 29.9025 56.3781 1
    endloop
  endfacet
  facet normal 0 -1 0
    outer loop
      vertex 0 58 1.5
      vertex 25.5 58 4
      vertex 0 58 4
    endloop
  endfacet
  facet normal 0 -1 -0
    outer loop
      vertex 25.5 58 4
      vertex 0 58 1.5
      vertex 25.5 58 1.5
    endloop
  endfacet
  facet normal 0.707107 0 0.707107
    outer loop
      vertex 0 58 1.5
      vertex 0.5 42.5 1
      vertex 0.5 57.5 1
    endloop
  endfacet
  facet normal 0.707107 0 0.707107
    outer loop
      vertex 0.5 42.5 1
      vertex 0 58 1.5
      vertex 0 42 1.5
    endloop
  endfacet
  facet normal -0.416264 -0.793187 0.444498
    outer loop
      vertex 30.0445 56.5839 1.5
      vertex 28.3368 57.4801 1.5
      vertex 28.2482 57.2464 1
    endloop
  endfacet
  facet normal -0.0539959 0.893108 0.446589
    outer loop
      vertex 26.4643 42.0583 1.5
      vertex 26.4342 42.3065 1
      vertex 25.5 42 1.5
    endloop
  endfacet
endsolid OpenSCAD_Model
