solid OpenSCAD_Model
  facet normal 1 -0 0
    outer loop
      vertex 15 19 3
      vertex 15 28.5 0
      vertex 15 28.5 3
    endloop
  endfacet
  facet normal 1 0 0
    outer loop
      vertex 15 28.5 0
      vertex 15 19 3
      vertex 15 19 0
    endloop
  endfacet
  facet normal 1 -0 0
    outer loop
      vertex 15 -28.5 3
      vertex 15 -19 0
      vertex 15 -19 3
    endloop
  endfacet
  facet normal 1 0 0
    outer loop
      vertex 15 -19 0
      vertex 15 -28.5 3
      vertex 15 -28.5 0
    endloop
  endfacet
  facet normal 0 0 1
    outer loop
      vertex 10 15 3
      vertex 3.78647 24.1183 3
      vertex 10 -15 3
    endloop
  endfacet
  facet normal 0 0 1
    outer loop
      vertex 10 -15 3
      vertex 5.46352 -23.5734 3
      vertex 6.5 -25 3
    endloop
  endfacet
  facet normal 0 0 1
    outer loop
      vertex 3.78647 -24.1183 3
      vertex 10 -15 3
      vertex 3.78647 24.1183 3
    endloop
  endfacet
  facet normal 0 0 1
    outer loop
      vertex 10 -15 3
      vertex 3.78647 -24.1183 3
      vertex 5.46352 -23.5734 3
    endloop
  endfacet
  facet normal 0 0 1
    outer loop
      vertex 6.5 25 3
      vertex 15 28.5 3
      vertex 11 32.5 3
    endloop
  endfacet
  facet normal 0 0 1
    outer loop
      vertex 15 28.5 3
      vertex 6.5 25 3
      vertex 15 19 3
    endloop
  endfacet
  facet normal -0 0 1
    outer loop
      vertex 5.46352 23.5734 3
      vertex 15 19 3
      vertex 6.5 25 3
    endloop
  endfacet
  facet normal 0 0 1
    outer loop
      vertex 15 19 3
      vertex 5.46352 23.5734 3
      vertex 10 15 3
    endloop
  endfacet
  facet normal 0 0 1
    outer loop
      vertex 15 19 3
      vertex 10 15 3
      vertex 11 15 3
    endloop
  endfacet
  facet normal 0 0 1
    outer loop
      vertex 11 32.5 3
      vertex 5.46352 26.4266 3
      vertex 6.5 25 3
    endloop
  endfacet
  facet normal -0 0 1
    outer loop
      vertex 4 32.5 3
      vertex 5.46352 26.4266 3
      vertex 11 32.5 3
    endloop
  endfacet
  facet normal 0 0 1
    outer loop
      vertex 4 32.5 3
      vertex 3.78647 25.8817 3
      vertex 5.46352 26.4266 3
    endloop
  endfacet
  facet normal 0 0 1
    outer loop
      vertex 0 28.5 3
      vertex 3.78647 24.1183 3
      vertex 3.78647 25.8817 3
    endloop
  endfacet
  facet normal 0 0 1
    outer loop
      vertex 3.78647 24.1183 3
      vertex 0 28.5 3
      vertex 3.78647 -24.1183 3
    endloop
  endfacet
  facet normal 0 0 1
    outer loop
      vertex 0 -28.5 3
      vertex 3.78647 -24.1183 3
      vertex 0 28.5 3
    endloop
  endfacet
  facet normal -0 0 1
    outer loop
      vertex 0 28.5 3
      vertex 3.78647 25.8817 3
      vertex 4 32.5 3
    endloop
  endfacet
  facet normal -0 0 1
    outer loop
      vertex 10 -15 3
      vertex 15 -19 3
      vertex 11 -15 3
    endloop
  endfacet
  facet normal 0 0 1
    outer loop
      vertex 15 -19 3
      vertex 6.5 -25 3
      vertex 15 -28.5 3
    endloop
  endfacet
  facet normal 0 0 1
    outer loop
      vertex 15 -19 3
      vertex 10 -15 3
      vertex 6.5 -25 3
    endloop
  endfacet
  facet normal 0 0 1
    outer loop
      vertex 3.78647 24.1183 3
      vertex 10 15 3
      vertex 5.46352 23.5734 3
    endloop
  endfacet
  facet normal 0 0 1
    outer loop
      vertex 15 -28.5 3
      vertex 6.5 -25 3
      vertex 11 -32.5 3
    endloop
  endfacet
  facet normal -0 0 1
    outer loop
      vertex 5.46352 -26.4266 3
      vertex 11 -32.5 3
      vertex 6.5 -25 3
    endloop
  endfacet
  facet normal 0 0 1
    outer loop
      vertex 5.46352 -26.4266 3
      vertex 4 -32.5 3
      vertex 11 -32.5 3
    endloop
  endfacet
  facet normal 0 0 1
    outer loop
      vertex 3.78647 -25.8817 3
      vertex 4 -32.5 3
      vertex 5.46352 -26.4266 3
    endloop
  endfacet
  facet normal 0 0 1
    outer loop
      vertex 3.78647 -24.1183 3
      vertex 0 -28.5 3
      vertex 3.78647 -25.8817 3
    endloop
  endfacet
  facet normal 0 0 1
    outer loop
      vertex 3.78647 -25.8817 3
      vertex 0 -28.5 3
      vertex 4 -32.5 3
    endloop
  endfacet
  facet normal -0 0 -1
    outer loop
      vertex 10 -15 0
      vertex 3.78647 -24.1183 0
      vertex 10 15 0
    endloop
  endfacet
  facet normal 0 0 -1
    outer loop
      vertex 10 15 0
      vertex 5.46352 23.5734 0
      vertex 6.5 25 0
    endloop
  endfacet
  facet normal 0 0 -1
    outer loop
      vertex 3.78647 24.1183 0
      vertex 10 15 0
      vertex 3.78647 -24.1183 0
    endloop
  endfacet
  facet normal 0 0 -1
    outer loop
      vertex 10 15 0
      vertex 3.78647 24.1183 0
      vertex 5.46352 23.5734 0
    endloop
  endfacet
  facet normal 0 0 -1
    outer loop
      vertex 6.5 -25 0
      vertex 15 -28.5 0
      vertex 11 -32.5 0
    endloop
  endfacet
  facet normal 0 0 -1
    outer loop
      vertex 15 -28.5 0
      vertex 6.5 -25 0
      vertex 15 -19 0
    endloop
  endfacet
  facet normal 0 0 -1
    outer loop
      vertex 5.46352 -23.5734 0
      vertex 15 -19 0
      vertex 6.5 -25 0
    endloop
  endfacet
  facet normal -0 0 -1
    outer loop
      vertex 15 -19 0
      vertex 5.46352 -23.5734 0
      vertex 10 -15 0
    endloop
  endfacet
  facet normal 0 0 -1
    outer loop
      vertex 15 -19 0
      vertex 10 -15 0
      vertex 11 -15 0
    endloop
  endfacet
  facet normal 0 0 -1
    outer loop
      vertex 11 -32.5 0
      vertex 5.46352 -26.4266 0
      vertex 6.5 -25 0
    endloop
  endfacet
  facet normal 0 0 -1
    outer loop
      vertex 4 -32.5 0
      vertex 5.46352 -26.4266 0
      vertex 11 -32.5 0
    endloop
  endfacet
  facet normal 0 0 -1
    outer loop
      vertex 4 -32.5 0
      vertex 3.78647 -25.8817 0
      vertex 5.46352 -26.4266 0
    endloop
  endfacet
  facet normal 0 0 -1
    outer loop
      vertex 0 -28.5 0
      vertex 3.78647 -24.1183 0
      vertex 3.78647 -25.8817 0
    endloop
  endfacet
  facet normal -0 0 -1
    outer loop
      vertex 3.78647 -24.1183 0
      vertex 0 -28.5 0
      vertex 3.78647 24.1183 0
    endloop
  endfacet
  facet normal 0 0 -1
    outer loop
      vertex 0 28.5 0
      vertex 3.78647 24.1183 0
      vertex 0 -28.5 0
    endloop
  endfacet
  facet normal 0 0 -1
    outer loop
      vertex 0 -28.5 0
      vertex 3.78647 -25.8817 0
      vertex 4 -32.5 0
    endloop
  endfacet
  facet normal 0 0 -1
    outer loop
      vertex 10 15 0
      vertex 15 19 0
      vertex 11 15 0
    endloop
  endfacet
  facet normal 0 0 -1
    outer loop
      vertex 15 19 0
      vertex 6.5 25 0
      vertex 15 28.5 0
    endloop
  endfacet
  facet normal -0 0 -1
    outer loop
      vertex 15 19 0
      vertex 10 15 0
      vertex 6.5 25 0
    endloop
  endfacet
  facet normal 0 0 -1
    outer loop
      vertex 3.78647 -24.1183 0
      vertex 10 -15 0
      vertex 5.46352 -23.5734 0
    endloop
  endfacet
  facet normal -0 0 -1
    outer loop
      vertex 15 28.5 0
      vertex 6.5 25 0
      vertex 11 32.5 0
    endloop
  endfacet
  facet normal 0 0 -1
    outer loop
      vertex 5.46352 26.4266 0
      vertex 11 32.5 0
      vertex 6.5 25 0
    endloop
  endfacet
  facet normal 0 0 -1
    outer loop
      vertex 5.46352 26.4266 0
      vertex 4 32.5 0
      vertex 11 32.5 0
    endloop
  endfacet
  facet normal 0 0 -1
    outer loop
      vertex 3.78647 25.8817 0
      vertex 4 32.5 0
      vertex 5.46352 26.4266 0
    endloop
  endfacet
  facet normal 0 0 -1
    outer loop
      vertex 3.78647 24.1183 0
      vertex 0 28.5 0
      vertex 3.78647 25.8817 0
    endloop
  endfacet
  facet normal 0 0 -1
    outer loop
      vertex 3.78647 25.8817 0
      vertex 0 28.5 0
      vertex 4 32.5 0
    endloop
  endfacet
  facet normal -1 0 0
    outer loop
      vertex 0 -28.5 0
      vertex 0 28.5 3
      vertex 0 28.5 0
    endloop
  endfacet
  facet normal -1 -0 0
    outer loop
      vertex 0 28.5 3
      vertex 0 -28.5 0
      vertex 0 -28.5 3
    endloop
  endfacet
  facet normal 0 1 -0
    outer loop
      vertex 11 32.5 0
      vertex 4 32.5 3
      vertex 11 32.5 3
    endloop
  endfacet
  facet normal 0 1 0
    outer loop
      vertex 4 32.5 3
      vertex 11 32.5 0
      vertex 4 32.5 0
    endloop
  endfacet
  facet normal 0 -1 0
    outer loop
      vertex 4 -32.5 0
      vertex 11 -32.5 3
      vertex 4 -32.5 3
    endloop
  endfacet
  facet normal 0 -1 -0
    outer loop
      vertex 11 -32.5 3
      vertex 4 -32.5 0
      vertex 11 -32.5 0
    endloop
  endfacet
  facet normal 1 -0 0
    outer loop
      vertex 10 -15 3
      vertex 10 15 0
      vertex 10 15 3
    endloop
  endfacet
  facet normal 1 0 0
    outer loop
      vertex 10 15 0
      vertex 10 -15 3
      vertex 10 -15 0
    endloop
  endfacet
  facet normal 0 -1 0
    outer loop
      vertex 10 15 0
      vertex 11 15 3
      vertex 10 15 3
    endloop
  endfacet
  facet normal 0 -1 -0
    outer loop
      vertex 11 15 3
      vertex 10 15 0
      vertex 11 15 0
    endloop
  endfacet
  facet normal 0 1 -0
    outer loop
      vertex 11 -15 0
      vertex 10 -15 3
      vertex 11 -15 3
    endloop
  endfacet
  facet normal 0 1 0
    outer loop
      vertex 10 -15 3
      vertex 11 -15 0
      vertex 10 -15 0
    endloop
  endfacet
  facet normal 0.309014 0.951058 -0
    outer loop
      vertex 5.46352 23.5734 0
      vertex 3.78647 24.1183 3
      vertex 5.46352 23.5734 3
    endloop
  endfacet
  facet normal 0.309014 0.951058 0
    outer loop
      vertex 3.78647 24.1183 3
      vertex 5.46352 23.5734 0
      vertex 3.78647 24.1183 0
    endloop
  endfacet
  facet normal 0.309014 -0.951058 0
    outer loop
      vertex 3.78647 25.8817 0
      vertex 5.46352 26.4266 3
      vertex 3.78647 25.8817 3
    endloop
  endfacet
  facet normal 0.309014 -0.951058 0
    outer loop
      vertex 5.46352 26.4266 3
      vertex 3.78647 25.8817 0
      vertex 5.46352 26.4266 0
    endloop
  endfacet
  facet normal -0.809018 -0.587783 0
    outer loop
      vertex 6.5 25 0
      vertex 5.46352 26.4266 3
      vertex 5.46352 26.4266 0
    endloop
  endfacet
  facet normal -0.809018 -0.587783 0
    outer loop
      vertex 5.46352 26.4266 3
      vertex 6.5 25 0
      vertex 6.5 25 3
    endloop
  endfacet
  facet normal 1 -0 0
    outer loop
      vertex 3.78647 24.1183 3
      vertex 3.78647 25.8817 0
      vertex 3.78647 25.8817 3
    endloop
  endfacet
  facet normal 1 0 0
    outer loop
      vertex 3.78647 25.8817 0
      vertex 3.78647 24.1183 3
      vertex 3.78647 24.1183 0
    endloop
  endfacet
  facet normal -0.809018 0.587783 0
    outer loop
      vertex 5.46352 23.5734 0
      vertex 6.5 25 3
      vertex 6.5 25 0
    endloop
  endfacet
  facet normal -0.809018 0.587783 0
    outer loop
      vertex 6.5 25 3
      vertex 5.46352 23.5734 0
      vertex 5.46352 23.5734 3
    endloop
  endfacet
  facet normal 0.309014 0.951058 -0
    outer loop
      vertex 5.46352 -26.4266 0
      vertex 3.78647 -25.8817 3
      vertex 5.46352 -26.4266 3
    endloop
  endfacet
  facet normal 0.309014 0.951058 0
    outer loop
      vertex 3.78647 -25.8817 3
      vertex 5.46352 -26.4266 0
      vertex 3.78647 -25.8817 0
    endloop
  endfacet
  facet normal 0.309014 -0.951058 0
    outer loop
      vertex 3.78647 -24.1183 0
      vertex 5.46352 -23.5734 3
      vertex 3.78647 -24.1183 3
    endloop
  endfacet
  facet normal 0.309014 -0.951058 0
    outer loop
      vertex 5.46352 -23.5734 3
      vertex 3.78647 -24.1183 0
      vertex 5.46352 -23.5734 0
    endloop
  endfacet
  facet normal -0.809018 -0.587783 0
    outer loop
      vertex 6.5 -25 0
      vertex 5.46352 -23.5734 3
      vertex 5.46352 -23.5734 0
    endloop
  endfacet
  facet normal -0.809018 -0.587783 0
    outer loop
      vertex 5.46352 -23.5734 3
      vertex 6.5 -25 0
      vertex 6.5 -25 3
    endloop
  endfacet
  facet normal 1 -0 0
    outer loop
      vertex 3.78647 -25.8817 3
      vertex 3.78647 -24.1183 0
      vertex 3.78647 -24.1183 3
    endloop
  endfacet
  facet normal 1 0 0
    outer loop
      vertex 3.78647 -24.1183 0
      vertex 3.78647 -25.8817 3
      vertex 3.78647 -25.8817 0
    endloop
  endfacet
  facet normal -0.809018 0.587783 0
    outer loop
      vertex 5.46352 -26.4266 0
      vertex 6.5 -25 3
      vertex 6.5 -25 0
    endloop
  endfacet
  facet normal -0.809018 0.587783 0
    outer loop
      vertex 6.5 -25 3
      vertex 5.46352 -26.4266 0
      vertex 5.46352 -26.4266 3
    endloop
  endfacet
  facet normal -0.707107 0.707107 0
    outer loop
      vertex 0 28.5 0
      vertex 4 32.5 3
      vertex 4 32.5 0
    endloop
  endfacet
  facet normal -0.707107 0.707107 0
    outer loop
      vertex 4 32.5 3
      vertex 0 28.5 0
      vertex 0 28.5 3
    endloop
  endfacet
  facet normal -0.707107 -0.707107 0
    outer loop
      vertex 4 -32.5 0
      vertex 0 -28.5 3
      vertex 0 -28.5 0
    endloop
  endfacet
  facet normal -0.707107 -0.707107 0
    outer loop
      vertex 0 -28.5 3
      vertex 4 -32.5 0
      vertex 4 -32.5 3
    endloop
  endfacet
  facet normal 0.707107 0.707107 0
    outer loop
      vertex 15 28.5 3
      vertex 11 32.5 0
      vertex 11 32.5 3
    endloop
  endfacet
  facet normal 0.707107 0.707107 0
    outer loop
      vertex 11 32.5 0
      vertex 15 28.5 3
      vertex 15 28.5 0
    endloop
  endfacet
  facet normal 0.707107 -0.707107 0
    outer loop
      vertex 11 -32.5 3
      vertex 15 -28.5 0
      vertex 15 -28.5 3
    endloop
  endfacet
  facet normal 0.707107 -0.707107 0
    outer loop
      vertex 15 -28.5 0
      vertex 11 -32.5 3
      vertex 11 -32.5 0
    endloop
  endfacet
  facet normal 0.707107 0.707107 0
    outer loop
      vertex 15 -19 3
      vertex 11 -15 0
      vertex 11 -15 3
    endloop
  endfacet
  facet normal 0.707107 0.707107 0
    outer loop
      vertex 11 -15 0
      vertex 15 -19 3
      vertex 15 -19 0
    endloop
  endfacet
  facet normal 0.707107 -0.707107 0
    outer loop
      vertex 11 15 3
      vertex 15 19 0
      vertex 15 19 3
    endloop
  endfacet
  facet normal 0.707107 -0.707107 0
    outer loop
      vertex 15 19 0
      vertex 11 15 3
      vertex 11 15 0
    endloop
  endfacet
endsolid OpenSCAD_Model
