solid OpenSCAD_Model
  facet normal 1 -0 0
    outer loop
      vertex 15 18 3
      vertex 15 29.5 0
      vertex 15 29.5 3
    endloop
  endfacet
  facet normal 1 0 0
    outer loop
      vertex 15 29.5 0
      vertex 15 18 3
      vertex 15 18 0
    endloop
  endfacet
  facet normal 1 -0 0
    outer loop
      vertex 15 -29.5 3
      vertex 15 -18 0
      vertex 15 -18 3
    endloop
  endfacet
  facet normal 1 0 0
    outer loop
      vertex 15 -18 0
      vertex 15 -29.5 3
      vertex 15 -29.5 0
    endloop
  endfacet
  facet normal 0 0 1
    outer loop
      vertex 11.75 29 3
      vertex 15 29.5 3
      vertex 12 32.5 3
    endloop
  endfacet
  facet normal 0 0 1
    outer loop
      vertex 10.875 27.4845 3
      vertex 15 29.5 3
      vertex 11.75 29 3
    endloop
  endfacet
  facet normal 0 0 1
    outer loop
      vertex 15 29.5 3
      vertex 10.875 27.4845 3
      vertex 15 18 3
    endloop
  endfacet
  facet normal 0 0 1
    outer loop
      vertex 12 32.5 3
      vertex 10.875 30.5155 3
      vertex 11.75 29 3
    endloop
  endfacet
  facet normal 0 0 1
    outer loop
      vertex 12 32.5 3
      vertex 9.125 30.5155 3
      vertex 10.875 30.5155 3
    endloop
  endfacet
  facet normal 0 0 1
    outer loop
      vertex 9.125 30.5155 3
      vertex 8.875 30.2655 3
      vertex 8.98066 30.2655 3
    endloop
  endfacet
  facet normal 0 0 1
    outer loop
      vertex 8.875 30.2655 3
      vertex 8.625 30.0155 3
      vertex 8.73066 30.0155 3
    endloop
  endfacet
  facet normal 0 0 1
    outer loop
      vertex 3 32.5 3
      vertex 8.875 30.2655 3
      vertex 9.125 30.5155 3
    endloop
  endfacet
  facet normal 0 0 1
    outer loop
      vertex 8.625 30.0155 3
      vertex 8.375 29.7655 3
      vertex 8.48066 29.7655 3
    endloop
  endfacet
  facet normal 0 0 1
    outer loop
      vertex 8.875 30.2655 3
      vertex 3 32.5 3
      vertex 8.625 30.0155 3
    endloop
  endfacet
  facet normal 0 0 1
    outer loop
      vertex 8.375 29.7655 3
      vertex 8.125 29.5155 3
      vertex 8.23066 29.5155 3
    endloop
  endfacet
  facet normal 0 0 1
    outer loop
      vertex 8.625 30.0155 3
      vertex 3 32.5 3
      vertex 8.375 29.7655 3
    endloop
  endfacet
  facet normal 0 0 1
    outer loop
      vertex 8.125 29.5155 3
      vertex 7.875 29.2655 3
      vertex 7.98066 29.2655 3
    endloop
  endfacet
  facet normal 0 0 1
    outer loop
      vertex 8.375 29.7655 3
      vertex 3 32.5 3
      vertex 8.125 29.5155 3
    endloop
  endfacet
  facet normal 0 0 1
    outer loop
      vertex 7.875 29.2655 3
      vertex 7.625 29.0155 3
      vertex 7.73066 29.0155 3
    endloop
  endfacet
  facet normal 0 0 1
    outer loop
      vertex 8.125 29.5155 3
      vertex 3 32.5 3
      vertex 7.875 29.2655 3
    endloop
  endfacet
  facet normal 0 0 1
    outer loop
      vertex 7.625 29.0155 3
      vertex 7.375 28.7655 3
      vertex 7.48066 28.7655 3
    endloop
  endfacet
  facet normal 0 0 1
    outer loop
      vertex 7.875 29.2655 3
      vertex 3 32.5 3
      vertex 7.625 29.0155 3
    endloop
  endfacet
  facet normal 0 0 1
    outer loop
      vertex 7.375 28.7655 3
      vertex 7.125 28.5155 3
      vertex 7.23066 28.5155 3
    endloop
  endfacet
  facet normal 0 0 1
    outer loop
      vertex 7.625 29.0155 3
      vertex 3 32.5 3
      vertex 7.375 28.7655 3
    endloop
  endfacet
  facet normal 0 0 1
    outer loop
      vertex 7.125 28.5155 3
      vertex 6.875 28.2655 3
      vertex 6.98066 28.2655 3
    endloop
  endfacet
  facet normal 0 0 1
    outer loop
      vertex 7.375 28.7655 3
      vertex 3 32.5 3
      vertex 7.125 28.5155 3
    endloop
  endfacet
  facet normal 0 0 1
    outer loop
      vertex 6.875 28.2655 3
      vertex 6.625 28.0155 3
      vertex 6.73066 28.0155 3
    endloop
  endfacet
  facet normal 0 0 1
    outer loop
      vertex 7.125 28.5155 3
      vertex 3 32.5 3
      vertex 6.875 28.2655 3
    endloop
  endfacet
  facet normal 0 0 1
    outer loop
      vertex 6.625 28.0155 3
      vertex 6.375 27.7655 3
      vertex 6.48066 27.7655 3
    endloop
  endfacet
  facet normal 0 0 1
    outer loop
      vertex 6.875 28.2655 3
      vertex 3 32.5 3
      vertex 6.625 28.0155 3
    endloop
  endfacet
  facet normal 0 0 1
    outer loop
      vertex 6.375 27.7655 3
      vertex 6.125 27.5155 3
      vertex 6.23066 27.5155 3
    endloop
  endfacet
  facet normal 0 0 1
    outer loop
      vertex 6.625 28.0155 3
      vertex 3 32.5 3
      vertex 6.375 27.7655 3
    endloop
  endfacet
  facet normal 0 0 1
    outer loop
      vertex 6.125 27.5155 3
      vertex 5.875 27.2655 3
      vertex 5.98066 27.2655 3
    endloop
  endfacet
  facet normal 0 0 1
    outer loop
      vertex 6.375 27.7655 3
      vertex 3 32.5 3
      vertex 6.125 27.5155 3
    endloop
  endfacet
  facet normal 0 0 1
    outer loop
      vertex 5.875 27.2655 3
      vertex 5.625 27.0155 3
      vertex 5.73066 27.0155 3
    endloop
  endfacet
  facet normal 0 0 1
    outer loop
      vertex 6.125 27.5155 3
      vertex 3 32.5 3
      vertex 5.875 27.2655 3
    endloop
  endfacet
  facet normal 0 0 1
    outer loop
      vertex 5.625 27.0155 3
      vertex 5.375 26.7655 3
      vertex 5.48066 26.7655 3
    endloop
  endfacet
  facet normal 0 0 1
    outer loop
      vertex 5.875 27.2655 3
      vertex 3 32.5 3
      vertex 5.625 27.0155 3
    endloop
  endfacet
  facet normal 0 0 1
    outer loop
      vertex 5.375 26.7655 3
      vertex 5.125 26.5155 3
      vertex 5.23066 26.5155 3
    endloop
  endfacet
  facet normal -0 0 1
    outer loop
      vertex 0 29.5 3
      vertex 5.625 27.0155 3
      vertex 3 32.5 3
    endloop
  endfacet
  facet normal 0 0 1
    outer loop
      vertex 5.375 -23.2345 3
      vertex 4 -20 3
      vertex 5.125 -23.4845 3
    endloop
  endfacet
  facet normal -0 0 1
    outer loop
      vertex 3 32.5 3
      vertex 9.125 30.5155 3
      vertex 12 32.5 3
    endloop
  endfacet
  facet normal 0 0 1
    outer loop
      vertex 5.625 27.0155 3
      vertex 0 29.5 3
      vertex 5.375 26.7655 3
    endloop
  endfacet
  facet normal 0 0 1
    outer loop
      vertex 5.375 26.7655 3
      vertex 0 29.5 3
      vertex 5.125 26.5155 3
    endloop
  endfacet
  facet normal 0 0 1
    outer loop
      vertex 5.125 26.5155 3
      vertex 0 29.5 3
      vertex 4.25 25 3
    endloop
  endfacet
  facet normal 0 0 1
    outer loop
      vertex 0 20 3
      vertex 4.25 25 3
      vertex 0 29.5 3
    endloop
  endfacet
  facet normal 0 0 1
    outer loop
      vertex 5.125 23.4845 3
      vertex 0 20 3
      vertex 4 20 3
    endloop
  endfacet
  facet normal -0 0 1
    outer loop
      vertex 10.625 27.2345 3
      vertex 15 18 3
      vertex 10.875 27.4845 3
    endloop
  endfacet
  facet normal 0 0 1
    outer loop
      vertex 10.625 27.2345 3
      vertex 10.875 27.4845 3
      vertex 10.7693 27.4845 3
    endloop
  endfacet
  facet normal -0 0 1
    outer loop
      vertex 10.375 26.9845 3
      vertex 15 18 3
      vertex 10.625 27.2345 3
    endloop
  endfacet
  facet normal 0 0 1
    outer loop
      vertex 10.375 26.9845 3
      vertex 10.625 27.2345 3
      vertex 10.5193 27.2345 3
    endloop
  endfacet
  facet normal -0 0 1
    outer loop
      vertex 10.125 26.7345 3
      vertex 15 18 3
      vertex 10.375 26.9845 3
    endloop
  endfacet
  facet normal 0 0 1
    outer loop
      vertex 10.125 26.7345 3
      vertex 10.375 26.9845 3
      vertex 10.2693 26.9845 3
    endloop
  endfacet
  facet normal -0 0 1
    outer loop
      vertex 9.875 26.4845 3
      vertex 15 18 3
      vertex 10.125 26.7345 3
    endloop
  endfacet
  facet normal 0 0 1
    outer loop
      vertex 9.875 26.4845 3
      vertex 10.125 26.7345 3
      vertex 10.0193 26.7345 3
    endloop
  endfacet
  facet normal -0 0 1
    outer loop
      vertex 9.625 26.2345 3
      vertex 15 18 3
      vertex 9.875 26.4845 3
    endloop
  endfacet
  facet normal -0 0 1
    outer loop
      vertex 9.125 25.7345 3
      vertex 15 18 3
      vertex 9.375 25.9845 3
    endloop
  endfacet
  facet normal -0 0 1
    outer loop
      vertex 9.375 25.9845 3
      vertex 15 18 3
      vertex 9.625 26.2345 3
    endloop
  endfacet
  facet normal 0 0 1
    outer loop
      vertex 10.875 -19.4845 3
      vertex 15 -18 3
      vertex 12 -15 3
    endloop
  endfacet
  facet normal 0 0 1
    outer loop
      vertex 15 -18 3
      vertex 11.75 -21 3
      vertex 15 -29.5 3
    endloop
  endfacet
  facet normal -0 0 1
    outer loop
      vertex 10.875 -22.5155 3
      vertex 15 -29.5 3
      vertex 11.75 -21 3
    endloop
  endfacet
  facet normal 0 0 1
    outer loop
      vertex 15 -18 3
      vertex 10.875 -19.4845 3
      vertex 11.75 -21 3
    endloop
  endfacet
  facet normal -0 0 1
    outer loop
      vertex 10 -15 3
      vertex 10.875 -19.4845 3
      vertex 12 -15 3
    endloop
  endfacet
  facet normal 0 0 1
    outer loop
      vertex 9.625 26.2345 3
      vertex 9.875 26.4845 3
      vertex 9.76934 26.4845 3
    endloop
  endfacet
  facet normal -0 0 1
    outer loop
      vertex 8.875 25.4845 3
      vertex 15 18 3
      vertex 9.125 25.7345 3
    endloop
  endfacet
  facet normal 0 0 1
    outer loop
      vertex 9.375 25.9845 3
      vertex 9.625 26.2345 3
      vertex 9.51934 26.2345 3
    endloop
  endfacet
  facet normal -0 0 1
    outer loop
      vertex 8.625 25.2345 3
      vertex 15 18 3
      vertex 8.875 25.4845 3
    endloop
  endfacet
  facet normal 0 0 1
    outer loop
      vertex 9.125 25.7345 3
      vertex 9.375 25.9845 3
      vertex 9.26934 25.9845 3
    endloop
  endfacet
  facet normal -0 0 1
    outer loop
      vertex 8.375 24.9845 3
      vertex 15 18 3
      vertex 8.625 25.2345 3
    endloop
  endfacet
  facet normal 0 0 1
    outer loop
      vertex 10 -15 3
      vertex 9.125 -19.4845 3
      vertex 10.875 -19.4845 3
    endloop
  endfacet
  facet normal -0 0 1
    outer loop
      vertex 8.125 24.7345 3
      vertex 15 18 3
      vertex 8.375 24.9845 3
    endloop
  endfacet
  facet normal 0 0 1
    outer loop
      vertex 8.875 25.4845 3
      vertex 9.125 25.7345 3
      vertex 9.01934 25.7345 3
    endloop
  endfacet
  facet normal -0 0 1
    outer loop
      vertex 7.875 24.4845 3
      vertex 15 18 3
      vertex 8.125 24.7345 3
    endloop
  endfacet
  facet normal -0 0 1
    outer loop
      vertex 7.625 24.2345 3
      vertex 15 18 3
      vertex 7.875 24.4845 3
    endloop
  endfacet
  facet normal -0 0 1
    outer loop
      vertex 7.375 23.9845 3
      vertex 15 18 3
      vertex 7.625 24.2345 3
    endloop
  endfacet
  facet normal 0 0 1
    outer loop
      vertex 8.625 25.2345 3
      vertex 8.875 25.4845 3
      vertex 8.76934 25.4845 3
    endloop
  endfacet
  facet normal -0 0 1
    outer loop
      vertex 7.125 23.7345 3
      vertex 15 18 3
      vertex 7.375 23.9845 3
    endloop
  endfacet
  facet normal 0 0 1
    outer loop
      vertex 15 18 3
      vertex 10 15 3
      vertex 12 15 3
    endloop
  endfacet
  facet normal -0 0 1
    outer loop
      vertex 6.875 23.4845 3
      vertex 15 18 3
      vertex 7.125 23.7345 3
    endloop
  endfacet
  facet normal 0 0 1
    outer loop
      vertex 8.375 24.9845 3
      vertex 8.625 25.2345 3
      vertex 8.51934 25.2345 3
    endloop
  endfacet
  facet normal 0 0 1
    outer loop
      vertex 15 18 3
      vertex 6.875 23.4845 3
      vertex 10 15 3
    endloop
  endfacet
  facet normal 0 0 1
    outer loop
      vertex 4 20 3
      vertex 6.875 23.4845 3
      vertex 5.125 23.4845 3
    endloop
  endfacet
  facet normal 0 0 1
    outer loop
      vertex 6.875 23.4845 3
      vertex 4 20 3
      vertex 10 15 3
    endloop
  endfacet
  facet normal 0 0 1
    outer loop
      vertex 8.125 24.7345 3
      vertex 8.375 24.9845 3
      vertex 8.26934 24.9845 3
    endloop
  endfacet
  facet normal 0 0 1
    outer loop
      vertex 10 15 3
      vertex 4 20 3
      vertex 10 -15 3
    endloop
  endfacet
  facet normal 0 0 1
    outer loop
      vertex 9.125 -19.4845 3
      vertex 8.875 -19.7345 3
      vertex 8.98066 -19.7345 3
    endloop
  endfacet
  facet normal 0 0 1
    outer loop
      vertex 4 -20 3
      vertex 9.125 -19.4845 3
      vertex 10 -15 3
    endloop
  endfacet
  facet normal 0 0 1
    outer loop
      vertex 7.875 24.4845 3
      vertex 8.125 24.7345 3
      vertex 8.01934 24.7345 3
    endloop
  endfacet
  facet normal 0 0 1
    outer loop
      vertex 8.875 -19.7345 3
      vertex 8.625 -19.9845 3
      vertex 8.73066 -19.9845 3
    endloop
  endfacet
  facet normal 0 0 1
    outer loop
      vertex 9.125 -19.4845 3
      vertex 4 -20 3
      vertex 8.875 -19.7345 3
    endloop
  endfacet
  facet normal 0 0 1
    outer loop
      vertex 8.625 -19.9845 3
      vertex 8.375 -20.2345 3
      vertex 8.48066 -20.2345 3
    endloop
  endfacet
  facet normal 0 0 1
    outer loop
      vertex 7.625 24.2345 3
      vertex 7.875 24.4845 3
      vertex 7.76934 24.4845 3
    endloop
  endfacet
  facet normal 0 0 1
    outer loop
      vertex 8.875 -19.7345 3
      vertex 4 -20 3
      vertex 8.625 -19.9845 3
    endloop
  endfacet
  facet normal 0 0 1
    outer loop
      vertex 8.375 -20.2345 3
      vertex 8.125 -20.4845 3
      vertex 8.23066 -20.4845 3
    endloop
  endfacet
  facet normal 0 0 1
    outer loop
      vertex 8.625 -19.9845 3
      vertex 4 -20 3
      vertex 8.375 -20.2345 3
    endloop
  endfacet
  facet normal 0 0 1
    outer loop
      vertex 7.375 23.9845 3
      vertex 7.625 24.2345 3
      vertex 7.51934 24.2345 3
    endloop
  endfacet
  facet normal 0 0 1
    outer loop
      vertex 8.125 -20.4845 3
      vertex 7.875 -20.7345 3
      vertex 7.98066 -20.7345 3
    endloop
  endfacet
  facet normal 0 0 1
    outer loop
      vertex 8.375 -20.2345 3
      vertex 4 -20 3
      vertex 8.125 -20.4845 3
    endloop
  endfacet
  facet normal 0 0 1
    outer loop
      vertex 7.875 -20.7345 3
      vertex 7.625 -20.9845 3
      vertex 7.73066 -20.9845 3
    endloop
  endfacet
  facet normal 0 0 1
    outer loop
      vertex 7.125 23.7345 3
      vertex 7.375 23.9845 3
      vertex 7.26934 23.9845 3
    endloop
  endfacet
  facet normal 0 0 1
    outer loop
      vertex 8.125 -20.4845 3
      vertex 4 -20 3
      vertex 7.875 -20.7345 3
    endloop
  endfacet
  facet normal 0 0 1
    outer loop
      vertex 7.625 -20.9845 3
      vertex 7.375 -21.2345 3
      vertex 7.48066 -21.2345 3
    endloop
  endfacet
  facet normal 0 0 1
    outer loop
      vertex 7.875 -20.7345 3
      vertex 4 -20 3
      vertex 7.625 -20.9845 3
    endloop
  endfacet
  facet normal 0 0 1
    outer loop
      vertex 6.875 23.4845 3
      vertex 7.125 23.7345 3
      vertex 7.01934 23.7345 3
    endloop
  endfacet
  facet normal 0 0 1
    outer loop
      vertex 7.375 -21.2345 3
      vertex 7.125 -21.4845 3
      vertex 7.23066 -21.4845 3
    endloop
  endfacet
  facet normal 0 0 1
    outer loop
      vertex 7.625 -20.9845 3
      vertex 4 -20 3
      vertex 7.375 -21.2345 3
    endloop
  endfacet
  facet normal 0 0 1
    outer loop
      vertex 7.125 -21.4845 3
      vertex 6.875 -21.7345 3
      vertex 6.98066 -21.7345 3
    endloop
  endfacet
  facet normal 0 0 1
    outer loop
      vertex 7.375 -21.2345 3
      vertex 4 -20 3
      vertex 7.125 -21.4845 3
    endloop
  endfacet
  facet normal 0 0 1
    outer loop
      vertex 6.875 -21.7345 3
      vertex 6.625 -21.9845 3
      vertex 6.73066 -21.9845 3
    endloop
  endfacet
  facet normal 0 0 1
    outer loop
      vertex 7.125 -21.4845 3
      vertex 4 -20 3
      vertex 6.875 -21.7345 3
    endloop
  endfacet
  facet normal 0 0 1
    outer loop
      vertex 6.625 -21.9845 3
      vertex 6.375 -22.2345 3
      vertex 6.48066 -22.2345 3
    endloop
  endfacet
  facet normal 0 0 1
    outer loop
      vertex 6.875 -21.7345 3
      vertex 4 -20 3
      vertex 6.625 -21.9845 3
    endloop
  endfacet
  facet normal 0 0 1
    outer loop
      vertex 6.375 -22.2345 3
      vertex 6.125 -22.4845 3
      vertex 6.23066 -22.4845 3
    endloop
  endfacet
  facet normal 0 0 1
    outer loop
      vertex 6.625 -21.9845 3
      vertex 4 -20 3
      vertex 6.375 -22.2345 3
    endloop
  endfacet
  facet normal 0 0 1
    outer loop
      vertex 6.125 -22.4845 3
      vertex 5.875 -22.7345 3
      vertex 5.98066 -22.7345 3
    endloop
  endfacet
  facet normal 0 0 1
    outer loop
      vertex 6.375 -22.2345 3
      vertex 4 -20 3
      vertex 6.125 -22.4845 3
    endloop
  endfacet
  facet normal 0 0 1
    outer loop
      vertex 6.125 -22.4845 3
      vertex 4 -20 3
      vertex 5.875 -22.7345 3
    endloop
  endfacet
  facet normal 0 0 1
    outer loop
      vertex 5.875 -22.7345 3
      vertex 5.625 -22.9845 3
      vertex 5.73066 -22.9845 3
    endloop
  endfacet
  facet normal 0 0 1
    outer loop
      vertex 5.875 -22.7345 3
      vertex 4 -20 3
      vertex 5.625 -22.9845 3
    endloop
  endfacet
  facet normal 0 0 1
    outer loop
      vertex 5.625 -22.9845 3
      vertex 5.375 -23.2345 3
      vertex 5.48066 -23.2345 3
    endloop
  endfacet
  facet normal 0 0 1
    outer loop
      vertex 5.625 -22.9845 3
      vertex 4 -20 3
      vertex 5.375 -23.2345 3
    endloop
  endfacet
  facet normal 0 0 1
    outer loop
      vertex 5.375 -23.2345 3
      vertex 5.125 -23.4845 3
      vertex 5.23066 -23.4845 3
    endloop
  endfacet
  facet normal 0 0 1
    outer loop
      vertex 0 20 3
      vertex 5.125 23.4845 3
      vertex 4.25 25 3
    endloop
  endfacet
  facet normal 0 0 1
    outer loop
      vertex 4 -20 3
      vertex 10 -15 3
      vertex 4 20 3
    endloop
  endfacet
  facet normal -0 0 1
    outer loop
      vertex 10.625 -22.7655 3
      vertex 15 -29.5 3
      vertex 10.875 -22.5155 3
    endloop
  endfacet
  facet normal 0 0 1
    outer loop
      vertex 10.625 -22.7655 3
      vertex 10.875 -22.5155 3
      vertex 10.7693 -22.5155 3
    endloop
  endfacet
  facet normal -0 0 1
    outer loop
      vertex 10.375 -23.0155 3
      vertex 15 -29.5 3
      vertex 10.625 -22.7655 3
    endloop
  endfacet
  facet normal 0 0 1
    outer loop
      vertex 10.375 -23.0155 3
      vertex 10.625 -22.7655 3
      vertex 10.5193 -22.7655 3
    endloop
  endfacet
  facet normal -0 0 1
    outer loop
      vertex 10.125 -23.2655 3
      vertex 15 -29.5 3
      vertex 10.375 -23.0155 3
    endloop
  endfacet
  facet normal 0 0 1
    outer loop
      vertex 10.125 -23.2655 3
      vertex 10.375 -23.0155 3
      vertex 10.2693 -23.0155 3
    endloop
  endfacet
  facet normal -0 0 1
    outer loop
      vertex 9.875 -23.5155 3
      vertex 15 -29.5 3
      vertex 10.125 -23.2655 3
    endloop
  endfacet
  facet normal 0 0 1
    outer loop
      vertex 9.875 -23.5155 3
      vertex 10.125 -23.2655 3
      vertex 10.0193 -23.2655 3
    endloop
  endfacet
  facet normal -0 0 1
    outer loop
      vertex 9.625 -23.7655 3
      vertex 15 -29.5 3
      vertex 9.875 -23.5155 3
    endloop
  endfacet
  facet normal 0 0 1
    outer loop
      vertex 9.625 -23.7655 3
      vertex 9.875 -23.5155 3
      vertex 9.76934 -23.5155 3
    endloop
  endfacet
  facet normal -0 0 1
    outer loop
      vertex 9.375 -24.0155 3
      vertex 15 -29.5 3
      vertex 9.625 -23.7655 3
    endloop
  endfacet
  facet normal 0 0 1
    outer loop
      vertex 9.375 -24.0155 3
      vertex 9.625 -23.7655 3
      vertex 9.51934 -23.7655 3
    endloop
  endfacet
  facet normal -0 0 1
    outer loop
      vertex 9.125 -24.2655 3
      vertex 15 -29.5 3
      vertex 9.375 -24.0155 3
    endloop
  endfacet
  facet normal 0 0 1
    outer loop
      vertex 9.125 -24.2655 3
      vertex 9.375 -24.0155 3
      vertex 9.26934 -24.0155 3
    endloop
  endfacet
  facet normal -0 0 1
    outer loop
      vertex 8.875 -24.5155 3
      vertex 15 -29.5 3
      vertex 9.125 -24.2655 3
    endloop
  endfacet
  facet normal 0 0 1
    outer loop
      vertex 8.875 -24.5155 3
      vertex 9.125 -24.2655 3
      vertex 9.01934 -24.2655 3
    endloop
  endfacet
  facet normal -0 0 1
    outer loop
      vertex 8.625 -24.7655 3
      vertex 15 -29.5 3
      vertex 8.875 -24.5155 3
    endloop
  endfacet
  facet normal 0 0 1
    outer loop
      vertex 8.625 -24.7655 3
      vertex 8.875 -24.5155 3
      vertex 8.76934 -24.5155 3
    endloop
  endfacet
  facet normal -0 0 1
    outer loop
      vertex 8.375 -25.0155 3
      vertex 15 -29.5 3
      vertex 8.625 -24.7655 3
    endloop
  endfacet
  facet normal 0 0 1
    outer loop
      vertex 8.375 -25.0155 3
      vertex 8.625 -24.7655 3
      vertex 8.51934 -24.7655 3
    endloop
  endfacet
  facet normal -0 0 1
    outer loop
      vertex 8.125 -25.2655 3
      vertex 15 -29.5 3
      vertex 8.375 -25.0155 3
    endloop
  endfacet
  facet normal 0 0 1
    outer loop
      vertex 8.125 -25.2655 3
      vertex 8.375 -25.0155 3
      vertex 8.26934 -25.0155 3
    endloop
  endfacet
  facet normal -0 0 1
    outer loop
      vertex 7.875 -25.5155 3
      vertex 15 -29.5 3
      vertex 8.125 -25.2655 3
    endloop
  endfacet
  facet normal 0 0 1
    outer loop
      vertex 7.875 -25.5155 3
      vertex 8.125 -25.2655 3
      vertex 8.01934 -25.2655 3
    endloop
  endfacet
  facet normal 0 0 1
    outer loop
      vertex 15 -29.5 3
      vertex 7.875 -25.5155 3
      vertex 12 -32.5 3
    endloop
  endfacet
  facet normal 0 0 1
    outer loop
      vertex 7.625 -25.7655 3
      vertex 7.875 -25.5155 3
      vertex 7.76934 -25.5155 3
    endloop
  endfacet
  facet normal 0 0 1
    outer loop
      vertex 7.875 -25.5155 3
      vertex 7.625 -25.7655 3
      vertex 12 -32.5 3
    endloop
  endfacet
  facet normal 0 0 1
    outer loop
      vertex 7.375 -26.0155 3
      vertex 7.625 -25.7655 3
      vertex 7.51934 -25.7655 3
    endloop
  endfacet
  facet normal 0 0 1
    outer loop
      vertex 7.625 -25.7655 3
      vertex 7.375 -26.0155 3
      vertex 12 -32.5 3
    endloop
  endfacet
  facet normal 0 0 1
    outer loop
      vertex 7.125 -26.2655 3
      vertex 7.375 -26.0155 3
      vertex 7.26934 -26.0155 3
    endloop
  endfacet
  facet normal 0 0 1
    outer loop
      vertex 7.375 -26.0155 3
      vertex 7.125 -26.2655 3
      vertex 12 -32.5 3
    endloop
  endfacet
  facet normal 0 0 1
    outer loop
      vertex 6.875 -26.5155 3
      vertex 7.125 -26.2655 3
      vertex 7.01934 -26.2655 3
    endloop
  endfacet
  facet normal 0 0 1
    outer loop
      vertex 7.125 -26.2655 3
      vertex 6.875 -26.5155 3
      vertex 12 -32.5 3
    endloop
  endfacet
  facet normal 0 0 1
    outer loop
      vertex 3 -32.5 3
      vertex 6.875 -26.5155 3
      vertex 5.125 -26.5155 3
    endloop
  endfacet
  facet normal -0 0 1
    outer loop
      vertex 0 -20 3
      vertex 5.125 -23.4845 3
      vertex 4 -20 3
    endloop
  endfacet
  facet normal 0 0 1
    outer loop
      vertex 6.875 -26.5155 3
      vertex 3 -32.5 3
      vertex 12 -32.5 3
    endloop
  endfacet
  facet normal 0 0 1
    outer loop
      vertex 0 -29.5 3
      vertex 5.125 -26.5155 3
      vertex 4.25 -25 3
    endloop
  endfacet
  facet normal 0 0 1
    outer loop
      vertex 5.125 -23.4845 3
      vertex 0 -20 3
      vertex 4.25 -25 3
    endloop
  endfacet
  facet normal 0 0 1
    outer loop
      vertex 4.25 -25 3
      vertex 0 -20 3
      vertex 0 -29.5 3
    endloop
  endfacet
  facet normal 0 0 1
    outer loop
      vertex 5.125 -26.5155 3
      vertex 0 -29.5 3
      vertex 3 -32.5 3
    endloop
  endfacet
  facet normal 0 0 -1
    outer loop
      vertex 7.875 -25.5155 0
      vertex 15 -29.5 0
      vertex 12 -32.5 0
    endloop
  endfacet
  facet normal 0 0 -1
    outer loop
      vertex 15 -29.5 0
      vertex 11.75 -21 0
      vertex 15 -18 0
    endloop
  endfacet
  facet normal 0 0 -1
    outer loop
      vertex 10.875 -19.4845 0
      vertex 15 -18 0
      vertex 11.75 -21 0
    endloop
  endfacet
  facet normal 0 0 -1
    outer loop
      vertex 15 -29.5 0
      vertex 10.875 -22.5155 0
      vertex 11.75 -21 0
    endloop
  endfacet
  facet normal 0 0 -1
    outer loop
      vertex 15 -29.5 0
      vertex 10.625 -22.7655 0
      vertex 10.875 -22.5155 0
    endloop
  endfacet
  facet normal -0 0 -1
    outer loop
      vertex 10.875 -22.5155 0
      vertex 10.625 -22.7655 0
      vertex 10.7693 -22.5155 0
    endloop
  endfacet
  facet normal 0 0 -1
    outer loop
      vertex 15 -29.5 0
      vertex 10.375 -23.0155 0
      vertex 10.625 -22.7655 0
    endloop
  endfacet
  facet normal -0 0 -1
    outer loop
      vertex 10.625 -22.7655 0
      vertex 10.375 -23.0155 0
      vertex 10.5193 -22.7655 0
    endloop
  endfacet
  facet normal 0 0 -1
    outer loop
      vertex 15 -29.5 0
      vertex 10.125 -23.2655 0
      vertex 10.375 -23.0155 0
    endloop
  endfacet
  facet normal -0 0 -1
    outer loop
      vertex 10.375 -23.0155 0
      vertex 10.125 -23.2655 0
      vertex 10.2693 -23.0155 0
    endloop
  endfacet
  facet normal 0 0 -1
    outer loop
      vertex 15 -29.5 0
      vertex 9.875 -23.5155 0
      vertex 10.125 -23.2655 0
    endloop
  endfacet
  facet normal -0 0 -1
    outer loop
      vertex 10.125 -23.2655 0
      vertex 9.875 -23.5155 0
      vertex 10.0193 -23.2655 0
    endloop
  endfacet
  facet normal 0 0 -1
    outer loop
      vertex 15 -29.5 0
      vertex 9.625 -23.7655 0
      vertex 9.875 -23.5155 0
    endloop
  endfacet
  facet normal -0 0 -1
    outer loop
      vertex 9.875 -23.5155 0
      vertex 9.625 -23.7655 0
      vertex 9.76934 -23.5155 0
    endloop
  endfacet
  facet normal 0 0 -1
    outer loop
      vertex 15 -29.5 0
      vertex 9.375 -24.0155 0
      vertex 9.625 -23.7655 0
    endloop
  endfacet
  facet normal -0 0 -1
    outer loop
      vertex 9.625 -23.7655 0
      vertex 9.375 -24.0155 0
      vertex 9.51934 -23.7655 0
    endloop
  endfacet
  facet normal 0 0 -1
    outer loop
      vertex 15 -29.5 0
      vertex 9.125 -24.2655 0
      vertex 9.375 -24.0155 0
    endloop
  endfacet
  facet normal -0 0 -1
    outer loop
      vertex 9.375 -24.0155 0
      vertex 9.125 -24.2655 0
      vertex 9.26934 -24.0155 0
    endloop
  endfacet
  facet normal 0 0 -1
    outer loop
      vertex 15 -29.5 0
      vertex 8.875 -24.5155 0
      vertex 9.125 -24.2655 0
    endloop
  endfacet
  facet normal -0 0 -1
    outer loop
      vertex 9.125 -24.2655 0
      vertex 8.875 -24.5155 0
      vertex 9.01934 -24.2655 0
    endloop
  endfacet
  facet normal 0 0 -1
    outer loop
      vertex 15 -29.5 0
      vertex 8.625 -24.7655 0
      vertex 8.875 -24.5155 0
    endloop
  endfacet
  facet normal -0 0 -1
    outer loop
      vertex 8.875 -24.5155 0
      vertex 8.625 -24.7655 0
      vertex 8.76934 -24.5155 0
    endloop
  endfacet
  facet normal 0 0 -1
    outer loop
      vertex 15 -29.5 0
      vertex 8.375 -25.0155 0
      vertex 8.625 -24.7655 0
    endloop
  endfacet
  facet normal -0 0 -1
    outer loop
      vertex 8.625 -24.7655 0
      vertex 8.375 -25.0155 0
      vertex 8.51934 -24.7655 0
    endloop
  endfacet
  facet normal 0 0 -1
    outer loop
      vertex 15 -29.5 0
      vertex 8.125 -25.2655 0
      vertex 8.375 -25.0155 0
    endloop
  endfacet
  facet normal -0 0 -1
    outer loop
      vertex 8.375 -25.0155 0
      vertex 8.125 -25.2655 0
      vertex 8.26934 -25.0155 0
    endloop
  endfacet
  facet normal 0 0 -1
    outer loop
      vertex 15 -29.5 0
      vertex 7.875 -25.5155 0
      vertex 8.125 -25.2655 0
    endloop
  endfacet
  facet normal -0 0 -1
    outer loop
      vertex 8.125 -25.2655 0
      vertex 7.875 -25.5155 0
      vertex 8.01934 -25.2655 0
    endloop
  endfacet
  facet normal 0 0 -1
    outer loop
      vertex 7.625 -25.7655 0
      vertex 7.875 -25.5155 0
      vertex 12 -32.5 0
    endloop
  endfacet
  facet normal -0 0 -1
    outer loop
      vertex 7.875 -25.5155 0
      vertex 7.625 -25.7655 0
      vertex 7.76934 -25.5155 0
    endloop
  endfacet
  facet normal 0 0 -1
    outer loop
      vertex 7.375 -26.0155 0
      vertex 7.625 -25.7655 0
      vertex 12 -32.5 0
    endloop
  endfacet
  facet normal -0 0 -1
    outer loop
      vertex 7.625 -25.7655 0
      vertex 7.375 -26.0155 0
      vertex 7.51934 -25.7655 0
    endloop
  endfacet
  facet normal 0 0 -1
    outer loop
      vertex 7.125 -26.2655 0
      vertex 7.375 -26.0155 0
      vertex 12 -32.5 0
    endloop
  endfacet
  facet normal -0 0 -1
    outer loop
      vertex 7.375 -26.0155 0
      vertex 7.125 -26.2655 0
      vertex 7.26934 -26.0155 0
    endloop
  endfacet
  facet normal 0 0 -1
    outer loop
      vertex 6.875 -26.5155 0
      vertex 7.125 -26.2655 0
      vertex 12 -32.5 0
    endloop
  endfacet
  facet normal -0 0 -1
    outer loop
      vertex 7.125 -26.2655 0
      vertex 6.875 -26.5155 0
      vertex 7.01934 -26.2655 0
    endloop
  endfacet
  facet normal 0 0 -1
    outer loop
      vertex 3 -32.5 0
      vertex 6.875 -26.5155 0
      vertex 12 -32.5 0
    endloop
  endfacet
  facet normal -0 0 -1
    outer loop
      vertex 5.125 -26.5155 0
      vertex 0 -29.5 0
      vertex 4.25 -25 0
    endloop
  endfacet
  facet normal 0 0 -1
    outer loop
      vertex 0 -29.5 0
      vertex 5.125 -26.5155 0
      vertex 3 -32.5 0
    endloop
  endfacet
  facet normal -0 0 -1
    outer loop
      vertex 6.875 -26.5155 0
      vertex 3 -32.5 0
      vertex 5.125 -26.5155 0
    endloop
  endfacet
  facet normal -0 0 -1
    outer loop
      vertex 15 -18 0
      vertex 10.875 -19.4845 0
      vertex 12 -15 0
    endloop
  endfacet
  facet normal 0 0 -1
    outer loop
      vertex 10.875 -19.4845 0
      vertex 10 -15 0
      vertex 12 -15 0
    endloop
  endfacet
  facet normal 0 0 -1
    outer loop
      vertex 5.125 23.4845 0
      vertex 10 15 0
      vertex 10 -15 0
    endloop
  endfacet
  facet normal 0 0 -1
    outer loop
      vertex 10 15 0
      vertex 9.625 26.2345 0
      vertex 9.875 26.4845 0
    endloop
  endfacet
  facet normal -0 0 -1
    outer loop
      vertex 9.875 26.4845 0
      vertex 9.625 26.2345 0
      vertex 9.76934 26.4845 0
    endloop
  endfacet
  facet normal 0 0 -1
    outer loop
      vertex 10 15 0
      vertex 9.375 25.9845 0
      vertex 9.625 26.2345 0
    endloop
  endfacet
  facet normal -0 0 -1
    outer loop
      vertex 9.625 26.2345 0
      vertex 9.375 25.9845 0
      vertex 9.51934 26.2345 0
    endloop
  endfacet
  facet normal 0 0 -1
    outer loop
      vertex 10 15 0
      vertex 9.125 25.7345 0
      vertex 9.375 25.9845 0
    endloop
  endfacet
  facet normal 0 0 -1
    outer loop
      vertex 9.125 -19.4845 0
      vertex 10 -15 0
      vertex 10.875 -19.4845 0
    endloop
  endfacet
  facet normal 0 0 -1
    outer loop
      vertex 8.875 -19.7345 0
      vertex 10 -15 0
      vertex 9.125 -19.4845 0
    endloop
  endfacet
  facet normal -0 0 -1
    outer loop
      vertex 9.375 25.9845 0
      vertex 9.125 25.7345 0
      vertex 9.26934 25.9845 0
    endloop
  endfacet
  facet normal 0 0 -1
    outer loop
      vertex 10 15 0
      vertex 8.875 25.4845 0
      vertex 9.125 25.7345 0
    endloop
  endfacet
  facet normal 0 0 -1
    outer loop
      vertex 8.875 -19.7345 0
      vertex 9.125 -19.4845 0
      vertex 8.98066 -19.7345 0
    endloop
  endfacet
  facet normal 0 0 -1
    outer loop
      vertex 8.625 -19.9845 0
      vertex 10 -15 0
      vertex 8.875 -19.7345 0
    endloop
  endfacet
  facet normal -0 0 -1
    outer loop
      vertex 9.125 25.7345 0
      vertex 8.875 25.4845 0
      vertex 9.01934 25.7345 0
    endloop
  endfacet
  facet normal 0 0 -1
    outer loop
      vertex 10 15 0
      vertex 8.625 25.2345 0
      vertex 8.875 25.4845 0
    endloop
  endfacet
  facet normal 0 0 -1
    outer loop
      vertex 8.625 -19.9845 0
      vertex 8.875 -19.7345 0
      vertex 8.73066 -19.9845 0
    endloop
  endfacet
  facet normal 0 0 -1
    outer loop
      vertex 8.375 -20.2345 0
      vertex 10 -15 0
      vertex 8.625 -19.9845 0
    endloop
  endfacet
  facet normal -0 0 -1
    outer loop
      vertex 8.875 25.4845 0
      vertex 8.625 25.2345 0
      vertex 8.76934 25.4845 0
    endloop
  endfacet
  facet normal 0 0 -1
    outer loop
      vertex 10 15 0
      vertex 8.375 24.9845 0
      vertex 8.625 25.2345 0
    endloop
  endfacet
  facet normal 0 0 -1
    outer loop
      vertex 8.375 -20.2345 0
      vertex 8.625 -19.9845 0
      vertex 8.48066 -20.2345 0
    endloop
  endfacet
  facet normal 0 0 -1
    outer loop
      vertex 8.125 -20.4845 0
      vertex 10 -15 0
      vertex 8.375 -20.2345 0
    endloop
  endfacet
  facet normal -0 0 -1
    outer loop
      vertex 8.625 25.2345 0
      vertex 8.375 24.9845 0
      vertex 8.51934 25.2345 0
    endloop
  endfacet
  facet normal 0 0 -1
    outer loop
      vertex 10 15 0
      vertex 8.125 24.7345 0
      vertex 8.375 24.9845 0
    endloop
  endfacet
  facet normal 0 0 -1
    outer loop
      vertex 8.125 -20.4845 0
      vertex 8.375 -20.2345 0
      vertex 8.23066 -20.4845 0
    endloop
  endfacet
  facet normal 0 0 -1
    outer loop
      vertex 7.875 -20.7345 0
      vertex 10 -15 0
      vertex 8.125 -20.4845 0
    endloop
  endfacet
  facet normal -0 0 -1
    outer loop
      vertex 8.375 24.9845 0
      vertex 8.125 24.7345 0
      vertex 8.26934 24.9845 0
    endloop
  endfacet
  facet normal 0 0 -1
    outer loop
      vertex 10 15 0
      vertex 7.875 24.4845 0
      vertex 8.125 24.7345 0
    endloop
  endfacet
  facet normal 0 0 -1
    outer loop
      vertex 7.875 -20.7345 0
      vertex 8.125 -20.4845 0
      vertex 7.98066 -20.7345 0
    endloop
  endfacet
  facet normal 0 0 -1
    outer loop
      vertex 7.625 -20.9845 0
      vertex 10 -15 0
      vertex 7.875 -20.7345 0
    endloop
  endfacet
  facet normal -0 0 -1
    outer loop
      vertex 8.125 24.7345 0
      vertex 7.875 24.4845 0
      vertex 8.01934 24.7345 0
    endloop
  endfacet
  facet normal 0 0 -1
    outer loop
      vertex 10 15 0
      vertex 7.625 24.2345 0
      vertex 7.875 24.4845 0
    endloop
  endfacet
  facet normal 0 0 -1
    outer loop
      vertex 7.625 -20.9845 0
      vertex 7.875 -20.7345 0
      vertex 7.73066 -20.9845 0
    endloop
  endfacet
  facet normal 0 0 -1
    outer loop
      vertex 7.375 -21.2345 0
      vertex 10 -15 0
      vertex 7.625 -20.9845 0
    endloop
  endfacet
  facet normal -0 0 -1
    outer loop
      vertex 7.875 24.4845 0
      vertex 7.625 24.2345 0
      vertex 7.76934 24.4845 0
    endloop
  endfacet
  facet normal 0 0 -1
    outer loop
      vertex 10 15 0
      vertex 7.375 23.9845 0
      vertex 7.625 24.2345 0
    endloop
  endfacet
  facet normal 0 0 -1
    outer loop
      vertex 7.375 -21.2345 0
      vertex 7.625 -20.9845 0
      vertex 7.48066 -21.2345 0
    endloop
  endfacet
  facet normal 0 0 -1
    outer loop
      vertex 7.125 -21.4845 0
      vertex 10 -15 0
      vertex 7.375 -21.2345 0
    endloop
  endfacet
  facet normal -0 0 -1
    outer loop
      vertex 7.625 24.2345 0
      vertex 7.375 23.9845 0
      vertex 7.51934 24.2345 0
    endloop
  endfacet
  facet normal 0 0 -1
    outer loop
      vertex 10 15 0
      vertex 7.125 23.7345 0
      vertex 7.375 23.9845 0
    endloop
  endfacet
  facet normal 0 0 -1
    outer loop
      vertex 7.125 -21.4845 0
      vertex 7.375 -21.2345 0
      vertex 7.23066 -21.4845 0
    endloop
  endfacet
  facet normal 0 0 -1
    outer loop
      vertex 6.875 -21.7345 0
      vertex 10 -15 0
      vertex 7.125 -21.4845 0
    endloop
  endfacet
  facet normal -0 0 -1
    outer loop
      vertex 7.375 23.9845 0
      vertex 7.125 23.7345 0
      vertex 7.26934 23.9845 0
    endloop
  endfacet
  facet normal 0 0 -1
    outer loop
      vertex 10 15 0
      vertex 6.875 23.4845 0
      vertex 7.125 23.7345 0
    endloop
  endfacet
  facet normal 0 0 -1
    outer loop
      vertex 6.875 -21.7345 0
      vertex 7.125 -21.4845 0
      vertex 6.98066 -21.7345 0
    endloop
  endfacet
  facet normal 0 0 -1
    outer loop
      vertex 6.625 -21.9845 0
      vertex 10 -15 0
      vertex 6.875 -21.7345 0
    endloop
  endfacet
  facet normal -0 0 -1
    outer loop
      vertex 7.125 23.7345 0
      vertex 6.875 23.4845 0
      vertex 7.01934 23.7345 0
    endloop
  endfacet
  facet normal 0 0 -1
    outer loop
      vertex 6.625 -21.9845 0
      vertex 6.875 -21.7345 0
      vertex 6.73066 -21.9845 0
    endloop
  endfacet
  facet normal 0 0 -1
    outer loop
      vertex 6.375 -22.2345 0
      vertex 10 -15 0
      vertex 6.625 -21.9845 0
    endloop
  endfacet
  facet normal 0 0 -1
    outer loop
      vertex 6.375 -22.2345 0
      vertex 6.625 -21.9845 0
      vertex 6.48066 -22.2345 0
    endloop
  endfacet
  facet normal 0 0 -1
    outer loop
      vertex 6.125 -22.4845 0
      vertex 10 -15 0
      vertex 6.375 -22.2345 0
    endloop
  endfacet
  facet normal 0 0 -1
    outer loop
      vertex 6.125 -22.4845 0
      vertex 6.375 -22.2345 0
      vertex 6.23066 -22.4845 0
    endloop
  endfacet
  facet normal 0 0 -1
    outer loop
      vertex 5.875 -22.7345 0
      vertex 10 -15 0
      vertex 6.125 -22.4845 0
    endloop
  endfacet
  facet normal 0 0 -1
    outer loop
      vertex 5.875 -22.7345 0
      vertex 6.125 -22.4845 0
      vertex 5.98066 -22.7345 0
    endloop
  endfacet
  facet normal 0 0 -1
    outer loop
      vertex 5.625 -22.9845 0
      vertex 10 -15 0
      vertex 5.875 -22.7345 0
    endloop
  endfacet
  facet normal 0 0 -1
    outer loop
      vertex 5.625 -22.9845 0
      vertex 5.875 -22.7345 0
      vertex 5.73066 -22.9845 0
    endloop
  endfacet
  facet normal 0 0 -1
    outer loop
      vertex 5.375 -23.2345 0
      vertex 10 -15 0
      vertex 5.625 -22.9845 0
    endloop
  endfacet
  facet normal 0 0 -1
    outer loop
      vertex 5.375 -23.2345 0
      vertex 5.625 -22.9845 0
      vertex 5.48066 -23.2345 0
    endloop
  endfacet
  facet normal 0 0 -1
    outer loop
      vertex 5.125 -23.4845 0
      vertex 10 -15 0
      vertex 5.375 -23.2345 0
    endloop
  endfacet
  facet normal 0 0 -1
    outer loop
      vertex 5.125 -23.4845 0
      vertex 5.375 -23.2345 0
      vertex 5.23066 -23.4845 0
    endloop
  endfacet
  facet normal -0 0 -1
    outer loop
      vertex 10 -15 0
      vertex 5.125 -23.4845 0
      vertex 5.125 23.4845 0
    endloop
  endfacet
  facet normal 0 0 -1
    outer loop
      vertex 10 15 0
      vertex 5.125 23.4845 0
      vertex 6.875 23.4845 0
    endloop
  endfacet
  facet normal 0 0 -1
    outer loop
      vertex 4.25 -25 0
      vertex 5.125 23.4845 0
      vertex 5.125 -23.4845 0
    endloop
  endfacet
  facet normal -0 0 -1
    outer loop
      vertex 5.125 23.4845 0
      vertex 4.25 -25 0
      vertex 4.25 25 0
    endloop
  endfacet
  facet normal 0 0 -1
    outer loop
      vertex 10 15 0
      vertex 15 18 0
      vertex 12 15 0
    endloop
  endfacet
  facet normal 0 -0 -1
    outer loop
      vertex 10.875 27.4845 0
      vertex 15 18 0
      vertex 10.625 27.2345 0
    endloop
  endfacet
  facet normal -0 0 -1
    outer loop
      vertex 15 29.5 0
      vertex 11.75 29 0
      vertex 12 32.5 0
    endloop
  endfacet
  facet normal 0 0 -1
    outer loop
      vertex 15 29.5 0
      vertex 10.875 27.4845 0
      vertex 11.75 29 0
    endloop
  endfacet
  facet normal 0 0 -1
    outer loop
      vertex 15 18 0
      vertex 10.875 27.4845 0
      vertex 15 29.5 0
    endloop
  endfacet
  facet normal -0 0 -1
    outer loop
      vertex 10.875 27.4845 0
      vertex 10.625 27.2345 0
      vertex 10.7693 27.4845 0
    endloop
  endfacet
  facet normal 0 0 -1
    outer loop
      vertex 15 18 0
      vertex 10.375 26.9845 0
      vertex 10.625 27.2345 0
    endloop
  endfacet
  facet normal -0 0 -1
    outer loop
      vertex 10.625 27.2345 0
      vertex 10.375 26.9845 0
      vertex 10.5193 27.2345 0
    endloop
  endfacet
  facet normal 0 0 -1
    outer loop
      vertex 15 18 0
      vertex 10.125 26.7345 0
      vertex 10.375 26.9845 0
    endloop
  endfacet
  facet normal -0 0 -1
    outer loop
      vertex 10.375 26.9845 0
      vertex 10.125 26.7345 0
      vertex 10.2693 26.9845 0
    endloop
  endfacet
  facet normal 0 0 -1
    outer loop
      vertex 15 18 0
      vertex 9.875 26.4845 0
      vertex 10.125 26.7345 0
    endloop
  endfacet
  facet normal -0 0 -1
    outer loop
      vertex 15 18 0
      vertex 10 15 0
      vertex 9.875 26.4845 0
    endloop
  endfacet
  facet normal -0 0 -1
    outer loop
      vertex 10.125 26.7345 0
      vertex 9.875 26.4845 0
      vertex 10.0193 26.7345 0
    endloop
  endfacet
  facet normal 0 0 -1
    outer loop
      vertex 10.875 30.5155 0
      vertex 12 32.5 0
      vertex 11.75 29 0
    endloop
  endfacet
  facet normal 0 0 -1
    outer loop
      vertex 9.125 30.5155 0
      vertex 12 32.5 0
      vertex 10.875 30.5155 0
    endloop
  endfacet
  facet normal 0 0 -1
    outer loop
      vertex 8.875 30.2655 0
      vertex 9.125 30.5155 0
      vertex 8.98066 30.2655 0
    endloop
  endfacet
  facet normal 0 0 -1
    outer loop
      vertex 8.625 30.0155 0
      vertex 8.875 30.2655 0
      vertex 8.73066 30.0155 0
    endloop
  endfacet
  facet normal 0 0 -1
    outer loop
      vertex 3 32.5 0
      vertex 8.875 30.2655 0
      vertex 8.625 30.0155 0
    endloop
  endfacet
  facet normal 0 0 -1
    outer loop
      vertex 8.375 29.7655 0
      vertex 8.625 30.0155 0
      vertex 8.48066 29.7655 0
    endloop
  endfacet
  facet normal 0 0 -1
    outer loop
      vertex 3 32.5 0
      vertex 8.625 30.0155 0
      vertex 8.375 29.7655 0
    endloop
  endfacet
  facet normal 0 0 -1
    outer loop
      vertex 8.125 29.5155 0
      vertex 8.375 29.7655 0
      vertex 8.23066 29.5155 0
    endloop
  endfacet
  facet normal 0 0 -1
    outer loop
      vertex 3 32.5 0
      vertex 8.375 29.7655 0
      vertex 8.125 29.5155 0
    endloop
  endfacet
  facet normal 0 0 -1
    outer loop
      vertex 7.875 29.2655 0
      vertex 8.125 29.5155 0
      vertex 7.98066 29.2655 0
    endloop
  endfacet
  facet normal 0 0 -1
    outer loop
      vertex 3 32.5 0
      vertex 8.125 29.5155 0
      vertex 7.875 29.2655 0
    endloop
  endfacet
  facet normal 0 0 -1
    outer loop
      vertex 7.625 29.0155 0
      vertex 7.875 29.2655 0
      vertex 7.73066 29.0155 0
    endloop
  endfacet
  facet normal 0 0 -1
    outer loop
      vertex 3 32.5 0
      vertex 7.875 29.2655 0
      vertex 7.625 29.0155 0
    endloop
  endfacet
  facet normal 0 0 -1
    outer loop
      vertex 7.375 28.7655 0
      vertex 7.625 29.0155 0
      vertex 7.48066 28.7655 0
    endloop
  endfacet
  facet normal 0 0 -1
    outer loop
      vertex 3 32.5 0
      vertex 7.625 29.0155 0
      vertex 7.375 28.7655 0
    endloop
  endfacet
  facet normal 0 0 -1
    outer loop
      vertex 7.125 28.5155 0
      vertex 7.375 28.7655 0
      vertex 7.23066 28.5155 0
    endloop
  endfacet
  facet normal 0 0 -1
    outer loop
      vertex 3 32.5 0
      vertex 7.375 28.7655 0
      vertex 7.125 28.5155 0
    endloop
  endfacet
  facet normal 0 0 -1
    outer loop
      vertex 6.875 28.2655 0
      vertex 7.125 28.5155 0
      vertex 6.98066 28.2655 0
    endloop
  endfacet
  facet normal 0 0 -1
    outer loop
      vertex 3 32.5 0
      vertex 7.125 28.5155 0
      vertex 6.875 28.2655 0
    endloop
  endfacet
  facet normal 0 0 -1
    outer loop
      vertex 6.625 28.0155 0
      vertex 6.875 28.2655 0
      vertex 6.73066 28.0155 0
    endloop
  endfacet
  facet normal 0 0 -1
    outer loop
      vertex 3 32.5 0
      vertex 6.875 28.2655 0
      vertex 6.625 28.0155 0
    endloop
  endfacet
  facet normal 0 0 -1
    outer loop
      vertex 6.375 27.7655 0
      vertex 6.625 28.0155 0
      vertex 6.48066 27.7655 0
    endloop
  endfacet
  facet normal 0 0 -1
    outer loop
      vertex 3 32.5 0
      vertex 6.625 28.0155 0
      vertex 6.375 27.7655 0
    endloop
  endfacet
  facet normal 0 0 -1
    outer loop
      vertex 6.125 27.5155 0
      vertex 6.375 27.7655 0
      vertex 6.23066 27.5155 0
    endloop
  endfacet
  facet normal 0 0 -1
    outer loop
      vertex 3 32.5 0
      vertex 6.375 27.7655 0
      vertex 6.125 27.5155 0
    endloop
  endfacet
  facet normal 0 0 -1
    outer loop
      vertex 5.875 27.2655 0
      vertex 6.125 27.5155 0
      vertex 5.98066 27.2655 0
    endloop
  endfacet
  facet normal 0 0 -1
    outer loop
      vertex 3 32.5 0
      vertex 6.125 27.5155 0
      vertex 5.875 27.2655 0
    endloop
  endfacet
  facet normal 0 0 -1
    outer loop
      vertex 5.625 27.0155 0
      vertex 5.875 27.2655 0
      vertex 5.73066 27.0155 0
    endloop
  endfacet
  facet normal 0 0 -1
    outer loop
      vertex 3 32.5 0
      vertex 5.875 27.2655 0
      vertex 5.625 27.0155 0
    endloop
  endfacet
  facet normal 0 0 -1
    outer loop
      vertex 5.375 26.7655 0
      vertex 5.625 27.0155 0
      vertex 5.48066 26.7655 0
    endloop
  endfacet
  facet normal 0 0 -1
    outer loop
      vertex 0 29.5 0
      vertex 5.625 27.0155 0
      vertex 5.375 26.7655 0
    endloop
  endfacet
  facet normal 0 0 -1
    outer loop
      vertex 5.125 26.5155 0
      vertex 5.375 26.7655 0
      vertex 5.23066 26.5155 0
    endloop
  endfacet
  facet normal 0 0 -1
    outer loop
      vertex 0 29.5 0
      vertex 5.375 26.7655 0
      vertex 5.125 26.5155 0
    endloop
  endfacet
  facet normal 0 0 -1
    outer loop
      vertex 9.125 30.5155 0
      vertex 3 32.5 0
      vertex 12 32.5 0
    endloop
  endfacet
  facet normal 0 0 -1
    outer loop
      vertex 8.875 30.2655 0
      vertex 3 32.5 0
      vertex 9.125 30.5155 0
    endloop
  endfacet
  facet normal 0 0 -1
    outer loop
      vertex 0 29.5 0
      vertex 5.125 26.5155 0
      vertex 4.25 25 0
    endloop
  endfacet
  facet normal -0 0 -1
    outer loop
      vertex 4.25 -25 0
      vertex 0 -29.5 0
      vertex 4.25 25 0
    endloop
  endfacet
  facet normal 0 0 -1
    outer loop
      vertex 0 29.5 0
      vertex 4.25 25 0
      vertex 0 -29.5 0
    endloop
  endfacet
  facet normal 0 0 -1
    outer loop
      vertex 5.625 27.0155 0
      vertex 0 29.5 0
      vertex 3 32.5 0
    endloop
  endfacet
  facet normal -1 0 0
    outer loop
      vertex 0 29.5 0
      vertex 0 20 3
      vertex 0 29.5 3
    endloop
  endfacet
  facet normal -1 0 0
    outer loop
      vertex 0 20 3
      vertex 0 -20 3
      vertex 0 20 7
    endloop
  endfacet
  facet normal -1 0 0
    outer loop
      vertex 0 29.5 0
      vertex 0 -20 3
      vertex 0 20 3
    endloop
  endfacet
  facet normal -1 0 0
    outer loop
      vertex 0 -29.5 0
      vertex 0 -20 3
      vertex 0 29.5 0
    endloop
  endfacet
  facet normal -1 -0 0
    outer loop
      vertex 0 -20 3
      vertex 0 -29.5 0
      vertex 0 -29.5 3
    endloop
  endfacet
  facet normal -1 -0 0
    outer loop
      vertex 0 20 7
      vertex 0 -20 3
      vertex 0 -20 7
    endloop
  endfacet
  facet normal 0 1 -0
    outer loop
      vertex 12 32.5 0
      vertex 3 32.5 3
      vertex 12 32.5 3
    endloop
  endfacet
  facet normal 0 1 0
    outer loop
      vertex 3 32.5 3
      vertex 12 32.5 0
      vertex 3 32.5 0
    endloop
  endfacet
  facet normal 0 -1 0
    outer loop
      vertex 3 -32.5 0
      vertex 12 -32.5 3
      vertex 3 -32.5 3
    endloop
  endfacet
  facet normal 0 -1 -0
    outer loop
      vertex 12 -32.5 3
      vertex 3 -32.5 0
      vertex 12 -32.5 0
    endloop
  endfacet
  facet normal 1 -0 0
    outer loop
      vertex 4 -20 7
      vertex 4 20 3
      vertex 4 20 7
    endloop
  endfacet
  facet normal 1 0 0
    outer loop
      vertex 4 20 3
      vertex 4 -20 7
      vertex 4 -20 3
    endloop
  endfacet
  facet normal -0 0 1
    outer loop
      vertex 0 20 7
      vertex 4 -20 7
      vertex 4 20 7
    endloop
  endfacet
  facet normal 0 0 1
    outer loop
      vertex 4 -20 7
      vertex 0 20 7
      vertex 0 -20 7
    endloop
  endfacet
  facet normal 0 1 -0
    outer loop
      vertex 4 20 3
      vertex 0 20 7
      vertex 4 20 7
    endloop
  endfacet
  facet normal 0 1 0
    outer loop
      vertex 0 20 7
      vertex 4 20 3
      vertex 0 20 3
    endloop
  endfacet
  facet normal 0 -1 0
    outer loop
      vertex 0 -20 3
      vertex 4 -20 7
      vertex 0 -20 7
    endloop
  endfacet
  facet normal 0 -1 -0
    outer loop
      vertex 4 -20 7
      vertex 0 -20 3
      vertex 4 -20 3
    endloop
  endfacet
  facet normal 0 -1 0
    outer loop
      vertex 5.125 26.5155 0
      vertex 5.23066 26.5155 3
      vertex 5.125 26.5155 3
    endloop
  endfacet
  facet normal 0 -1 -0
    outer loop
      vertex 5.23066 26.5155 3
      vertex 5.125 26.5155 0
      vertex 5.23066 26.5155 0
    endloop
  endfacet
  facet normal 0.866019 -0.500011 0
    outer loop
      vertex 4.25 25 3
      vertex 5.125 26.5155 0
      vertex 5.125 26.5155 3
    endloop
  endfacet
  facet normal 0.866019 -0.500011 0
    outer loop
      vertex 5.125 26.5155 0
      vertex 4.25 25 3
      vertex 4.25 25 0
    endloop
  endfacet
  facet normal 0.866019 0.500011 0
    outer loop
      vertex 5.125 23.4845 3
      vertex 4.25 25 0
      vertex 4.25 25 3
    endloop
  endfacet
  facet normal 0.866019 0.500011 0
    outer loop
      vertex 4.25 25 0
      vertex 5.125 23.4845 3
      vertex 5.125 23.4845 0
    endloop
  endfacet
  facet normal 0 1 -0
    outer loop
      vertex 6.875 23.4845 0
      vertex 5.125 23.4845 3
      vertex 6.875 23.4845 3
    endloop
  endfacet
  facet normal 0 1 0
    outer loop
      vertex 5.125 23.4845 3
      vertex 6.875 23.4845 0
      vertex 5.125 23.4845 0
    endloop
  endfacet
  facet normal -0.866022 0.500006 0
    outer loop
      vertex 6.875 23.4845 0
      vertex 7.01934 23.7345 3
      vertex 7.01934 23.7345 0
    endloop
  endfacet
  facet normal -0.866022 0.500006 0
    outer loop
      vertex 7.01934 23.7345 3
      vertex 6.875 23.4845 0
      vertex 6.875 23.4845 3
    endloop
  endfacet
  facet normal 0 1 -0
    outer loop
      vertex 6.875 -26.5155 0
      vertex 5.125 -26.5155 3
      vertex 6.875 -26.5155 3
    endloop
  endfacet
  facet normal 0 1 0
    outer loop
      vertex 5.125 -26.5155 3
      vertex 6.875 -26.5155 0
      vertex 5.125 -26.5155 0
    endloop
  endfacet
  facet normal -0.866022 0.500006 0
    outer loop
      vertex 6.875 -26.5155 0
      vertex 7.01934 -26.2655 3
      vertex 7.01934 -26.2655 0
    endloop
  endfacet
  facet normal -0.866022 0.500006 0
    outer loop
      vertex 7.01934 -26.2655 3
      vertex 6.875 -26.5155 0
      vertex 6.875 -26.5155 3
    endloop
  endfacet
  facet normal 0 -1 0
    outer loop
      vertex 5.125 -23.4845 0
      vertex 5.23066 -23.4845 3
      vertex 5.125 -23.4845 3
    endloop
  endfacet
  facet normal 0 -1 -0
    outer loop
      vertex 5.23066 -23.4845 3
      vertex 5.125 -23.4845 0
      vertex 5.23066 -23.4845 0
    endloop
  endfacet
  facet normal 0.866019 -0.500011 0
    outer loop
      vertex 4.25 -25 3
      vertex 5.125 -23.4845 0
      vertex 5.125 -23.4845 3
    endloop
  endfacet
  facet normal 0.866019 -0.500011 0
    outer loop
      vertex 5.125 -23.4845 0
      vertex 4.25 -25 3
      vertex 4.25 -25 0
    endloop
  endfacet
  facet normal 0.866019 0.500011 0
    outer loop
      vertex 5.125 -26.5155 3
      vertex 4.25 -25 0
      vertex 4.25 -25 3
    endloop
  endfacet
  facet normal 0.866019 0.500011 0
    outer loop
      vertex 4.25 -25 0
      vertex 5.125 -26.5155 3
      vertex 5.125 -26.5155 0
    endloop
  endfacet
  facet normal 0 -1 0
    outer loop
      vertex 5.375 26.7655 0
      vertex 5.48066 26.7655 3
      vertex 5.375 26.7655 3
    endloop
  endfacet
  facet normal 0 -1 -0
    outer loop
      vertex 5.48066 26.7655 3
      vertex 5.375 26.7655 0
      vertex 5.48066 26.7655 0
    endloop
  endfacet
  facet normal 0.866022 -0.500006 0
    outer loop
      vertex 5.23066 26.5155 3
      vertex 5.375 26.7655 0
      vertex 5.375 26.7655 3
    endloop
  endfacet
  facet normal 0.866022 -0.500006 0
    outer loop
      vertex 5.375 26.7655 0
      vertex 5.23066 26.5155 3
      vertex 5.23066 26.5155 0
    endloop
  endfacet
  facet normal 0 1 -0
    outer loop
      vertex 7.125 23.7345 0
      vertex 7.01934 23.7345 3
      vertex 7.125 23.7345 3
    endloop
  endfacet
  facet normal 0 1 0
    outer loop
      vertex 7.01934 23.7345 3
      vertex 7.125 23.7345 0
      vertex 7.01934 23.7345 0
    endloop
  endfacet
  facet normal -0.866022 0.500006 0
    outer loop
      vertex 7.125 23.7345 0
      vertex 7.26934 23.9845 3
      vertex 7.26934 23.9845 0
    endloop
  endfacet
  facet normal -0.866022 0.500006 0
    outer loop
      vertex 7.26934 23.9845 3
      vertex 7.125 23.7345 0
      vertex 7.125 23.7345 3
    endloop
  endfacet
  facet normal 0 1 -0
    outer loop
      vertex 7.125 -26.2655 0
      vertex 7.01934 -26.2655 3
      vertex 7.125 -26.2655 3
    endloop
  endfacet
  facet normal 0 1 0
    outer loop
      vertex 7.01934 -26.2655 3
      vertex 7.125 -26.2655 0
      vertex 7.01934 -26.2655 0
    endloop
  endfacet
  facet normal -0.866022 0.500006 0
    outer loop
      vertex 7.125 -26.2655 0
      vertex 7.26934 -26.0155 3
      vertex 7.26934 -26.0155 0
    endloop
  endfacet
  facet normal -0.866022 0.500006 0
    outer loop
      vertex 7.26934 -26.0155 3
      vertex 7.125 -26.2655 0
      vertex 7.125 -26.2655 3
    endloop
  endfacet
  facet normal 0 -1 0
    outer loop
      vertex 5.375 -23.2345 0
      vertex 5.48066 -23.2345 3
      vertex 5.375 -23.2345 3
    endloop
  endfacet
  facet normal 0 -1 -0
    outer loop
      vertex 5.48066 -23.2345 3
      vertex 5.375 -23.2345 0
      vertex 5.48066 -23.2345 0
    endloop
  endfacet
  facet normal 0.866022 -0.500006 0
    outer loop
      vertex 5.23066 -23.4845 3
      vertex 5.375 -23.2345 0
      vertex 5.375 -23.2345 3
    endloop
  endfacet
  facet normal 0.866022 -0.500006 0
    outer loop
      vertex 5.375 -23.2345 0
      vertex 5.23066 -23.4845 3
      vertex 5.23066 -23.4845 0
    endloop
  endfacet
  facet normal 0 -1 0
    outer loop
      vertex 5.625 27.0155 0
      vertex 5.73066 27.0155 3
      vertex 5.625 27.0155 3
    endloop
  endfacet
  facet normal 0 -1 -0
    outer loop
      vertex 5.73066 27.0155 3
      vertex 5.625 27.0155 0
      vertex 5.73066 27.0155 0
    endloop
  endfacet
  facet normal 0.866022 -0.500006 0
    outer loop
      vertex 5.48066 26.7655 3
      vertex 5.625 27.0155 0
      vertex 5.625 27.0155 3
    endloop
  endfacet
  facet normal 0.866022 -0.500006 0
    outer loop
      vertex 5.625 27.0155 0
      vertex 5.48066 26.7655 3
      vertex 5.48066 26.7655 0
    endloop
  endfacet
  facet normal 0 1 -0
    outer loop
      vertex 7.375 23.9845 0
      vertex 7.26934 23.9845 3
      vertex 7.375 23.9845 3
    endloop
  endfacet
  facet normal 0 1 0
    outer loop
      vertex 7.26934 23.9845 3
      vertex 7.375 23.9845 0
      vertex 7.26934 23.9845 0
    endloop
  endfacet
  facet normal -0.866022 0.500006 0
    outer loop
      vertex 7.375 23.9845 0
      vertex 7.51934 24.2345 3
      vertex 7.51934 24.2345 0
    endloop
  endfacet
  facet normal -0.866022 0.500006 0
    outer loop
      vertex 7.51934 24.2345 3
      vertex 7.375 23.9845 0
      vertex 7.375 23.9845 3
    endloop
  endfacet
  facet normal 0 1 -0
    outer loop
      vertex 7.375 -26.0155 0
      vertex 7.26934 -26.0155 3
      vertex 7.375 -26.0155 3
    endloop
  endfacet
  facet normal 0 1 0
    outer loop
      vertex 7.26934 -26.0155 3
      vertex 7.375 -26.0155 0
      vertex 7.26934 -26.0155 0
    endloop
  endfacet
  facet normal -0.866022 0.500006 0
    outer loop
      vertex 7.375 -26.0155 0
      vertex 7.51934 -25.7655 3
      vertex 7.51934 -25.7655 0
    endloop
  endfacet
  facet normal -0.866022 0.500006 0
    outer loop
      vertex 7.51934 -25.7655 3
      vertex 7.375 -26.0155 0
      vertex 7.375 -26.0155 3
    endloop
  endfacet
  facet normal 0 -1 0
    outer loop
      vertex 5.625 -22.9845 0
      vertex 5.73066 -22.9845 3
      vertex 5.625 -22.9845 3
    endloop
  endfacet
  facet normal 0 -1 -0
    outer loop
      vertex 5.73066 -22.9845 3
      vertex 5.625 -22.9845 0
      vertex 5.73066 -22.9845 0
    endloop
  endfacet
  facet normal 0.866022 -0.500006 0
    outer loop
      vertex 5.48066 -23.2345 3
      vertex 5.625 -22.9845 0
      vertex 5.625 -22.9845 3
    endloop
  endfacet
  facet normal 0.866022 -0.500006 0
    outer loop
      vertex 5.625 -22.9845 0
      vertex 5.48066 -23.2345 3
      vertex 5.48066 -23.2345 0
    endloop
  endfacet
  facet normal 0 -1 0
    outer loop
      vertex 5.875 27.2655 0
      vertex 5.98066 27.2655 3
      vertex 5.875 27.2655 3
    endloop
  endfacet
  facet normal 0 -1 -0
    outer loop
      vertex 5.98066 27.2655 3
      vertex 5.875 27.2655 0
      vertex 5.98066 27.2655 0
    endloop
  endfacet
  facet normal 0.866022 -0.500006 0
    outer loop
      vertex 5.73066 27.0155 3
      vertex 5.875 27.2655 0
      vertex 5.875 27.2655 3
    endloop
  endfacet
  facet normal 0.866022 -0.500006 0
    outer loop
      vertex 5.875 27.2655 0
      vertex 5.73066 27.0155 3
      vertex 5.73066 27.0155 0
    endloop
  endfacet
  facet normal 0 1 -0
    outer loop
      vertex 7.625 24.2345 0
      vertex 7.51934 24.2345 3
      vertex 7.625 24.2345 3
    endloop
  endfacet
  facet normal 0 1 0
    outer loop
      vertex 7.51934 24.2345 3
      vertex 7.625 24.2345 0
      vertex 7.51934 24.2345 0
    endloop
  endfacet
  facet normal -0.866022 0.500006 0
    outer loop
      vertex 7.625 24.2345 0
      vertex 7.76934 24.4845 3
      vertex 7.76934 24.4845 0
    endloop
  endfacet
  facet normal -0.866022 0.500006 0
    outer loop
      vertex 7.76934 24.4845 3
      vertex 7.625 24.2345 0
      vertex 7.625 24.2345 3
    endloop
  endfacet
  facet normal 0 1 -0
    outer loop
      vertex 7.625 -25.7655 0
      vertex 7.51934 -25.7655 3
      vertex 7.625 -25.7655 3
    endloop
  endfacet
  facet normal 0 1 0
    outer loop
      vertex 7.51934 -25.7655 3
      vertex 7.625 -25.7655 0
      vertex 7.51934 -25.7655 0
    endloop
  endfacet
  facet normal -0.866022 0.500006 0
    outer loop
      vertex 7.625 -25.7655 0
      vertex 7.76934 -25.5155 3
      vertex 7.76934 -25.5155 0
    endloop
  endfacet
  facet normal -0.866022 0.500006 0
    outer loop
      vertex 7.76934 -25.5155 3
      vertex 7.625 -25.7655 0
      vertex 7.625 -25.7655 3
    endloop
  endfacet
  facet normal 0 -1 0
    outer loop
      vertex 5.875 -22.7345 0
      vertex 5.98066 -22.7345 3
      vertex 5.875 -22.7345 3
    endloop
  endfacet
  facet normal 0 -1 -0
    outer loop
      vertex 5.98066 -22.7345 3
      vertex 5.875 -22.7345 0
      vertex 5.98066 -22.7345 0
    endloop
  endfacet
  facet normal 0.866022 -0.500006 0
    outer loop
      vertex 5.73066 -22.9845 3
      vertex 5.875 -22.7345 0
      vertex 5.875 -22.7345 3
    endloop
  endfacet
  facet normal 0.866022 -0.500006 0
    outer loop
      vertex 5.875 -22.7345 0
      vertex 5.73066 -22.9845 3
      vertex 5.73066 -22.9845 0
    endloop
  endfacet
  facet normal 0 -1 0
    outer loop
      vertex 6.125 27.5155 0
      vertex 6.23066 27.5155 3
      vertex 6.125 27.5155 3
    endloop
  endfacet
  facet normal 0 -1 -0
    outer loop
      vertex 6.23066 27.5155 3
      vertex 6.125 27.5155 0
      vertex 6.23066 27.5155 0
    endloop
  endfacet
  facet normal 0.866022 -0.500006 0
    outer loop
      vertex 5.98066 27.2655 3
      vertex 6.125 27.5155 0
      vertex 6.125 27.5155 3
    endloop
  endfacet
  facet normal 0.866022 -0.500006 0
    outer loop
      vertex 6.125 27.5155 0
      vertex 5.98066 27.2655 3
      vertex 5.98066 27.2655 0
    endloop
  endfacet
  facet normal 0 1 -0
    outer loop
      vertex 7.875 24.4845 0
      vertex 7.76934 24.4845 3
      vertex 7.875 24.4845 3
    endloop
  endfacet
  facet normal 0 1 0
    outer loop
      vertex 7.76934 24.4845 3
      vertex 7.875 24.4845 0
      vertex 7.76934 24.4845 0
    endloop
  endfacet
  facet normal -0.866022 0.500006 0
    outer loop
      vertex 7.875 24.4845 0
      vertex 8.01934 24.7345 3
      vertex 8.01934 24.7345 0
    endloop
  endfacet
  facet normal -0.866022 0.500006 0
    outer loop
      vertex 8.01934 24.7345 3
      vertex 7.875 24.4845 0
      vertex 7.875 24.4845 3
    endloop
  endfacet
  facet normal 0 1 -0
    outer loop
      vertex 7.875 -25.5155 0
      vertex 7.76934 -25.5155 3
      vertex 7.875 -25.5155 3
    endloop
  endfacet
  facet normal 0 1 0
    outer loop
      vertex 7.76934 -25.5155 3
      vertex 7.875 -25.5155 0
      vertex 7.76934 -25.5155 0
    endloop
  endfacet
  facet normal -0.866022 0.500006 0
    outer loop
      vertex 7.875 -25.5155 0
      vertex 8.01934 -25.2655 3
      vertex 8.01934 -25.2655 0
    endloop
  endfacet
  facet normal -0.866022 0.500006 0
    outer loop
      vertex 8.01934 -25.2655 3
      vertex 7.875 -25.5155 0
      vertex 7.875 -25.5155 3
    endloop
  endfacet
  facet normal 0 -1 0
    outer loop
      vertex 6.125 -22.4845 0
      vertex 6.23066 -22.4845 3
      vertex 6.125 -22.4845 3
    endloop
  endfacet
  facet normal 0 -1 -0
    outer loop
      vertex 6.23066 -22.4845 3
      vertex 6.125 -22.4845 0
      vertex 6.23066 -22.4845 0
    endloop
  endfacet
  facet normal 0.866022 -0.500006 0
    outer loop
      vertex 5.98066 -22.7345 3
      vertex 6.125 -22.4845 0
      vertex 6.125 -22.4845 3
    endloop
  endfacet
  facet normal 0.866022 -0.500006 0
    outer loop
      vertex 6.125 -22.4845 0
      vertex 5.98066 -22.7345 3
      vertex 5.98066 -22.7345 0
    endloop
  endfacet
  facet normal 0 -1 0
    outer loop
      vertex 6.375 27.7655 0
      vertex 6.48066 27.7655 3
      vertex 6.375 27.7655 3
    endloop
  endfacet
  facet normal 0 -1 -0
    outer loop
      vertex 6.48066 27.7655 3
      vertex 6.375 27.7655 0
      vertex 6.48066 27.7655 0
    endloop
  endfacet
  facet normal 0.866022 -0.500006 0
    outer loop
      vertex 6.23066 27.5155 3
      vertex 6.375 27.7655 0
      vertex 6.375 27.7655 3
    endloop
  endfacet
  facet normal 0.866022 -0.500006 0
    outer loop
      vertex 6.375 27.7655 0
      vertex 6.23066 27.5155 3
      vertex 6.23066 27.5155 0
    endloop
  endfacet
  facet normal 0 1 -0
    outer loop
      vertex 8.125 24.7345 0
      vertex 8.01934 24.7345 3
      vertex 8.125 24.7345 3
    endloop
  endfacet
  facet normal 0 1 0
    outer loop
      vertex 8.01934 24.7345 3
      vertex 8.125 24.7345 0
      vertex 8.01934 24.7345 0
    endloop
  endfacet
  facet normal -0.866022 0.500006 0
    outer loop
      vertex 8.125 24.7345 0
      vertex 8.26934 24.9845 3
      vertex 8.26934 24.9845 0
    endloop
  endfacet
  facet normal -0.866022 0.500006 0
    outer loop
      vertex 8.26934 24.9845 3
      vertex 8.125 24.7345 0
      vertex 8.125 24.7345 3
    endloop
  endfacet
  facet normal 0 1 -0
    outer loop
      vertex 8.125 -25.2655 0
      vertex 8.01934 -25.2655 3
      vertex 8.125 -25.2655 3
    endloop
  endfacet
  facet normal 0 1 0
    outer loop
      vertex 8.01934 -25.2655 3
      vertex 8.125 -25.2655 0
      vertex 8.01934 -25.2655 0
    endloop
  endfacet
  facet normal -0.866022 0.500006 0
    outer loop
      vertex 8.125 -25.2655 0
      vertex 8.26934 -25.0155 3
      vertex 8.26934 -25.0155 0
    endloop
  endfacet
  facet normal -0.866022 0.500006 0
    outer loop
      vertex 8.26934 -25.0155 3
      vertex 8.125 -25.2655 0
      vertex 8.125 -25.2655 3
    endloop
  endfacet
  facet normal 0 -1 0
    outer loop
      vertex 6.375 -22.2345 0
      vertex 6.48066 -22.2345 3
      vertex 6.375 -22.2345 3
    endloop
  endfacet
  facet normal 0 -1 -0
    outer loop
      vertex 6.48066 -22.2345 3
      vertex 6.375 -22.2345 0
      vertex 6.48066 -22.2345 0
    endloop
  endfacet
  facet normal 0.866022 -0.500006 0
    outer loop
      vertex 6.23066 -22.4845 3
      vertex 6.375 -22.2345 0
      vertex 6.375 -22.2345 3
    endloop
  endfacet
  facet normal 0.866022 -0.500006 0
    outer loop
      vertex 6.375 -22.2345 0
      vertex 6.23066 -22.4845 3
      vertex 6.23066 -22.4845 0
    endloop
  endfacet
  facet normal 0 1 -0
    outer loop
      vertex 8.375 24.9845 0
      vertex 8.26934 24.9845 3
      vertex 8.375 24.9845 3
    endloop
  endfacet
  facet normal 0 1 0
    outer loop
      vertex 8.26934 24.9845 3
      vertex 8.375 24.9845 0
      vertex 8.26934 24.9845 0
    endloop
  endfacet
  facet normal 0 -1 0
    outer loop
      vertex 6.625 28.0155 0
      vertex 6.73066 28.0155 3
      vertex 6.625 28.0155 3
    endloop
  endfacet
  facet normal 0 -1 -0
    outer loop
      vertex 6.73066 28.0155 3
      vertex 6.625 28.0155 0
      vertex 6.73066 28.0155 0
    endloop
  endfacet
  facet normal 0.866022 -0.500006 0
    outer loop
      vertex 6.48066 27.7655 3
      vertex 6.625 28.0155 0
      vertex 6.625 28.0155 3
    endloop
  endfacet
  facet normal 0.866022 -0.500006 0
    outer loop
      vertex 6.625 28.0155 0
      vertex 6.48066 27.7655 3
      vertex 6.48066 27.7655 0
    endloop
  endfacet
  facet normal -0.866022 0.500006 0
    outer loop
      vertex 8.375 24.9845 0
      vertex 8.51934 25.2345 3
      vertex 8.51934 25.2345 0
    endloop
  endfacet
  facet normal -0.866022 0.500006 0
    outer loop
      vertex 8.51934 25.2345 3
      vertex 8.375 24.9845 0
      vertex 8.375 24.9845 3
    endloop
  endfacet
  facet normal 0 1 -0
    outer loop
      vertex 8.375 -25.0155 0
      vertex 8.26934 -25.0155 3
      vertex 8.375 -25.0155 3
    endloop
  endfacet
  facet normal 0 1 0
    outer loop
      vertex 8.26934 -25.0155 3
      vertex 8.375 -25.0155 0
      vertex 8.26934 -25.0155 0
    endloop
  endfacet
  facet normal -0.866022 0.500006 0
    outer loop
      vertex 8.375 -25.0155 0
      vertex 8.51934 -24.7655 3
      vertex 8.51934 -24.7655 0
    endloop
  endfacet
  facet normal -0.866022 0.500006 0
    outer loop
      vertex 8.51934 -24.7655 3
      vertex 8.375 -25.0155 0
      vertex 8.375 -25.0155 3
    endloop
  endfacet
  facet normal 0 -1 0
    outer loop
      vertex 6.625 -21.9845 0
      vertex 6.73066 -21.9845 3
      vertex 6.625 -21.9845 3
    endloop
  endfacet
  facet normal 0 -1 -0
    outer loop
      vertex 6.73066 -21.9845 3
      vertex 6.625 -21.9845 0
      vertex 6.73066 -21.9845 0
    endloop
  endfacet
  facet normal 0.866022 -0.500006 0
    outer loop
      vertex 6.48066 -22.2345 3
      vertex 6.625 -21.9845 0
      vertex 6.625 -21.9845 3
    endloop
  endfacet
  facet normal 0.866022 -0.500006 0
    outer loop
      vertex 6.625 -21.9845 0
      vertex 6.48066 -22.2345 3
      vertex 6.48066 -22.2345 0
    endloop
  endfacet
  facet normal 0 -1 0
    outer loop
      vertex 6.875 28.2655 0
      vertex 6.98066 28.2655 3
      vertex 6.875 28.2655 3
    endloop
  endfacet
  facet normal 0 -1 -0
    outer loop
      vertex 6.98066 28.2655 3
      vertex 6.875 28.2655 0
      vertex 6.98066 28.2655 0
    endloop
  endfacet
  facet normal 0.866022 -0.500006 0
    outer loop
      vertex 6.73066 28.0155 3
      vertex 6.875 28.2655 0
      vertex 6.875 28.2655 3
    endloop
  endfacet
  facet normal 0.866022 -0.500006 0
    outer loop
      vertex 6.875 28.2655 0
      vertex 6.73066 28.0155 3
      vertex 6.73066 28.0155 0
    endloop
  endfacet
  facet normal 0 1 -0
    outer loop
      vertex 8.625 25.2345 0
      vertex 8.51934 25.2345 3
      vertex 8.625 25.2345 3
    endloop
  endfacet
  facet normal 0 1 0
    outer loop
      vertex 8.51934 25.2345 3
      vertex 8.625 25.2345 0
      vertex 8.51934 25.2345 0
    endloop
  endfacet
  facet normal -0.866022 0.500006 0
    outer loop
      vertex 8.625 25.2345 0
      vertex 8.76934 25.4845 3
      vertex 8.76934 25.4845 0
    endloop
  endfacet
  facet normal -0.866022 0.500006 0
    outer loop
      vertex 8.76934 25.4845 3
      vertex 8.625 25.2345 0
      vertex 8.625 25.2345 3
    endloop
  endfacet
  facet normal 0 1 -0
    outer loop
      vertex 8.625 -24.7655 0
      vertex 8.51934 -24.7655 3
      vertex 8.625 -24.7655 3
    endloop
  endfacet
  facet normal 0 1 0
    outer loop
      vertex 8.51934 -24.7655 3
      vertex 8.625 -24.7655 0
      vertex 8.51934 -24.7655 0
    endloop
  endfacet
  facet normal -0.866022 0.500006 0
    outer loop
      vertex 8.625 -24.7655 0
      vertex 8.76934 -24.5155 3
      vertex 8.76934 -24.5155 0
    endloop
  endfacet
  facet normal -0.866022 0.500006 0
    outer loop
      vertex 8.76934 -24.5155 3
      vertex 8.625 -24.7655 0
      vertex 8.625 -24.7655 3
    endloop
  endfacet
  facet normal 0 -1 0
    outer loop
      vertex 6.875 -21.7345 0
      vertex 6.98066 -21.7345 3
      vertex 6.875 -21.7345 3
    endloop
  endfacet
  facet normal 0 -1 -0
    outer loop
      vertex 6.98066 -21.7345 3
      vertex 6.875 -21.7345 0
      vertex 6.98066 -21.7345 0
    endloop
  endfacet
  facet normal 0.866022 -0.500006 0
    outer loop
      vertex 6.73066 -21.9845 3
      vertex 6.875 -21.7345 0
      vertex 6.875 -21.7345 3
    endloop
  endfacet
  facet normal 0.866022 -0.500006 0
    outer loop
      vertex 6.875 -21.7345 0
      vertex 6.73066 -21.9845 3
      vertex 6.73066 -21.9845 0
    endloop
  endfacet
  facet normal 0 -1 0
    outer loop
      vertex 7.125 28.5155 0
      vertex 7.23066 28.5155 3
      vertex 7.125 28.5155 3
    endloop
  endfacet
  facet normal 0 -1 -0
    outer loop
      vertex 7.23066 28.5155 3
      vertex 7.125 28.5155 0
      vertex 7.23066 28.5155 0
    endloop
  endfacet
  facet normal 0.866022 -0.500006 0
    outer loop
      vertex 6.98066 28.2655 3
      vertex 7.125 28.5155 0
      vertex 7.125 28.5155 3
    endloop
  endfacet
  facet normal 0.866022 -0.500006 0
    outer loop
      vertex 7.125 28.5155 0
      vertex 6.98066 28.2655 3
      vertex 6.98066 28.2655 0
    endloop
  endfacet
  facet normal 0 1 -0
    outer loop
      vertex 8.875 25.4845 0
      vertex 8.76934 25.4845 3
      vertex 8.875 25.4845 3
    endloop
  endfacet
  facet normal 0 1 0
    outer loop
      vertex 8.76934 25.4845 3
      vertex 8.875 25.4845 0
      vertex 8.76934 25.4845 0
    endloop
  endfacet
  facet normal -0.866022 0.500006 0
    outer loop
      vertex 8.875 25.4845 0
      vertex 9.01934 25.7345 3
      vertex 9.01934 25.7345 0
    endloop
  endfacet
  facet normal -0.866022 0.500006 0
    outer loop
      vertex 9.01934 25.7345 3
      vertex 8.875 25.4845 0
      vertex 8.875 25.4845 3
    endloop
  endfacet
  facet normal 0 1 -0
    outer loop
      vertex 8.875 -24.5155 0
      vertex 8.76934 -24.5155 3
      vertex 8.875 -24.5155 3
    endloop
  endfacet
  facet normal 0 1 0
    outer loop
      vertex 8.76934 -24.5155 3
      vertex 8.875 -24.5155 0
      vertex 8.76934 -24.5155 0
    endloop
  endfacet
  facet normal -0.866022 0.500006 0
    outer loop
      vertex 8.875 -24.5155 0
      vertex 9.01934 -24.2655 3
      vertex 9.01934 -24.2655 0
    endloop
  endfacet
  facet normal -0.866022 0.500006 0
    outer loop
      vertex 9.01934 -24.2655 3
      vertex 8.875 -24.5155 0
      vertex 8.875 -24.5155 3
    endloop
  endfacet
  facet normal 0 -1 0
    outer loop
      vertex 7.125 -21.4845 0
      vertex 7.23066 -21.4845 3
      vertex 7.125 -21.4845 3
    endloop
  endfacet
  facet normal 0 -1 -0
    outer loop
      vertex 7.23066 -21.4845 3
      vertex 7.125 -21.4845 0
      vertex 7.23066 -21.4845 0
    endloop
  endfacet
  facet normal 0.866022 -0.500006 0
    outer loop
      vertex 6.98066 -21.7345 3
      vertex 7.125 -21.4845 0
      vertex 7.125 -21.4845 3
    endloop
  endfacet
  facet normal 0.866022 -0.500006 0
    outer loop
      vertex 7.125 -21.4845 0
      vertex 6.98066 -21.7345 3
      vertex 6.98066 -21.7345 0
    endloop
  endfacet
  facet normal 0 -1 0
    outer loop
      vertex 7.375 28.7655 0
      vertex 7.48066 28.7655 3
      vertex 7.375 28.7655 3
    endloop
  endfacet
  facet normal 0 -1 -0
    outer loop
      vertex 7.48066 28.7655 3
      vertex 7.375 28.7655 0
      vertex 7.48066 28.7655 0
    endloop
  endfacet
  facet normal 0.866022 -0.500006 0
    outer loop
      vertex 7.23066 28.5155 3
      vertex 7.375 28.7655 0
      vertex 7.375 28.7655 3
    endloop
  endfacet
  facet normal 0.866022 -0.500006 0
    outer loop
      vertex 7.375 28.7655 0
      vertex 7.23066 28.5155 3
      vertex 7.23066 28.5155 0
    endloop
  endfacet
  facet normal 0 1 -0
    outer loop
      vertex 9.125 25.7345 0
      vertex 9.01934 25.7345 3
      vertex 9.125 25.7345 3
    endloop
  endfacet
  facet normal 0 1 0
    outer loop
      vertex 9.01934 25.7345 3
      vertex 9.125 25.7345 0
      vertex 9.01934 25.7345 0
    endloop
  endfacet
  facet normal -0.866022 0.500006 0
    outer loop
      vertex 9.125 25.7345 0
      vertex 9.26934 25.9845 3
      vertex 9.26934 25.9845 0
    endloop
  endfacet
  facet normal -0.866022 0.500006 0
    outer loop
      vertex 9.26934 25.9845 3
      vertex 9.125 25.7345 0
      vertex 9.125 25.7345 3
    endloop
  endfacet
  facet normal 0 1 -0
    outer loop
      vertex 9.125 -24.2655 0
      vertex 9.01934 -24.2655 3
      vertex 9.125 -24.2655 3
    endloop
  endfacet
  facet normal 0 1 0
    outer loop
      vertex 9.01934 -24.2655 3
      vertex 9.125 -24.2655 0
      vertex 9.01934 -24.2655 0
    endloop
  endfacet
  facet normal -0.866022 0.500006 0
    outer loop
      vertex 9.125 -24.2655 0
      vertex 9.26934 -24.0155 3
      vertex 9.26934 -24.0155 0
    endloop
  endfacet
  facet normal -0.866022 0.500006 0
    outer loop
      vertex 9.26934 -24.0155 3
      vertex 9.125 -24.2655 0
      vertex 9.125 -24.2655 3
    endloop
  endfacet
  facet normal 0 -1 0
    outer loop
      vertex 7.375 -21.2345 0
      vertex 7.48066 -21.2345 3
      vertex 7.375 -21.2345 3
    endloop
  endfacet
  facet normal 0 -1 -0
    outer loop
      vertex 7.48066 -21.2345 3
      vertex 7.375 -21.2345 0
      vertex 7.48066 -21.2345 0
    endloop
  endfacet
  facet normal 0.866022 -0.500006 0
    outer loop
      vertex 7.23066 -21.4845 3
      vertex 7.375 -21.2345 0
      vertex 7.375 -21.2345 3
    endloop
  endfacet
  facet normal 0.866022 -0.500006 0
    outer loop
      vertex 7.375 -21.2345 0
      vertex 7.23066 -21.4845 3
      vertex 7.23066 -21.4845 0
    endloop
  endfacet
  facet normal 0 -1 0
    outer loop
      vertex 7.625 29.0155 0
      vertex 7.73066 29.0155 3
      vertex 7.625 29.0155 3
    endloop
  endfacet
  facet normal 0 -1 -0
    outer loop
      vertex 7.73066 29.0155 3
      vertex 7.625 29.0155 0
      vertex 7.73066 29.0155 0
    endloop
  endfacet
  facet normal 0.866022 -0.500006 0
    outer loop
      vertex 7.48066 28.7655 3
      vertex 7.625 29.0155 0
      vertex 7.625 29.0155 3
    endloop
  endfacet
  facet normal 0.866022 -0.500006 0
    outer loop
      vertex 7.625 29.0155 0
      vertex 7.48066 28.7655 3
      vertex 7.48066 28.7655 0
    endloop
  endfacet
  facet normal 0 1 -0
    outer loop
      vertex 9.375 25.9845 0
      vertex 9.26934 25.9845 3
      vertex 9.375 25.9845 3
    endloop
  endfacet
  facet normal 0 1 0
    outer loop
      vertex 9.26934 25.9845 3
      vertex 9.375 25.9845 0
      vertex 9.26934 25.9845 0
    endloop
  endfacet
  facet normal -0.866022 0.500006 0
    outer loop
      vertex 9.375 25.9845 0
      vertex 9.51934 26.2345 3
      vertex 9.51934 26.2345 0
    endloop
  endfacet
  facet normal -0.866022 0.500006 0
    outer loop
      vertex 9.51934 26.2345 3
      vertex 9.375 25.9845 0
      vertex 9.375 25.9845 3
    endloop
  endfacet
  facet normal 0 1 -0
    outer loop
      vertex 9.375 -24.0155 0
      vertex 9.26934 -24.0155 3
      vertex 9.375 -24.0155 3
    endloop
  endfacet
  facet normal 0 1 0
    outer loop
      vertex 9.26934 -24.0155 3
      vertex 9.375 -24.0155 0
      vertex 9.26934 -24.0155 0
    endloop
  endfacet
  facet normal -0.866022 0.500006 0
    outer loop
      vertex 9.375 -24.0155 0
      vertex 9.51934 -23.7655 3
      vertex 9.51934 -23.7655 0
    endloop
  endfacet
  facet normal -0.866022 0.500006 0
    outer loop
      vertex 9.51934 -23.7655 3
      vertex 9.375 -24.0155 0
      vertex 9.375 -24.0155 3
    endloop
  endfacet
  facet normal 0 -1 0
    outer loop
      vertex 7.625 -20.9845 0
      vertex 7.73066 -20.9845 3
      vertex 7.625 -20.9845 3
    endloop
  endfacet
  facet normal 0 -1 -0
    outer loop
      vertex 7.73066 -20.9845 3
      vertex 7.625 -20.9845 0
      vertex 7.73066 -20.9845 0
    endloop
  endfacet
  facet normal 0.866022 -0.500006 0
    outer loop
      vertex 7.48066 -21.2345 3
      vertex 7.625 -20.9845 0
      vertex 7.625 -20.9845 3
    endloop
  endfacet
  facet normal 0.866022 -0.500006 0
    outer loop
      vertex 7.625 -20.9845 0
      vertex 7.48066 -21.2345 3
      vertex 7.48066 -21.2345 0
    endloop
  endfacet
  facet normal 0 -1 0
    outer loop
      vertex 7.875 29.2655 0
      vertex 7.98066 29.2655 3
      vertex 7.875 29.2655 3
    endloop
  endfacet
  facet normal 0 -1 -0
    outer loop
      vertex 7.98066 29.2655 3
      vertex 7.875 29.2655 0
      vertex 7.98066 29.2655 0
    endloop
  endfacet
  facet normal 0.866022 -0.500006 0
    outer loop
      vertex 7.73066 29.0155 3
      vertex 7.875 29.2655 0
      vertex 7.875 29.2655 3
    endloop
  endfacet
  facet normal 0.866022 -0.500006 0
    outer loop
      vertex 7.875 29.2655 0
      vertex 7.73066 29.0155 3
      vertex 7.73066 29.0155 0
    endloop
  endfacet
  facet normal 0 1 -0
    outer loop
      vertex 9.625 26.2345 0
      vertex 9.51934 26.2345 3
      vertex 9.625 26.2345 3
    endloop
  endfacet
  facet normal 0 1 0
    outer loop
      vertex 9.51934 26.2345 3
      vertex 9.625 26.2345 0
      vertex 9.51934 26.2345 0
    endloop
  endfacet
  facet normal -0.866022 0.500006 0
    outer loop
      vertex 9.625 26.2345 0
      vertex 9.76934 26.4845 3
      vertex 9.76934 26.4845 0
    endloop
  endfacet
  facet normal -0.866022 0.500006 0
    outer loop
      vertex 9.76934 26.4845 3
      vertex 9.625 26.2345 0
      vertex 9.625 26.2345 3
    endloop
  endfacet
  facet normal 0 1 -0
    outer loop
      vertex 9.625 -23.7655 0
      vertex 9.51934 -23.7655 3
      vertex 9.625 -23.7655 3
    endloop
  endfacet
  facet normal 0 1 0
    outer loop
      vertex 9.51934 -23.7655 3
      vertex 9.625 -23.7655 0
      vertex 9.51934 -23.7655 0
    endloop
  endfacet
  facet normal -0.866022 0.500006 0
    outer loop
      vertex 9.625 -23.7655 0
      vertex 9.76934 -23.5155 3
      vertex 9.76934 -23.5155 0
    endloop
  endfacet
  facet normal -0.866022 0.500006 0
    outer loop
      vertex 9.76934 -23.5155 3
      vertex 9.625 -23.7655 0
      vertex 9.625 -23.7655 3
    endloop
  endfacet
  facet normal 0 -1 0
    outer loop
      vertex 7.875 -20.7345 0
      vertex 7.98066 -20.7345 3
      vertex 7.875 -20.7345 3
    endloop
  endfacet
  facet normal 0 -1 -0
    outer loop
      vertex 7.98066 -20.7345 3
      vertex 7.875 -20.7345 0
      vertex 7.98066 -20.7345 0
    endloop
  endfacet
  facet normal 0.866022 -0.500006 0
    outer loop
      vertex 7.73066 -20.9845 3
      vertex 7.875 -20.7345 0
      vertex 7.875 -20.7345 3
    endloop
  endfacet
  facet normal 0.866022 -0.500006 0
    outer loop
      vertex 7.875 -20.7345 0
      vertex 7.73066 -20.9845 3
      vertex 7.73066 -20.9845 0
    endloop
  endfacet
  facet normal 0 -1 0
    outer loop
      vertex 8.125 29.5155 0
      vertex 8.23066 29.5155 3
      vertex 8.125 29.5155 3
    endloop
  endfacet
  facet normal 0 -1 -0
    outer loop
      vertex 8.23066 29.5155 3
      vertex 8.125 29.5155 0
      vertex 8.23066 29.5155 0
    endloop
  endfacet
  facet normal 0.866022 -0.500006 0
    outer loop
      vertex 7.98066 29.2655 3
      vertex 8.125 29.5155 0
      vertex 8.125 29.5155 3
    endloop
  endfacet
  facet normal 0.866022 -0.500006 0
    outer loop
      vertex 8.125 29.5155 0
      vertex 7.98066 29.2655 3
      vertex 7.98066 29.2655 0
    endloop
  endfacet
  facet normal 0 1 -0
    outer loop
      vertex 9.875 26.4845 0
      vertex 9.76934 26.4845 3
      vertex 9.875 26.4845 3
    endloop
  endfacet
  facet normal 0 1 0
    outer loop
      vertex 9.76934 26.4845 3
      vertex 9.875 26.4845 0
      vertex 9.76934 26.4845 0
    endloop
  endfacet
  facet normal -0.866082 0.499902 0
    outer loop
      vertex 9.875 26.4845 0
      vertex 10.0193 26.7345 3
      vertex 10.0193 26.7345 0
    endloop
  endfacet
  facet normal -0.866082 0.499902 0
    outer loop
      vertex 10.0193 26.7345 3
      vertex 9.875 26.4845 0
      vertex 9.875 26.4845 3
    endloop
  endfacet
  facet normal 0 1 -0
    outer loop
      vertex 9.875 -23.5155 0
      vertex 9.76934 -23.5155 3
      vertex 9.875 -23.5155 3
    endloop
  endfacet
  facet normal 0 1 0
    outer loop
      vertex 9.76934 -23.5155 3
      vertex 9.875 -23.5155 0
      vertex 9.76934 -23.5155 0
    endloop
  endfacet
  facet normal -0.866082 0.499902 0
    outer loop
      vertex 9.875 -23.5155 0
      vertex 10.0193 -23.2655 3
      vertex 10.0193 -23.2655 0
    endloop
  endfacet
  facet normal -0.866082 0.499902 0
    outer loop
      vertex 10.0193 -23.2655 3
      vertex 9.875 -23.5155 0
      vertex 9.875 -23.5155 3
    endloop
  endfacet
  facet normal 0 -1 0
    outer loop
      vertex 8.125 -20.4845 0
      vertex 8.23066 -20.4845 3
      vertex 8.125 -20.4845 3
    endloop
  endfacet
  facet normal 0 -1 -0
    outer loop
      vertex 8.23066 -20.4845 3
      vertex 8.125 -20.4845 0
      vertex 8.23066 -20.4845 0
    endloop
  endfacet
  facet normal 0.866022 -0.500006 0
    outer loop
      vertex 7.98066 -20.7345 3
      vertex 8.125 -20.4845 0
      vertex 8.125 -20.4845 3
    endloop
  endfacet
  facet normal 0.866022 -0.500006 0
    outer loop
      vertex 8.125 -20.4845 0
      vertex 7.98066 -20.7345 3
      vertex 7.98066 -20.7345 0
    endloop
  endfacet
  facet normal 0 -1 0
    outer loop
      vertex 8.375 29.7655 0
      vertex 8.48066 29.7655 3
      vertex 8.375 29.7655 3
    endloop
  endfacet
  facet normal 0 -1 -0
    outer loop
      vertex 8.48066 29.7655 3
      vertex 8.375 29.7655 0
      vertex 8.48066 29.7655 0
    endloop
  endfacet
  facet normal 0.866022 -0.500006 0
    outer loop
      vertex 8.23066 29.5155 3
      vertex 8.375 29.7655 0
      vertex 8.375 29.7655 3
    endloop
  endfacet
  facet normal 0.866022 -0.500006 0
    outer loop
      vertex 8.375 29.7655 0
      vertex 8.23066 29.5155 3
      vertex 8.23066 29.5155 0
    endloop
  endfacet
  facet normal 0 1 -0
    outer loop
      vertex 10.125 26.7345 0
      vertex 10.0193 26.7345 3
      vertex 10.125 26.7345 3
    endloop
  endfacet
  facet normal 0 1 0
    outer loop
      vertex 10.0193 26.7345 3
      vertex 10.125 26.7345 0
      vertex 10.0193 26.7345 0
    endloop
  endfacet
  facet normal -0.866082 0.499902 0
    outer loop
      vertex 10.125 26.7345 0
      vertex 10.2693 26.9845 3
      vertex 10.2693 26.9845 0
    endloop
  endfacet
  facet normal -0.866082 0.499902 0
    outer loop
      vertex 10.2693 26.9845 3
      vertex 10.125 26.7345 0
      vertex 10.125 26.7345 3
    endloop
  endfacet
  facet normal 0 1 -0
    outer loop
      vertex 10.125 -23.2655 0
      vertex 10.0193 -23.2655 3
      vertex 10.125 -23.2655 3
    endloop
  endfacet
  facet normal 0 1 0
    outer loop
      vertex 10.0193 -23.2655 3
      vertex 10.125 -23.2655 0
      vertex 10.0193 -23.2655 0
    endloop
  endfacet
  facet normal -0.866082 0.499902 0
    outer loop
      vertex 10.125 -23.2655 0
      vertex 10.2693 -23.0155 3
      vertex 10.2693 -23.0155 0
    endloop
  endfacet
  facet normal -0.866082 0.499902 0
    outer loop
      vertex 10.2693 -23.0155 3
      vertex 10.125 -23.2655 0
      vertex 10.125 -23.2655 3
    endloop
  endfacet
  facet normal 0 -1 0
    outer loop
      vertex 8.375 -20.2345 0
      vertex 8.48066 -20.2345 3
      vertex 8.375 -20.2345 3
    endloop
  endfacet
  facet normal 0 -1 -0
    outer loop
      vertex 8.48066 -20.2345 3
      vertex 8.375 -20.2345 0
      vertex 8.48066 -20.2345 0
    endloop
  endfacet
  facet normal 0.866022 -0.500006 0
    outer loop
      vertex 8.23066 -20.4845 3
      vertex 8.375 -20.2345 0
      vertex 8.375 -20.2345 3
    endloop
  endfacet
  facet normal 0.866022 -0.500006 0
    outer loop
      vertex 8.375 -20.2345 0
      vertex 8.23066 -20.4845 3
      vertex 8.23066 -20.4845 0
    endloop
  endfacet
  facet normal 0 -1 0
    outer loop
      vertex 8.625 30.0155 0
      vertex 8.73066 30.0155 3
      vertex 8.625 30.0155 3
    endloop
  endfacet
  facet normal 0 -1 -0
    outer loop
      vertex 8.73066 30.0155 3
      vertex 8.625 30.0155 0
      vertex 8.73066 30.0155 0
    endloop
  endfacet
  facet normal 0.866022 -0.500006 0
    outer loop
      vertex 8.48066 29.7655 3
      vertex 8.625 30.0155 0
      vertex 8.625 30.0155 3
    endloop
  endfacet
  facet normal 0.866022 -0.500006 0
    outer loop
      vertex 8.625 30.0155 0
      vertex 8.48066 29.7655 3
      vertex 8.48066 29.7655 0
    endloop
  endfacet
  facet normal 0 1 -0
    outer loop
      vertex 10.375 26.9845 0
      vertex 10.2693 26.9845 3
      vertex 10.375 26.9845 3
    endloop
  endfacet
  facet normal 0 1 0
    outer loop
      vertex 10.2693 26.9845 3
      vertex 10.375 26.9845 0
      vertex 10.2693 26.9845 0
    endloop
  endfacet
  facet normal -0.866082 0.499902 0
    outer loop
      vertex 10.375 26.9845 0
      vertex 10.5193 27.2345 3
      vertex 10.5193 27.2345 0
    endloop
  endfacet
  facet normal -0.866082 0.499902 0
    outer loop
      vertex 10.5193 27.2345 3
      vertex 10.375 26.9845 0
      vertex 10.375 26.9845 3
    endloop
  endfacet
  facet normal 0 1 -0
    outer loop
      vertex 10.375 -23.0155 0
      vertex 10.2693 -23.0155 3
      vertex 10.375 -23.0155 3
    endloop
  endfacet
  facet normal 0 1 0
    outer loop
      vertex 10.2693 -23.0155 3
      vertex 10.375 -23.0155 0
      vertex 10.2693 -23.0155 0
    endloop
  endfacet
  facet normal -0.866082 0.499902 0
    outer loop
      vertex 10.375 -23.0155 0
      vertex 10.5193 -22.7655 3
      vertex 10.5193 -22.7655 0
    endloop
  endfacet
  facet normal -0.866082 0.499902 0
    outer loop
      vertex 10.5193 -22.7655 3
      vertex 10.375 -23.0155 0
      vertex 10.375 -23.0155 3
    endloop
  endfacet
  facet normal 0 -1 0
    outer loop
      vertex 8.625 -19.9845 0
      vertex 8.73066 -19.9845 3
      vertex 8.625 -19.9845 3
    endloop
  endfacet
  facet normal 0 -1 -0
    outer loop
      vertex 8.73066 -19.9845 3
      vertex 8.625 -19.9845 0
      vertex 8.73066 -19.9845 0
    endloop
  endfacet
  facet normal 0.866022 -0.500006 0
    outer loop
      vertex 8.48066 -20.2345 3
      vertex 8.625 -19.9845 0
      vertex 8.625 -19.9845 3
    endloop
  endfacet
  facet normal 0.866022 -0.500006 0
    outer loop
      vertex 8.625 -19.9845 0
      vertex 8.48066 -20.2345 3
      vertex 8.48066 -20.2345 0
    endloop
  endfacet
  facet normal 0 -1 0
    outer loop
      vertex 8.875 30.2655 0
      vertex 8.98066 30.2655 3
      vertex 8.875 30.2655 3
    endloop
  endfacet
  facet normal 0 -1 -0
    outer loop
      vertex 8.98066 30.2655 3
      vertex 8.875 30.2655 0
      vertex 8.98066 30.2655 0
    endloop
  endfacet
  facet normal 0.866022 -0.500006 0
    outer loop
      vertex 8.73066 30.0155 3
      vertex 8.875 30.2655 0
      vertex 8.875 30.2655 3
    endloop
  endfacet
  facet normal 0.866022 -0.500006 0
    outer loop
      vertex 8.875 30.2655 0
      vertex 8.73066 30.0155 3
      vertex 8.73066 30.0155 0
    endloop
  endfacet
  facet normal 0 1 -0
    outer loop
      vertex 10.625 27.2345 0
      vertex 10.5193 27.2345 3
      vertex 10.625 27.2345 3
    endloop
  endfacet
  facet normal 0 1 0
    outer loop
      vertex 10.5193 27.2345 3
      vertex 10.625 27.2345 0
      vertex 10.5193 27.2345 0
    endloop
  endfacet
  facet normal -0.866082 0.499902 0
    outer loop
      vertex 10.625 27.2345 0
      vertex 10.7693 27.4845 3
      vertex 10.7693 27.4845 0
    endloop
  endfacet
  facet normal -0.866082 0.499902 0
    outer loop
      vertex 10.7693 27.4845 3
      vertex 10.625 27.2345 0
      vertex 10.625 27.2345 3
    endloop
  endfacet
  facet normal 0 1 -0
    outer loop
      vertex 10.625 -22.7655 0
      vertex 10.5193 -22.7655 3
      vertex 10.625 -22.7655 3
    endloop
  endfacet
  facet normal 0 1 0
    outer loop
      vertex 10.5193 -22.7655 3
      vertex 10.625 -22.7655 0
      vertex 10.5193 -22.7655 0
    endloop
  endfacet
  facet normal -0.866082 0.499902 0
    outer loop
      vertex 10.625 -22.7655 0
      vertex 10.7693 -22.5155 3
      vertex 10.7693 -22.5155 0
    endloop
  endfacet
  facet normal -0.866082 0.499902 0
    outer loop
      vertex 10.7693 -22.5155 3
      vertex 10.625 -22.7655 0
      vertex 10.625 -22.7655 3
    endloop
  endfacet
  facet normal 0 -1 0
    outer loop
      vertex 8.875 -19.7345 0
      vertex 8.98066 -19.7345 3
      vertex 8.875 -19.7345 3
    endloop
  endfacet
  facet normal 0 -1 -0
    outer loop
      vertex 8.98066 -19.7345 3
      vertex 8.875 -19.7345 0
      vertex 8.98066 -19.7345 0
    endloop
  endfacet
  facet normal 0.866022 -0.500006 0
    outer loop
      vertex 8.73066 -19.9845 3
      vertex 8.875 -19.7345 0
      vertex 8.875 -19.7345 3
    endloop
  endfacet
  facet normal 0.866022 -0.500006 0
    outer loop
      vertex 8.875 -19.7345 0
      vertex 8.73066 -19.9845 3
      vertex 8.73066 -19.9845 0
    endloop
  endfacet
  facet normal 0 -1 0
    outer loop
      vertex 9.125 30.5155 0
      vertex 10.875 30.5155 3
      vertex 9.125 30.5155 3
    endloop
  endfacet
  facet normal 0 -1 -0
    outer loop
      vertex 10.875 30.5155 3
      vertex 9.125 30.5155 0
      vertex 10.875 30.5155 0
    endloop
  endfacet
  facet normal -0.866019 -0.500011 0
    outer loop
      vertex 11.75 29 0
      vertex 10.875 30.5155 3
      vertex 10.875 30.5155 0
    endloop
  endfacet
  facet normal -0.866019 -0.500011 0
    outer loop
      vertex 10.875 30.5155 3
      vertex 11.75 29 0
      vertex 11.75 29 3
    endloop
  endfacet
  facet normal 0.866022 -0.500006 0
    outer loop
      vertex 8.98066 30.2655 3
      vertex 9.125 30.5155 0
      vertex 9.125 30.5155 3
    endloop
  endfacet
  facet normal 0.866022 -0.500006 0
    outer loop
      vertex 9.125 30.5155 0
      vertex 8.98066 30.2655 3
      vertex 8.98066 30.2655 0
    endloop
  endfacet
  facet normal 0 1 -0
    outer loop
      vertex 10.875 27.4845 0
      vertex 10.7693 27.4845 3
      vertex 10.875 27.4845 3
    endloop
  endfacet
  facet normal 0 1 0
    outer loop
      vertex 10.7693 27.4845 3
      vertex 10.875 27.4845 0
      vertex 10.7693 27.4845 0
    endloop
  endfacet
  facet normal -0.866019 0.500011 0
    outer loop
      vertex 10.875 27.4845 0
      vertex 11.75 29 3
      vertex 11.75 29 0
    endloop
  endfacet
  facet normal -0.866019 0.500011 0
    outer loop
      vertex 11.75 29 3
      vertex 10.875 27.4845 0
      vertex 10.875 27.4845 3
    endloop
  endfacet
  facet normal 0 1 -0
    outer loop
      vertex 10.875 -22.5155 0
      vertex 10.7693 -22.5155 3
      vertex 10.875 -22.5155 3
    endloop
  endfacet
  facet normal 0 1 0
    outer loop
      vertex 10.7693 -22.5155 3
      vertex 10.875 -22.5155 0
      vertex 10.7693 -22.5155 0
    endloop
  endfacet
  facet normal -0.866019 0.500011 0
    outer loop
      vertex 10.875 -22.5155 0
      vertex 11.75 -21 3
      vertex 11.75 -21 0
    endloop
  endfacet
  facet normal -0.866019 0.500011 0
    outer loop
      vertex 11.75 -21 3
      vertex 10.875 -22.5155 0
      vertex 10.875 -22.5155 3
    endloop
  endfacet
  facet normal 0 -1 0
    outer loop
      vertex 9.125 -19.4845 0
      vertex 10.875 -19.4845 3
      vertex 9.125 -19.4845 3
    endloop
  endfacet
  facet normal 0 -1 -0
    outer loop
      vertex 10.875 -19.4845 3
      vertex 9.125 -19.4845 0
      vertex 10.875 -19.4845 0
    endloop
  endfacet
  facet normal -0.866019 -0.500011 0
    outer loop
      vertex 11.75 -21 0
      vertex 10.875 -19.4845 3
      vertex 10.875 -19.4845 0
    endloop
  endfacet
  facet normal -0.866019 -0.500011 0
    outer loop
      vertex 10.875 -19.4845 3
      vertex 11.75 -21 0
      vertex 11.75 -21 3
    endloop
  endfacet
  facet normal 0.866022 -0.500006 0
    outer loop
      vertex 8.98066 -19.7345 3
      vertex 9.125 -19.4845 0
      vertex 9.125 -19.4845 3
    endloop
  endfacet
  facet normal 0.866022 -0.500006 0
    outer loop
      vertex 9.125 -19.4845 0
      vertex 8.98066 -19.7345 3
      vertex 8.98066 -19.7345 0
    endloop
  endfacet
  facet normal 1 -0 0
    outer loop
      vertex 10 -15 3
      vertex 10 15 0
      vertex 10 15 3
    endloop
  endfacet
  facet normal 1 0 0
    outer loop
      vertex 10 15 0
      vertex 10 -15 3
      vertex 10 -15 0
    endloop
  endfacet
  facet normal 0 -1 0
    outer loop
      vertex 10 15 0
      vertex 12 15 3
      vertex 10 15 3
    endloop
  endfacet
  facet normal 0 -1 -0
    outer loop
      vertex 12 15 3
      vertex 10 15 0
      vertex 12 15 0
    endloop
  endfacet
  facet normal 0 1 -0
    outer loop
      vertex 12 -15 0
      vertex 10 -15 3
      vertex 12 -15 3
    endloop
  endfacet
  facet normal 0 1 0
    outer loop
      vertex 10 -15 3
      vertex 12 -15 0
      vertex 10 -15 0
    endloop
  endfacet
  facet normal -0.707107 0.707107 0
    outer loop
      vertex 0 29.5 0
      vertex 3 32.5 3
      vertex 3 32.5 0
    endloop
  endfacet
  facet normal -0.707107 0.707107 0
    outer loop
      vertex 3 32.5 3
      vertex 0 29.5 0
      vertex 0 29.5 3
    endloop
  endfacet
  facet normal -0.707107 -0.707107 0
    outer loop
      vertex 3 -32.5 0
      vertex 0 -29.5 3
      vertex 0 -29.5 0
    endloop
  endfacet
  facet normal -0.707107 -0.707107 0
    outer loop
      vertex 0 -29.5 3
      vertex 3 -32.5 0
      vertex 3 -32.5 3
    endloop
  endfacet
  facet normal 0.707107 0.707107 0
    outer loop
      vertex 15 29.5 3
      vertex 12 32.5 0
      vertex 12 32.5 3
    endloop
  endfacet
  facet normal 0.707107 0.707107 0
    outer loop
      vertex 12 32.5 0
      vertex 15 29.5 3
      vertex 15 29.5 0
    endloop
  endfacet
  facet normal 0.707107 -0.707107 0
    outer loop
      vertex 12 -32.5 3
      vertex 15 -29.5 0
      vertex 15 -29.5 3
    endloop
  endfacet
  facet normal 0.707107 -0.707107 0
    outer loop
      vertex 15 -29.5 0
      vertex 12 -32.5 3
      vertex 12 -32.5 0
    endloop
  endfacet
  facet normal 0.707107 0.707107 0
    outer loop
      vertex 15 -18 3
      vertex 12 -15 0
      vertex 12 -15 3
    endloop
  endfacet
  facet normal 0.707107 0.707107 0
    outer loop
      vertex 12 -15 0
      vertex 15 -18 3
      vertex 15 -18 0
    endloop
  endfacet
  facet normal 0.707107 -0.707107 0
    outer loop
      vertex 12 15 3
      vertex 15 18 0
      vertex 15 18 3
    endloop
  endfacet
  facet normal 0.707107 -0.707107 0
    outer loop
      vertex 15 18 0
      vertex 12 15 3
      vertex 12 15 0
    endloop
  endfacet
endsolid OpenSCAD_Model
