solid OpenSCAD_Model
  facet normal 1 -0 0
    outer loop
      vertex 20 -12 4
      vertex 20 -2 0
      vertex 20 -2 4
    endloop
  endfacet
  facet normal 1 0 0
    outer loop
      vertex 20 -2 0
      vertex 20 -12 4
      vertex 20 -12 0
    endloop
  endfacet
  facet normal 0 0 1
    outer loop
      vertex 0.4942 -4.07011 4
      vertex -1.04528 -9.94522 4
      vertex 0 -9.94522 4
    endloop
  endfacet
  facet normal 0 0 1
    outer loop
      vertex -1.45388 -3.83357 4
      vertex -1.04528 -9.94522 4
      vertex 0.4942 -4.07011 4
    endloop
  endfacet
  facet normal 0 0 1
    outer loop
      vertex -5 -8.66025 4
      vertex -1.45388 -3.83357 4
      vertex -3.06889 -2.7188 4
    endloop
  endfacet
  facet normal 0 0 1
    outer loop
      vertex -1.45388 -3.83357 4
      vertex -3.09017 -9.51056 4
      vertex -1.04528 -9.94522 4
    endloop
  endfacet
  facet normal 0 0 1
    outer loop
      vertex -9.13545 -4.06737 4
      vertex -3.06889 -2.7188 4
      vertex -3.98086 -0.981194 4
    endloop
  endfacet
  facet normal -0 0 1
    outer loop
      vertex -9.13545 4.06737 4
      vertex -3.06889 2.7188 4
      vertex -8.09017 5.87785 4
    endloop
  endfacet
  facet normal 0 0 1
    outer loop
      vertex -1.45388 -3.83357 4
      vertex -5 -8.66025 4
      vertex -3.09017 -9.51056 4
    endloop
  endfacet
  facet normal 0 0 1
    outer loop
      vertex -3.06889 2.7188 4
      vertex -9.13545 4.06737 4
      vertex -3.98086 0.981194 4
    endloop
  endfacet
  facet normal 0 0 1
    outer loop
      vertex -3.06889 -2.7188 4
      vertex -6.69131 -7.43145 4
      vertex -5 -8.66025 4
    endloop
  endfacet
  facet normal -0 0 1
    outer loop
      vertex -9.78148 2.07912 4
      vertex -3.98086 0.981194 4
      vertex -9.13545 4.06737 4
    endloop
  endfacet
  facet normal 0 0 1
    outer loop
      vertex -3.06889 -2.7188 4
      vertex -8.09017 -5.87785 4
      vertex -6.69131 -7.43145 4
    endloop
  endfacet
  facet normal 0 0 1
    outer loop
      vertex -10 0 4
      vertex -3.98086 0.981194 4
      vertex -9.78148 2.07912 4
    endloop
  endfacet
  facet normal 0 0 1
    outer loop
      vertex -3.06889 -2.7188 4
      vertex -9.13545 -4.06737 4
      vertex -8.09017 -5.87785 4
    endloop
  endfacet
  facet normal 0 0 1
    outer loop
      vertex -3.98086 0.981194 4
      vertex -10 0 4
      vertex -3.98086 -0.981194 4
    endloop
  endfacet
  facet normal 0 0 1
    outer loop
      vertex -3.98086 -0.981194 4
      vertex -9.78148 -2.07912 4
      vertex -9.13545 -4.06737 4
    endloop
  endfacet
  facet normal 0 0 1
    outer loop
      vertex -3.98086 -0.981194 4
      vertex -10 0 4
      vertex -9.78148 -2.07912 4
    endloop
  endfacet
  facet normal 0 0 1
    outer loop
      vertex 8.597 5 4
      vertex 3.63037 1.90536 4
      vertex 4.1 0 4
    endloop
  endfacet
  facet normal 0 0 1
    outer loop
      vertex 2.32907 3.37423 4
      vertex 5 8.66025 4
      vertex 3.09017 9.51056 4
    endloop
  endfacet
  facet normal 0 0 1
    outer loop
      vertex 6.69131 7.43145 4
      vertex 2.32907 3.37423 4
      vertex 3.63037 1.90536 4
    endloop
  endfacet
  facet normal 0 0 1
    outer loop
      vertex 0.4942 4.07011 4
      vertex 3.09017 9.51056 4
      vertex 1.04528 9.94522 4
    endloop
  endfacet
  facet normal 0 0 1
    outer loop
      vertex 3.09017 9.51056 4
      vertex 0.4942 4.07011 4
      vertex 2.32907 3.37423 4
    endloop
  endfacet
  facet normal -0 0 1
    outer loop
      vertex -1.04528 9.94522 4
      vertex 0.4942 4.07011 4
      vertex 1.04528 9.94522 4
    endloop
  endfacet
  facet normal 0 0 1
    outer loop
      vertex -1.04528 9.94522 4
      vertex -1.45388 3.83357 4
      vertex 0.4942 4.07011 4
    endloop
  endfacet
  facet normal -0 0 1
    outer loop
      vertex -3.09017 9.51056 4
      vertex -1.45388 3.83357 4
      vertex -1.04528 9.94522 4
    endloop
  endfacet
  facet normal -0 0 1
    outer loop
      vertex -5 8.66025 4
      vertex -1.45388 3.83357 4
      vertex -3.09017 9.51056 4
    endloop
  endfacet
  facet normal 0 0 1
    outer loop
      vertex -1.45388 3.83357 4
      vertex -5 8.66025 4
      vertex -3.06889 2.7188 4
    endloop
  endfacet
  facet normal -0 0 1
    outer loop
      vertex -8.09017 5.87785 4
      vertex -3.06889 2.7188 4
      vertex -6.69131 7.43145 4
    endloop
  endfacet
  facet normal -0 0 1
    outer loop
      vertex -6.69131 7.43145 4
      vertex -3.06889 2.7188 4
      vertex -5 8.66025 4
    endloop
  endfacet
  facet normal 0 0 1
    outer loop
      vertex 20 5 4
      vertex 14 5 4
      vertex 20 -2 4
    endloop
  endfacet
  facet normal 0 0 1
    outer loop
      vertex 20 -2 4
      vertex 14 5 4
      vertex 16 -10 4
    endloop
  endfacet
  facet normal 0 0 1
    outer loop
      vertex 4.1 0 4
      vertex 14 5 4
      vertex 8.597 5 4
    endloop
  endfacet
  facet normal 0 0 1
    outer loop
      vertex 3.63037 1.90536 4
      vertex 8.597 5 4
      vertex 8.09017 5.87785 4
    endloop
  endfacet
  facet normal 0 0 1
    outer loop
      vertex 3.63037 1.90536 4
      vertex 8.09017 5.87785 4
      vertex 6.69131 7.43145 4
    endloop
  endfacet
  facet normal 0 0 1
    outer loop
      vertex 2.32907 3.37423 4
      vertex 6.69131 7.43145 4
      vertex 5 8.66025 4
    endloop
  endfacet
  facet normal 0 0 1
    outer loop
      vertex 14 5 4
      vertex 4.1 0 4
      vertex 16 -10 4
    endloop
  endfacet
  facet normal -0 0 1
    outer loop
      vertex 3.63037 -1.90536 4
      vertex 16 -10 4
      vertex 4.1 0 4
    endloop
  endfacet
  facet normal -0 0 1
    outer loop
      vertex 2.32907 -3.37423 4
      vertex 16 -10 4
      vertex 3.63037 -1.90536 4
    endloop
  endfacet
  facet normal 0 0 1
    outer loop
      vertex 0 -9.94522 4
      vertex 2.32907 -3.37423 4
      vertex 0.4942 -4.07011 4
    endloop
  endfacet
  facet normal 0 0 1
    outer loop
      vertex 2.32907 -3.37423 4
      vertex 0 -9.94522 4
      vertex 16 -10 4
    endloop
  endfacet
  facet normal 0 0 1
    outer loop
      vertex 16 -10 4
      vertex 0 -9.94522 4
      vertex 0 -10 4
    endloop
  endfacet
  facet normal -0 0 1
    outer loop
      vertex 20 5 4
      vertex 25 -2 4
      vertex 25 5 4
    endloop
  endfacet
  facet normal 0 0 1
    outer loop
      vertex 20 5 4
      vertex 20 -2 4
      vertex 25 -2 4
    endloop
  endfacet
  facet normal -0 0 1
    outer loop
      vertex 14.5729 6.76336 4
      vertex 20 5 4
      vertex 16.0729 7.85317 4
    endloop
  endfacet
  facet normal 0 0 1
    outer loop
      vertex 16.0729 7.85317 4
      vertex 20 5 4
      vertex 19.4271 6.76336 4
    endloop
  endfacet
  facet normal 0 0 1
    outer loop
      vertex 20 -2 4
      vertex 16 -10 4
      vertex 20 -12 4
    endloop
  endfacet
  facet normal -0 0 1
    outer loop
      vertex 16.0729 7.85317 4
      vertex 19.4271 6.76336 4
      vertex 17.9271 7.85317 4
    endloop
  endfacet
  facet normal 0 -0 1
    outer loop
      vertex 16.1981 -12 4
      vertex 20 -12 4
      vertex 16 -10 4
    endloop
  endfacet
  facet normal 0 0 1
    outer loop
      vertex 20 -12 4
      vertex 16.1981 -12 4
      vertex 19.247 -13.5637 4
    endloop
  endfacet
  facet normal 0 0 1
    outer loop
      vertex 14 5 4
      vertex 20 5 4
      vertex 14.5729 6.76336 4
    endloop
  endfacet
  facet normal 0 0 1
    outer loop
      vertex 19.247 -13.5637 4
      vertex 16.1981 -12 4
      vertex 17.555 -13.9499 4
    endloop
  endfacet
  facet normal 0 0 1
    outer loop
      vertex 16.1981 -12 4
      vertex 16 -10 4
      vertex 16 -12 4
    endloop
  endfacet
  facet normal 0 0 1
    outer loop
      vertex 17.555 -13.9499 4
      vertex 16.1981 -12 4
      vertex 16.1981 -12.8678 4
    endloop
  endfacet
  facet normal 0 0 -1
    outer loop
      vertex 16 -10 0
      vertex 20 -2 0
      vertex 20 -12 0
    endloop
  endfacet
  facet normal 0 0 -1
    outer loop
      vertex 14 5 0
      vertex 20 -2 0
      vertex 16 -10 0
    endloop
  endfacet
  facet normal 0 0 -1
    outer loop
      vertex 16.1981 -12 0
      vertex 20 -12 0
      vertex 19.247 -13.5637 0
    endloop
  endfacet
  facet normal 0 0 -1
    outer loop
      vertex 20 -2 0
      vertex 14 5 0
      vertex 20 5 0
    endloop
  endfacet
  facet normal 0 0 -1
    outer loop
      vertex 16.1981 -12 0
      vertex 19.247 -13.5637 0
      vertex 17.555 -13.9499 0
    endloop
  endfacet
  facet normal 0 0 -1
    outer loop
      vertex 16.1981 -12 0
      vertex 17.555 -13.9499 0
      vertex 16.1981 -12.8678 0
    endloop
  endfacet
  facet normal 0 0 -1
    outer loop
      vertex 20 -12 0
      vertex 16.1981 -12 0
      vertex 16 -10 0
    endloop
  endfacet
  facet normal 0 0 -1
    outer loop
      vertex 20 5 0
      vertex 14 5 0
      vertex 19.4271 6.76336 0
    endloop
  endfacet
  facet normal 0 0 -1
    outer loop
      vertex 16 -10 0
      vertex 16.1981 -12 0
      vertex 16 -12 0
    endloop
  endfacet
  facet normal -0 0 -1
    outer loop
      vertex 19.4271 6.76336 0
      vertex 14 5 0
      vertex 17.9271 7.85317 0
    endloop
  endfacet
  facet normal -0 0 -1
    outer loop
      vertex 17.9271 7.85317 0
      vertex 14 5 0
      vertex 16.0729 7.85317 0
    endloop
  endfacet
  facet normal 0 0 -1
    outer loop
      vertex 16.0729 7.85317 0
      vertex 14 5 0
      vertex 14.5729 6.76336 0
    endloop
  endfacet
  facet normal 0 0 -1
    outer loop
      vertex 4.1 0 0
      vertex 14 5 0
      vertex 16 -10 0
    endloop
  endfacet
  facet normal -0 0 -1
    outer loop
      vertex 14 5 0
      vertex 4.1 0 0
      vertex 8.597 5 0
    endloop
  endfacet
  facet normal 0 0 -1
    outer loop
      vertex 3.63037 1.90536 0
      vertex 8.597 5 0
      vertex 4.1 0 0
    endloop
  endfacet
  facet normal -0 0 -1
    outer loop
      vertex 8.597 5 0
      vertex 3.63037 1.90536 0
      vertex 8.09017 5.87785 0
    endloop
  endfacet
  facet normal 0 0 -1
    outer loop
      vertex 2.32907 3.37423 0
      vertex 8.09017 5.87785 0
      vertex 3.63037 1.90536 0
    endloop
  endfacet
  facet normal 0 0 -1
    outer loop
      vertex 16 -10 0
      vertex 3.63037 -1.90536 0
      vertex 4.1 0 0
    endloop
  endfacet
  facet normal 0 0 -1
    outer loop
      vertex 16 -10 0
      vertex 2.32907 -3.37423 0
      vertex 3.63037 -1.90536 0
    endloop
  endfacet
  facet normal 0 0 -1
    outer loop
      vertex 0 -9.94522 0
      vertex 2.32907 -3.37423 0
      vertex 16 -10 0
    endloop
  endfacet
  facet normal 0 0 -1
    outer loop
      vertex 0 -9.94522 0
      vertex 16 -10 0
      vertex 0 -10 0
    endloop
  endfacet
  facet normal 0 0 -1
    outer loop
      vertex 2.32907 -3.37423 0
      vertex 0 -9.94522 0
      vertex 0.4942 -4.07011 0
    endloop
  endfacet
  facet normal 0 0 -1
    outer loop
      vertex -1.04528 -9.94522 0
      vertex 0.4942 -4.07011 0
      vertex 0 -9.94522 0
    endloop
  endfacet
  facet normal 0 0 -1
    outer loop
      vertex -1.04528 -9.94522 0
      vertex -1.45388 -3.83357 0
      vertex 0.4942 -4.07011 0
    endloop
  endfacet
  facet normal 0 0 -1
    outer loop
      vertex -3.09017 -9.51056 0
      vertex -1.45388 -3.83357 0
      vertex -1.04528 -9.94522 0
    endloop
  endfacet
  facet normal 0 0 -1
    outer loop
      vertex -5 -8.66025 0
      vertex -1.45388 -3.83357 0
      vertex -3.09017 -9.51056 0
    endloop
  endfacet
  facet normal -0 0 -1
    outer loop
      vertex -1.45388 -3.83357 0
      vertex -5 -8.66025 0
      vertex -3.06889 -2.7188 0
    endloop
  endfacet
  facet normal 0 0 -1
    outer loop
      vertex -8.09017 -5.87785 0
      vertex -3.06889 -2.7188 0
      vertex -6.69131 -7.43145 0
    endloop
  endfacet
  facet normal 0 0 -1
    outer loop
      vertex -6.69131 -7.43145 0
      vertex -3.06889 -2.7188 0
      vertex -5 -8.66025 0
    endloop
  endfacet
  facet normal 0 0 -1
    outer loop
      vertex 25 -2 0
      vertex 30 5 0
      vertex 30 -5 0
    endloop
  endfacet
  facet normal 0 0 -1
    outer loop
      vertex 20 5 0
      vertex 25 -2 0
      vertex 20 -2 0
    endloop
  endfacet
  facet normal 0 0 -1
    outer loop
      vertex 25 -2 0
      vertex 20 5 0
      vertex 30 5 0
    endloop
  endfacet
  facet normal -0 0 -1
    outer loop
      vertex 8.09017 5.87785 0
      vertex 2.32907 3.37423 0
      vertex 6.69131 7.43145 0
    endloop
  endfacet
  facet normal -0 0 -1
    outer loop
      vertex 6.69131 7.43145 0
      vertex 2.32907 3.37423 0
      vertex 5 8.66025 0
    endloop
  endfacet
  facet normal -0 0 -1
    outer loop
      vertex 5 8.66025 0
      vertex 2.32907 3.37423 0
      vertex 3.09017 9.51056 0
    endloop
  endfacet
  facet normal 0 0 -1
    outer loop
      vertex 0.4942 4.07011 0
      vertex 3.09017 9.51056 0
      vertex 2.32907 3.37423 0
    endloop
  endfacet
  facet normal -0 0 -1
    outer loop
      vertex 3.09017 9.51056 0
      vertex 0.4942 4.07011 0
      vertex 1.04528 9.94522 0
    endloop
  endfacet
  facet normal 0 0 -1
    outer loop
      vertex 0.4942 4.07011 0
      vertex -1.04528 9.94522 0
      vertex 1.04528 9.94522 0
    endloop
  endfacet
  facet normal 0 0 -1
    outer loop
      vertex -1.45388 3.83357 0
      vertex -1.04528 9.94522 0
      vertex 0.4942 4.07011 0
    endloop
  endfacet
  facet normal 0 0 -1
    outer loop
      vertex -5 8.66025 0
      vertex -1.45388 3.83357 0
      vertex -3.06889 2.7188 0
    endloop
  endfacet
  facet normal 0 0 -1
    outer loop
      vertex -1.45388 3.83357 0
      vertex -3.09017 9.51056 0
      vertex -1.04528 9.94522 0
    endloop
  endfacet
  facet normal 0 0 -1
    outer loop
      vertex -9.13545 4.06737 0
      vertex -3.06889 2.7188 0
      vertex -3.98086 0.981194 0
    endloop
  endfacet
  facet normal 0 0 -1
    outer loop
      vertex -9.13545 -4.06737 0
      vertex -3.06889 -2.7188 0
      vertex -8.09017 -5.87785 0
    endloop
  endfacet
  facet normal 0 0 -1
    outer loop
      vertex -1.45388 3.83357 0
      vertex -5 8.66025 0
      vertex -3.09017 9.51056 0
    endloop
  endfacet
  facet normal -0 0 -1
    outer loop
      vertex -3.06889 -2.7188 0
      vertex -9.13545 -4.06737 0
      vertex -3.98086 -0.981194 0
    endloop
  endfacet
  facet normal 0 0 -1
    outer loop
      vertex -3.06889 2.7188 0
      vertex -6.69131 7.43145 0
      vertex -5 8.66025 0
    endloop
  endfacet
  facet normal 0 0 -1
    outer loop
      vertex -9.78148 -2.07912 0
      vertex -3.98086 -0.981194 0
      vertex -9.13545 -4.06737 0
    endloop
  endfacet
  facet normal 0 0 -1
    outer loop
      vertex -3.06889 2.7188 0
      vertex -8.09017 5.87785 0
      vertex -6.69131 7.43145 0
    endloop
  endfacet
  facet normal 0 0 -1
    outer loop
      vertex -10 0 0
      vertex -3.98086 -0.981194 0
      vertex -9.78148 -2.07912 0
    endloop
  endfacet
  facet normal 0 0 -1
    outer loop
      vertex -3.06889 2.7188 0
      vertex -9.13545 4.06737 0
      vertex -8.09017 5.87785 0
    endloop
  endfacet
  facet normal 0 0 -1
    outer loop
      vertex -3.98086 -0.981194 0
      vertex -10 0 0
      vertex -3.98086 0.981194 0
    endloop
  endfacet
  facet normal 0 0 -1
    outer loop
      vertex -3.98086 0.981194 0
      vertex -9.78148 2.07912 0
      vertex -9.13545 4.06737 0
    endloop
  endfacet
  facet normal -0 0 -1
    outer loop
      vertex -3.98086 0.981194 0
      vertex -10 0 0
      vertex -9.78148 2.07912 0
    endloop
  endfacet
  facet normal -1 0 0
    outer loop
      vertex 0 -10 0
      vertex 0 -9.94522 4
      vertex 0 -9.94522 0
    endloop
  endfacet
  facet normal -1 -0 0
    outer loop
      vertex 0 -9.94522 4
      vertex 0 -10 0
      vertex 0 -10 4
    endloop
  endfacet
  facet normal 0 1 0
    outer loop
      vertex 30 5 19
      vertex 25 5 4
      vertex 25 5 19
    endloop
  endfacet
  facet normal 0 1 0
    outer loop
      vertex 20 5 0
      vertex 20 5 4
      vertex 25 5 4
    endloop
  endfacet
  facet normal 0 1 -0
    outer loop
      vertex 30 5 0
      vertex 25 5 4
      vertex 30 5 19
    endloop
  endfacet
  facet normal 0 1 0
    outer loop
      vertex 20 5 0
      vertex 25 5 4
      vertex 30 5 0
    endloop
  endfacet
  facet normal 0 1 0
    outer loop
      vertex 20 5 4
      vertex 20 5 0
      vertex 19 5 2
    endloop
  endfacet
  facet normal 0 1 0
    outer loop
      vertex 14 5 0
      vertex 14 5 4
      vertex 15 5 2
    endloop
  endfacet
  facet normal 0 1 0
    outer loop
      vertex 14 5 4
      vertex 14 5 0
      vertex 8.597 5 4
    endloop
  endfacet
  facet normal 0 1 0
    outer loop
      vertex 8.597 5 4
      vertex 14 5 0
      vertex 8.597 5 0
    endloop
  endfacet
  facet normal 0 -1 0
    outer loop
      vertex 0 -10 0
      vertex 16 -10 4
      vertex 0 -10 4
    endloop
  endfacet
  facet normal 0 -1 -0
    outer loop
      vertex 16 -10 4
      vertex 0 -10 0
      vertex 16 -10 0
    endloop
  endfacet
  facet normal 0.587783 0.809019 -0
    outer loop
      vertex 6.69131 7.43145 0
      vertex 5 8.66025 4
      vertex 6.69131 7.43145 4
    endloop
  endfacet
  facet normal 0.587783 0.809019 0
    outer loop
      vertex 5 8.66025 4
      vertex 6.69131 7.43145 0
      vertex 5 8.66025 0
    endloop
  endfacet
  facet normal -0.866026 0.5 0
    outer loop
      vertex -9.13545 4.06737 0
      vertex -8.09017 5.87785 4
      vertex -8.09017 5.87785 0
    endloop
  endfacet
  facet normal -0.866026 0.5 0
    outer loop
      vertex -8.09017 5.87785 4
      vertex -9.13545 4.06737 0
      vertex -9.13545 4.06737 4
    endloop
  endfacet
  facet normal 0.866024 0.500002 0
    outer loop
      vertex 8.597 5 4
      vertex 8.09017 5.87785 0
      vertex 8.09017 5.87785 4
    endloop
  endfacet
  facet normal 0.866024 0.500002 0
    outer loop
      vertex 8.09017 5.87785 0
      vertex 8.597 5 4
      vertex 8.597 5 0
    endloop
  endfacet
  facet normal -0.994522 0.104526 0
    outer loop
      vertex -10 0 0
      vertex -9.78148 2.07912 4
      vertex -9.78148 2.07912 0
    endloop
  endfacet
  facet normal -0.994522 0.104526 0
    outer loop
      vertex -9.78148 2.07912 4
      vertex -10 0 0
      vertex -10 0 4
    endloop
  endfacet
  facet normal -0.866026 -0.5 0
    outer loop
      vertex -8.09017 -5.87785 0
      vertex -9.13545 -4.06737 4
      vertex -9.13545 -4.06737 0
    endloop
  endfacet
  facet normal -0.866026 -0.5 0
    outer loop
      vertex -9.13545 -4.06737 4
      vertex -8.09017 -5.87785 0
      vertex -8.09017 -5.87785 4
    endloop
  endfacet
  facet normal -0.743147 -0.669129 0
    outer loop
      vertex -6.69131 -7.43145 0
      vertex -8.09017 -5.87785 4
      vertex -8.09017 -5.87785 0
    endloop
  endfacet
  facet normal -0.743147 -0.669129 0
    outer loop
      vertex -8.09017 -5.87785 4
      vertex -6.69131 -7.43145 0
      vertex -6.69131 -7.43145 4
    endloop
  endfacet
  facet normal -0.951055 0.309021 0
    outer loop
      vertex -9.78148 2.07912 0
      vertex -9.13545 4.06737 4
      vertex -9.13545 4.06737 0
    endloop
  endfacet
  facet normal -0.951055 0.309021 0
    outer loop
      vertex -9.13545 4.06737 4
      vertex -9.78148 2.07912 0
      vertex -9.78148 2.07912 4
    endloop
  endfacet
  facet normal 0 -1 0
    outer loop
      vertex -1.04528 -9.94522 0
      vertex 0 -9.94522 4
      vertex -1.04528 -9.94522 4
    endloop
  endfacet
  facet normal 0 -1 -0
    outer loop
      vertex 0 -9.94522 4
      vertex -1.04528 -9.94522 0
      vertex 0 -9.94522 0
    endloop
  endfacet
  facet normal -0.207914 0.978147 0
    outer loop
      vertex -1.04528 9.94522 0
      vertex -3.09017 9.51056 4
      vertex -1.04528 9.94522 4
    endloop
  endfacet
  facet normal -0.207914 0.978147 0
    outer loop
      vertex -3.09017 9.51056 4
      vertex -1.04528 9.94522 0
      vertex -3.09017 9.51056 0
    endloop
  endfacet
  facet normal 0.406736 0.913546 -0
    outer loop
      vertex 5 8.66025 0
      vertex 3.09017 9.51056 4
      vertex 5 8.66025 4
    endloop
  endfacet
  facet normal 0.406736 0.913546 0
    outer loop
      vertex 3.09017 9.51056 4
      vertex 5 8.66025 0
      vertex 3.09017 9.51056 0
    endloop
  endfacet
  facet normal -0.406736 0.913546 0
    outer loop
      vertex -3.09017 9.51056 0
      vertex -5 8.66025 4
      vertex -3.09017 9.51056 4
    endloop
  endfacet
  facet normal -0.406736 0.913546 0
    outer loop
      vertex -5 8.66025 4
      vertex -3.09017 9.51056 0
      vertex -5 8.66025 0
    endloop
  endfacet
  facet normal -0.406736 -0.913546 0
    outer loop
      vertex -5 -8.66025 0
      vertex -3.09017 -9.51056 4
      vertex -5 -8.66025 4
    endloop
  endfacet
  facet normal -0.406736 -0.913546 -0
    outer loop
      vertex -3.09017 -9.51056 4
      vertex -5 -8.66025 0
      vertex -3.09017 -9.51056 0
    endloop
  endfacet
  facet normal 0 1 -0
    outer loop
      vertex 1.04528 9.94522 0
      vertex -1.04528 9.94522 4
      vertex 1.04528 9.94522 4
    endloop
  endfacet
  facet normal 0 1 0
    outer loop
      vertex -1.04528 9.94522 4
      vertex 1.04528 9.94522 0
      vertex -1.04528 9.94522 0
    endloop
  endfacet
  facet normal 0.743147 0.669129 0
    outer loop
      vertex 8.09017 5.87785 4
      vertex 6.69131 7.43145 0
      vertex 6.69131 7.43145 4
    endloop
  endfacet
  facet normal 0.743147 0.669129 0
    outer loop
      vertex 6.69131 7.43145 0
      vertex 8.09017 5.87785 4
      vertex 8.09017 5.87785 0
    endloop
  endfacet
  facet normal 0.207914 0.978147 -0
    outer loop
      vertex 3.09017 9.51056 0
      vertex 1.04528 9.94522 4
      vertex 3.09017 9.51056 4
    endloop
  endfacet
  facet normal 0.207914 0.978147 0
    outer loop
      vertex 1.04528 9.94522 4
      vertex 3.09017 9.51056 0
      vertex 1.04528 9.94522 0
    endloop
  endfacet
  facet normal -0.951055 -0.309021 0
    outer loop
      vertex -9.13545 -4.06737 0
      vertex -9.78148 -2.07912 4
      vertex -9.78148 -2.07912 0
    endloop
  endfacet
  facet normal -0.951055 -0.309021 0
    outer loop
      vertex -9.78148 -2.07912 4
      vertex -9.13545 -4.06737 0
      vertex -9.13545 -4.06737 4
    endloop
  endfacet
  facet normal -0.587783 -0.809019 0
    outer loop
      vertex -6.69131 -7.43145 0
      vertex -5 -8.66025 4
      vertex -6.69131 -7.43145 4
    endloop
  endfacet
  facet normal -0.587783 -0.809019 -0
    outer loop
      vertex -5 -8.66025 4
      vertex -6.69131 -7.43145 0
      vertex -5 -8.66025 0
    endloop
  endfacet
  facet normal -0.743147 0.669129 0
    outer loop
      vertex -8.09017 5.87785 0
      vertex -6.69131 7.43145 4
      vertex -6.69131 7.43145 0
    endloop
  endfacet
  facet normal -0.743147 0.669129 0
    outer loop
      vertex -6.69131 7.43145 4
      vertex -8.09017 5.87785 0
      vertex -8.09017 5.87785 4
    endloop
  endfacet
  facet normal -0.587783 0.809019 0
    outer loop
      vertex -5 8.66025 0
      vertex -6.69131 7.43145 4
      vertex -5 8.66025 4
    endloop
  endfacet
  facet normal -0.587783 0.809019 0
    outer loop
      vertex -6.69131 7.43145 4
      vertex -5 8.66025 0
      vertex -6.69131 7.43145 0
    endloop
  endfacet
  facet normal -0.994522 -0.104526 0
    outer loop
      vertex -9.78148 -2.07912 0
      vertex -10 0 4
      vertex -10 0 0
    endloop
  endfacet
  facet normal -0.994522 -0.104526 0
    outer loop
      vertex -10 0 4
      vertex -9.78148 -2.07912 0
      vertex -9.78148 -2.07912 4
    endloop
  endfacet
  facet normal -0.207914 -0.978147 0
    outer loop
      vertex -3.09017 -9.51056 0
      vertex -1.04528 -9.94522 4
      vertex -3.09017 -9.51056 4
    endloop
  endfacet
  facet normal -0.207914 -0.978147 -0
    outer loop
      vertex -1.04528 -9.94522 4
      vertex -3.09017 -9.51056 0
      vertex -1.04528 -9.94522 0
    endloop
  endfacet
  facet normal -1 0 0
    outer loop
      vertex 16 -12 0
      vertex 16 -10 4
      vertex 16 -10 0
    endloop
  endfacet
  facet normal -1 -0 0
    outer loop
      vertex 16 -10 4
      vertex 16 -12 0
      vertex 16 -12 4
    endloop
  endfacet
  facet normal 0 -1 0
    outer loop
      vertex 16 -12 0
      vertex 16.1981 -12 4
      vertex 16 -12 4
    endloop
  endfacet
  facet normal 0 -1 -0
    outer loop
      vertex 16.1981 -12 4
      vertex 16 -12 0
      vertex 16.1981 -12 0
    endloop
  endfacet
  facet normal 0.900977 -0.433866 0
    outer loop
      vertex 19.247 -13.5637 4
      vertex 20 -12 0
      vertex 20 -12 4
    endloop
  endfacet
  facet normal 0.900977 -0.433866 0
    outer loop
      vertex 20 -12 0
      vertex 19.247 -13.5637 4
      vertex 19.247 -13.5637 0
    endloop
  endfacet
  facet normal -0.623493 -0.781829 0
    outer loop
      vertex 16.1981 -12.8678 0
      vertex 17.555 -13.9499 4
      vertex 16.1981 -12.8678 4
    endloop
  endfacet
  facet normal -0.623493 -0.781829 -0
    outer loop
      vertex 17.555 -13.9499 4
      vertex 16.1981 -12.8678 0
      vertex 17.555 -13.9499 0
    endloop
  endfacet
  facet normal 0.222528 -0.974926 0
    outer loop
      vertex 17.555 -13.9499 0
      vertex 19.247 -13.5637 4
      vertex 17.555 -13.9499 4
    endloop
  endfacet
  facet normal 0.222528 -0.974926 0
    outer loop
      vertex 19.247 -13.5637 4
      vertex 17.555 -13.9499 0
      vertex 19.247 -13.5637 0
    endloop
  endfacet
  facet normal -1 0 0
    outer loop
      vertex 16.1981 -12.8678 0
      vertex 16.1981 -12 4
      vertex 16.1981 -12 0
    endloop
  endfacet
  facet normal -1 -0 0
    outer loop
      vertex 16.1981 -12 4
      vertex 16.1981 -12.8678 0
      vertex 16.1981 -12.8678 4
    endloop
  endfacet
  facet normal 1 -0 0
    outer loop
      vertex 30 -5 19
      vertex 30 5 0
      vertex 30 5 19
    endloop
  endfacet
  facet normal 1 0 0
    outer loop
      vertex 30 5 0
      vertex 30 -5 19
      vertex 30 -5 0
    endloop
  endfacet
  facet normal 0 -1 0
    outer loop
      vertex 20 -2 0
      vertex 25 -2 4
      vertex 20 -2 4
    endloop
  endfacet
  facet normal 0 -1 -0
    outer loop
      vertex 25 -2 4
      vertex 20 -2 0
      vertex 25 -2 0
    endloop
  endfacet
  facet normal 0 0 1
    outer loop
      vertex 25 -2 19
      vertex 30 5 19
      vertex 25 5 19
    endloop
  endfacet
  facet normal 0 0 1
    outer loop
      vertex 30 5 19
      vertex 25 -2 19
      vertex 30 -5 19
    endloop
  endfacet
  facet normal -0.514496 -0.857493 0
    outer loop
      vertex 25 -2 4
      vertex 30 -5 19
      vertex 25 -2 19
    endloop
  endfacet
  facet normal -0.514496 -0.857493 0
    outer loop
      vertex 30 -5 0
      vertex 25 -2 4
      vertex 25 -2 0
    endloop
  endfacet
  facet normal -0.514496 -0.857493 0
    outer loop
      vertex 25 -2 4
      vertex 30 -5 0
      vertex 30 -5 19
    endloop
  endfacet
  facet normal -1 0 0
    outer loop
      vertex 25 -2 4
      vertex 25 5 19
      vertex 25 5 4
    endloop
  endfacet
  facet normal -1 -0 0
    outer loop
      vertex 25 5 19
      vertex 25 -2 4
      vertex 25 -2 19
    endloop
  endfacet
  facet normal 0.568068 -0.822982 0
    outer loop
      vertex -3.06889 2.7188 0
      vertex -1.45388 3.83357 4
      vertex -3.06889 2.7188 4
    endloop
  endfacet
  facet normal 0.568068 -0.822982 0
    outer loop
      vertex -1.45388 3.83357 4
      vertex -3.06889 2.7188 0
      vertex -1.45388 3.83357 0
    endloop
  endfacet
  facet normal -0.748512 -0.663121 0
    outer loop
      vertex 3.63037 1.90536 0
      vertex 2.32907 3.37423 4
      vertex 2.32907 3.37423 0
    endloop
  endfacet
  facet normal -0.748512 -0.663121 0
    outer loop
      vertex 2.32907 3.37423 4
      vertex 3.63037 1.90536 0
      vertex 3.63037 1.90536 4
    endloop
  endfacet
  facet normal -0.970942 -0.239316 0
    outer loop
      vertex 4.1 0 0
      vertex 3.63037 1.90536 4
      vertex 3.63037 1.90536 0
    endloop
  endfacet
  facet normal -0.970942 -0.239316 0
    outer loop
      vertex 3.63037 1.90536 4
      vertex 4.1 0 0
      vertex 4.1 0 4
    endloop
  endfacet
  facet normal 1 -0 0
    outer loop
      vertex -3.98086 -0.981194 4
      vertex -3.98086 0.981194 0
      vertex -3.98086 0.981194 4
    endloop
  endfacet
  facet normal 1 0 0
    outer loop
      vertex -3.98086 0.981194 0
      vertex -3.98086 -0.981194 4
      vertex -3.98086 -0.981194 0
    endloop
  endfacet
  facet normal 0.885455 -0.464725 0
    outer loop
      vertex -3.98086 0.981194 4
      vertex -3.06889 2.7188 0
      vertex -3.06889 2.7188 4
    endloop
  endfacet
  facet normal 0.885455 -0.464725 0
    outer loop
      vertex -3.06889 2.7188 0
      vertex -3.98086 0.981194 4
      vertex -3.98086 0.981194 0
    endloop
  endfacet
  facet normal -0.970942 0.239316 0
    outer loop
      vertex 3.63037 -1.90536 0
      vertex 4.1 0 4
      vertex 4.1 0 0
    endloop
  endfacet
  facet normal -0.970942 0.239316 0
    outer loop
      vertex 4.1 0 4
      vertex 3.63037 -1.90536 0
      vertex 3.63037 -1.90536 4
    endloop
  endfacet
  facet normal 0.120537 0.992709 -0
    outer loop
      vertex 0.4942 -4.07011 0
      vertex -1.45388 -3.83357 4
      vertex 0.4942 -4.07011 4
    endloop
  endfacet
  facet normal 0.120537 0.992709 0
    outer loop
      vertex -1.45388 -3.83357 4
      vertex 0.4942 -4.07011 0
      vertex -1.45388 -3.83357 0
    endloop
  endfacet
  facet normal -0.748512 0.663121 0
    outer loop
      vertex 2.32907 -3.37423 0
      vertex 3.63037 -1.90536 4
      vertex 3.63037 -1.90536 0
    endloop
  endfacet
  facet normal -0.748512 0.663121 0
    outer loop
      vertex 3.63037 -1.90536 4
      vertex 2.32907 -3.37423 0
      vertex 2.32907 -3.37423 4
    endloop
  endfacet
  facet normal -0.354607 0.935015 0
    outer loop
      vertex 2.32907 -3.37423 0
      vertex 0.4942 -4.07011 4
      vertex 2.32907 -3.37423 4
    endloop
  endfacet
  facet normal -0.354607 0.935015 0
    outer loop
      vertex 0.4942 -4.07011 4
      vertex 2.32907 -3.37423 0
      vertex 0.4942 -4.07011 0
    endloop
  endfacet
  facet normal 0.120537 -0.992709 0
    outer loop
      vertex -1.45388 3.83357 0
      vertex 0.4942 4.07011 4
      vertex -1.45388 3.83357 4
    endloop
  endfacet
  facet normal 0.120537 -0.992709 0
    outer loop
      vertex 0.4942 4.07011 4
      vertex -1.45388 3.83357 0
      vertex 0.4942 4.07011 0
    endloop
  endfacet
  facet normal -0.354607 -0.935015 0
    outer loop
      vertex 0.4942 4.07011 0
      vertex 2.32907 3.37423 4
      vertex 0.4942 4.07011 4
    endloop
  endfacet
  facet normal -0.354607 -0.935015 -0
    outer loop
      vertex 2.32907 3.37423 4
      vertex 0.4942 4.07011 0
      vertex 2.32907 3.37423 0
    endloop
  endfacet
  facet normal 0.568068 0.822982 -0
    outer loop
      vertex -1.45388 -3.83357 0
      vertex -3.06889 -2.7188 4
      vertex -1.45388 -3.83357 4
    endloop
  endfacet
  facet normal 0.568068 0.822982 0
    outer loop
      vertex -3.06889 -2.7188 4
      vertex -1.45388 -3.83357 0
      vertex -3.06889 -2.7188 0
    endloop
  endfacet
  facet normal 0.885455 0.464725 0
    outer loop
      vertex -3.06889 -2.7188 4
      vertex -3.98086 -0.981194 0
      vertex -3.98086 -0.981194 4
    endloop
  endfacet
  facet normal 0.885455 0.464725 0
    outer loop
      vertex -3.98086 -0.981194 0
      vertex -3.06889 -2.7188 4
      vertex -3.06889 -2.7188 0
    endloop
  endfacet
  facet normal 0.858886 0.279093 0.429443
    outer loop
      vertex 20 5 0
      vertex 18.7135 5.88168 2
      vertex 19 5 2
    endloop
  endfacet
  facet normal 0.85889 0.279046 0.429466
    outer loop
      vertex 18.7135 5.88168 2
      vertex 20 5 0
      vertex 19.4271 6.76336 0
    endloop
  endfacet
  facet normal -0.530815 0.730613 0.429466
    outer loop
      vertex 16.0729 7.85317 0
      vertex 15.632 6.35721 2
      vertex 16.382 6.90211 2
    endloop
  endfacet
  facet normal -0.530818 0.730611 0.429464
    outer loop
      vertex 15.632 6.35721 2
      vertex 16.0729 7.85317 0
      vertex 14.5729 6.76336 0
    endloop
  endfacet
  facet normal -0.530827 0.730603 0.429467
    outer loop
      vertex 15.632 6.35721 2
      vertex 14.5729 6.76336 0
      vertex 15.382 6.17557 2
    endloop
  endfacet
  facet normal 0.530818 0.730611 0.429464
    outer loop
      vertex 17.9271 7.85317 0
      vertex 18.368 6.35721 2
      vertex 19.4271 6.76336 0
    endloop
  endfacet
  facet normal 0.530815 0.730613 0.429466
    outer loop
      vertex 18.368 6.35721 2
      vertex 17.9271 7.85317 0
      vertex 17.618 6.90211 2
    endloop
  endfacet
  facet normal 0 0.903092 0.429447
    outer loop
      vertex 17.9271 7.85317 0
      vertex 16.382 6.90211 2
      vertex 17.618 6.90211 2
    endloop
  endfacet
  facet normal 0 0.903092 0.429447
    outer loop
      vertex 16.382 6.90211 2
      vertex 17.9271 7.85317 0
      vertex 16.0729 7.85317 0
    endloop
  endfacet
  facet normal -0.85889 0.279046 0.429466
    outer loop
      vertex 14 5 0
      vertex 15.2865 5.88168 2
      vertex 14.5729 6.76336 0
    endloop
  endfacet
  facet normal -0.858886 0.279093 0.429443
    outer loop
      vertex 15.2865 5.88168 2
      vertex 14 5 0
      vertex 15 5 2
    endloop
  endfacet
  facet normal 0.530827 0.730603 0.429467
    outer loop
      vertex 19.4271 6.76336 0
      vertex 18.368 6.35721 2
      vertex 18.618 6.17557 2
    endloop
  endfacet
  facet normal -0.858869 0.279091 0.429479
    outer loop
      vertex 15.382 6.17557 2
      vertex 14.5729 6.76336 0
      vertex 15.2865 5.88168 2
    endloop
  endfacet
  facet normal 0.858869 0.279091 0.429479
    outer loop
      vertex 19.4271 6.76336 0
      vertex 18.618 6.17557 2
      vertex 18.7135 5.88168 2
    endloop
  endfacet
  facet normal -0.858869 0.279091 -0.429479
    outer loop
      vertex 15.2865 5.88168 2
      vertex 14.5729 6.76336 4
      vertex 15.382 6.17557 2
    endloop
  endfacet
  facet normal 0.85889 0.279046 -0.429466
    outer loop
      vertex 20 5 4
      vertex 18.7135 5.88168 2
      vertex 19.4271 6.76336 4
    endloop
  endfacet
  facet normal 0.858886 0.279093 -0.429443
    outer loop
      vertex 18.7135 5.88168 2
      vertex 20 5 4
      vertex 19 5 2
    endloop
  endfacet
  facet normal 0.858869 0.279091 -0.429479
    outer loop
      vertex 18.7135 5.88168 2
      vertex 18.618 6.17557 2
      vertex 19.4271 6.76336 4
    endloop
  endfacet
  facet normal 0 0.903092 -0.429447
    outer loop
      vertex 17.618 6.90211 2
      vertex 16.0729 7.85317 4
      vertex 17.9271 7.85317 4
    endloop
  endfacet
  facet normal 0 0.903092 -0.429447
    outer loop
      vertex 16.0729 7.85317 4
      vertex 17.618 6.90211 2
      vertex 16.382 6.90211 2
    endloop
  endfacet
  facet normal -0.530827 0.730603 -0.429467
    outer loop
      vertex 15.382 6.17557 2
      vertex 14.5729 6.76336 4
      vertex 15.632 6.35721 2
    endloop
  endfacet
  facet normal -0.530815 0.730613 -0.429466
    outer loop
      vertex 15.632 6.35721 2
      vertex 16.0729 7.85317 4
      vertex 16.382 6.90211 2
    endloop
  endfacet
  facet normal -0.530818 0.730611 -0.429464
    outer loop
      vertex 16.0729 7.85317 4
      vertex 15.632 6.35721 2
      vertex 14.5729 6.76336 4
    endloop
  endfacet
  facet normal -0.858886 0.279093 -0.429443
    outer loop
      vertex 14 5 4
      vertex 15.2865 5.88168 2
      vertex 15 5 2
    endloop
  endfacet
  facet normal -0.85889 0.279046 -0.429466
    outer loop
      vertex 15.2865 5.88168 2
      vertex 14 5 4
      vertex 14.5729 6.76336 4
    endloop
  endfacet
  facet normal 0.530818 0.730611 -0.429464
    outer loop
      vertex 18.368 6.35721 2
      vertex 17.9271 7.85317 4
      vertex 19.4271 6.76336 4
    endloop
  endfacet
  facet normal 0.530815 0.730613 -0.429466
    outer loop
      vertex 17.9271 7.85317 4
      vertex 18.368 6.35721 2
      vertex 17.618 6.90211 2
    endloop
  endfacet
  facet normal 0.530827 0.730603 -0.429467
    outer loop
      vertex 18.618 6.17557 2
      vertex 18.368 6.35721 2
      vertex 19.4271 6.76336 4
    endloop
  endfacet
  facet normal 1 -0 0
    outer loop
      vertex 20 102 4
      vertex 20 112 0
      vertex 20 112 4
    endloop
  endfacet
  facet normal 1 0 0
    outer loop
      vertex 20 112 0
      vertex 20 102 4
      vertex 20 102 0
    endloop
  endfacet
  facet normal -0 0 1
    outer loop
      vertex 16 110 4
      vertex 20 102 4
      vertex 20 112 4
    endloop
  endfacet
  facet normal 0 0 1
    outer loop
      vertex 14 95 4
      vertex 20 102 4
      vertex 16 110 4
    endloop
  endfacet
  facet normal 0 0 1
    outer loop
      vertex 16.1981 112 4
      vertex 20 112 4
      vertex 19.247 113.564 4
    endloop
  endfacet
  facet normal 0 0 1
    outer loop
      vertex 20 102 4
      vertex 14 95 4
      vertex 20 95 4
    endloop
  endfacet
  facet normal 0 0 1
    outer loop
      vertex 16.1981 112 4
      vertex 19.247 113.564 4
      vertex 17.555 113.95 4
    endloop
  endfacet
  facet normal 0 0 1
    outer loop
      vertex 16.1981 112 4
      vertex 17.555 113.95 4
      vertex 16.1981 112.868 4
    endloop
  endfacet
  facet normal 0 0 1
    outer loop
      vertex 20 112 4
      vertex 16.1981 112 4
      vertex 16 110 4
    endloop
  endfacet
  facet normal 0 0 1
    outer loop
      vertex 20 95 4
      vertex 14 95 4
      vertex 19.4271 93.2366 4
    endloop
  endfacet
  facet normal 0 0 1
    outer loop
      vertex 16 110 4
      vertex 16.1981 112 4
      vertex 16 112 4
    endloop
  endfacet
  facet normal 0 0 1
    outer loop
      vertex 19.4271 93.2366 4
      vertex 14 95 4
      vertex 17.9271 92.1468 4
    endloop
  endfacet
  facet normal 0 0 1
    outer loop
      vertex 17.9271 92.1468 4
      vertex 14 95 4
      vertex 16.0729 92.1468 4
    endloop
  endfacet
  facet normal 0 0 1
    outer loop
      vertex 16.0729 92.1468 4
      vertex 14 95 4
      vertex 14.5729 93.2366 4
    endloop
  endfacet
  facet normal -0 0 1
    outer loop
      vertex 4.1 100 4
      vertex 14 95 4
      vertex 16 110 4
    endloop
  endfacet
  facet normal 0 0 1
    outer loop
      vertex 14 95 4
      vertex 4.1 100 4
      vertex 8.597 95 4
    endloop
  endfacet
  facet normal -0 0 1
    outer loop
      vertex 3.63037 98.0946 4
      vertex 8.597 95 4
      vertex 4.1 100 4
    endloop
  endfacet
  facet normal 0 0 1
    outer loop
      vertex 8.597 95 4
      vertex 3.63037 98.0946 4
      vertex 8.09017 94.1221 4
    endloop
  endfacet
  facet normal -0 0 1
    outer loop
      vertex 2.32907 96.6258 4
      vertex 8.09017 94.1221 4
      vertex 3.63037 98.0946 4
    endloop
  endfacet
  facet normal 0 0 1
    outer loop
      vertex 16 110 4
      vertex 3.63037 101.905 4
      vertex 4.1 100 4
    endloop
  endfacet
  facet normal 0 0 1
    outer loop
      vertex 16 110 4
      vertex 2.32907 103.374 4
      vertex 3.63037 101.905 4
    endloop
  endfacet
  facet normal -0 0 1
    outer loop
      vertex 0 109.945 4
      vertex 2.32907 103.374 4
      vertex 16 110 4
    endloop
  endfacet
  facet normal 0 0 1
    outer loop
      vertex 0 109.945 4
      vertex 16 110 4
      vertex 0 110 4
    endloop
  endfacet
  facet normal 0 0 1
    outer loop
      vertex 2.32907 103.374 4
      vertex 0 109.945 4
      vertex 0.4942 104.07 4
    endloop
  endfacet
  facet normal -0 0 1
    outer loop
      vertex -1.04528 109.945 4
      vertex 0.4942 104.07 4
      vertex 0 109.945 4
    endloop
  endfacet
  facet normal 0 0 1
    outer loop
      vertex -1.04528 109.945 4
      vertex -1.45388 103.834 4
      vertex 0.4942 104.07 4
    endloop
  endfacet
  facet normal -0 0 1
    outer loop
      vertex -3.09017 109.511 4
      vertex -1.45388 103.834 4
      vertex -1.04528 109.945 4
    endloop
  endfacet
  facet normal -0 0 1
    outer loop
      vertex -5 108.66 4
      vertex -1.45388 103.834 4
      vertex -3.09017 109.511 4
    endloop
  endfacet
  facet normal 0 0 1
    outer loop
      vertex -1.45388 103.834 4
      vertex -5 108.66 4
      vertex -3.06889 102.719 4
    endloop
  endfacet
  facet normal -0 0 1
    outer loop
      vertex -8.09017 105.878 4
      vertex -3.06889 102.719 4
      vertex -6.69131 107.431 4
    endloop
  endfacet
  facet normal -0 0 1
    outer loop
      vertex -6.69131 107.431 4
      vertex -3.06889 102.719 4
      vertex -5 108.66 4
    endloop
  endfacet
  facet normal -0 0 1
    outer loop
      vertex 20 102 4
      vertex 25 95 4
      vertex 25 102 4
    endloop
  endfacet
  facet normal 0 0 1
    outer loop
      vertex 25 95 4
      vertex 20 102 4
      vertex 20 95 4
    endloop
  endfacet
  facet normal 0 0 1
    outer loop
      vertex 8.09017 94.1221 4
      vertex 2.32907 96.6258 4
      vertex 6.69131 92.5686 4
    endloop
  endfacet
  facet normal 0 0 1
    outer loop
      vertex 6.69131 92.5686 4
      vertex 2.32907 96.6258 4
      vertex 5 91.3397 4
    endloop
  endfacet
  facet normal 0 0 1
    outer loop
      vertex 5 91.3397 4
      vertex 2.32907 96.6258 4
      vertex 3.09017 90.4894 4
    endloop
  endfacet
  facet normal -0 0 1
    outer loop
      vertex 0.4942 95.9299 4
      vertex 3.09017 90.4894 4
      vertex 2.32907 96.6258 4
    endloop
  endfacet
  facet normal 0 0 1
    outer loop
      vertex 3.09017 90.4894 4
      vertex 0.4942 95.9299 4
      vertex 1.04528 90.0548 4
    endloop
  endfacet
  facet normal 0 0 1
    outer loop
      vertex 0.4942 95.9299 4
      vertex -1.04528 90.0548 4
      vertex 1.04528 90.0548 4
    endloop
  endfacet
  facet normal 0 0 1
    outer loop
      vertex -1.45388 96.1664 4
      vertex -1.04528 90.0548 4
      vertex 0.4942 95.9299 4
    endloop
  endfacet
  facet normal 0 0 1
    outer loop
      vertex -5 91.3397 4
      vertex -1.45388 96.1664 4
      vertex -3.06889 97.2812 4
    endloop
  endfacet
  facet normal 0 0 1
    outer loop
      vertex -1.45388 96.1664 4
      vertex -3.09017 90.4894 4
      vertex -1.04528 90.0548 4
    endloop
  endfacet
  facet normal 0 0 1
    outer loop
      vertex -9.13545 95.9326 4
      vertex -3.06889 97.2812 4
      vertex -3.98086 99.0188 4
    endloop
  endfacet
  facet normal -0 0 1
    outer loop
      vertex -9.13545 104.067 4
      vertex -3.06889 102.719 4
      vertex -8.09017 105.878 4
    endloop
  endfacet
  facet normal 0 0 1
    outer loop
      vertex -1.45388 96.1664 4
      vertex -5 91.3397 4
      vertex -3.09017 90.4894 4
    endloop
  endfacet
  facet normal 0 0 1
    outer loop
      vertex -3.06889 102.719 4
      vertex -9.13545 104.067 4
      vertex -3.98086 100.981 4
    endloop
  endfacet
  facet normal 0 0 1
    outer loop
      vertex -3.06889 97.2812 4
      vertex -6.69131 92.5686 4
      vertex -5 91.3397 4
    endloop
  endfacet
  facet normal -0 0 1
    outer loop
      vertex -9.78148 102.079 4
      vertex -3.98086 100.981 4
      vertex -9.13545 104.067 4
    endloop
  endfacet
  facet normal 0 0 1
    outer loop
      vertex -3.06889 97.2812 4
      vertex -8.09017 94.1221 4
      vertex -6.69131 92.5686 4
    endloop
  endfacet
  facet normal 0 0 1
    outer loop
      vertex -10 100 4
      vertex -3.98086 100.981 4
      vertex -9.78148 102.079 4
    endloop
  endfacet
  facet normal 0 0 1
    outer loop
      vertex -3.06889 97.2812 4
      vertex -9.13545 95.9326 4
      vertex -8.09017 94.1221 4
    endloop
  endfacet
  facet normal 0 0 1
    outer loop
      vertex -3.98086 100.981 4
      vertex -10 100 4
      vertex -3.98086 99.0188 4
    endloop
  endfacet
  facet normal 0 0 1
    outer loop
      vertex -3.98086 99.0188 4
      vertex -9.78148 97.9209 4
      vertex -9.13545 95.9326 4
    endloop
  endfacet
  facet normal 0 0 1
    outer loop
      vertex -3.98086 99.0188 4
      vertex -10 100 4
      vertex -9.78148 97.9209 4
    endloop
  endfacet
  facet normal 0 0 -1
    outer loop
      vertex 0.4942 104.07 0
      vertex -1.04528 109.945 0
      vertex 0 109.945 0
    endloop
  endfacet
  facet normal 0 0 -1
    outer loop
      vertex -1.45388 103.834 0
      vertex -1.04528 109.945 0
      vertex 0.4942 104.07 0
    endloop
  endfacet
  facet normal 0 0 -1
    outer loop
      vertex -5 108.66 0
      vertex -1.45388 103.834 0
      vertex -3.06889 102.719 0
    endloop
  endfacet
  facet normal 0 0 -1
    outer loop
      vertex -1.45388 103.834 0
      vertex -3.09017 109.511 0
      vertex -1.04528 109.945 0
    endloop
  endfacet
  facet normal 0 0 -1
    outer loop
      vertex -9.13545 104.067 0
      vertex -3.06889 102.719 0
      vertex -3.98086 100.981 0
    endloop
  endfacet
  facet normal 0 0 -1
    outer loop
      vertex -9.13545 95.9326 0
      vertex -3.06889 97.2812 0
      vertex -8.09017 94.1221 0
    endloop
  endfacet
  facet normal 0 0 -1
    outer loop
      vertex -1.45388 103.834 0
      vertex -5 108.66 0
      vertex -3.09017 109.511 0
    endloop
  endfacet
  facet normal -0 0 -1
    outer loop
      vertex -3.06889 97.2812 0
      vertex -9.13545 95.9326 0
      vertex -3.98086 99.0188 0
    endloop
  endfacet
  facet normal 0 0 -1
    outer loop
      vertex -3.06889 102.719 0
      vertex -6.69131 107.431 0
      vertex -5 108.66 0
    endloop
  endfacet
  facet normal 0 0 -1
    outer loop
      vertex -9.78148 97.9209 0
      vertex -3.98086 99.0188 0
      vertex -9.13545 95.9326 0
    endloop
  endfacet
  facet normal 0 0 -1
    outer loop
      vertex -3.06889 102.719 0
      vertex -8.09017 105.878 0
      vertex -6.69131 107.431 0
    endloop
  endfacet
  facet normal 0 0 -1
    outer loop
      vertex -10 100 0
      vertex -3.98086 99.0188 0
      vertex -9.78148 97.9209 0
    endloop
  endfacet
  facet normal 0 0 -1
    outer loop
      vertex -3.06889 102.719 0
      vertex -9.13545 104.067 0
      vertex -8.09017 105.878 0
    endloop
  endfacet
  facet normal 0 0 -1
    outer loop
      vertex -3.98086 99.0188 0
      vertex -10 100 0
      vertex -3.98086 100.981 0
    endloop
  endfacet
  facet normal 0 0 -1
    outer loop
      vertex -3.98086 100.981 0
      vertex -9.78148 102.079 0
      vertex -9.13545 104.067 0
    endloop
  endfacet
  facet normal -0 0 -1
    outer loop
      vertex -3.98086 100.981 0
      vertex -10 100 0
      vertex -9.78148 102.079 0
    endloop
  endfacet
  facet normal 0 0 -1
    outer loop
      vertex 8.597 95 0
      vertex 3.63037 98.0946 0
      vertex 4.1 100 0
    endloop
  endfacet
  facet normal 0 0 -1
    outer loop
      vertex 2.32907 96.6258 0
      vertex 5 91.3397 0
      vertex 3.09017 90.4894 0
    endloop
  endfacet
  facet normal 0 0 -1
    outer loop
      vertex 6.69131 92.5686 0
      vertex 2.32907 96.6258 0
      vertex 3.63037 98.0946 0
    endloop
  endfacet
  facet normal 0 0 -1
    outer loop
      vertex 0.4942 95.9299 0
      vertex 3.09017 90.4894 0
      vertex 1.04528 90.0548 0
    endloop
  endfacet
  facet normal 0 0 -1
    outer loop
      vertex 3.09017 90.4894 0
      vertex 0.4942 95.9299 0
      vertex 2.32907 96.6258 0
    endloop
  endfacet
  facet normal 0 0 -1
    outer loop
      vertex -1.04528 90.0548 0
      vertex 0.4942 95.9299 0
      vertex 1.04528 90.0548 0
    endloop
  endfacet
  facet normal 0 0 -1
    outer loop
      vertex -1.04528 90.0548 0
      vertex -1.45388 96.1664 0
      vertex 0.4942 95.9299 0
    endloop
  endfacet
  facet normal 0 0 -1
    outer loop
      vertex -3.09017 90.4894 0
      vertex -1.45388 96.1664 0
      vertex -1.04528 90.0548 0
    endloop
  endfacet
  facet normal 0 0 -1
    outer loop
      vertex -5 91.3397 0
      vertex -1.45388 96.1664 0
      vertex -3.09017 90.4894 0
    endloop
  endfacet
  facet normal -0 0 -1
    outer loop
      vertex -1.45388 96.1664 0
      vertex -5 91.3397 0
      vertex -3.06889 97.2812 0
    endloop
  endfacet
  facet normal 0 0 -1
    outer loop
      vertex -8.09017 94.1221 0
      vertex -3.06889 97.2812 0
      vertex -6.69131 92.5686 0
    endloop
  endfacet
  facet normal 0 0 -1
    outer loop
      vertex -6.69131 92.5686 0
      vertex -3.06889 97.2812 0
      vertex -5 91.3397 0
    endloop
  endfacet
  facet normal 0 0 -1
    outer loop
      vertex 20 95 0
      vertex 14 95 0
      vertex 20 102 0
    endloop
  endfacet
  facet normal -0 0 -1
    outer loop
      vertex 20 102 0
      vertex 14 95 0
      vertex 16 110 0
    endloop
  endfacet
  facet normal 0 0 -1
    outer loop
      vertex 4.1 100 0
      vertex 14 95 0
      vertex 8.597 95 0
    endloop
  endfacet
  facet normal 0 0 -1
    outer loop
      vertex 3.63037 98.0946 0
      vertex 8.597 95 0
      vertex 8.09017 94.1221 0
    endloop
  endfacet
  facet normal 0 0 -1
    outer loop
      vertex 3.63037 98.0946 0
      vertex 8.09017 94.1221 0
      vertex 6.69131 92.5686 0
    endloop
  endfacet
  facet normal 0 0 -1
    outer loop
      vertex 2.32907 96.6258 0
      vertex 6.69131 92.5686 0
      vertex 5 91.3397 0
    endloop
  endfacet
  facet normal 0 0 -1
    outer loop
      vertex 14 95 0
      vertex 4.1 100 0
      vertex 16 110 0
    endloop
  endfacet
  facet normal 0 0 -1
    outer loop
      vertex 3.63037 101.905 0
      vertex 16 110 0
      vertex 4.1 100 0
    endloop
  endfacet
  facet normal 0 0 -1
    outer loop
      vertex 2.32907 103.374 0
      vertex 16 110 0
      vertex 3.63037 101.905 0
    endloop
  endfacet
  facet normal 0 0 -1
    outer loop
      vertex 0 109.945 0
      vertex 2.32907 103.374 0
      vertex 0.4942 104.07 0
    endloop
  endfacet
  facet normal 0 0 -1
    outer loop
      vertex 2.32907 103.374 0
      vertex 0 109.945 0
      vertex 16 110 0
    endloop
  endfacet
  facet normal -0 0 -1
    outer loop
      vertex 16 110 0
      vertex 0 109.945 0
      vertex 0 110 0
    endloop
  endfacet
  facet normal 0 0 -1
    outer loop
      vertex 30 95 0
      vertex 25 102 0
      vertex 30 105 0
    endloop
  endfacet
  facet normal 0 0 -1
    outer loop
      vertex 20 95 0
      vertex 25 102 0
      vertex 30 95 0
    endloop
  endfacet
  facet normal 0 0 -1
    outer loop
      vertex 20 95 0
      vertex 20 102 0
      vertex 25 102 0
    endloop
  endfacet
  facet normal 0 0 -1
    outer loop
      vertex 14.5729 93.2366 0
      vertex 20 95 0
      vertex 16.0729 92.1468 0
    endloop
  endfacet
  facet normal 0 0 -1
    outer loop
      vertex 16.0729 92.1468 0
      vertex 20 95 0
      vertex 19.4271 93.2366 0
    endloop
  endfacet
  facet normal 0 0 -1
    outer loop
      vertex 20 102 0
      vertex 16 110 0
      vertex 20 112 0
    endloop
  endfacet
  facet normal 0 0 -1
    outer loop
      vertex 16.0729 92.1468 0
      vertex 19.4271 93.2366 0
      vertex 17.9271 92.1468 0
    endloop
  endfacet
  facet normal 0 -0 -1
    outer loop
      vertex 16.1981 112 0
      vertex 20 112 0
      vertex 16 110 0
    endloop
  endfacet
  facet normal 0 0 -1
    outer loop
      vertex 20 112 0
      vertex 16.1981 112 0
      vertex 19.247 113.564 0
    endloop
  endfacet
  facet normal 0 0 -1
    outer loop
      vertex 14 95 0
      vertex 20 95 0
      vertex 14.5729 93.2366 0
    endloop
  endfacet
  facet normal -0 0 -1
    outer loop
      vertex 19.247 113.564 0
      vertex 16.1981 112 0
      vertex 17.555 113.95 0
    endloop
  endfacet
  facet normal -0 0 -1
    outer loop
      vertex 16.1981 112 0
      vertex 16 110 0
      vertex 16 112 0
    endloop
  endfacet
  facet normal 0 0 -1
    outer loop
      vertex 17.555 113.95 0
      vertex 16.1981 112 0
      vertex 16.1981 112.868 0
    endloop
  endfacet
  facet normal -1 0 0
    outer loop
      vertex 0 109.945 0
      vertex 0 110 4
      vertex 0 110 0
    endloop
  endfacet
  facet normal -1 -0 0
    outer loop
      vertex 0 110 4
      vertex 0 109.945 0
      vertex 0 109.945 4
    endloop
  endfacet
  facet normal 0 -1 0
    outer loop
      vertex 20 95 0
      vertex 20 95 4
      vertex 19 95 2
    endloop
  endfacet
  facet normal 0 -1 0
    outer loop
      vertex 25 95 4
      vertex 30 95 19
      vertex 25 95 19
    endloop
  endfacet
  facet normal 0 -1 0
    outer loop
      vertex 20 95 4
      vertex 20 95 0
      vertex 25 95 4
    endloop
  endfacet
  facet normal 0 -1 0
    outer loop
      vertex 25 95 4
      vertex 30 95 0
      vertex 30 95 19
    endloop
  endfacet
  facet normal 0 -1 0
    outer loop
      vertex 30 95 0
      vertex 25 95 4
      vertex 20 95 0
    endloop
  endfacet
  facet normal 0 -1 0
    outer loop
      vertex 14 95 0
      vertex 14 95 4
      vertex 8.597 95 4
    endloop
  endfacet
  facet normal 0 -1 0
    outer loop
      vertex 14 95 0
      vertex 8.597 95 4
      vertex 8.597 95 0
    endloop
  endfacet
  facet normal 0 -1 0
    outer loop
      vertex 14 95 4
      vertex 14 95 0
      vertex 15 95 2
    endloop
  endfacet
  facet normal 0 1 -0
    outer loop
      vertex 16 110 0
      vertex 0 110 4
      vertex 16 110 4
    endloop
  endfacet
  facet normal 0 1 0
    outer loop
      vertex 0 110 4
      vertex 16 110 0
      vertex 0 110 0
    endloop
  endfacet
  facet normal 0.587814 -0.808996 0
    outer loop
      vertex 5 91.3397 0
      vertex 6.69131 92.5686 4
      vertex 5 91.3397 4
    endloop
  endfacet
  facet normal 0.587814 -0.808996 0
    outer loop
      vertex 6.69131 92.5686 4
      vertex 5 91.3397 0
      vertex 6.69131 92.5686 0
    endloop
  endfacet
  facet normal -0.866028 -0.499995 0
    outer loop
      vertex -8.09017 94.1221 0
      vertex -9.13545 95.9326 4
      vertex -9.13545 95.9326 0
    endloop
  endfacet
  facet normal -0.866028 -0.499995 0
    outer loop
      vertex -9.13545 95.9326 4
      vertex -8.09017 94.1221 0
      vertex -8.09017 94.1221 4
    endloop
  endfacet
  facet normal 0.866036 -0.499981 0
    outer loop
      vertex 8.09017 94.1221 4
      vertex 8.597 95 0
      vertex 8.597 95 4
    endloop
  endfacet
  facet normal 0.866036 -0.499981 0
    outer loop
      vertex 8.597 95 0
      vertex 8.09017 94.1221 4
      vertex 8.09017 94.1221 0
    endloop
  endfacet
  facet normal -0.994522 -0.104527 0
    outer loop
      vertex -9.78148 97.9209 0
      vertex -10 100 4
      vertex -10 100 0
    endloop
  endfacet
  facet normal -0.994522 -0.104527 0
    outer loop
      vertex -10 100 4
      vertex -9.78148 97.9209 0
      vertex -9.78148 97.9209 4
    endloop
  endfacet
  facet normal -0.866088 0.499892 0
    outer loop
      vertex -9.13545 104.067 0
      vertex -8.09017 105.878 4
      vertex -8.09017 105.878 0
    endloop
  endfacet
  facet normal -0.866088 0.499892 0
    outer loop
      vertex -8.09017 105.878 4
      vertex -9.13545 104.067 0
      vertex -9.13545 104.067 4
    endloop
  endfacet
  facet normal -0.743018 0.669271 0
    outer loop
      vertex -8.09017 105.878 0
      vertex -6.69131 107.431 4
      vertex -6.69131 107.431 0
    endloop
  endfacet
  facet normal -0.743018 0.669271 0
    outer loop
      vertex -6.69131 107.431 4
      vertex -8.09017 105.878 0
      vertex -8.09017 105.878 4
    endloop
  endfacet
  facet normal -0.951058 -0.309014 0
    outer loop
      vertex -9.13545 95.9326 0
      vertex -9.78148 97.9209 4
      vertex -9.78148 97.9209 0
    endloop
  endfacet
  facet normal -0.951058 -0.309014 0
    outer loop
      vertex -9.78148 97.9209 4
      vertex -9.13545 95.9326 0
      vertex -9.13545 95.9326 4
    endloop
  endfacet
  facet normal 0 1 -0
    outer loop
      vertex 0 109.945 0
      vertex -1.04528 109.945 4
      vertex 0 109.945 4
    endloop
  endfacet
  facet normal 0 1 0
    outer loop
      vertex -1.04528 109.945 4
      vertex 0 109.945 0
      vertex -1.04528 109.945 0
    endloop
  endfacet
  facet normal -0.207887 -0.978153 0
    outer loop
      vertex -3.09017 90.4894 0
      vertex -1.04528 90.0548 4
      vertex -3.09017 90.4894 4
    endloop
  endfacet
  facet normal -0.207887 -0.978153 -0
    outer loop
      vertex -1.04528 90.0548 4
      vertex -3.09017 90.4894 0
      vertex -1.04528 90.0548 0
    endloop
  endfacet
  facet normal 0.406732 -0.913547 0
    outer loop
      vertex 3.09017 90.4894 0
      vertex 5 91.3397 4
      vertex 3.09017 90.4894 4
    endloop
  endfacet
  facet normal 0.406732 -0.913547 0
    outer loop
      vertex 5 91.3397 4
      vertex 3.09017 90.4894 0
      vertex 5 91.3397 0
    endloop
  endfacet
  facet normal -0.406732 -0.913547 0
    outer loop
      vertex -5 91.3397 0
      vertex -3.09017 90.4894 4
      vertex -5 91.3397 4
    endloop
  endfacet
  facet normal -0.406732 -0.913547 -0
    outer loop
      vertex -3.09017 90.4894 4
      vertex -5 91.3397 0
      vertex -3.09017 90.4894 0
    endloop
  endfacet
  facet normal -0.407012 0.913423 0
    outer loop
      vertex -3.09017 109.511 0
      vertex -5 108.66 4
      vertex -3.09017 109.511 4
    endloop
  endfacet
  facet normal -0.407012 0.913423 0
    outer loop
      vertex -5 108.66 4
      vertex -3.09017 109.511 0
      vertex -5 108.66 0
    endloop
  endfacet
  facet normal 0 -1 0
    outer loop
      vertex -1.04528 90.0548 0
      vertex 1.04528 90.0548 4
      vertex -1.04528 90.0548 4
    endloop
  endfacet
  facet normal 0 -1 -0
    outer loop
      vertex 1.04528 90.0548 4
      vertex -1.04528 90.0548 0
      vertex 1.04528 90.0548 0
    endloop
  endfacet
  facet normal 0.743125 -0.669152 0
    outer loop
      vertex 6.69131 92.5686 4
      vertex 8.09017 94.1221 0
      vertex 8.09017 94.1221 4
    endloop
  endfacet
  facet normal 0.743125 -0.669152 0
    outer loop
      vertex 8.09017 94.1221 0
      vertex 6.69131 92.5686 4
      vertex 6.69131 92.5686 0
    endloop
  endfacet
  facet normal 0.207887 -0.978153 0
    outer loop
      vertex 1.04528 90.0548 0
      vertex 3.09017 90.4894 4
      vertex 1.04528 90.0548 4
    endloop
  endfacet
  facet normal 0.207887 -0.978153 0
    outer loop
      vertex 3.09017 90.4894 4
      vertex 1.04528 90.0548 0
      vertex 3.09017 90.4894 0
    endloop
  endfacet
  facet normal -0.951044 0.309056 0
    outer loop
      vertex -9.78148 102.079 0
      vertex -9.13545 104.067 4
      vertex -9.13545 104.067 0
    endloop
  endfacet
  facet normal -0.951044 0.309056 0
    outer loop
      vertex -9.13545 104.067 4
      vertex -9.78148 102.079 0
      vertex -9.78148 102.079 4
    endloop
  endfacet
  facet normal -0.587845 0.808973 0
    outer loop
      vertex -5 108.66 0
      vertex -6.69131 107.431 4
      vertex -5 108.66 4
    endloop
  endfacet
  facet normal -0.587845 0.808973 0
    outer loop
      vertex -6.69131 107.431 4
      vertex -5 108.66 0
      vertex -6.69131 107.431 0
    endloop
  endfacet
  facet normal -0.743125 -0.669152 0
    outer loop
      vertex -6.69131 92.5686 0
      vertex -8.09017 94.1221 4
      vertex -8.09017 94.1221 0
    endloop
  endfacet
  facet normal -0.743125 -0.669152 0
    outer loop
      vertex -8.09017 94.1221 4
      vertex -6.69131 92.5686 0
      vertex -6.69131 92.5686 4
    endloop
  endfacet
  facet normal -0.587814 -0.808996 0
    outer loop
      vertex -6.69131 92.5686 0
      vertex -5 91.3397 4
      vertex -6.69131 92.5686 4
    endloop
  endfacet
  facet normal -0.587814 -0.808996 -0
    outer loop
      vertex -5 91.3397 4
      vertex -6.69131 92.5686 0
      vertex -5 91.3397 0
    endloop
  endfacet
  facet normal -0.994521 0.104532 0
    outer loop
      vertex -10 100 0
      vertex -9.78148 102.079 4
      vertex -9.78148 102.079 0
    endloop
  endfacet
  facet normal -0.994521 0.104532 0
    outer loop
      vertex -9.78148 102.079 4
      vertex -10 100 0
      vertex -10 100 4
    endloop
  endfacet
  facet normal -0.207612 0.978211 0
    outer loop
      vertex -1.04528 109.945 0
      vertex -3.09017 109.511 4
      vertex -1.04528 109.945 4
    endloop
  endfacet
  facet normal -0.207612 0.978211 0
    outer loop
      vertex -3.09017 109.511 4
      vertex -1.04528 109.945 0
      vertex -3.09017 109.511 0
    endloop
  endfacet
  facet normal -1 0 0
    outer loop
      vertex 16 110 0
      vertex 16 112 4
      vertex 16 112 0
    endloop
  endfacet
  facet normal -1 -0 0
    outer loop
      vertex 16 112 4
      vertex 16 110 0
      vertex 16 110 4
    endloop
  endfacet
  facet normal 0 1 -0
    outer loop
      vertex 16.1981 112 0
      vertex 16 112 4
      vertex 16.1981 112 4
    endloop
  endfacet
  facet normal 0 1 0
    outer loop
      vertex 16 112 4
      vertex 16.1981 112 0
      vertex 16 112 0
    endloop
  endfacet
  facet normal 0.90101 0.433798 0
    outer loop
      vertex 20 112 4
      vertex 19.247 113.564 0
      vertex 19.247 113.564 4
    endloop
  endfacet
  facet normal 0.90101 0.433798 0
    outer loop
      vertex 19.247 113.564 0
      vertex 20 112 4
      vertex 20 112 0
    endloop
  endfacet
  facet normal -0.623458 0.781857 0
    outer loop
      vertex 17.555 113.95 0
      vertex 16.1981 112.868 4
      vertex 17.555 113.95 4
    endloop
  endfacet
  facet normal -0.623458 0.781857 0
    outer loop
      vertex 16.1981 112.868 4
      vertex 17.555 113.95 0
      vertex 16.1981 112.868 0
    endloop
  endfacet
  facet normal 0.222418 0.974951 -0
    outer loop
      vertex 19.247 113.564 0
      vertex 17.555 113.95 4
      vertex 19.247 113.564 4
    endloop
  endfacet
  facet normal 0.222418 0.974951 0
    outer loop
      vertex 17.555 113.95 4
      vertex 19.247 113.564 0
      vertex 17.555 113.95 0
    endloop
  endfacet
  facet normal -1 0 0
    outer loop
      vertex 16.1981 112 0
      vertex 16.1981 112.868 4
      vertex 16.1981 112.868 0
    endloop
  endfacet
  facet normal -1 -0 0
    outer loop
      vertex 16.1981 112.868 4
      vertex 16.1981 112 0
      vertex 16.1981 112 4
    endloop
  endfacet
  facet normal 1 -0 0
    outer loop
      vertex 30 95 19
      vertex 30 105 0
      vertex 30 105 19
    endloop
  endfacet
  facet normal 1 0 0
    outer loop
      vertex 30 105 0
      vertex 30 95 19
      vertex 30 95 0
    endloop
  endfacet
  facet normal 0 1 -0
    outer loop
      vertex 25 102 0
      vertex 20 102 4
      vertex 25 102 4
    endloop
  endfacet
  facet normal 0 1 0
    outer loop
      vertex 20 102 4
      vertex 25 102 0
      vertex 20 102 0
    endloop
  endfacet
  facet normal -0 0 1
    outer loop
      vertex 25 102 19
      vertex 30 95 19
      vertex 30 105 19
    endloop
  endfacet
  facet normal 0 0 1
    outer loop
      vertex 30 95 19
      vertex 25 102 19
      vertex 25 95 19
    endloop
  endfacet
  facet normal -0.514496 0.857493 0
    outer loop
      vertex 30 105 19
      vertex 25 102 4
      vertex 25 102 19
    endloop
  endfacet
  facet normal -0.514496 0.857493 0
    outer loop
      vertex 30 105 0
      vertex 25 102 4
      vertex 30 105 19
    endloop
  endfacet
  facet normal -0.514496 0.857493 0
    outer loop
      vertex 25 102 4
      vertex 30 105 0
      vertex 25 102 0
    endloop
  endfacet
  facet normal -1 0 0
    outer loop
      vertex 25 95 4
      vertex 25 102 19
      vertex 25 102 4
    endloop
  endfacet
  facet normal -1 -0 0
    outer loop
      vertex 25 102 19
      vertex 25 95 4
      vertex 25 95 19
    endloop
  endfacet
  facet normal 0.568078 0.822975 -0
    outer loop
      vertex -1.45388 96.1664 0
      vertex -3.06889 97.2812 4
      vertex -1.45388 96.1664 4
    endloop
  endfacet
  facet normal 0.568078 0.822975 0
    outer loop
      vertex -3.06889 97.2812 4
      vertex -1.45388 96.1664 0
      vertex -3.06889 97.2812 0
    endloop
  endfacet
  facet normal -0.748496 0.663139 0
    outer loop
      vertex 2.32907 96.6258 0
      vertex 3.63037 98.0946 4
      vertex 3.63037 98.0946 0
    endloop
  endfacet
  facet normal -0.748496 0.663139 0
    outer loop
      vertex 3.63037 98.0946 4
      vertex 2.32907 96.6258 0
      vertex 2.32907 96.6258 4
    endloop
  endfacet
  facet normal -0.970943 0.239311 0
    outer loop
      vertex 3.63037 98.0946 0
      vertex 4.1 100 4
      vertex 4.1 100 0
    endloop
  endfacet
  facet normal -0.970943 0.239311 0
    outer loop
      vertex 4.1 100 4
      vertex 3.63037 98.0946 0
      vertex 3.63037 98.0946 4
    endloop
  endfacet
  facet normal 1 -0 0
    outer loop
      vertex -3.98086 99.0188 4
      vertex -3.98086 100.981 0
      vertex -3.98086 100.981 4
    endloop
  endfacet
  facet normal 1 0 0
    outer loop
      vertex -3.98086 100.981 0
      vertex -3.98086 99.0188 4
      vertex -3.98086 99.0188 0
    endloop
  endfacet
  facet normal 0.885455 0.464726 0
    outer loop
      vertex -3.06889 97.2812 4
      vertex -3.98086 99.0188 0
      vertex -3.98086 99.0188 4
    endloop
  endfacet
  facet normal 0.885455 0.464726 0
    outer loop
      vertex -3.98086 99.0188 0
      vertex -3.06889 97.2812 4
      vertex -3.06889 97.2812 0
    endloop
  endfacet
  facet normal -0.970931 -0.239359 0
    outer loop
      vertex 4.1 100 0
      vertex 3.63037 101.905 4
      vertex 3.63037 101.905 0
    endloop
  endfacet
  facet normal -0.970931 -0.239359 0
    outer loop
      vertex 3.63037 101.905 4
      vertex 4.1 100 0
      vertex 4.1 100 4
    endloop
  endfacet
  facet normal 0.120266 -0.992742 0
    outer loop
      vertex -1.45388 103.834 0
      vertex 0.4942 104.07 4
      vertex -1.45388 103.834 4
    endloop
  endfacet
  facet normal 0.120266 -0.992742 0
    outer loop
      vertex 0.4942 104.07 4
      vertex -1.45388 103.834 0
      vertex 0.4942 104.07 0
    endloop
  endfacet
  facet normal -0.748541 -0.663088 0
    outer loop
      vertex 3.63037 101.905 0
      vertex 2.32907 103.374 4
      vertex 2.32907 103.374 0
    endloop
  endfacet
  facet normal -0.748541 -0.663088 0
    outer loop
      vertex 2.32907 103.374 4
      vertex 3.63037 101.905 0
      vertex 3.63037 101.905 4
    endloop
  endfacet
  facet normal -0.354661 -0.934995 0
    outer loop
      vertex 0.4942 104.07 0
      vertex 2.32907 103.374 4
      vertex 0.4942 104.07 4
    endloop
  endfacet
  facet normal -0.354661 -0.934995 -0
    outer loop
      vertex 2.32907 103.374 4
      vertex 0.4942 104.07 0
      vertex 2.32907 103.374 0
    endloop
  endfacet
  facet normal 0.120517 0.992711 -0
    outer loop
      vertex 0.4942 95.9299 0
      vertex -1.45388 96.1664 4
      vertex 0.4942 95.9299 4
    endloop
  endfacet
  facet normal 0.120517 0.992711 0
    outer loop
      vertex -1.45388 96.1664 4
      vertex 0.4942 95.9299 0
      vertex -1.45388 96.1664 0
    endloop
  endfacet
  facet normal -0.354616 0.935012 0
    outer loop
      vertex 2.32907 96.6258 0
      vertex 0.4942 95.9299 4
      vertex 2.32907 96.6258 4
    endloop
  endfacet
  facet normal -0.354616 0.935012 0
    outer loop
      vertex 0.4942 95.9299 4
      vertex 2.32907 96.6258 0
      vertex 0.4942 95.9299 0
    endloop
  endfacet
  facet normal 0.568147 -0.822927 0
    outer loop
      vertex -3.06889 102.719 0
      vertex -1.45388 103.834 4
      vertex -3.06889 102.719 4
    endloop
  endfacet
  facet normal 0.568147 -0.822927 0
    outer loop
      vertex -1.45388 103.834 4
      vertex -3.06889 102.719 0
      vertex -1.45388 103.834 0
    endloop
  endfacet
  facet normal 0.885499 -0.464642 0
    outer loop
      vertex -3.98086 100.981 4
      vertex -3.06889 102.719 0
      vertex -3.06889 102.719 4
    endloop
  endfacet
  facet normal 0.885499 -0.464642 0
    outer loop
      vertex -3.06889 102.719 0
      vertex -3.98086 100.981 4
      vertex -3.98086 100.981 0
    endloop
  endfacet
  facet normal 0.858888 -0.279087 0.429444
    outer loop
      vertex 18.7135 94.1183 2
      vertex 20 95 0
      vertex 19 95 2
    endloop
  endfacet
  facet normal 0.858892 -0.27904 0.429467
    outer loop
      vertex 20 95 0
      vertex 18.7135 94.1183 2
      vertex 19.4271 93.2366 0
    endloop
  endfacet
  facet normal -0.530811 -0.730608 0.429478
    outer loop
      vertex 16.0729 92.1468 0
      vertex 15.632 93.6428 2
      vertex 14.5729 93.2366 0
    endloop
  endfacet
  facet normal -0.530811 -0.730608 0.429478
    outer loop
      vertex 15.632 93.6428 2
      vertex 16.0729 92.1468 0
      vertex 16.382 93.0979 2
    endloop
  endfacet
  facet normal -0.530753 -0.730662 0.429458
    outer loop
      vertex 15.632 93.6428 2
      vertex 15.382 93.8244 2
      vertex 14.5729 93.2366 0
    endloop
  endfacet
  facet normal 0.530811 -0.730608 0.429478
    outer loop
      vertex 17.9271 92.1468 0
      vertex 18.368 93.6428 2
      vertex 17.618 93.0979 2
    endloop
  endfacet
  facet normal 0.530811 -0.730608 0.429478
    outer loop
      vertex 18.368 93.6428 2
      vertex 17.9271 92.1468 0
      vertex 19.4271 93.2366 0
    endloop
  endfacet
  facet normal 0 -0.903085 0.429462
    outer loop
      vertex 16.0729 92.1468 0
      vertex 17.618 93.0979 2
      vertex 16.382 93.0979 2
    endloop
  endfacet
  facet normal 0 -0.903085 0.429462
    outer loop
      vertex 17.618 93.0979 2
      vertex 16.0729 92.1468 0
      vertex 17.9271 92.1468 0
    endloop
  endfacet
  facet normal -0.858888 -0.279087 0.429444
    outer loop
      vertex 14 95 0
      vertex 15.2865 94.1183 2
      vertex 15 95 2
    endloop
  endfacet
  facet normal -0.858892 -0.27904 0.429467
    outer loop
      vertex 15.2865 94.1183 2
      vertex 14 95 0
      vertex 14.5729 93.2366 0
    endloop
  endfacet
  facet normal 0.530753 -0.730662 0.429458
    outer loop
      vertex 19.4271 93.2366 0
      vertex 18.618 93.8244 2
      vertex 18.368 93.6428 2
    endloop
  endfacet
  facet normal -0.858872 -0.279082 0.429479
    outer loop
      vertex 15.382 93.8244 2
      vertex 15.2865 94.1183 2
      vertex 14.5729 93.2366 0
    endloop
  endfacet
  facet normal 0.858872 -0.279082 0.429479
    outer loop
      vertex 19.4271 93.2366 0
      vertex 18.7135 94.1183 2
      vertex 18.618 93.8244 2
    endloop
  endfacet
  facet normal -0.858872 -0.279082 -0.429479
    outer loop
      vertex 15.2865 94.1183 2
      vertex 15.382 93.8244 2
      vertex 14.5729 93.2366 4
    endloop
  endfacet
  facet normal 0.858888 -0.279087 -0.429444
    outer loop
      vertex 20 95 4
      vertex 18.7135 94.1183 2
      vertex 19 95 2
    endloop
  endfacet
  facet normal 0.858892 -0.27904 -0.429467
    outer loop
      vertex 18.7135 94.1183 2
      vertex 20 95 4
      vertex 19.4271 93.2366 4
    endloop
  endfacet
  facet normal 0.858872 -0.279082 -0.429479
    outer loop
      vertex 18.7135 94.1183 2
      vertex 19.4271 93.2366 4
      vertex 18.618 93.8244 2
    endloop
  endfacet
  facet normal 0 -0.903085 -0.429462
    outer loop
      vertex 16.382 93.0979 2
      vertex 17.9271 92.1468 4
      vertex 16.0729 92.1468 4
    endloop
  endfacet
  facet normal 0 -0.903085 -0.429462
    outer loop
      vertex 17.9271 92.1468 4
      vertex 16.382 93.0979 2
      vertex 17.618 93.0979 2
    endloop
  endfacet
  facet normal -0.530753 -0.730662 -0.429458
    outer loop
      vertex 15.382 93.8244 2
      vertex 15.632 93.6428 2
      vertex 14.5729 93.2366 4
    endloop
  endfacet
  facet normal -0.530811 -0.730608 -0.429478
    outer loop
      vertex 15.632 93.6428 2
      vertex 16.0729 92.1468 4
      vertex 14.5729 93.2366 4
    endloop
  endfacet
  facet normal -0.530811 -0.730608 -0.429478
    outer loop
      vertex 16.0729 92.1468 4
      vertex 15.632 93.6428 2
      vertex 16.382 93.0979 2
    endloop
  endfacet
  facet normal -0.858888 -0.279087 -0.429444
    outer loop
      vertex 15.2865 94.1183 2
      vertex 14 95 4
      vertex 15 95 2
    endloop
  endfacet
  facet normal -0.858892 -0.27904 -0.429467
    outer loop
      vertex 14 95 4
      vertex 15.2865 94.1183 2
      vertex 14.5729 93.2366 4
    endloop
  endfacet
  facet normal 0.530811 -0.730608 -0.429478
    outer loop
      vertex 18.368 93.6428 2
      vertex 17.9271 92.1468 4
      vertex 17.618 93.0979 2
    endloop
  endfacet
  facet normal 0.530811 -0.730608 -0.429478
    outer loop
      vertex 17.9271 92.1468 4
      vertex 18.368 93.6428 2
      vertex 19.4271 93.2366 4
    endloop
  endfacet
  facet normal 0.530753 -0.730662 -0.429458
    outer loop
      vertex 18.618 93.8244 2
      vertex 19.4271 93.2366 4
      vertex 18.368 93.6428 2
    endloop
  endfacet
endsolid OpenSCAD_Model
