solid OpenSCAD_Model
  facet normal 0 0 -1
    outer loop
      vertex 150 -29.9 0
      vertex 170 -41.9 0
      vertex 167 -44.9 0
    endloop
  endfacet
  facet normal 0 0 -1
    outer loop
      vertex 170 -41.9 0
      vertex 150 -29.9 0
      vertex 170 41.9 0
    endloop
  endfacet
  facet normal 0 0 -1
    outer loop
      vertex 150 29.9 0
      vertex 170 41.9 0
      vertex 150 -29.9 0
    endloop
  endfacet
  facet normal 0 0 -1
    outer loop
      vertex 102.5 -30.3109 0
      vertex 150 -29.9 0
      vertex 167 -44.9 0
    endloop
  endfacet
  facet normal -0 0 -1
    outer loop
      vertex 150 -29.9 0
      vertex 102.5 -30.3109 0
      vertex 103.066 -29.9 0
    endloop
  endfacet
  facet normal 0 0 -1
    outer loop
      vertex 167 -44.9 0
      vertex 95.8156 -33.287 0
      vertex 102.5 -30.3109 0
    endloop
  endfacet
  facet normal 0 0 -1
    outer loop
      vertex 167 -44.9 0
      vertex 88.6585 -34.8083 0
      vertex 95.8156 -33.287 0
    endloop
  endfacet
  facet normal 0 0 -1
    outer loop
      vertex 3 -44.9 0
      vertex 88.6585 -34.8083 0
      vertex 167 -44.9 0
    endloop
  endfacet
  facet normal 0 0 -1
    outer loop
      vertex 57.5 -30.3109 0
      vertex 15 -29.9 0
      vertex 56.9345 -29.9 0
    endloop
  endfacet
  facet normal 0 0 -1
    outer loop
      vertex 3 -44.9 0
      vertex 57.5 -30.3109 0
      vertex 64.1844 -33.287 0
    endloop
  endfacet
  facet normal 0 0 -1
    outer loop
      vertex 3 -44.9 0
      vertex 64.1844 -33.287 0
      vertex 71.3415 -34.8083 0
    endloop
  endfacet
  facet normal -0 0 -1
    outer loop
      vertex 88.6585 -34.8083 0
      vertex 3 -44.9 0
      vertex 71.3415 -34.8083 0
    endloop
  endfacet
  facet normal 0 0 -1
    outer loop
      vertex 0 -41.9 0
      vertex 15 -29.9 0
      vertex 3 -44.9 0
    endloop
  endfacet
  facet normal -0 0 -1
    outer loop
      vertex 57.5 -30.3109 0
      vertex 3 -44.9 0
      vertex 15 -29.9 0
    endloop
  endfacet
  facet normal -0 0 -1
    outer loop
      vertex 170 41.9 0
      vertex 150 29.9 0
      vertex 167 44.9 0
    endloop
  endfacet
  facet normal 0 0 -1
    outer loop
      vertex 102.5 30.3109 0
      vertex 150 29.9 0
      vertex 103.066 29.9 0
    endloop
  endfacet
  facet normal 0 0 -1
    outer loop
      vertex 150 29.9 0
      vertex 102.5 30.3109 0
      vertex 167 44.9 0
    endloop
  endfacet
  facet normal 0 0 -1
    outer loop
      vertex 95.8156 33.287 0
      vertex 167 44.9 0
      vertex 102.5 30.3109 0
    endloop
  endfacet
  facet normal 0 0 -1
    outer loop
      vertex 88.6585 34.8083 0
      vertex 167 44.9 0
      vertex 95.8156 33.287 0
    endloop
  endfacet
  facet normal 0 0 -1
    outer loop
      vertex 3 44.9 0
      vertex 88.6585 34.8083 0
      vertex 71.3415 34.8083 0
    endloop
  endfacet
  facet normal 0 0 -1
    outer loop
      vertex 15 29.9 0
      vertex 57.5 30.3109 0
      vertex 56.9345 29.9 0
    endloop
  endfacet
  facet normal 0 0 -1
    outer loop
      vertex 3 44.9 0
      vertex 57.5 30.3109 0
      vertex 15 29.9 0
    endloop
  endfacet
  facet normal 0 0 -1
    outer loop
      vertex 57.5 30.3109 0
      vertex 3 44.9 0
      vertex 64.1844 33.287 0
    endloop
  endfacet
  facet normal 0 0 -1
    outer loop
      vertex 64.1844 33.287 0
      vertex 3 44.9 0
      vertex 71.3415 34.8083 0
    endloop
  endfacet
  facet normal 0 0 -1
    outer loop
      vertex 88.6585 34.8083 0
      vertex 3 44.9 0
      vertex 167 44.9 0
    endloop
  endfacet
  facet normal -0 0 -1
    outer loop
      vertex 15 -29.9 0
      vertex 0 -41.9 0
      vertex 15 29.9 0
    endloop
  endfacet
  facet normal 0 0 -1
    outer loop
      vertex 0 41.9 0
      vertex 15 29.9 0
      vertex 0 -41.9 0
    endloop
  endfacet
  facet normal 0 0 -1
    outer loop
      vertex 15 29.9 0
      vertex 0 41.9 0
      vertex 3 44.9 0
    endloop
  endfacet
  facet normal 0 0.707107 0.707107
    outer loop
      vertex 170 41.9 3
      vertex 165 39.9 5
      vertex 170 39.9 5
    endloop
  endfacet
  facet normal 0 0.707107 0.707107
    outer loop
      vertex 165 39.9 5
      vertex 170 41.9 3
      vertex 167 44.9 0
    endloop
  endfacet
  facet normal -0 0.707107 0.707107
    outer loop
      vertex 3 44.9 0
      vertex 165 39.9 5
      vertex 167 44.9 0
    endloop
  endfacet
  facet normal 0 0.707107 0.707107
    outer loop
      vertex 165 39.9 5
      vertex 3 44.9 0
      vertex 0 39.9 5
    endloop
  endfacet
  facet normal 0 0.707107 0.707107
    outer loop
      vertex 0 39.9 5
      vertex 3 44.9 0
      vertex 0 41.9 3
    endloop
  endfacet
  facet normal 1 0 0
    outer loop
      vertex 170 39.9 5
      vertex 170 41.9 0
      vertex 170 41.9 3
    endloop
  endfacet
  facet normal 1 -0 0
    outer loop
      vertex 170 -39.9 5
      vertex 170 41.9 0
      vertex 170 39.9 5
    endloop
  endfacet
  facet normal 1 0 0
    outer loop
      vertex 170 -41.9 0
      vertex 170 -39.9 5
      vertex 170 -41.9 3
    endloop
  endfacet
  facet normal 1 0 0
    outer loop
      vertex 170 -39.9 5
      vertex 170 -41.9 0
      vertex 170 41.9 0
    endloop
  endfacet
  facet normal 0 -0.707107 0.707107
    outer loop
      vertex 3 -44.9 0
      vertex 165 -39.9 5
      vertex 0 -39.9 5
    endloop
  endfacet
  facet normal 0 -0.707107 0.707107
    outer loop
      vertex 3 -44.9 0
      vertex 0 -39.9 5
      vertex 0 -41.9 3
    endloop
  endfacet
  facet normal 0 -0.707107 0.707107
    outer loop
      vertex 167 -44.9 0
      vertex 165 -39.9 5
      vertex 3 -44.9 0
    endloop
  endfacet
  facet normal 0 -0.707107 0.707107
    outer loop
      vertex 170 -41.9 3
      vertex 165 -39.9 5
      vertex 167 -44.9 0
    endloop
  endfacet
  facet normal 0 -0.707107 0.707107
    outer loop
      vertex 165 -39.9 5
      vertex 170 -41.9 3
      vertex 170 -39.9 5
    endloop
  endfacet
  facet normal -1 0 0
    outer loop
      vertex 0 41.9 0
      vertex 0 39.9 5
      vertex 0 41.9 3
    endloop
  endfacet
  facet normal -1 0 0
    outer loop
      vertex 0 39.9 5
      vertex 0 35 9
      vertex 0 39.9 12
    endloop
  endfacet
  facet normal -1 0 0
    outer loop
      vertex 0 41.9 0
      vertex 0 35 9
      vertex 0 39.9 5
    endloop
  endfacet
  facet normal -1 0 0
    outer loop
      vertex 0 41.9 0
      vertex 0 -35 9
      vertex 0 35 9
    endloop
  endfacet
  facet normal -1 0 0
    outer loop
      vertex 0 -39.9 12
      vertex 0 -35 9
      vertex 0 -39.9 5
    endloop
  endfacet
  facet normal -1 0 0
    outer loop
      vertex 0 -41.9 0
      vertex 0 -35 9
      vertex 0 41.9 0
    endloop
  endfacet
  facet normal -1 0 0
    outer loop
      vertex 0 -35 9
      vertex 0 -41.9 0
      vertex 0 -39.9 5
    endloop
  endfacet
  facet normal -1 0 0
    outer loop
      vertex 0 -39.9 5
      vertex 0 -41.9 0
      vertex 0 -41.9 3
    endloop
  endfacet
  facet normal -1 0 0
    outer loop
      vertex 0 35 17
      vertex 0 41.9 14
      vertex 0 39.9 12
    endloop
  endfacet
  facet normal -1 0 0
    outer loop
      vertex 0 35 17
      vertex 0 39.9 12
      vertex 0 35 9
    endloop
  endfacet
  facet normal -1 0 0
    outer loop
      vertex 0 41.9 14
      vertex 0 35 17
      vertex 0 41.9 17
    endloop
  endfacet
  facet normal -1 0 0
    outer loop
      vertex 0 -35 9
      vertex 0 -39.9 12
      vertex 0 -35 17
    endloop
  endfacet
  facet normal -1 0 0
    outer loop
      vertex 0 -41.9 14
      vertex 0 -35 17
      vertex 0 -39.9 12
    endloop
  endfacet
  facet normal -1 -0 0
    outer loop
      vertex 0 -35 17
      vertex 0 -41.9 14
      vertex 0 -41.9 17
    endloop
  endfacet
  facet normal -0 0 1
    outer loop
      vertex 165 39.9 5
      vertex 170 -39.9 5
      vertex 170 39.9 5
    endloop
  endfacet
  facet normal 0 0 1
    outer loop
      vertex 170 -39.9 5
      vertex 165 39.9 5
      vertex 165 -39.9 5
    endloop
  endfacet
  facet normal 0 0 1
    outer loop
      vertex 162 44.9 17
      vertex 149 39 17
      vertex 160 35 17
    endloop
  endfacet
  facet normal 0 0 1
    outer loop
      vertex 162 44.9 17
      vertex 145 39 17
      vertex 149 39 17
    endloop
  endfacet
  facet normal 0 0 1
    outer loop
      vertex 145 39 17
      vertex 124 39 17
      vertex 145 35 17
    endloop
  endfacet
  facet normal 0 0 1
    outer loop
      vertex 162 44.9 17
      vertex 124 39 17
      vertex 145 39 17
    endloop
  endfacet
  facet normal 0 0 1
    outer loop
      vertex 162 44.9 17
      vertex 120 39 17
      vertex 124 39 17
    endloop
  endfacet
  facet normal 0 0 1
    outer loop
      vertex 120 39 17
      vertex 99 39 17
      vertex 120 35 17
    endloop
  endfacet
  facet normal 0 0 1
    outer loop
      vertex 162 44.9 17
      vertex 99 39 17
      vertex 120 39 17
    endloop
  endfacet
  facet normal 0 0 1
    outer loop
      vertex 162 44.9 17
      vertex 95 39 17
      vertex 99 39 17
    endloop
  endfacet
  facet normal 0 0 1
    outer loop
      vertex 95 39 17
      vertex 74 39 17
      vertex 95 35 17
    endloop
  endfacet
  facet normal 0 0 1
    outer loop
      vertex 162 44.9 17
      vertex 74 39 17
      vertex 95 39 17
    endloop
  endfacet
  facet normal -0 0 1
    outer loop
      vertex 3 44.9 17
      vertex 74 39 17
      vertex 162 44.9 17
    endloop
  endfacet
  facet normal 0 0 1
    outer loop
      vertex 70 39 17
      vertex 49 39 17
      vertex 70 35 17
    endloop
  endfacet
  facet normal 0 0 1
    outer loop
      vertex 74 39 17
      vertex 3 44.9 17
      vertex 70 39 17
    endloop
  endfacet
  facet normal 0 0 1
    outer loop
      vertex 70 39 17
      vertex 3 44.9 17
      vertex 49 39 17
    endloop
  endfacet
  facet normal 0 0 1
    outer loop
      vertex 45 39 17
      vertex 24 39 17
      vertex 45 35 17
    endloop
  endfacet
  facet normal 0 0 1
    outer loop
      vertex 49 39 17
      vertex 3 44.9 17
      vertex 45 39 17
    endloop
  endfacet
  facet normal 0 0 1
    outer loop
      vertex 45 39 17
      vertex 3 44.9 17
      vertex 24 39 17
    endloop
  endfacet
  facet normal 0 0 1
    outer loop
      vertex 24 39 17
      vertex 3 44.9 17
      vertex 20 39 17
    endloop
  endfacet
  facet normal 0 0 1
    outer loop
      vertex 0 35 17
      vertex 20 39 17
      vertex 3 44.9 17
    endloop
  endfacet
  facet normal 0 0 1
    outer loop
      vertex 0 35 17
      vertex 3 44.9 17
      vertex 0 41.9 17
    endloop
  endfacet
  facet normal 0 0 1
    outer loop
      vertex 20 39 17
      vertex 0 35 17
      vertex 20 35 17
    endloop
  endfacet
  facet normal 0 0 1
    outer loop
      vertex 160 35 17
      vertex 165 41.9 17
      vertex 162 44.9 17
    endloop
  endfacet
  facet normal 0 0 1
    outer loop
      vertex 165 41.9 17
      vertex 160 35 17
      vertex 165 30 17
    endloop
  endfacet
  facet normal 0 0 1
    outer loop
      vertex 165 30 17
      vertex 160 35 17
      vertex 160 30 17
    endloop
  endfacet
  facet normal 0 0 1
    outer loop
      vertex 160 35 17
      vertex 149 39 17
      vertex 149 35 17
    endloop
  endfacet
  facet normal 0 0 1
    outer loop
      vertex 145 35 17
      vertex 124 39 17
      vertex 124 35 17
    endloop
  endfacet
  facet normal 0 0 1
    outer loop
      vertex 120 35 17
      vertex 99 39 17
      vertex 99 35 17
    endloop
  endfacet
  facet normal 0 0 1
    outer loop
      vertex 95 35 17
      vertex 74 39 17
      vertex 74 35 17
    endloop
  endfacet
  facet normal 0 0 1
    outer loop
      vertex 70 35 17
      vertex 49 39 17
      vertex 49 35 17
    endloop
  endfacet
  facet normal 0 0 1
    outer loop
      vertex 45 35 17
      vertex 24 39 17
      vertex 24 35 17
    endloop
  endfacet
  facet normal 0 0 1
    outer loop
      vertex 45 -35 17
      vertex 24 -35 17
      vertex 45 -39 17
    endloop
  endfacet
  facet normal 0 0 1
    outer loop
      vertex 70 -35 17
      vertex 49 -35 17
      vertex 70 -39 17
    endloop
  endfacet
  facet normal 0 0 1
    outer loop
      vertex 95 -35 17
      vertex 74 -35 17
      vertex 95 -39 17
    endloop
  endfacet
  facet normal 0 0 1
    outer loop
      vertex 120 -35 17
      vertex 99 -35 17
      vertex 120 -39 17
    endloop
  endfacet
  facet normal 0 0 1
    outer loop
      vertex 145 -35 17
      vertex 124 -35 17
      vertex 145 -39 17
    endloop
  endfacet
  facet normal -0 0 1
    outer loop
      vertex 160 -35 17
      vertex 165 -41.9 17
      vertex 165 -30 17
    endloop
  endfacet
  facet normal 0 0 1
    outer loop
      vertex 160 -35 17
      vertex 165 -30 17
      vertex 160 -30 17
    endloop
  endfacet
  facet normal 0 0 1
    outer loop
      vertex 165 -41.9 17
      vertex 160 -35 17
      vertex 162 -44.9 17
    endloop
  endfacet
  facet normal 0 0 1
    outer loop
      vertex 149 -39 17
      vertex 160 -35 17
      vertex 149 -35 17
    endloop
  endfacet
  facet normal 0 0 1
    outer loop
      vertex 160 -35 17
      vertex 149 -39 17
      vertex 162 -44.9 17
    endloop
  endfacet
  facet normal -0 0 1
    outer loop
      vertex 145 -39 17
      vertex 162 -44.9 17
      vertex 149 -39 17
    endloop
  endfacet
  facet normal 0 0 1
    outer loop
      vertex 124 -39 17
      vertex 145 -39 17
      vertex 124 -35 17
    endloop
  endfacet
  facet normal 0 0 1
    outer loop
      vertex 145 -39 17
      vertex 124 -39 17
      vertex 162 -44.9 17
    endloop
  endfacet
  facet normal -0 0 1
    outer loop
      vertex 120 -39 17
      vertex 162 -44.9 17
      vertex 124 -39 17
    endloop
  endfacet
  facet normal 0 0 1
    outer loop
      vertex 99 -39 17
      vertex 120 -39 17
      vertex 99 -35 17
    endloop
  endfacet
  facet normal -0 0 1
    outer loop
      vertex 99 -39 17
      vertex 162 -44.9 17
      vertex 120 -39 17
    endloop
  endfacet
  facet normal -0 0 1
    outer loop
      vertex 95 -39 17
      vertex 162 -44.9 17
      vertex 99 -39 17
    endloop
  endfacet
  facet normal 0 0 1
    outer loop
      vertex 74 -39 17
      vertex 95 -39 17
      vertex 74 -35 17
    endloop
  endfacet
  facet normal -0 0 1
    outer loop
      vertex 74 -39 17
      vertex 162 -44.9 17
      vertex 95 -39 17
    endloop
  endfacet
  facet normal 0 0 1
    outer loop
      vertex 3 -44.9 17
      vertex 74 -39 17
      vertex 70 -39 17
    endloop
  endfacet
  facet normal 0 0 1
    outer loop
      vertex 49 -39 17
      vertex 70 -39 17
      vertex 49 -35 17
    endloop
  endfacet
  facet normal 0 0 1
    outer loop
      vertex 3 -44.9 17
      vertex 70 -39 17
      vertex 49 -39 17
    endloop
  endfacet
  facet normal 0 0 1
    outer loop
      vertex 3 -44.9 17
      vertex 49 -39 17
      vertex 45 -39 17
    endloop
  endfacet
  facet normal 0 0 1
    outer loop
      vertex 24 -39 17
      vertex 45 -39 17
      vertex 24 -35 17
    endloop
  endfacet
  facet normal 0 0 1
    outer loop
      vertex 3 -44.9 17
      vertex 45 -39 17
      vertex 24 -39 17
    endloop
  endfacet
  facet normal 0 0 1
    outer loop
      vertex 3 -44.9 17
      vertex 24 -39 17
      vertex 20 -39 17
    endloop
  endfacet
  facet normal 0 0 1
    outer loop
      vertex 74 -39 17
      vertex 3 -44.9 17
      vertex 162 -44.9 17
    endloop
  endfacet
  facet normal -0 0 1
    outer loop
      vertex 0 -35 17
      vertex 20 -39 17
      vertex 20 -35 17
    endloop
  endfacet
  facet normal 0 0 1
    outer loop
      vertex 20 -39 17
      vertex 0 -35 17
      vertex 3 -44.9 17
    endloop
  endfacet
  facet normal 0 0 1
    outer loop
      vertex 3 -44.9 17
      vertex 0 -35 17
      vertex 0 -41.9 17
    endloop
  endfacet
  facet normal 0 0.707107 -0.707107
    outer loop
      vertex 165 39.9 12
      vertex 162 44.9 17
      vertex 165 41.9 14
    endloop
  endfacet
  facet normal 0 0.707107 -0.707107
    outer loop
      vertex 162 44.9 17
      vertex 165 39.9 12
      vertex 3 44.9 17
    endloop
  endfacet
  facet normal 0 0.707107 -0.707107
    outer loop
      vertex 0 39.9 12
      vertex 3 44.9 17
      vertex 165 39.9 12
    endloop
  endfacet
  facet normal 0 0.707107 -0.707107
    outer loop
      vertex 3 44.9 17
      vertex 0 39.9 12
      vertex 0 41.9 14
    endloop
  endfacet
  facet normal 1 0 0
    outer loop
      vertex 165 -30 17
      vertex 165 -31.1284 12.5299
      vertex 165 -30 9
    endloop
  endfacet
  facet normal 1 0 0
    outer loop
      vertex 165 -30 17
      vertex 165 -31.3534 14.383
      vertex 165 -31.1284 12.5299
    endloop
  endfacet
  facet normal 1 0 0
    outer loop
      vertex 165 -30 17
      vertex 165 -32.4138 15.9192
      vertex 165 -31.3534 14.383
    endloop
  endfacet
  facet normal 1 0 0
    outer loop
      vertex 165 -30 17
      vertex 165 -34.0667 16.7867
      vertex 165 -32.4138 15.9192
    endloop
  endfacet
  facet normal 1 0 0
    outer loop
      vertex 165 -30 17
      vertex 165 -35.9333 16.7867
      vertex 165 -34.0667 16.7867
    endloop
  endfacet
  facet normal 1 0 0
    outer loop
      vertex 165 -38.6466 14.383
      vertex 165 -39.9 12
      vertex 165 -38.8716 12.5299
    endloop
  endfacet
  facet normal 1 -0 0
    outer loop
      vertex 165 -41.9 17
      vertex 165 -35.9333 16.7867
      vertex 165 -30 17
    endloop
  endfacet
  facet normal 1 0 0
    outer loop
      vertex 165 -41.9 17
      vertex 165 -37.5862 15.9192
      vertex 165 -35.9333 16.7867
    endloop
  endfacet
  facet normal 1 0 0
    outer loop
      vertex 165 -41.9 17
      vertex 165 -38.6466 14.383
      vertex 165 -37.5862 15.9192
    endloop
  endfacet
  facet normal 1 0 0
    outer loop
      vertex 165 -41.9 14
      vertex 165 -38.6466 14.383
      vertex 165 -41.9 17
    endloop
  endfacet
  facet normal 1 0 0
    outer loop
      vertex 165 -38.6466 14.383
      vertex 165 -41.9 14
      vertex 165 -39.9 12
    endloop
  endfacet
  facet normal 1 -0 0
    outer loop
      vertex 165 38.6466 14.383
      vertex 165 41.9 14
      vertex 165 41.9 17
    endloop
  endfacet
  facet normal 1 0 0
    outer loop
      vertex 165 38.2096 10.7845
      vertex 165 39.9 12
      vertex 165 38.8716 12.5299
    endloop
  endfacet
  facet normal 1 0 0
    outer loop
      vertex 165 41.9 14
      vertex 165 38.6466 14.383
      vertex 165 39.9 12
    endloop
  endfacet
  facet normal 1 0 0
    outer loop
      vertex 165 39.9 12
      vertex 165 38.6466 14.383
      vertex 165 38.8716 12.5299
    endloop
  endfacet
  facet normal 1 0 0
    outer loop
      vertex 165 41.9 17
      vertex 165 37.5862 15.9192
      vertex 165 38.6466 14.383
    endloop
  endfacet
  facet normal 1 0 0
    outer loop
      vertex 165 41.9 17
      vertex 165 35.9333 16.7867
      vertex 165 37.5862 15.9192
    endloop
  endfacet
  facet normal 1 -0 0
    outer loop
      vertex 165 30 17
      vertex 165 35.9333 16.7867
      vertex 165 41.9 17
    endloop
  endfacet
  facet normal 1 0 0
    outer loop
      vertex 165 31.3534 14.383
      vertex 165 30 17
      vertex 165 31.1284 12.5299
    endloop
  endfacet
  facet normal 1 0 0
    outer loop
      vertex 165 32.4138 15.9192
      vertex 165 30 17
      vertex 165 31.3534 14.383
    endloop
  endfacet
  facet normal 1 0 0
    outer loop
      vertex 165 34.0667 16.7867
      vertex 165 30 17
      vertex 165 32.4138 15.9192
    endloop
  endfacet
  facet normal 1 0 0
    outer loop
      vertex 165 35.9333 16.7867
      vertex 165 30 17
      vertex 165 34.0667 16.7867
    endloop
  endfacet
  facet normal 1 0 0
    outer loop
      vertex 165 39.9 12
      vertex 165 38.2096 10.7845
      vertex 165 39.9 5
    endloop
  endfacet
  facet normal 1 -0 0
    outer loop
      vertex 165 36.8124 9.54672
      vertex 165 39.9 5
      vertex 165 38.2096 10.7845
    endloop
  endfacet
  facet normal 1 -0 0
    outer loop
      vertex 165 35 9.1
      vertex 165 39.9 5
      vertex 165 36.8124 9.54672
    endloop
  endfacet
  facet normal 1 0 0
    outer loop
      vertex 165 30 9
      vertex 165 35 9.1
      vertex 165 33.1876 9.54672
    endloop
  endfacet
  facet normal 1 0 0
    outer loop
      vertex 165 30 9
      vertex 165 31.1284 12.5299
      vertex 165 30 17
    endloop
  endfacet
  facet normal 1 0 0
    outer loop
      vertex 165 30 9
      vertex 165 31.7904 10.7845
      vertex 165 31.1284 12.5299
    endloop
  endfacet
  facet normal 1 0 0
    outer loop
      vertex 165 30 9
      vertex 165 33.1876 9.54672
      vertex 165 31.7904 10.7845
    endloop
  endfacet
  facet normal 1 0 0
    outer loop
      vertex 165 35 9.1
      vertex 165 30 9
      vertex 165 39.9 5
    endloop
  endfacet
  facet normal 1 -0 0
    outer loop
      vertex 165 -30 9
      vertex 165 39.9 5
      vertex 165 30 9
    endloop
  endfacet
  facet normal 1 -0 0
    outer loop
      vertex 165 -31.7904 10.7845
      vertex 165 -30 9
      vertex 165 -31.1284 12.5299
    endloop
  endfacet
  facet normal 1 -0 0
    outer loop
      vertex 165 -33.1876 9.54672
      vertex 165 -30 9
      vertex 165 -31.7904 10.7845
    endloop
  endfacet
  facet normal 1 -0 0
    outer loop
      vertex 165 -35 9.1
      vertex 165 -30 9
      vertex 165 -33.1876 9.54672
    endloop
  endfacet
  facet normal 1 0 0
    outer loop
      vertex 165 -39.9 5
      vertex 165 -30 9
      vertex 165 -35 9.1
    endloop
  endfacet
  facet normal 1 -0 0
    outer loop
      vertex 165 -39.9 12
      vertex 165 -38.2096 10.7845
      vertex 165 -38.8716 12.5299
    endloop
  endfacet
  facet normal 1 0 0
    outer loop
      vertex 165 -39.9 5
      vertex 165 -38.2096 10.7845
      vertex 165 -39.9 12
    endloop
  endfacet
  facet normal 1 0 0
    outer loop
      vertex 165 -30 9
      vertex 165 -39.9 5
      vertex 165 39.9 5
    endloop
  endfacet
  facet normal 1 0 0
    outer loop
      vertex 165 -36.8124 9.54672
      vertex 165 -39.9 5
      vertex 165 -35 9.1
    endloop
  endfacet
  facet normal 1 0 0
    outer loop
      vertex 165 -38.2096 10.7845
      vertex 165 -39.9 5
      vertex 165 -36.8124 9.54672
    endloop
  endfacet
  facet normal 0 -0.707107 -0.707107
    outer loop
      vertex 0 -39.9 12
      vertex 3 -44.9 17
      vertex 0 -41.9 14
    endloop
  endfacet
  facet normal 0 -0.707107 -0.707107
    outer loop
      vertex 3 -44.9 17
      vertex 0 -39.9 12
      vertex 162 -44.9 17
    endloop
  endfacet
  facet normal -0 -0.707107 -0.707107
    outer loop
      vertex 165 -39.9 12
      vertex 162 -44.9 17
      vertex 0 -39.9 12
    endloop
  endfacet
  facet normal 0 -0.707107 -0.707107
    outer loop
      vertex 162 -44.9 17
      vertex 165 -39.9 12
      vertex 165 -41.9 14
    endloop
  endfacet
  facet normal 0 1 -0
    outer loop
      vertex 165 39.9 5
      vertex 0 39.9 12
      vertex 165 39.9 12
    endloop
  endfacet
  facet normal 0 1 0
    outer loop
      vertex 0 39.9 12
      vertex 165 39.9 5
      vertex 0 39.9 5
    endloop
  endfacet
  facet normal 0 -1 0
    outer loop
      vertex 51.1 -39.9 11.5
      vertex 0 -39.9 12
      vertex 16 -39.9 11.5
    endloop
  endfacet
  facet normal 0 -1 0
    outer loop
      vertex 0 -39.9 12
      vertex 16 -39.9 5.5
      vertex 16 -39.9 11.5
    endloop
  endfacet
  facet normal 0 -1 -0
    outer loop
      vertex 16 -39.9 5.5
      vertex 0 -39.9 5
      vertex 51.1 -39.9 5.5
    endloop
  endfacet
  facet normal 0 -1 0
    outer loop
      vertex 0 -39.9 5
      vertex 16 -39.9 5.5
      vertex 0 -39.9 12
    endloop
  endfacet
  facet normal 0 -1 0
    outer loop
      vertex 0 -39.9 12
      vertex 51.1 -39.9 11.5
      vertex 165 -39.9 12
    endloop
  endfacet
  facet normal 0 -1 0
    outer loop
      vertex 51.1 -39.9 5.5
      vertex 165 -39.9 12
      vertex 51.1 -39.9 11.5
    endloop
  endfacet
  facet normal 0 -1 0
    outer loop
      vertex 51.1 -39.9 5.5
      vertex 165 -39.9 5
      vertex 165 -39.9 12
    endloop
  endfacet
  facet normal 0 -1 0
    outer loop
      vertex 165 -39.9 5
      vertex 51.1 -39.9 5.5
      vertex 0 -39.9 5
    endloop
  endfacet
  facet normal -0 0 1
    outer loop
      vertex 16 -39.9 11.5
      vertex 28 -55.2 11.5
      vertex 51.1 -39.9 11.5
    endloop
  endfacet
  facet normal 0 0 1
    outer loop
      vertex 28 -55.2 11.5
      vertex 16 -39.9 11.5
      vertex 16 -55.2 11.5
    endloop
  endfacet
  facet normal 0 0 1
    outer loop
      vertex 51.1 -39.9 11.5
      vertex 28 -55.2 11.5
      vertex 28 -63 11.5
    endloop
  endfacet
  facet normal -1 0 0
    outer loop
      vertex 16 -63.4347 3.72673
      vertex 16 -55.2 5.5
      vertex 16 -55.2 0
    endloop
  endfacet
  facet normal -1 0 0
    outer loop
      vertex 16 -63.0947 7.39568
      vertex 16 -55.2 5.5
      vertex 16 -62.9218 5.52943
    endloop
  endfacet
  facet normal -1 0 0
    outer loop
      vertex 16 -55.2 5.5
      vertex 16 -63.0947 7.39568
      vertex 16 -55.2 11.5
    endloop
  endfacet
  facet normal -1 -0 0
    outer loop
      vertex 16 -55.2 5.5
      vertex 16 -63.4347 3.72673
      vertex 16 -62.9218 5.52943
    endloop
  endfacet
  facet normal -1 0 0
    outer loop
      vertex 16 -55.2 0
      vertex 16 -64.5641 2.23105
      vertex 16 -63.4347 3.72673
    endloop
  endfacet
  facet normal -1 0 0
    outer loop
      vertex 16 -55.2 0
      vertex 16 -66.1577 1.24439
      vertex 16 -64.5641 2.23105
    endloop
  endfacet
  facet normal -1 0 0
    outer loop
      vertex 16 -55.2 0
      vertex 16 -68 0.9
      vertex 16 -66.1577 1.24439
    endloop
  endfacet
  facet normal -1 -0 0
    outer loop
      vertex 16 -72.5653 3.72673
      vertex 16 -75 0
      vertex 16 -73.0782 5.52943
    endloop
  endfacet
  facet normal -1 -0 0
    outer loop
      vertex 16 -71.4358 2.23105
      vertex 16 -75 0
      vertex 16 -72.5653 3.72673
    endloop
  endfacet
  facet normal -1 -0 0
    outer loop
      vertex 16 -69.8423 1.24439
      vertex 16 -75 0
      vertex 16 -71.4358 2.23105
    endloop
  endfacet
  facet normal -1 -0 0
    outer loop
      vertex 16 -68 0.9
      vertex 16 -75 0
      vertex 16 -69.8423 1.24439
    endloop
  endfacet
  facet normal -1 0 0
    outer loop
      vertex 16 -75 0
      vertex 16 -68 0.9
      vertex 16 -55.2 0
    endloop
  endfacet
  facet normal -1 0 0
    outer loop
      vertex 16 -55.2 5.5
      vertex 16 -39.9 11.5
      vertex 16 -39.9 5.5
    endloop
  endfacet
  facet normal -1 -0 0
    outer loop
      vertex 16 -39.9 11.5
      vertex 16 -55.2 5.5
      vertex 16 -55.2 11.5
    endloop
  endfacet
  facet normal -1 0 0
    outer loop
      vertex 16 -63.9301 9.07344
      vertex 16 -55.2 11.5
      vertex 16 -63.0947 7.39568
    endloop
  endfacet
  facet normal -1 -0 0
    outer loop
      vertex 16 -55.2 11.5
      vertex 16 -63.9301 9.07344
      vertex 16 -55.2 12
    endloop
  endfacet
  facet normal -1 0 0
    outer loop
      vertex 16 -65.3152 10.3361
      vertex 16 -55.2 12
      vertex 16 -63.9301 9.07344
    endloop
  endfacet
  facet normal -1 0 0
    outer loop
      vertex 16 -67.0629 11.0132
      vertex 16 -55.2 12
      vertex 16 -65.3152 10.3361
    endloop
  endfacet
  facet normal -1 0 0
    outer loop
      vertex 16 -75 12
      vertex 16 -67.0629 11.0132
      vertex 16 -68.9371 11.0132
    endloop
  endfacet
  facet normal -1 0 0
    outer loop
      vertex 16 -75 12
      vertex 16 -73.0782 5.52943
      vertex 16 -75 0
    endloop
  endfacet
  facet normal -1 0 0
    outer loop
      vertex 16 -67.0629 11.0132
      vertex 16 -75 12
      vertex 16 -55.2 12
    endloop
  endfacet
  facet normal -1 0 0
    outer loop
      vertex 16 -70.6848 10.3361
      vertex 16 -75 12
      vertex 16 -68.9371 11.0132
    endloop
  endfacet
  facet normal -1 0 0
    outer loop
      vertex 16 -72.0699 9.07344
      vertex 16 -75 12
      vertex 16 -70.6848 10.3361
    endloop
  endfacet
  facet normal -1 0 0
    outer loop
      vertex 16 -72.9053 7.39568
      vertex 16 -75 12
      vertex 16 -72.0699 9.07344
    endloop
  endfacet
  facet normal -1 0 0
    outer loop
      vertex 16 -73.0782 5.52943
      vertex 16 -75 12
      vertex 16 -72.9053 7.39568
    endloop
  endfacet
  facet normal 0.707107 -0.707107 0
    outer loop
      vertex 28 -63 6.37383
      vertex 51.1 -39.9 5.5
      vertex 51.1 -39.9 11.5
    endloop
  endfacet
  facet normal 0.707107 -0.707107 0
    outer loop
      vertex 28 -63 6.37383
      vertex 51.1 -39.9 11.5
      vertex 28 -63 11.5
    endloop
  endfacet
  facet normal 0.707107 -0.707107 -4.1358e-15
    outer loop
      vertex 51.1 -39.9 5.5
      vertex 28 -63 6.37383
      vertex 28.0782 -62.9218 5.52943
    endloop
  endfacet
  facet normal 0.707107 -0.707107 1.18607e-13
    outer loop
      vertex 51.1 -39.9 5.5
      vertex 28.0782 -62.9218 5.52943
      vertex 28.0699 -62.9301 5.5
    endloop
  endfacet
  facet normal 0 0 -1
    outer loop
      vertex 28 -55.2 5.5
      vertex 28.0699 -62.9301 5.5
      vertex 28 -62.9301 5.5
    endloop
  endfacet
  facet normal 0 0 -1
    outer loop
      vertex 28.0699 -62.9301 5.5
      vertex 28 -55.2 5.5
      vertex 51.1 -39.9 5.5
    endloop
  endfacet
  facet normal 0 0 -1
    outer loop
      vertex 16 -39.9 5.5
      vertex 28 -55.2 5.5
      vertex 16 -55.2 5.5
    endloop
  endfacet
  facet normal 0 0 -1
    outer loop
      vertex 28 -55.2 5.5
      vertex 16 -39.9 5.5
      vertex 51.1 -39.9 5.5
    endloop
  endfacet
  facet normal 1 0 0
    outer loop
      vertex 28 -55.2 12
      vertex 28 -63 11.5
      vertex 28 -55.2 11.5
    endloop
  endfacet
  facet normal 1 0 0
    outer loop
      vertex 28 -63 11.5
      vertex 28 -63.0947 7.39568
      vertex 28 -63 6.37383
    endloop
  endfacet
  facet normal 1 0 0
    outer loop
      vertex 28 -63 11.5
      vertex 28 -63.9301 9.07344
      vertex 28 -63.0947 7.39568
    endloop
  endfacet
  facet normal 1 0 0
    outer loop
      vertex 28 -63 11.5
      vertex 28 -65.3152 10.3361
      vertex 28 -63.9301 9.07344
    endloop
  endfacet
  facet normal 1 0 0
    outer loop
      vertex 28 -63 11.5
      vertex 28 -67.0629 11.0132
      vertex 28 -65.3152 10.3361
    endloop
  endfacet
  facet normal 1 0 0
    outer loop
      vertex 28 -63 11.5
      vertex 28 -68.9371 11.0132
      vertex 28 -67.0629 11.0132
    endloop
  endfacet
  facet normal 1 0 0
    outer loop
      vertex 28 -72.9053 7.39568
      vertex 28 -75 12
      vertex 28 -73.0782 5.52943
    endloop
  endfacet
  facet normal 1 0 0
    outer loop
      vertex 28 -72.0699 9.07344
      vertex 28 -75 12
      vertex 28 -72.9053 7.39568
    endloop
  endfacet
  facet normal 1 0 0
    outer loop
      vertex 28 -70.6848 10.3361
      vertex 28 -75 12
      vertex 28 -72.0699 9.07344
    endloop
  endfacet
  facet normal 1 0 0
    outer loop
      vertex 28 -68.9371 11.0132
      vertex 28 -75 12
      vertex 28 -70.6848 10.3361
    endloop
  endfacet
  facet normal 1 0 0
    outer loop
      vertex 28 -63 11.5
      vertex 28 -75 12
      vertex 28 -68.9371 11.0132
    endloop
  endfacet
  facet normal 1 -0 0
    outer loop
      vertex 28 -75 12
      vertex 28 -63 11.5
      vertex 28 -55.2 12
    endloop
  endfacet
  facet normal 1 0 0
    outer loop
      vertex 28 -63.4347 3.72673
      vertex 28 -55.2 5.5
      vertex 28 -62.9301 5.5
    endloop
  endfacet
  facet normal 1 0 0
    outer loop
      vertex 28 -55.2 5.5
      vertex 28 -63.4347 3.72673
      vertex 28 -55.2 0
    endloop
  endfacet
  facet normal 1 -0 0
    outer loop
      vertex 28 -64.5641 2.23105
      vertex 28 -55.2 0
      vertex 28 -63.4347 3.72673
    endloop
  endfacet
  facet normal 1 -0 0
    outer loop
      vertex 28 -66.1577 1.24439
      vertex 28 -55.2 0
      vertex 28 -64.5641 2.23105
    endloop
  endfacet
  facet normal 1 -0 0
    outer loop
      vertex 28 -68 0.9
      vertex 28 -55.2 0
      vertex 28 -66.1577 1.24439
    endloop
  endfacet
  facet normal 1 0 0
    outer loop
      vertex 28 -75 0
      vertex 28 -73.0782 5.52943
      vertex 28 -75 12
    endloop
  endfacet
  facet normal 1 0 0
    outer loop
      vertex 28 -68 0.9
      vertex 28 -75 0
      vertex 28 -55.2 0
    endloop
  endfacet
  facet normal 1 0 0
    outer loop
      vertex 28 -69.8423 1.24439
      vertex 28 -75 0
      vertex 28 -68 0.9
    endloop
  endfacet
  facet normal 1 0 0
    outer loop
      vertex 28 -71.4358 2.23105
      vertex 28 -75 0
      vertex 28 -69.8423 1.24439
    endloop
  endfacet
  facet normal 1 0 0
    outer loop
      vertex 28 -72.5653 3.72673
      vertex 28 -75 0
      vertex 28 -71.4358 2.23105
    endloop
  endfacet
  facet normal 1 0 0
    outer loop
      vertex 28 -73.0782 5.52943
      vertex 28 -75 0
      vertex 28 -72.5653 3.72673
    endloop
  endfacet
  facet normal -0 0 1
    outer loop
      vertex 16 -55.2 12
      vertex 28 -75 12
      vertex 28 -55.2 12
    endloop
  endfacet
  facet normal 0 0 1
    outer loop
      vertex 28 -75 12
      vertex 16 -55.2 12
      vertex 16 -75 12
    endloop
  endfacet
  facet normal 0 0 -1
    outer loop
      vertex 16 -75 0
      vertex 28 -55.2 0
      vertex 28 -75 0
    endloop
  endfacet
  facet normal -0 0 -1
    outer loop
      vertex 28 -55.2 0
      vertex 16 -75 0
      vertex 16 -55.2 0
    endloop
  endfacet
  facet normal 0 1 -0
    outer loop
      vertex 28 -55.2 11.5
      vertex 16 -55.2 12
      vertex 28 -55.2 12
    endloop
  endfacet
  facet normal 0 1 0
    outer loop
      vertex 16 -55.2 12
      vertex 28 -55.2 11.5
      vertex 16 -55.2 11.5
    endloop
  endfacet
  facet normal 0 1 -0
    outer loop
      vertex 28 -55.2 0
      vertex 16 -55.2 5.5
      vertex 28 -55.2 5.5
    endloop
  endfacet
  facet normal 0 1 0
    outer loop
      vertex 16 -55.2 5.5
      vertex 28 -55.2 0
      vertex 16 -55.2 0
    endloop
  endfacet
  facet normal 0 -1 0
    outer loop
      vertex 16 -75 0
      vertex 28 -75 12
      vertex 16 -75 12
    endloop
  endfacet
  facet normal 0 -1 -0
    outer loop
      vertex 28 -75 12
      vertex 16 -75 0
      vertex 28 -75 0
    endloop
  endfacet
  facet normal 0.0966413 -0.660009 -0.745015
    outer loop
      vertex 169 -36.6265 9.9009
      vertex 165 -38.2096 10.7845
      vertex 165 -36.8124 9.54672
    endloop
  endfacet
  facet normal 0.0966397 0.238198 -0.966397
    outer loop
      vertex 169 -35 9.5
      vertex 165 -35 9.1
      vertex 169 -33.3735 9.9009
    endloop
  endfacet
  facet normal 0.0966398 0.238197 -0.966397
    outer loop
      vertex 169 -33.3735 9.9009
      vertex 165 -35 9.1
      vertex 165 -33.1876 9.54672
    endloop
  endfacet
  facet normal 0.0966419 -0.462544 0.881313
    outer loop
      vertex 165 -35.9333 16.7867
      vertex 165 -37.5862 15.9192
      vertex 169 -35.8376 16.3983
    endloop
  endfacet
  facet normal 0.0966443 -0.988062 0.119969
    outer loop
      vertex 165 -38.6466 14.383
      vertex 165 -38.8716 12.5299
      vertex 169 -38.4745 12.5781
    endloop
  endfacet
  facet normal 0.0966549 0.660032 -0.744994
    outer loop
      vertex 169 -33.3735 9.9009
      vertex 165 -31.7904 10.7845
      vertex 169 -32.1196 11.0118
    endloop
  endfacet
  facet normal 0.0966461 0.819122 0.565419
    outer loop
      vertex 165 -31.3534 14.383
      vertex 165 -32.4138 15.9192
      vertex 169 -31.7274 14.2411
    endloop
  endfacet
  facet normal 0.0966447 0.46255 0.88131
    outer loop
      vertex 169 -32.6791 15.6198
      vertex 165 -32.4138 15.9192
      vertex 169 -34.1624 16.3983
    endloop
  endfacet
  facet normal 0.0966413 0.660009 -0.745015
    outer loop
      vertex 169 -33.3735 9.9009
      vertex 165 -33.1876 9.54672
      vertex 165 -31.7904 10.7845
    endloop
  endfacet
  facet normal 0.0966455 0 0.995319
    outer loop
      vertex 165 -34.0667 16.7867
      vertex 169 -35.8376 16.3983
      vertex 169 -34.1624 16.3983
    endloop
  endfacet
  facet normal 0.0966455 0 0.995319
    outer loop
      vertex 169 -35.8376 16.3983
      vertex 165 -34.0667 16.7867
      vertex 165 -35.9333 16.7867
    endloop
  endfacet
  facet normal 0.0966395 0.988064 0.119958
    outer loop
      vertex 169 -31.5255 12.5781
      vertex 165 -31.3534 14.383
      vertex 169 -31.7274 14.2411
    endloop
  endfacet
  facet normal 0.0966395 -0.988064 0.119958
    outer loop
      vertex 169 -38.2726 14.2411
      vertex 165 -38.6466 14.383
      vertex 169 -38.4745 12.5781
    endloop
  endfacet
  facet normal 0.0966443 0.988062 0.119969
    outer loop
      vertex 165 -31.1284 12.5299
      vertex 165 -31.3534 14.383
      vertex 169 -31.5255 12.5781
    endloop
  endfacet
  facet normal 0.0966416 -0.93063 -0.352972
    outer loop
      vertex 169 -38.4745 12.5781
      vertex 165 -38.8716 12.5299
      vertex 165 -38.2096 10.7845
    endloop
  endfacet
  facet normal 0.0966501 0.819117 0.565426
    outer loop
      vertex 169 -31.7274 14.2411
      vertex 165 -32.4138 15.9192
      vertex 169 -32.6791 15.6198
    endloop
  endfacet
  facet normal 0.0966461 -0.819122 0.565419
    outer loop
      vertex 165 -37.5862 15.9192
      vertex 165 -38.6466 14.383
      vertex 169 -38.2726 14.2411
    endloop
  endfacet
  facet normal 0.0966488 0.930623 -0.352987
    outer loop
      vertex 169 -32.1196 11.0118
      vertex 165 -31.7904 10.7845
      vertex 169 -31.5255 12.5781
    endloop
  endfacet
  facet normal 0.0966488 -0.930623 -0.352987
    outer loop
      vertex 169 -38.4745 12.5781
      vertex 165 -38.2096 10.7845
      vertex 169 -37.8804 11.0118
    endloop
  endfacet
  facet normal 0.0966398 -0.238197 -0.966397
    outer loop
      vertex 169 -36.6265 9.9009
      vertex 165 -36.8124 9.54672
      vertex 165 -35 9.1
    endloop
  endfacet
  facet normal 0.0966397 -0.238198 -0.966397
    outer loop
      vertex 169 -36.6265 9.9009
      vertex 165 -35 9.1
      vertex 169 -35 9.5
    endloop
  endfacet
  facet normal 0.0966419 0.462544 0.881313
    outer loop
      vertex 165 -32.4138 15.9192
      vertex 165 -34.0667 16.7867
      vertex 169 -34.1624 16.3983
    endloop
  endfacet
  facet normal 0.0966416 0.93063 -0.352972
    outer loop
      vertex 169 -31.5255 12.5781
      vertex 165 -31.7904 10.7845
      vertex 165 -31.1284 12.5299
    endloop
  endfacet
  facet normal 0.0966501 -0.819117 0.565426
    outer loop
      vertex 169 -37.3209 15.6198
      vertex 165 -37.5862 15.9192
      vertex 169 -38.2726 14.2411
    endloop
  endfacet
  facet normal 0.0966447 -0.46255 0.88131
    outer loop
      vertex 169 -35.8376 16.3983
      vertex 165 -37.5862 15.9192
      vertex 169 -37.3209 15.6198
    endloop
  endfacet
  facet normal 0.0966549 -0.660032 -0.744994
    outer loop
      vertex 169 -37.8804 11.0118
      vertex 165 -38.2096 10.7845
      vertex 169 -36.6265 9.9009
    endloop
  endfacet
  facet normal 1 0 0
    outer loop
      vertex 169 -31.7274 14.2411
      vertex 169 -32.1196 11.0118
      vertex 169 -31.5255 12.5781
    endloop
  endfacet
  facet normal 1 0 0
    outer loop
      vertex 169 -32.6791 15.6198
      vertex 169 -32.1196 11.0118
      vertex 169 -31.7274 14.2411
    endloop
  endfacet
  facet normal 1 0 0
    outer loop
      vertex 169 -32.6791 15.6198
      vertex 169 -33.3735 9.9009
      vertex 169 -32.1196 11.0118
    endloop
  endfacet
  facet normal 1 0 0
    outer loop
      vertex 169 -34.1624 16.3983
      vertex 169 -33.3735 9.9009
      vertex 169 -32.6791 15.6198
    endloop
  endfacet
  facet normal 1 0 0
    outer loop
      vertex 169 -34.1624 16.3983
      vertex 169 -35 9.5
      vertex 169 -33.3735 9.9009
    endloop
  endfacet
  facet normal 1 -0 0
    outer loop
      vertex 169 -35.8376 16.3983
      vertex 169 -35 9.5
      vertex 169 -34.1624 16.3983
    endloop
  endfacet
  facet normal 1 0 0
    outer loop
      vertex 169 -35.8376 16.3983
      vertex 169 -36.6265 9.9009
      vertex 169 -35 9.5
    endloop
  endfacet
  facet normal 1 -0 0
    outer loop
      vertex 169 -37.3209 15.6198
      vertex 169 -36.6265 9.9009
      vertex 169 -35.8376 16.3983
    endloop
  endfacet
  facet normal 1 0 0
    outer loop
      vertex 169 -37.3209 15.6198
      vertex 169 -37.8804 11.0118
      vertex 169 -36.6265 9.9009
    endloop
  endfacet
  facet normal 1 -0 0
    outer loop
      vertex 169 -38.2726 14.2411
      vertex 169 -37.8804 11.0118
      vertex 169 -37.3209 15.6198
    endloop
  endfacet
  facet normal 1 0 0
    outer loop
      vertex 169 -37.8804 11.0118
      vertex 169 -38.2726 14.2411
      vertex 169 -38.4745 12.5781
    endloop
  endfacet
  facet normal 0.0966413 -0.660009 -0.745015
    outer loop
      vertex 169 33.3735 9.9009
      vertex 165 31.7904 10.7845
      vertex 165 33.1876 9.54672
    endloop
  endfacet
  facet normal 0.0966397 0.238198 -0.966397
    outer loop
      vertex 169 35 9.5
      vertex 165 35 9.1
      vertex 169 36.6265 9.9009
    endloop
  endfacet
  facet normal 0.0966398 0.238197 -0.966397
    outer loop
      vertex 169 36.6265 9.9009
      vertex 165 35 9.1
      vertex 165 36.8124 9.54672
    endloop
  endfacet
  facet normal 0.0966419 -0.462544 0.881313
    outer loop
      vertex 165 34.0667 16.7867
      vertex 165 32.4138 15.9192
      vertex 169 34.1624 16.3983
    endloop
  endfacet
  facet normal 0.0966443 -0.988062 0.119969
    outer loop
      vertex 165 31.3534 14.383
      vertex 165 31.1284 12.5299
      vertex 169 31.5255 12.5781
    endloop
  endfacet
  facet normal 0.0966549 0.660032 -0.744994
    outer loop
      vertex 169 36.6265 9.9009
      vertex 165 38.2096 10.7845
      vertex 169 37.8804 11.0118
    endloop
  endfacet
  facet normal 0.0966461 0.819122 0.565419
    outer loop
      vertex 165 38.6466 14.383
      vertex 165 37.5862 15.9192
      vertex 169 38.2726 14.2411
    endloop
  endfacet
  facet normal 0.0966447 0.46255 0.88131
    outer loop
      vertex 169 37.3209 15.6198
      vertex 165 37.5862 15.9192
      vertex 169 35.8376 16.3983
    endloop
  endfacet
  facet normal 0.0966413 0.660009 -0.745015
    outer loop
      vertex 169 36.6265 9.9009
      vertex 165 36.8124 9.54672
      vertex 165 38.2096 10.7845
    endloop
  endfacet
  facet normal 0.0966455 0 0.995319
    outer loop
      vertex 165 35.9333 16.7867
      vertex 169 34.1624 16.3983
      vertex 169 35.8376 16.3983
    endloop
  endfacet
  facet normal 0.0966455 0 0.995319
    outer loop
      vertex 169 34.1624 16.3983
      vertex 165 35.9333 16.7867
      vertex 165 34.0667 16.7867
    endloop
  endfacet
  facet normal 0.0966395 0.988064 0.119958
    outer loop
      vertex 169 38.4745 12.5781
      vertex 165 38.6466 14.383
      vertex 169 38.2726 14.2411
    endloop
  endfacet
  facet normal 0.0966395 -0.988064 0.119958
    outer loop
      vertex 169 31.7274 14.2411
      vertex 165 31.3534 14.383
      vertex 169 31.5255 12.5781
    endloop
  endfacet
  facet normal 0.0966443 0.988062 0.119969
    outer loop
      vertex 165 38.8716 12.5299
      vertex 165 38.6466 14.383
      vertex 169 38.4745 12.5781
    endloop
  endfacet
  facet normal 0.0966416 -0.93063 -0.352972
    outer loop
      vertex 169 31.5255 12.5781
      vertex 165 31.1284 12.5299
      vertex 165 31.7904 10.7845
    endloop
  endfacet
  facet normal 0.0966501 0.819117 0.565426
    outer loop
      vertex 169 38.2726 14.2411
      vertex 165 37.5862 15.9192
      vertex 169 37.3209 15.6198
    endloop
  endfacet
  facet normal 0.0966461 -0.819122 0.565419
    outer loop
      vertex 165 32.4138 15.9192
      vertex 165 31.3534 14.383
      vertex 169 31.7274 14.2411
    endloop
  endfacet
  facet normal 0.0966488 0.930623 -0.352987
    outer loop
      vertex 169 37.8804 11.0118
      vertex 165 38.2096 10.7845
      vertex 169 38.4745 12.5781
    endloop
  endfacet
  facet normal 0.0966488 -0.930623 -0.352987
    outer loop
      vertex 169 31.5255 12.5781
      vertex 165 31.7904 10.7845
      vertex 169 32.1196 11.0118
    endloop
  endfacet
  facet normal 0.0966398 -0.238197 -0.966397
    outer loop
      vertex 169 33.3735 9.9009
      vertex 165 33.1876 9.54672
      vertex 165 35 9.1
    endloop
  endfacet
  facet normal 0.0966397 -0.238198 -0.966397
    outer loop
      vertex 169 33.3735 9.9009
      vertex 165 35 9.1
      vertex 169 35 9.5
    endloop
  endfacet
  facet normal 0.0966419 0.462544 0.881313
    outer loop
      vertex 165 37.5862 15.9192
      vertex 165 35.9333 16.7867
      vertex 169 35.8376 16.3983
    endloop
  endfacet
  facet normal 0.0966416 0.93063 -0.352972
    outer loop
      vertex 169 38.4745 12.5781
      vertex 165 38.2096 10.7845
      vertex 165 38.8716 12.5299
    endloop
  endfacet
  facet normal 0.0966501 -0.819117 0.565426
    outer loop
      vertex 169 32.6791 15.6198
      vertex 165 32.4138 15.9192
      vertex 169 31.7274 14.2411
    endloop
  endfacet
  facet normal 0.0966447 -0.46255 0.88131
    outer loop
      vertex 169 34.1624 16.3983
      vertex 165 32.4138 15.9192
      vertex 169 32.6791 15.6198
    endloop
  endfacet
  facet normal 0.0966549 -0.660032 -0.744994
    outer loop
      vertex 169 32.1196 11.0118
      vertex 165 31.7904 10.7845
      vertex 169 33.3735 9.9009
    endloop
  endfacet
  facet normal 1 0 0
    outer loop
      vertex 169 38.2726 14.2411
      vertex 169 37.8804 11.0118
      vertex 169 38.4745 12.5781
    endloop
  endfacet
  facet normal 1 0 0
    outer loop
      vertex 169 37.3209 15.6198
      vertex 169 37.8804 11.0118
      vertex 169 38.2726 14.2411
    endloop
  endfacet
  facet normal 1 0 0
    outer loop
      vertex 169 37.3209 15.6198
      vertex 169 36.6265 9.9009
      vertex 169 37.8804 11.0118
    endloop
  endfacet
  facet normal 1 0 0
    outer loop
      vertex 169 35.8376 16.3983
      vertex 169 36.6265 9.9009
      vertex 169 37.3209 15.6198
    endloop
  endfacet
  facet normal 1 0 0
    outer loop
      vertex 169 35.8376 16.3983
      vertex 169 35 9.5
      vertex 169 36.6265 9.9009
    endloop
  endfacet
  facet normal 1 -0 0
    outer loop
      vertex 169 34.1624 16.3983
      vertex 169 35 9.5
      vertex 169 35.8376 16.3983
    endloop
  endfacet
  facet normal 1 0 0
    outer loop
      vertex 169 34.1624 16.3983
      vertex 169 33.3735 9.9009
      vertex 169 35 9.5
    endloop
  endfacet
  facet normal 1 -0 0
    outer loop
      vertex 169 32.6791 15.6198
      vertex 169 33.3735 9.9009
      vertex 169 34.1624 16.3983
    endloop
  endfacet
  facet normal 1 0 0
    outer loop
      vertex 169 32.6791 15.6198
      vertex 169 32.1196 11.0118
      vertex 169 33.3735 9.9009
    endloop
  endfacet
  facet normal 1 -0 0
    outer loop
      vertex 169 31.7274 14.2411
      vertex 169 32.1196 11.0118
      vertex 169 32.6791 15.6198
    endloop
  endfacet
  facet normal 1 0 0
    outer loop
      vertex 169 32.1196 11.0118
      vertex 169 31.7274 14.2411
      vertex 169 31.5255 12.5781
    endloop
  endfacet
  facet normal 0 1 -0
    outer loop
      vertex 88.6585 -34.8083 0
      vertex 71.3415 -34.8083 9
      vertex 88.6585 -34.8083 9
    endloop
  endfacet
  facet normal 0 1 0
    outer loop
      vertex 71.3415 -34.8083 9
      vertex 88.6585 -34.8083 0
      vertex 71.3415 -34.8083 0
    endloop
  endfacet
  facet normal 0.207913 0.978147 -0
    outer loop
      vertex 71.3415 -34.8083 0
      vertex 64.1844 -33.287 9
      vertex 71.3415 -34.8083 9
    endloop
  endfacet
  facet normal 0.207913 0.978147 0
    outer loop
      vertex 64.1844 -33.287 9
      vertex 71.3415 -34.8083 0
      vertex 64.1844 -33.287 0
    endloop
  endfacet
  facet normal 0.406738 0.913545 -0
    outer loop
      vertex 64.1844 -33.287 0
      vertex 57.5 -30.3109 9
      vertex 64.1844 -33.287 9
    endloop
  endfacet
  facet normal 0.406738 0.913545 0
    outer loop
      vertex 57.5 -30.3109 9
      vertex 64.1844 -33.287 0
      vertex 57.5 -30.3109 0
    endloop
  endfacet
  facet normal 0 -1 0
    outer loop
      vertex 71.3415 34.8083 0
      vertex 88.6585 34.8083 9
      vertex 71.3415 34.8083 9
    endloop
  endfacet
  facet normal 0 -1 -0
    outer loop
      vertex 88.6585 34.8083 9
      vertex 71.3415 34.8083 0
      vertex 88.6585 34.8083 0
    endloop
  endfacet
  facet normal 0.587823 0.80899 -0
    outer loop
      vertex 57.5 -30.3109 0
      vertex 56.9345 -29.9 9
      vertex 57.5 -30.3109 9
    endloop
  endfacet
  facet normal 0.587823 0.80899 0
    outer loop
      vertex 56.9345 -29.9 9
      vertex 57.5 -30.3109 0
      vertex 56.9345 -29.9 0
    endloop
  endfacet
  facet normal 0.207913 -0.978147 0
    outer loop
      vertex 64.1844 33.287 0
      vertex 71.3415 34.8083 9
      vertex 64.1844 33.287 9
    endloop
  endfacet
  facet normal 0.207913 -0.978147 0
    outer loop
      vertex 71.3415 34.8083 9
      vertex 64.1844 33.287 0
      vertex 71.3415 34.8083 0
    endloop
  endfacet
  facet normal 0.406738 -0.913545 0
    outer loop
      vertex 57.5 30.3109 0
      vertex 64.1844 33.287 9
      vertex 57.5 30.3109 9
    endloop
  endfacet
  facet normal 0.406738 -0.913545 0
    outer loop
      vertex 64.1844 33.287 9
      vertex 57.5 30.3109 0
      vertex 64.1844 33.287 0
    endloop
  endfacet
  facet normal 0.587823 -0.80899 0
    outer loop
      vertex 56.9345 29.9 0
      vertex 57.5 30.3109 9
      vertex 56.9345 29.9 9
    endloop
  endfacet
  facet normal 0.587823 -0.80899 0
    outer loop
      vertex 57.5 30.3109 9
      vertex 56.9345 29.9 0
      vertex 57.5 30.3109 0
    endloop
  endfacet
  facet normal -0.406738 0.913545 0
    outer loop
      vertex 102.5 -30.3109 0
      vertex 95.8156 -33.287 9
      vertex 102.5 -30.3109 9
    endloop
  endfacet
  facet normal -0.406738 0.913545 0
    outer loop
      vertex 95.8156 -33.287 9
      vertex 102.5 -30.3109 0
      vertex 95.8156 -33.287 0
    endloop
  endfacet
  facet normal -0.207913 -0.978147 0
    outer loop
      vertex 88.6585 34.8083 0
      vertex 95.8156 33.287 9
      vertex 88.6585 34.8083 9
    endloop
  endfacet
  facet normal -0.207913 -0.978147 -0
    outer loop
      vertex 95.8156 33.287 9
      vertex 88.6585 34.8083 0
      vertex 95.8156 33.287 0
    endloop
  endfacet
  facet normal -0.587483 -0.809237 0
    outer loop
      vertex 102.5 30.3109 0
      vertex 103.066 29.9 9
      vertex 102.5 30.3109 9
    endloop
  endfacet
  facet normal -0.587483 -0.809237 -0
    outer loop
      vertex 103.066 29.9 9
      vertex 102.5 30.3109 0
      vertex 103.066 29.9 0
    endloop
  endfacet
  facet normal -0.406738 -0.913545 0
    outer loop
      vertex 95.8156 33.287 0
      vertex 102.5 30.3109 9
      vertex 95.8156 33.287 9
    endloop
  endfacet
  facet normal -0.406738 -0.913545 -0
    outer loop
      vertex 102.5 30.3109 9
      vertex 95.8156 33.287 0
      vertex 102.5 30.3109 0
    endloop
  endfacet
  facet normal -0.587483 0.809237 0
    outer loop
      vertex 103.066 -29.9 0
      vertex 102.5 -30.3109 9
      vertex 103.066 -29.9 9
    endloop
  endfacet
  facet normal -0.587483 0.809237 0
    outer loop
      vertex 102.5 -30.3109 9
      vertex 103.066 -29.9 0
      vertex 102.5 -30.3109 0
    endloop
  endfacet
  facet normal -0.207913 0.978147 0
    outer loop
      vertex 95.8156 -33.287 0
      vertex 88.6585 -34.8083 9
      vertex 95.8156 -33.287 9
    endloop
  endfacet
  facet normal -0.207913 0.978147 0
    outer loop
      vertex 88.6585 -34.8083 9
      vertex 95.8156 -33.287 0
      vertex 88.6585 -34.8083 0
    endloop
  endfacet
  facet normal -1 0 0
    outer loop
      vertex 24 35 12
      vertex 24 39 17
      vertex 24 39 12
    endloop
  endfacet
  facet normal -1 -0 0
    outer loop
      vertex 24 39 17
      vertex 24 35 12
      vertex 24 35 17
    endloop
  endfacet
  facet normal -1 0 0
    outer loop
      vertex 24 -39 12
      vertex 24 -35 17
      vertex 24 -35 12
    endloop
  endfacet
  facet normal -1 -0 0
    outer loop
      vertex 24 -35 17
      vertex 24 -39 12
      vertex 24 -39 17
    endloop
  endfacet
  facet normal -0 0 1
    outer loop
      vertex 20 39 12
      vertex 24 35 12
      vertex 24 39 12
    endloop
  endfacet
  facet normal 0 0 1
    outer loop
      vertex 24 35 12
      vertex 20 39 12
      vertex 20 35 12
    endloop
  endfacet
  facet normal -0 0 1
    outer loop
      vertex 20 -35 12
      vertex 24 -39 12
      vertex 24 -35 12
    endloop
  endfacet
  facet normal 0 0 1
    outer loop
      vertex 24 -39 12
      vertex 20 -35 12
      vertex 20 -39 12
    endloop
  endfacet
  facet normal 1 -0 0
    outer loop
      vertex 20 35 17
      vertex 20 39 12
      vertex 20 39 17
    endloop
  endfacet
  facet normal 1 0 0
    outer loop
      vertex 20 39 12
      vertex 20 35 17
      vertex 20 35 12
    endloop
  endfacet
  facet normal 1 -0 0
    outer loop
      vertex 20 -39 17
      vertex 20 -35 12
      vertex 20 -35 17
    endloop
  endfacet
  facet normal 1 0 0
    outer loop
      vertex 20 -35 12
      vertex 20 -39 17
      vertex 20 -39 12
    endloop
  endfacet
  facet normal 0 -1 0
    outer loop
      vertex 20 39 12
      vertex 24 39 17
      vertex 20 39 17
    endloop
  endfacet
  facet normal 0 -1 -0
    outer loop
      vertex 24 39 17
      vertex 20 39 12
      vertex 24 39 12
    endloop
  endfacet
  facet normal 0 1 -0
    outer loop
      vertex 24 -39 12
      vertex 20 -39 17
      vertex 24 -39 17
    endloop
  endfacet
  facet normal 0 1 0
    outer loop
      vertex 20 -39 17
      vertex 24 -39 12
      vertex 20 -39 12
    endloop
  endfacet
  facet normal -1 0 0
    outer loop
      vertex 49 35 12
      vertex 49 39 17
      vertex 49 39 12
    endloop
  endfacet
  facet normal -1 -0 0
    outer loop
      vertex 49 39 17
      vertex 49 35 12
      vertex 49 35 17
    endloop
  endfacet
  facet normal -1 0 0
    outer loop
      vertex 49 -39 12
      vertex 49 -35 17
      vertex 49 -35 12
    endloop
  endfacet
  facet normal -1 -0 0
    outer loop
      vertex 49 -35 17
      vertex 49 -39 12
      vertex 49 -39 17
    endloop
  endfacet
  facet normal -0 0 1
    outer loop
      vertex 45 39 12
      vertex 49 35 12
      vertex 49 39 12
    endloop
  endfacet
  facet normal 0 0 1
    outer loop
      vertex 49 35 12
      vertex 45 39 12
      vertex 45 35 12
    endloop
  endfacet
  facet normal -0 0 1
    outer loop
      vertex 45 -35 12
      vertex 49 -39 12
      vertex 49 -35 12
    endloop
  endfacet
  facet normal 0 0 1
    outer loop
      vertex 49 -39 12
      vertex 45 -35 12
      vertex 45 -39 12
    endloop
  endfacet
  facet normal 1 -0 0
    outer loop
      vertex 45 35 17
      vertex 45 39 12
      vertex 45 39 17
    endloop
  endfacet
  facet normal 1 0 0
    outer loop
      vertex 45 39 12
      vertex 45 35 17
      vertex 45 35 12
    endloop
  endfacet
  facet normal 1 -0 0
    outer loop
      vertex 45 -39 17
      vertex 45 -35 12
      vertex 45 -35 17
    endloop
  endfacet
  facet normal 1 0 0
    outer loop
      vertex 45 -35 12
      vertex 45 -39 17
      vertex 45 -39 12
    endloop
  endfacet
  facet normal 0 -1 0
    outer loop
      vertex 45 39 12
      vertex 49 39 17
      vertex 45 39 17
    endloop
  endfacet
  facet normal 0 -1 -0
    outer loop
      vertex 49 39 17
      vertex 45 39 12
      vertex 49 39 12
    endloop
  endfacet
  facet normal 0 1 -0
    outer loop
      vertex 49 -39 12
      vertex 45 -39 17
      vertex 49 -39 17
    endloop
  endfacet
  facet normal 0 1 0
    outer loop
      vertex 45 -39 17
      vertex 49 -39 12
      vertex 45 -39 12
    endloop
  endfacet
  facet normal -1 0 0
    outer loop
      vertex 74 35 12
      vertex 74 39 17
      vertex 74 39 12
    endloop
  endfacet
  facet normal -1 -0 0
    outer loop
      vertex 74 39 17
      vertex 74 35 12
      vertex 74 35 17
    endloop
  endfacet
  facet normal -1 0 0
    outer loop
      vertex 74 -39 12
      vertex 74 -35 17
      vertex 74 -35 12
    endloop
  endfacet
  facet normal -1 -0 0
    outer loop
      vertex 74 -35 17
      vertex 74 -39 12
      vertex 74 -39 17
    endloop
  endfacet
  facet normal -0 0 1
    outer loop
      vertex 70 39 12
      vertex 74 35 12
      vertex 74 39 12
    endloop
  endfacet
  facet normal 0 0 1
    outer loop
      vertex 74 35 12
      vertex 70 39 12
      vertex 70 35 12
    endloop
  endfacet
  facet normal -0 0 1
    outer loop
      vertex 70 -35 12
      vertex 74 -39 12
      vertex 74 -35 12
    endloop
  endfacet
  facet normal 0 0 1
    outer loop
      vertex 74 -39 12
      vertex 70 -35 12
      vertex 70 -39 12
    endloop
  endfacet
  facet normal 1 -0 0
    outer loop
      vertex 70 35 17
      vertex 70 39 12
      vertex 70 39 17
    endloop
  endfacet
  facet normal 1 0 0
    outer loop
      vertex 70 39 12
      vertex 70 35 17
      vertex 70 35 12
    endloop
  endfacet
  facet normal 1 -0 0
    outer loop
      vertex 70 -39 17
      vertex 70 -35 12
      vertex 70 -35 17
    endloop
  endfacet
  facet normal 1 0 0
    outer loop
      vertex 70 -35 12
      vertex 70 -39 17
      vertex 70 -39 12
    endloop
  endfacet
  facet normal 0 -1 0
    outer loop
      vertex 70 39 12
      vertex 74 39 17
      vertex 70 39 17
    endloop
  endfacet
  facet normal 0 -1 -0
    outer loop
      vertex 74 39 17
      vertex 70 39 12
      vertex 74 39 12
    endloop
  endfacet
  facet normal 0 1 -0
    outer loop
      vertex 74 -39 12
      vertex 70 -39 17
      vertex 74 -39 17
    endloop
  endfacet
  facet normal 0 1 0
    outer loop
      vertex 70 -39 17
      vertex 74 -39 12
      vertex 70 -39 12
    endloop
  endfacet
  facet normal -1 0 0
    outer loop
      vertex 99 35 12
      vertex 99 39 17
      vertex 99 39 12
    endloop
  endfacet
  facet normal -1 -0 0
    outer loop
      vertex 99 39 17
      vertex 99 35 12
      vertex 99 35 17
    endloop
  endfacet
  facet normal -1 0 0
    outer loop
      vertex 99 -39 12
      vertex 99 -35 17
      vertex 99 -35 12
    endloop
  endfacet
  facet normal -1 -0 0
    outer loop
      vertex 99 -35 17
      vertex 99 -39 12
      vertex 99 -39 17
    endloop
  endfacet
  facet normal -0 0 1
    outer loop
      vertex 95 39 12
      vertex 99 35 12
      vertex 99 39 12
    endloop
  endfacet
  facet normal 0 0 1
    outer loop
      vertex 99 35 12
      vertex 95 39 12
      vertex 95 35 12
    endloop
  endfacet
  facet normal -0 0 1
    outer loop
      vertex 95 -35 12
      vertex 99 -39 12
      vertex 99 -35 12
    endloop
  endfacet
  facet normal 0 0 1
    outer loop
      vertex 99 -39 12
      vertex 95 -35 12
      vertex 95 -39 12
    endloop
  endfacet
  facet normal 1 -0 0
    outer loop
      vertex 95 35 17
      vertex 95 39 12
      vertex 95 39 17
    endloop
  endfacet
  facet normal 1 0 0
    outer loop
      vertex 95 39 12
      vertex 95 35 17
      vertex 95 35 12
    endloop
  endfacet
  facet normal 1 -0 0
    outer loop
      vertex 95 -39 17
      vertex 95 -35 12
      vertex 95 -35 17
    endloop
  endfacet
  facet normal 1 0 0
    outer loop
      vertex 95 -35 12
      vertex 95 -39 17
      vertex 95 -39 12
    endloop
  endfacet
  facet normal 0 -1 0
    outer loop
      vertex 95 39 12
      vertex 99 39 17
      vertex 95 39 17
    endloop
  endfacet
  facet normal 0 -1 -0
    outer loop
      vertex 99 39 17
      vertex 95 39 12
      vertex 99 39 12
    endloop
  endfacet
  facet normal 0 1 -0
    outer loop
      vertex 99 -39 12
      vertex 95 -39 17
      vertex 99 -39 17
    endloop
  endfacet
  facet normal 0 1 0
    outer loop
      vertex 95 -39 17
      vertex 99 -39 12
      vertex 95 -39 12
    endloop
  endfacet
  facet normal -1 0 0
    outer loop
      vertex 124 35 12
      vertex 124 39 17
      vertex 124 39 12
    endloop
  endfacet
  facet normal -1 -0 0
    outer loop
      vertex 124 39 17
      vertex 124 35 12
      vertex 124 35 17
    endloop
  endfacet
  facet normal -1 0 0
    outer loop
      vertex 124 -39 12
      vertex 124 -35 17
      vertex 124 -35 12
    endloop
  endfacet
  facet normal -1 -0 0
    outer loop
      vertex 124 -35 17
      vertex 124 -39 12
      vertex 124 -39 17
    endloop
  endfacet
  facet normal -0 0 1
    outer loop
      vertex 120 39 12
      vertex 124 35 12
      vertex 124 39 12
    endloop
  endfacet
  facet normal 0 0 1
    outer loop
      vertex 124 35 12
      vertex 120 39 12
      vertex 120 35 12
    endloop
  endfacet
  facet normal -0 0 1
    outer loop
      vertex 120 -35 12
      vertex 124 -39 12
      vertex 124 -35 12
    endloop
  endfacet
  facet normal 0 0 1
    outer loop
      vertex 124 -39 12
      vertex 120 -35 12
      vertex 120 -39 12
    endloop
  endfacet
  facet normal 1 -0 0
    outer loop
      vertex 120 35 17
      vertex 120 39 12
      vertex 120 39 17
    endloop
  endfacet
  facet normal 1 0 0
    outer loop
      vertex 120 39 12
      vertex 120 35 17
      vertex 120 35 12
    endloop
  endfacet
  facet normal 1 -0 0
    outer loop
      vertex 120 -39 17
      vertex 120 -35 12
      vertex 120 -35 17
    endloop
  endfacet
  facet normal 1 0 0
    outer loop
      vertex 120 -35 12
      vertex 120 -39 17
      vertex 120 -39 12
    endloop
  endfacet
  facet normal 0 -1 0
    outer loop
      vertex 120 39 12
      vertex 124 39 17
      vertex 120 39 17
    endloop
  endfacet
  facet normal 0 -1 -0
    outer loop
      vertex 124 39 17
      vertex 120 39 12
      vertex 124 39 12
    endloop
  endfacet
  facet normal 0 1 -0
    outer loop
      vertex 124 -39 12
      vertex 120 -39 17
      vertex 124 -39 17
    endloop
  endfacet
  facet normal 0 1 0
    outer loop
      vertex 120 -39 17
      vertex 124 -39 12
      vertex 120 -39 12
    endloop
  endfacet
  facet normal -1 0 0
    outer loop
      vertex 149 35 12
      vertex 149 39 17
      vertex 149 39 12
    endloop
  endfacet
  facet normal -1 -0 0
    outer loop
      vertex 149 39 17
      vertex 149 35 12
      vertex 149 35 17
    endloop
  endfacet
  facet normal -1 0 0
    outer loop
      vertex 149 -39 12
      vertex 149 -35 17
      vertex 149 -35 12
    endloop
  endfacet
  facet normal -1 -0 0
    outer loop
      vertex 149 -35 17
      vertex 149 -39 12
      vertex 149 -39 17
    endloop
  endfacet
  facet normal -0 0 1
    outer loop
      vertex 145 39 12
      vertex 149 35 12
      vertex 149 39 12
    endloop
  endfacet
  facet normal 0 0 1
    outer loop
      vertex 149 35 12
      vertex 145 39 12
      vertex 145 35 12
    endloop
  endfacet
  facet normal -0 0 1
    outer loop
      vertex 145 -35 12
      vertex 149 -39 12
      vertex 149 -35 12
    endloop
  endfacet
  facet normal 0 0 1
    outer loop
      vertex 149 -39 12
      vertex 145 -35 12
      vertex 145 -39 12
    endloop
  endfacet
  facet normal 1 -0 0
    outer loop
      vertex 145 35 17
      vertex 145 39 12
      vertex 145 39 17
    endloop
  endfacet
  facet normal 1 0 0
    outer loop
      vertex 145 39 12
      vertex 145 35 17
      vertex 145 35 12
    endloop
  endfacet
  facet normal 1 -0 0
    outer loop
      vertex 145 -39 17
      vertex 145 -35 12
      vertex 145 -35 17
    endloop
  endfacet
  facet normal 1 0 0
    outer loop
      vertex 145 -35 12
      vertex 145 -39 17
      vertex 145 -39 12
    endloop
  endfacet
  facet normal 0 -1 0
    outer loop
      vertex 145 39 12
      vertex 149 39 17
      vertex 145 39 17
    endloop
  endfacet
  facet normal 0 -1 -0
    outer loop
      vertex 149 39 17
      vertex 145 39 12
      vertex 149 39 12
    endloop
  endfacet
  facet normal 0 1 -0
    outer loop
      vertex 149 -39 12
      vertex 145 -39 17
      vertex 149 -39 17
    endloop
  endfacet
  facet normal 0 1 0
    outer loop
      vertex 145 -39 17
      vertex 149 -39 12
      vertex 145 -39 12
    endloop
  endfacet
  facet normal -1 0 0
    outer loop
      vertex 150 -29.9 0
      vertex 150 29.9 9
      vertex 150 29.9 0
    endloop
  endfacet
  facet normal -1 -0 0
    outer loop
      vertex 150 29.9 9
      vertex 150 -29.9 0
      vertex 150 -29.9 9
    endloop
  endfacet
  facet normal 1 -0 0
    outer loop
      vertex 15 -29.9 9
      vertex 15 29.9 0
      vertex 15 29.9 9
    endloop
  endfacet
  facet normal 1 0 0
    outer loop
      vertex 15 29.9 0
      vertex 15 -29.9 9
      vertex 15 -29.9 0
    endloop
  endfacet
  facet normal 0 -1 0
    outer loop
      vertex 103.066 29.9 0
      vertex 150 29.9 9
      vertex 103.066 29.9 9
    endloop
  endfacet
  facet normal 0 -1 -0
    outer loop
      vertex 150 29.9 9
      vertex 103.066 29.9 0
      vertex 150 29.9 0
    endloop
  endfacet
  facet normal 0 -1 0
    outer loop
      vertex 15 29.9 0
      vertex 56.9345 29.9 9
      vertex 15 29.9 9
    endloop
  endfacet
  facet normal 0 -1 -0
    outer loop
      vertex 56.9345 29.9 9
      vertex 15 29.9 0
      vertex 56.9345 29.9 0
    endloop
  endfacet
  facet normal 0 1 -0
    outer loop
      vertex 150 -29.9 0
      vertex 103.066 -29.9 9
      vertex 150 -29.9 9
    endloop
  endfacet
  facet normal 0 1 0
    outer loop
      vertex 103.066 -29.9 9
      vertex 150 -29.9 0
      vertex 103.066 -29.9 0
    endloop
  endfacet
  facet normal 0 1 -0
    outer loop
      vertex 56.9345 -29.9 0
      vertex 15 -29.9 9
      vertex 56.9345 -29.9 9
    endloop
  endfacet
  facet normal 0 1 0
    outer loop
      vertex 15 -29.9 9
      vertex 56.9345 -29.9 0
      vertex 15 -29.9 0
    endloop
  endfacet
  facet normal -1 0 0
    outer loop
      vertex 160 30 9
      vertex 160 35 17
      vertex 160 35 9
    endloop
  endfacet
  facet normal -1 -0 0
    outer loop
      vertex 160 35 17
      vertex 160 30 9
      vertex 160 30 17
    endloop
  endfacet
  facet normal -1 0 0
    outer loop
      vertex 160 -35 9
      vertex 160 -30 17
      vertex 160 -30 9
    endloop
  endfacet
  facet normal -1 -0 0
    outer loop
      vertex 160 -30 17
      vertex 160 -35 9
      vertex 160 -35 17
    endloop
  endfacet
  facet normal 0 0 1
    outer loop
      vertex 150 29.9 9
      vertex 160 30 9
      vertex 160 35 9
    endloop
  endfacet
  facet normal 0 0 1
    outer loop
      vertex 160 30 9
      vertex 150 29.9 9
      vertex 160 -30 9
    endloop
  endfacet
  facet normal -0 0 1
    outer loop
      vertex 150 -29.9 9
      vertex 160 -30 9
      vertex 150 29.9 9
    endloop
  endfacet
  facet normal -0 0 1
    outer loop
      vertex 102.5 30.3109 9
      vertex 150 29.9 9
      vertex 160 35 9
    endloop
  endfacet
  facet normal 0 0 1
    outer loop
      vertex 150 29.9 9
      vertex 102.5 30.3109 9
      vertex 103.066 29.9 9
    endloop
  endfacet
  facet normal 0 0 1
    outer loop
      vertex 160 35 9
      vertex 95.8156 33.287 9
      vertex 102.5 30.3109 9
    endloop
  endfacet
  facet normal 0 0 1
    outer loop
      vertex 160 35 9
      vertex 88.6585 34.8083 9
      vertex 95.8156 33.287 9
    endloop
  endfacet
  facet normal 0 0 1
    outer loop
      vertex 160 35 9
      vertex 71.3415 34.8083 9
      vertex 88.6585 34.8083 9
    endloop
  endfacet
  facet normal 0 0 1
    outer loop
      vertex 57.5 30.3109 9
      vertex 15 29.9 9
      vertex 56.9345 29.9 9
    endloop
  endfacet
  facet normal 0 0 1
    outer loop
      vertex 64.1844 33.287 9
      vertex 15 29.9 9
      vertex 57.5 30.3109 9
    endloop
  endfacet
  facet normal 0 0 1
    outer loop
      vertex 0 35 9
      vertex 64.1844 33.287 9
      vertex 71.3415 34.8083 9
    endloop
  endfacet
  facet normal 0 0 1
    outer loop
      vertex 15 29.9 9
      vertex 0 35 9
      vertex 15 -29.9 9
    endloop
  endfacet
  facet normal 0 0 1
    outer loop
      vertex 64.1844 33.287 9
      vertex 0 35 9
      vertex 15 29.9 9
    endloop
  endfacet
  facet normal -0 0 1
    outer loop
      vertex 0 35 9
      vertex 71.3415 34.8083 9
      vertex 160 35 9
    endloop
  endfacet
  facet normal -0 0 1
    outer loop
      vertex 160 30 9
      vertex 165 -30 9
      vertex 165 30 9
    endloop
  endfacet
  facet normal 0 0 1
    outer loop
      vertex 165 -30 9
      vertex 160 30 9
      vertex 160 -30 9
    endloop
  endfacet
  facet normal 0 0 1
    outer loop
      vertex 160 -30 9
      vertex 150 -29.9 9
      vertex 160 -35 9
    endloop
  endfacet
  facet normal 0 0 1
    outer loop
      vertex 102.5 -30.3109 9
      vertex 150 -29.9 9
      vertex 103.066 -29.9 9
    endloop
  endfacet
  facet normal 0 0 1
    outer loop
      vertex 150 -29.9 9
      vertex 102.5 -30.3109 9
      vertex 160 -35 9
    endloop
  endfacet
  facet normal -0 0 1
    outer loop
      vertex 95.8156 -33.287 9
      vertex 160 -35 9
      vertex 102.5 -30.3109 9
    endloop
  endfacet
  facet normal -0 0 1
    outer loop
      vertex 88.6585 -34.8083 9
      vertex 160 -35 9
      vertex 95.8156 -33.287 9
    endloop
  endfacet
  facet normal -0 0 1
    outer loop
      vertex 71.3415 -34.8083 9
      vertex 160 -35 9
      vertex 88.6585 -34.8083 9
    endloop
  endfacet
  facet normal -0 0 1
    outer loop
      vertex 15 -29.9 9
      vertex 57.5 -30.3109 9
      vertex 56.9345 -29.9 9
    endloop
  endfacet
  facet normal 0 0 1
    outer loop
      vertex 15 -29.9 9
      vertex 64.1844 -33.287 9
      vertex 57.5 -30.3109 9
    endloop
  endfacet
  facet normal 0 0 1
    outer loop
      vertex 0 -35 9
      vertex 64.1844 -33.287 9
      vertex 15 -29.9 9
    endloop
  endfacet
  facet normal 0 0 1
    outer loop
      vertex 71.3415 -34.8083 9
      vertex 0 -35 9
      vertex 160 -35 9
    endloop
  endfacet
  facet normal 0 0 1
    outer loop
      vertex 64.1844 -33.287 9
      vertex 0 -35 9
      vertex 71.3415 -34.8083 9
    endloop
  endfacet
  facet normal 0 0 1
    outer loop
      vertex 0 -35 9
      vertex 15 -29.9 9
      vertex 0 35 9
    endloop
  endfacet
  facet normal 0 -1 0
    outer loop
      vertex 0 35 17
      vertex 20 35 12
      vertex 20 35 17
    endloop
  endfacet
  facet normal 0 -1 0
    outer loop
      vertex 0 35 9
      vertex 24 35 12
      vertex 20 35 12
    endloop
  endfacet
  facet normal 0 -1 -0
    outer loop
      vertex 24 35 12
      vertex 0 35 9
      vertex 45 35 12
    endloop
  endfacet
  facet normal 0 -1 -0
    outer loop
      vertex 45 35 12
      vertex 0 35 9
      vertex 49 35 12
    endloop
  endfacet
  facet normal 0 -1 -0
    outer loop
      vertex 49 35 12
      vertex 0 35 9
      vertex 70 35 12
    endloop
  endfacet
  facet normal 0 -1 -0
    outer loop
      vertex 70 35 12
      vertex 0 35 9
      vertex 74 35 12
    endloop
  endfacet
  facet normal 0 -1 -0
    outer loop
      vertex 74 35 12
      vertex 0 35 9
      vertex 95 35 12
    endloop
  endfacet
  facet normal 0 -1 0
    outer loop
      vertex 160 35 9
      vertex 95 35 12
      vertex 0 35 9
    endloop
  endfacet
  facet normal 0 -1 0
    outer loop
      vertex 95 35 12
      vertex 160 35 9
      vertex 99 35 12
    endloop
  endfacet
  facet normal 0 -1 0
    outer loop
      vertex 99 35 12
      vertex 160 35 9
      vertex 120 35 12
    endloop
  endfacet
  facet normal 0 -1 0
    outer loop
      vertex 124 35 12
      vertex 160 35 9
      vertex 145 35 12
    endloop
  endfacet
  facet normal 0 -1 0
    outer loop
      vertex 120 35 12
      vertex 160 35 9
      vertex 124 35 12
    endloop
  endfacet
  facet normal 0 -1 0
    outer loop
      vertex 0 35 9
      vertex 20 35 12
      vertex 0 35 17
    endloop
  endfacet
  facet normal 0 -1 0
    outer loop
      vertex 24 35 12
      vertex 45 35 17
      vertex 24 35 17
    endloop
  endfacet
  facet normal 0 -1 -0
    outer loop
      vertex 45 35 17
      vertex 24 35 12
      vertex 45 35 12
    endloop
  endfacet
  facet normal 0 -1 0
    outer loop
      vertex 49 35 12
      vertex 70 35 17
      vertex 49 35 17
    endloop
  endfacet
  facet normal 0 -1 -0
    outer loop
      vertex 70 35 17
      vertex 49 35 12
      vertex 70 35 12
    endloop
  endfacet
  facet normal 0 -1 0
    outer loop
      vertex 74 35 12
      vertex 95 35 17
      vertex 74 35 17
    endloop
  endfacet
  facet normal 0 -1 -0
    outer loop
      vertex 95 35 17
      vertex 74 35 12
      vertex 95 35 12
    endloop
  endfacet
  facet normal 0 -1 0
    outer loop
      vertex 99 35 12
      vertex 120 35 17
      vertex 99 35 17
    endloop
  endfacet
  facet normal 0 -1 -0
    outer loop
      vertex 120 35 17
      vertex 99 35 12
      vertex 120 35 12
    endloop
  endfacet
  facet normal 0 -1 0
    outer loop
      vertex 124 35 12
      vertex 145 35 17
      vertex 124 35 17
    endloop
  endfacet
  facet normal 0 -1 -0
    outer loop
      vertex 145 35 17
      vertex 124 35 12
      vertex 145 35 12
    endloop
  endfacet
  facet normal 0 -1 0
    outer loop
      vertex 149 35 12
      vertex 160 35 17
      vertex 149 35 17
    endloop
  endfacet
  facet normal 0 -1 0
    outer loop
      vertex 149 35 12
      vertex 160 35 9
      vertex 160 35 17
    endloop
  endfacet
  facet normal 0 -1 0
    outer loop
      vertex 145 35 12
      vertex 160 35 9
      vertex 149 35 12
    endloop
  endfacet
  facet normal 0 1 0
    outer loop
      vertex 160 -35 17
      vertex 149 -35 12
      vertex 149 -35 17
    endloop
  endfacet
  facet normal 0 1 0
    outer loop
      vertex 160 -35 9
      vertex 145 -35 12
      vertex 149 -35 12
    endloop
  endfacet
  facet normal 0 1 0
    outer loop
      vertex 145 -35 12
      vertex 160 -35 9
      vertex 124 -35 12
    endloop
  endfacet
  facet normal 0 1 0
    outer loop
      vertex 124 -35 12
      vertex 160 -35 9
      vertex 120 -35 12
    endloop
  endfacet
  facet normal 0 1 0
    outer loop
      vertex 120 -35 12
      vertex 160 -35 9
      vertex 99 -35 12
    endloop
  endfacet
  facet normal 0 1 0
    outer loop
      vertex 99 -35 12
      vertex 160 -35 9
      vertex 95 -35 12
    endloop
  endfacet
  facet normal 0 1 0
    outer loop
      vertex 95 -35 12
      vertex 160 -35 9
      vertex 74 -35 12
    endloop
  endfacet
  facet normal 0 1 0
    outer loop
      vertex 74 -35 12
      vertex 160 -35 9
      vertex 70 -35 12
    endloop
  endfacet
  facet normal 0 1 0
    outer loop
      vertex 0 -35 9
      vertex 70 -35 12
      vertex 160 -35 9
    endloop
  endfacet
  facet normal 0 1 0
    outer loop
      vertex 70 -35 12
      vertex 0 -35 9
      vertex 49 -35 12
    endloop
  endfacet
  facet normal 0 1 0
    outer loop
      vertex 49 -35 12
      vertex 0 -35 9
      vertex 45 -35 12
    endloop
  endfacet
  facet normal 0 1 0
    outer loop
      vertex 45 -35 12
      vertex 0 -35 9
      vertex 24 -35 12
    endloop
  endfacet
  facet normal 0 1 -0
    outer loop
      vertex 160 -35 9
      vertex 149 -35 12
      vertex 160 -35 17
    endloop
  endfacet
  facet normal 0 1 -0
    outer loop
      vertex 145 -35 12
      vertex 124 -35 17
      vertex 145 -35 17
    endloop
  endfacet
  facet normal 0 1 0
    outer loop
      vertex 124 -35 17
      vertex 145 -35 12
      vertex 124 -35 12
    endloop
  endfacet
  facet normal 0 1 -0
    outer loop
      vertex 120 -35 12
      vertex 99 -35 17
      vertex 120 -35 17
    endloop
  endfacet
  facet normal 0 1 0
    outer loop
      vertex 99 -35 17
      vertex 120 -35 12
      vertex 99 -35 12
    endloop
  endfacet
  facet normal 0 1 -0
    outer loop
      vertex 95 -35 12
      vertex 74 -35 17
      vertex 95 -35 17
    endloop
  endfacet
  facet normal 0 1 0
    outer loop
      vertex 74 -35 17
      vertex 95 -35 12
      vertex 74 -35 12
    endloop
  endfacet
  facet normal 0 1 -0
    outer loop
      vertex 70 -35 12
      vertex 49 -35 17
      vertex 70 -35 17
    endloop
  endfacet
  facet normal 0 1 0
    outer loop
      vertex 49 -35 17
      vertex 70 -35 12
      vertex 49 -35 12
    endloop
  endfacet
  facet normal 0 1 -0
    outer loop
      vertex 45 -35 12
      vertex 24 -35 17
      vertex 45 -35 17
    endloop
  endfacet
  facet normal 0 1 0
    outer loop
      vertex 24 -35 17
      vertex 45 -35 12
      vertex 24 -35 12
    endloop
  endfacet
  facet normal 0 1 -0
    outer loop
      vertex 20 -35 12
      vertex 0 -35 17
      vertex 20 -35 17
    endloop
  endfacet
  facet normal 0 1 0
    outer loop
      vertex 20 -35 12
      vertex 0 -35 9
      vertex 0 -35 17
    endloop
  endfacet
  facet normal 0 1 0
    outer loop
      vertex 24 -35 12
      vertex 0 -35 9
      vertex 20 -35 12
    endloop
  endfacet
  facet normal 0 -1 0
    outer loop
      vertex 160 30 9
      vertex 165 30 17
      vertex 160 30 17
    endloop
  endfacet
  facet normal 0 -1 -0
    outer loop
      vertex 165 30 17
      vertex 160 30 9
      vertex 165 30 9
    endloop
  endfacet
  facet normal 0 1 -0
    outer loop
      vertex 165 -30 9
      vertex 160 -30 17
      vertex 165 -30 17
    endloop
  endfacet
  facet normal 0 1 0
    outer loop
      vertex 160 -30 17
      vertex 165 -30 9
      vertex 160 -30 9
    endloop
  endfacet
  facet normal 0 -0.798039 0.602606
    outer loop
      vertex 16 -64.5641 2.23105
      vertex 28 -63.4347 3.72673
      vertex 16 -63.4347 3.72673
    endloop
  endfacet
  facet normal 0 -0.798039 0.602606
    outer loop
      vertex 28 -63.4347 3.72673
      vertex 16 -64.5641 2.23105
      vertex 28 -64.5641 2.23105
    endloop
  endfacet
  facet normal 0 0 -1
    outer loop
      vertex 16 -68.9371 11.0132
      vertex 28 -67.0629 11.0132
      vertex 28 -68.9371 11.0132
    endloop
  endfacet
  facet normal -0 0 -1
    outer loop
      vertex 28 -67.0629 11.0132
      vertex 16 -68.9371 11.0132
      vertex 16 -67.0629 11.0132
    endloop
  endfacet
  facet normal 0 0.961827 0.273657
    outer loop
      vertex 28 -72.5653 3.72673
      vertex 16 -73.0782 5.52943
      vertex 28 -73.0782 5.52943
    endloop
  endfacet
  facet normal 0 0.961827 0.273657
    outer loop
      vertex 16 -73.0782 5.52943
      vertex 28 -72.5653 3.72673
      vertex 16 -72.5653 3.72673
    endloop
  endfacet
  facet normal 0 -0.962456 0.271437
    outer loop
      vertex 16 -62.9218 5.52943
      vertex 28 -62.9301 5.5
      vertex 28.0782 -62.9218 5.52943
    endloop
  endfacet
  facet normal 5.87957e-06 -0.961827 0.273657
    outer loop
      vertex 16 -63.4347 3.72673
      vertex 28 -62.9301 5.5
      vertex 16 -62.9218 5.52943
    endloop
  endfacet
  facet normal 0 -0.961817 0.273694
    outer loop
      vertex 28 -62.9301 5.5
      vertex 16 -63.4347 3.72673
      vertex 28 -63.4347 3.72673
    endloop
  endfacet
  facet normal 0 -0.962456 0.271437
    outer loop
      vertex 28.0782 -62.9218 5.52943
      vertex 28 -62.9301 5.5
      vertex 28.0699 -62.9301 5.5
    endloop
  endfacet
  facet normal 0 -0.183752 0.982973
    outer loop
      vertex 16 -66.1577 1.24439
      vertex 28 -68 0.9
      vertex 28 -66.1577 1.24439
    endloop
  endfacet
  facet normal 0 -0.183752 0.982973
    outer loop
      vertex 28 -68 0.9
      vertex 16 -66.1577 1.24439
      vertex 16 -68 0.9
    endloop
  endfacet
  facet normal 0 -0.673688 -0.739016
    outer loop
      vertex 16 -65.3152 10.3361
      vertex 28 -63.9301 9.07344
      vertex 28 -65.3152 10.3361
    endloop
  endfacet
  facet normal -0 -0.673688 -0.739016
    outer loop
      vertex 28 -63.9301 9.07344
      vertex 16 -65.3152 10.3361
      vertex 16 -63.9301 9.07344
    endloop
  endfacet
  facet normal 0 0.895169 -0.445728
    outer loop
      vertex 28 -72.9053 7.39568
      vertex 16 -72.0699 9.07344
      vertex 28 -72.0699 9.07344
    endloop
  endfacet
  facet normal 0 0.895169 -0.445728
    outer loop
      vertex 16 -72.0699 9.07344
      vertex 28 -72.9053 7.39568
      vertex 16 -72.9053 7.39568
    endloop
  endfacet
  facet normal 0 -0.361259 -0.932466
    outer loop
      vertex 16 -67.0629 11.0132
      vertex 28 -65.3152 10.3361
      vertex 28 -67.0629 11.0132
    endloop
  endfacet
  facet normal -0 -0.361259 -0.932466
    outer loop
      vertex 28 -65.3152 10.3361
      vertex 16 -67.0629 11.0132
      vertex 16 -65.3152 10.3361
    endloop
  endfacet
  facet normal 0 0.995736 -0.0922506
    outer loop
      vertex 28 -73.0782 5.52943
      vertex 16 -72.9053 7.39568
      vertex 28 -72.9053 7.39568
    endloop
  endfacet
  facet normal 0 0.995736 -0.0922506
    outer loop
      vertex 16 -72.9053 7.39568
      vertex 28 -73.0782 5.52943
      vertex 16 -73.0782 5.52943
    endloop
  endfacet
  facet normal 0 -0.526411 0.85023
    outer loop
      vertex 16 -64.5641 2.23105
      vertex 28 -66.1577 1.24439
      vertex 28 -64.5641 2.23105
    endloop
  endfacet
  facet normal 0 -0.526411 0.85023
    outer loop
      vertex 28 -66.1577 1.24439
      vertex 16 -64.5641 2.23105
      vertex 16 -66.1577 1.24439
    endloop
  endfacet
  facet normal -0 0.183752 0.982973
    outer loop
      vertex 16 -68 0.9
      vertex 28 -69.8423 1.24439
      vertex 28 -68 0.9
    endloop
  endfacet
  facet normal 0 0.183752 0.982973
    outer loop
      vertex 28 -69.8423 1.24439
      vertex 16 -68 0.9
      vertex 16 -69.8423 1.24439
    endloop
  endfacet
  facet normal -0 0.526435 0.850216
    outer loop
      vertex 16 -69.8423 1.24439
      vertex 28 -71.4358 2.23105
      vertex 28 -69.8423 1.24439
    endloop
  endfacet
  facet normal 0 0.526435 0.850216
    outer loop
      vertex 28 -71.4358 2.23105
      vertex 16 -69.8423 1.24439
      vertex 16 -71.4358 2.23105
    endloop
  endfacet
  facet normal 0 0.798013 0.60264
    outer loop
      vertex 28 -71.4358 2.23105
      vertex 16 -72.5653 3.72673
      vertex 28 -72.5653 3.72673
    endloop
  endfacet
  facet normal 0 0.798013 0.60264
    outer loop
      vertex 16 -72.5653 3.72673
      vertex 28 -71.4358 2.23105
      vertex 16 -71.4358 2.23105
    endloop
  endfacet
  facet normal 0 -0.995733 -0.0922796
    outer loop
      vertex 16 -63.0947 7.39568
      vertex 28 -63 6.37383
      vertex 28 -63.0947 7.39568
    endloop
  endfacet
  facet normal 2.49034e-06 -0.995736 -0.0922506
    outer loop
      vertex 16 -62.9218 5.52943
      vertex 28 -63 6.37383
      vertex 16 -63.0947 7.39568
    endloop
  endfacet
  facet normal 0 -0.995739 -0.0922155
    outer loop
      vertex 28 -63 6.37383
      vertex 16 -62.9218 5.52943
      vertex 28.0782 -62.9218 5.52943
    endloop
  endfacet
  facet normal 0 -0.895169 -0.445728
    outer loop
      vertex 16 -63.0947 7.39568
      vertex 28 -63.9301 9.07344
      vertex 16 -63.9301 9.07344
    endloop
  endfacet
  facet normal 0 -0.895169 -0.445728
    outer loop
      vertex 28 -63.9301 9.07344
      vertex 16 -63.0947 7.39568
      vertex 28 -63.0947 7.39568
    endloop
  endfacet
  facet normal 0 0.673688 -0.739016
    outer loop
      vertex 16 -72.0699 9.07344
      vertex 28 -70.6848 10.3361
      vertex 28 -72.0699 9.07344
    endloop
  endfacet
  facet normal 0 0.673688 -0.739016
    outer loop
      vertex 28 -70.6848 10.3361
      vertex 16 -72.0699 9.07344
      vertex 16 -70.6848 10.3361
    endloop
  endfacet
  facet normal 0 0.361259 -0.932466
    outer loop
      vertex 16 -70.6848 10.3361
      vertex 28 -68.9371 11.0132
      vertex 28 -70.6848 10.3361
    endloop
  endfacet
  facet normal 0 0.361259 -0.932466
    outer loop
      vertex 28 -68.9371 11.0132
      vertex 16 -70.6848 10.3361
      vertex 16 -68.9371 11.0132
    endloop
  endfacet
  facet normal -0.707107 0.707107 0
    outer loop
      vertex 0 41.9 3
      vertex 3 44.9 0
      vertex 0 41.9 0
    endloop
  endfacet
  facet normal -0.707107 0.707107 0
    outer loop
      vertex 0 41.9 17
      vertex 3 44.9 17
      vertex 0 41.9 14
    endloop
  endfacet
  facet normal 0.707107 0.707107 0
    outer loop
      vertex 170 41.9 3
      vertex 170 41.9 0
      vertex 167 44.9 0
    endloop
  endfacet
  facet normal 0.707107 0.707107 0
    outer loop
      vertex 165 41.9 17
      vertex 165 41.9 14
      vertex 162 44.9 17
    endloop
  endfacet
  facet normal -0.707107 -0.707107 0
    outer loop
      vertex 3 -44.9 17
      vertex 0 -41.9 17
      vertex 0 -41.9 14
    endloop
  endfacet
  facet normal -0.707107 -0.707107 0
    outer loop
      vertex 3 -44.9 0
      vertex 0 -41.9 3
      vertex 0 -41.9 0
    endloop
  endfacet
  facet normal 0.707107 -0.707107 0
    outer loop
      vertex 170 -41.9 0
      vertex 170 -41.9 3
      vertex 167 -44.9 0
    endloop
  endfacet
  facet normal 0.707107 -0.707107 0
    outer loop
      vertex 165 -41.9 14
      vertex 165 -41.9 17
      vertex 162 -44.9 17
    endloop
  endfacet
endsolid OpenSCAD_Model
