solid OpenSCAD_Model
  facet normal -0.288385 0.647748 0.705164
    outer loop
      vertex -20 48.7929 1.90043
      vertex -15.4199 47.4577 5
      vertex -16.965 52.213 0
    endloop
  endfacet
  facet normal -0.288393 0.647738 0.705171
    outer loop
      vertex -15.4199 47.4577 5
      vertex -20 48.7929 1.90043
      vertex -20 45.4185 5
    endloop
  endfacet
  facet normal 0 0 -1
    outer loop
      vertex -14.2 6.11436 0
      vertex -2.53717 0.923454 0
      vertex -14.2 -6.11436 0
    endloop
  endfacet
  facet normal 0 0 -1
    outer loop
      vertex -2.53717 0.923454 0
      vertex -14.2 6.11436 0
      vertex -13.4 7.5 0
    endloop
  endfacet
  facet normal 0 0 -1
    outer loop
      vertex -15.8 -6.11436 0
      vertex -14.2 6.11436 0
      vertex -14.2 -6.11436 0
    endloop
  endfacet
  facet normal 0 0 -1
    outer loop
      vertex -15.8 -6.11436 0
      vertex -15.8 6.11436 0
      vertex -14.2 6.11436 0
    endloop
  endfacet
  facet normal 0 0 -1
    outer loop
      vertex -16.6 -7.5 0
      vertex -15.8 6.11436 0
      vertex -15.8 -6.11436 0
    endloop
  endfacet
  facet normal -0 0 -1
    outer loop
      vertex -15.8 6.11436 0
      vertex -16.6 -7.5 0
      vertex -16.6 7.5 0
    endloop
  endfacet
  facet normal 0 0 -1
    outer loop
      vertex -14.2 -6.11436 0
      vertex -2.53717 -0.923454 0
      vertex -13.4 -7.5 0
    endloop
  endfacet
  facet normal -0 0 -1
    outer loop
      vertex -2.53717 -0.923454 0
      vertex -14.2 -6.11436 0
      vertex -2.53717 0.923454 0
    endloop
  endfacet
  facet normal 0 0 -1
    outer loop
      vertex -14.2 -8.88564 0
      vertex -9.2 -23.6144 0
      vertex -10.8 -23.6144 0
    endloop
  endfacet
  facet normal 0 -0 -1
    outer loop
      vertex -9.2 23.6144 0
      vertex -2.53717 0.923454 0
      vertex -13.4 7.5 0
    endloop
  endfacet
  facet normal 0 0 -1
    outer loop
      vertex -15.8 -8.88564 0
      vertex -10.8 -23.6144 0
      vertex -11.6 -25 0
    endloop
  endfacet
  facet normal 0 0 -1
    outer loop
      vertex -2.53717 0.923454 0
      vertex -9.2 23.6144 0
      vertex -8.4 25 0
    endloop
  endfacet
  facet normal 0 0 -1
    outer loop
      vertex -9.2 26.3856 0
      vertex 10 40 0
      vertex -8.4 25 0
    endloop
  endfacet
  facet normal -0 0 -1
    outer loop
      vertex 10 40 0
      vertex -9.2 26.3856 0
      vertex -5.73861 54.5993 0
    endloop
  endfacet
  facet normal 0 0 -1
    outer loop
      vertex -16.965 52.213 0
      vertex -9.2 26.3856 0
      vertex -10.8 26.3856 0
    endloop
  endfacet
  facet normal 0 0 -1
    outer loop
      vertex -20 50.8617 0
      vertex -10.8 26.3856 0
      vertex -11.6 25 0
    endloop
  endfacet
  facet normal -0 0 -1
    outer loop
      vertex -9.2 23.6144 0
      vertex -14.2 8.88564 0
      vertex -10.8 23.6144 0
    endloop
  endfacet
  facet normal 0 0 -1
    outer loop
      vertex -15.8 8.88564 0
      vertex -10.8 23.6144 0
      vertex -14.2 8.88564 0
    endloop
  endfacet
  facet normal -0 0 -1
    outer loop
      vertex -10.8 23.6144 0
      vertex -15.8 8.88564 0
      vertex -11.6 25 0
    endloop
  endfacet
  facet normal 0 0 -1
    outer loop
      vertex -16.6 7.5 0
      vertex -11.6 25 0
      vertex -15.8 8.88564 0
    endloop
  endfacet
  facet normal -0 0 -1
    outer loop
      vertex -11.6 25 0
      vertex -16.6 7.5 0
      vertex -20 50.8617 0
    endloop
  endfacet
  facet normal 0 0 -1
    outer loop
      vertex -9.2 26.3856 0
      vertex -16.965 52.213 0
      vertex -5.73861 54.5993 0
    endloop
  endfacet
  facet normal -0 0 -1
    outer loop
      vertex -16.6 -7.5 0
      vertex -20 -50.8617 0
      vertex -16.6 7.5 0
    endloop
  endfacet
  facet normal 0 0 -1
    outer loop
      vertex -20 50.8617 0
      vertex -16.6 7.5 0
      vertex -20 -50.8617 0
    endloop
  endfacet
  facet normal 0 0 -1
    outer loop
      vertex -10.8 26.3856 0
      vertex -20 50.8617 0
      vertex -16.965 52.213 0
    endloop
  endfacet
  facet normal 0 0 -1
    outer loop
      vertex 5.8 -6.11436 0
      vertex 6.6 7.5 0
      vertex 6.6 -7.5 0
    endloop
  endfacet
  facet normal 0 0 -1
    outer loop
      vertex 5.8 -6.11436 0
      vertex 5.8 6.11436 0
      vertex 6.6 7.5 0
    endloop
  endfacet
  facet normal 0 0 -1
    outer loop
      vertex 2.06832 -1.73553 0
      vertex 5.8 -6.11436 0
      vertex 4.2 -6.11436 0
    endloop
  endfacet
  facet normal 0 0 -1
    outer loop
      vertex 5.8 -6.11436 0
      vertex 2.7 0 0
      vertex 5.8 6.11436 0
    endloop
  endfacet
  facet normal 0 0 -1
    outer loop
      vertex 0.468849 -2.65898 0
      vertex 4.2 -6.11436 0
      vertex 3.4 -7.5 0
    endloop
  endfacet
  facet normal 0 0 -1
    outer loop
      vertex 2.06832 1.73553 0
      vertex 5.8 6.11436 0
      vertex 2.7 0 0
    endloop
  endfacet
  facet normal 0 0 -1
    outer loop
      vertex 20 -50.8617 0
      vertex 18.9547 -49.9452 0
      vertex 20 -49.9452 0
    endloop
  endfacet
  facet normal 0 0 -1
    outer loop
      vertex 16.965 -52.213 0
      vertex 18.9547 -49.9452 0
      vertex 20 -50.8617 0
    endloop
  endfacet
  facet normal 0 0 -1
    outer loop
      vertex 16.965 -52.213 0
      vertex 16.9098 -49.5106 0
      vertex 18.9547 -49.9452 0
    endloop
  endfacet
  facet normal 0 0 -1
    outer loop
      vertex 16.965 -52.213 0
      vertex 15 -48.6603 0
      vertex 16.9098 -49.5106 0
    endloop
  endfacet
  facet normal 0 0 -1
    outer loop
      vertex 5.73861 -54.5993 0
      vertex 15 -48.6603 0
      vertex 16.965 -52.213 0
    endloop
  endfacet
  facet normal -0 0 -1
    outer loop
      vertex 15 -48.6603 0
      vertex 5.73861 -54.5993 0
      vertex 13.3087 -47.4314 0
    endloop
  endfacet
  facet normal 0 0 -1
    outer loop
      vertex 10 -40 0
      vertex 6.6 -7.5 0
      vertex 10 40 0
    endloop
  endfacet
  facet normal 0 0 -1
    outer loop
      vertex 10 -40 0
      vertex 5.8 -8.88564 0
      vertex 6.6 -7.5 0
    endloop
  endfacet
  facet normal 0 0 -1
    outer loop
      vertex -5.73861 -54.5993 0
      vertex 10 -40 0
      vertex 10.2185 -42.0791 0
    endloop
  endfacet
  facet normal -0 0 -1
    outer loop
      vertex 13.3087 -47.4314 0
      vertex 5.73861 -54.5993 0
      vertex 11.9098 -45.8779 0
    endloop
  endfacet
  facet normal 0 0 -1
    outer loop
      vertex 5.73861 -54.5993 0
      vertex 10.8645 -44.0674 0
      vertex 11.9098 -45.8779 0
    endloop
  endfacet
  facet normal 0 0 -1
    outer loop
      vertex 5.73861 -54.5993 0
      vertex 10.2185 -42.0791 0
      vertex 10.8645 -44.0674 0
    endloop
  endfacet
  facet normal 0 0 -1
    outer loop
      vertex -5.73861 -54.5993 0
      vertex 10.2185 -42.0791 0
      vertex 5.73861 -54.5993 0
    endloop
  endfacet
  facet normal 0 0 -1
    outer loop
      vertex 10 -40 0
      vertex -8.4 -25 0
      vertex 5.8 -8.88564 0
    endloop
  endfacet
  facet normal -0 0 -1
    outer loop
      vertex 5.8 -8.88564 0
      vertex -8.4 -25 0
      vertex 4.2 -8.88564 0
    endloop
  endfacet
  facet normal -0 0 -1
    outer loop
      vertex 5.8 6.11436 0
      vertex 2.06832 1.73553 0
      vertex 4.2 6.11436 0
    endloop
  endfacet
  facet normal 0 0 -1
    outer loop
      vertex -9.2 -23.6144 0
      vertex 4.2 -8.88564 0
      vertex -8.4 -25 0
    endloop
  endfacet
  facet normal 0 0 -1
    outer loop
      vertex 5.8 -6.11436 0
      vertex 2.06832 -1.73553 0
      vertex 2.7 0 0
    endloop
  endfacet
  facet normal 0 0 -1
    outer loop
      vertex -13.4 -7.5 0
      vertex 4.2 -8.88564 0
      vertex -9.2 -23.6144 0
    endloop
  endfacet
  facet normal 0 0 -1
    outer loop
      vertex 4.2 -6.11436 0
      vertex 0.468849 -2.65898 0
      vertex 2.06832 -1.73553 0
    endloop
  endfacet
  facet normal 0 0 -1
    outer loop
      vertex 3.4 -7.5 0
      vertex -1.35 -2.33827 0
      vertex 0.468849 -2.65898 0
    endloop
  endfacet
  facet normal 0 0 -1
    outer loop
      vertex 4.2 -8.88564 0
      vertex -13.4 -7.5 0
      vertex 3.4 -7.5 0
    endloop
  endfacet
  facet normal -0 0 -1
    outer loop
      vertex 10 -40 0
      vertex -5.73861 -54.5993 0
      vertex -9.2 -26.3856 0
    endloop
  endfacet
  facet normal 0 0 -1
    outer loop
      vertex 18.9547 49.9452 0
      vertex 20 50.8617 0
      vertex 20 49.9452 0
    endloop
  endfacet
  facet normal 0 0 -1
    outer loop
      vertex 18.9547 49.9452 0
      vertex 16.965 52.213 0
      vertex 20 50.8617 0
    endloop
  endfacet
  facet normal 0 0 -1
    outer loop
      vertex 16.9098 49.5106 0
      vertex 16.965 52.213 0
      vertex 18.9547 49.9452 0
    endloop
  endfacet
  facet normal 0 0 -1
    outer loop
      vertex 15 48.6603 0
      vertex 16.965 52.213 0
      vertex 16.9098 49.5106 0
    endloop
  endfacet
  facet normal 0 0 -1
    outer loop
      vertex 5.73861 54.5993 0
      vertex 15 48.6603 0
      vertex 13.3087 47.4314 0
    endloop
  endfacet
  facet normal 0 0 -1
    outer loop
      vertex 5.73861 54.5993 0
      vertex 13.3087 47.4314 0
      vertex 11.9098 45.8779 0
    endloop
  endfacet
  facet normal 0 0 -1
    outer loop
      vertex 6.6 7.5 0
      vertex 10 40 0
      vertex 6.6 -7.5 0
    endloop
  endfacet
  facet normal 0 0 -1
    outer loop
      vertex 5.8 8.88564 0
      vertex 10 40 0
      vertex 6.6 7.5 0
    endloop
  endfacet
  facet normal 0 0 -1
    outer loop
      vertex -8.4 25 0
      vertex 5.8 8.88564 0
      vertex 4.2 8.88564 0
    endloop
  endfacet
  facet normal 0 0 -1
    outer loop
      vertex 15 48.6603 0
      vertex 5.73861 54.5993 0
      vertex 16.965 52.213 0
    endloop
  endfacet
  facet normal 0 0 -1
    outer loop
      vertex 10.8645 44.0674 0
      vertex 5.73861 54.5993 0
      vertex 11.9098 45.8779 0
    endloop
  endfacet
  facet normal 0 0 -1
    outer loop
      vertex 10.2185 42.0791 0
      vertex 5.73861 54.5993 0
      vertex 10.8645 44.0674 0
    endloop
  endfacet
  facet normal 0 0 -1
    outer loop
      vertex 5.8 8.88564 0
      vertex -8.4 25 0
      vertex 10 40 0
    endloop
  endfacet
  facet normal 0 0 -1
    outer loop
      vertex 10 40 0
      vertex -5.73861 54.5993 0
      vertex 10.2185 42.0791 0
    endloop
  endfacet
  facet normal 0 0 -1
    outer loop
      vertex -8.4 25 0
      vertex 3.4 7.5 0
      vertex -1.35 2.33827 0
    endloop
  endfacet
  facet normal 0 0 -1
    outer loop
      vertex 0.468849 2.65898 0
      vertex 4.2 6.11436 0
      vertex 2.06832 1.73553 0
    endloop
  endfacet
  facet normal -0 0 -1
    outer loop
      vertex 4.2 6.11436 0
      vertex 0.468849 2.65898 0
      vertex 3.4 7.5 0
    endloop
  endfacet
  facet normal 0 0 -1
    outer loop
      vertex -1.35 2.33827 0
      vertex 3.4 7.5 0
      vertex 0.468849 2.65898 0
    endloop
  endfacet
  facet normal 0 0 -1
    outer loop
      vertex 3.4 7.5 0
      vertex -8.4 25 0
      vertex 4.2 8.88564 0
    endloop
  endfacet
  facet normal 0 0 -1
    outer loop
      vertex -8.4 25 0
      vertex -1.35 2.33827 0
      vertex -2.53717 0.923454 0
    endloop
  endfacet
  facet normal 0 0 -1
    outer loop
      vertex 10.2185 42.0791 0
      vertex -5.73861 54.5993 0
      vertex 5.73861 54.5993 0
    endloop
  endfacet
  facet normal 0 0 -1
    outer loop
      vertex 3.4 -7.5 0
      vertex -13.4 -7.5 0
      vertex -1.35 -2.33827 0
    endloop
  endfacet
  facet normal -0 0 -1
    outer loop
      vertex -1.35 -2.33827 0
      vertex -13.4 -7.5 0
      vertex -2.53717 -0.923454 0
    endloop
  endfacet
  facet normal 0 0 -1
    outer loop
      vertex 10 -40 0
      vertex -9.2 -26.3856 0
      vertex -8.4 -25 0
    endloop
  endfacet
  facet normal 0 0 -1
    outer loop
      vertex -16.965 -52.213 0
      vertex -9.2 -26.3856 0
      vertex -5.73861 -54.5993 0
    endloop
  endfacet
  facet normal -0 0 -1
    outer loop
      vertex -9.2 -26.3856 0
      vertex -16.965 -52.213 0
      vertex -10.8 -26.3856 0
    endloop
  endfacet
  facet normal 0 0 -1
    outer loop
      vertex -14.2 8.88564 0
      vertex -9.2 23.6144 0
      vertex -13.4 7.5 0
    endloop
  endfacet
  facet normal 0 0 -1
    outer loop
      vertex -9.2 -23.6144 0
      vertex -14.2 -8.88564 0
      vertex -13.4 -7.5 0
    endloop
  endfacet
  facet normal 0 0 -1
    outer loop
      vertex -10.8 -23.6144 0
      vertex -15.8 -8.88564 0
      vertex -14.2 -8.88564 0
    endloop
  endfacet
  facet normal 0 0 -1
    outer loop
      vertex -20 -50.8617 0
      vertex -10.8 -26.3856 0
      vertex -16.965 -52.213 0
    endloop
  endfacet
  facet normal -0 0 -1
    outer loop
      vertex -10.8 -26.3856 0
      vertex -20 -50.8617 0
      vertex -11.6 -25 0
    endloop
  endfacet
  facet normal -0 0 -1
    outer loop
      vertex -11.6 -25 0
      vertex -20 -50.8617 0
      vertex -16.6 -7.5 0
    endloop
  endfacet
  facet normal 0 0 -1
    outer loop
      vertex -11.6 -25 0
      vertex -16.6 -7.5 0
      vertex -15.8 -8.88564 0
    endloop
  endfacet
  facet normal -0.288407 -0.647758 0.705146
    outer loop
      vertex -20 -48.7929 1.90043
      vertex -20 -50.8617 0
      vertex -16.965 -52.213 0
    endloop
  endfacet
  facet normal -0.288393 -0.647738 0.705171
    outer loop
      vertex -20 -48.7929 1.90043
      vertex -15.4199 -47.4577 5
      vertex -20 -45.4185 5
    endloop
  endfacet
  facet normal -0.288385 -0.647748 0.705164
    outer loop
      vertex -15.4199 -47.4577 5
      vertex -20 -48.7929 1.90043
      vertex -16.965 -52.213 0
    endloop
  endfacet
  facet normal -0.147422 0.69355 0.705164
    outer loop
      vertex -5.73861 54.5993 0
      vertex -16.965 52.213 0
      vertex -15.4199 47.4577 5
    endloop
  endfacet
  facet normal 0.288541 -0.647807 0.705046
    outer loop
      vertex 18.9547 -49.9452 1.2694
      vertex 16.965 -52.213 0
      vertex 18.9774 -49.9452 1.26011
    endloop
  endfacet
  facet normal 0.288407 -0.647749 0.705154
    outer loop
      vertex 16.9098 -49.5106 2.50498
      vertex 16.965 -52.213 0
      vertex 18.9547 -49.9452 1.2694
    endloop
  endfacet
  facet normal 0.288352 -0.647761 0.705166
    outer loop
      vertex 16.965 -52.213 0
      vertex 16.9098 -49.5106 2.50498
      vertex 15.9478 -49.0822 3.29188
    endloop
  endfacet
  facet normal 0 -0.70904 0.705168
    outer loop
      vertex -5.73861 -54.5993 0
      vertex 5.21597 -49.6266 5
      vertex -5.21597 -49.6266 5
    endloop
  endfacet
  facet normal 0 -0.70904 0.705168
    outer loop
      vertex 5.21597 -49.6266 5
      vertex -5.73861 -54.5993 0
      vertex 5.73861 -54.5993 0
    endloop
  endfacet
  facet normal 0.147495 -0.693529 0.705169
    outer loop
      vertex 15 -48.6603 3.90506
      vertex 16.965 -52.213 0
      vertex 15.9478 -49.0822 3.29188
    endloop
  endfacet
  facet normal 0.147387 -0.693569 0.705152
    outer loop
      vertex 14.3903 -48.2173 4.46822
      vertex 16.965 -52.213 0
      vertex 15 -48.6603 3.90506
    endloop
  endfacet
  facet normal 0.147423 -0.693554 0.705159
    outer loop
      vertex 16.965 -52.213 0
      vertex 14.3903 -48.2173 4.46822
      vertex 5.73861 -54.5993 0
    endloop
  endfacet
  facet normal 0.147495 0.693529 0.705169
    outer loop
      vertex 16.965 52.213 0
      vertex 15 48.6603 3.90506
      vertex 15.9478 49.0822 3.29188
    endloop
  endfacet
  facet normal 0.147387 0.693569 0.705152
    outer loop
      vertex 16.965 52.213 0
      vertex 14.3903 48.2173 4.46822
      vertex 15 48.6603 3.90506
    endloop
  endfacet
  facet normal 0.147423 0.693554 0.705159
    outer loop
      vertex 14.3903 48.2173 4.46822
      vertex 16.965 52.213 0
      vertex 5.73861 54.5993 0
    endloop
  endfacet
  facet normal -0.147422 -0.69355 0.705164
    outer loop
      vertex -15.4199 -47.4577 5
      vertex -16.965 -52.213 0
      vertex -5.73861 -54.5993 0
    endloop
  endfacet
  facet normal 0 0.70904 0.705168
    outer loop
      vertex 5.73861 54.5993 0
      vertex -5.21597 49.6266 5
      vertex 5.21597 49.6266 5
    endloop
  endfacet
  facet normal 0 0.70904 0.705168
    outer loop
      vertex -5.21597 49.6266 5
      vertex 5.73861 54.5993 0
      vertex -5.73861 54.5993 0
    endloop
  endfacet
  facet normal 0.147415 0.693549 0.705166
    outer loop
      vertex 5.73861 54.5993 0
      vertex 13.8145 47.799 5
      vertex 14.3903 48.2173 4.46822
    endloop
  endfacet
  facet normal 0.147412 0.693547 0.705169
    outer loop
      vertex 13.8145 47.799 5
      vertex 5.73861 54.5993 0
      vertex 5.21597 49.6266 5
    endloop
  endfacet
  facet normal 0.288541 0.647807 0.705046
    outer loop
      vertex 16.965 52.213 0
      vertex 18.9547 49.9452 1.2694
      vertex 18.9774 49.9452 1.26011
    endloop
  endfacet
  facet normal 0.288407 0.647749 0.705154
    outer loop
      vertex 16.965 52.213 0
      vertex 16.9098 49.5106 2.50498
      vertex 18.9547 49.9452 1.2694
    endloop
  endfacet
  facet normal 0.288352 0.647761 0.705166
    outer loop
      vertex 16.9098 49.5106 2.50498
      vertex 16.965 52.213 0
      vertex 15.9478 49.0822 3.29188
    endloop
  endfacet
  facet normal 0.288382 0.64776 0.705154
    outer loop
      vertex 20 50.8617 0
      vertex 18.9774 49.9452 1.26011
      vertex 20 49.9452 0.841904
    endloop
  endfacet
  facet normal 0.288402 0.647746 0.705159
    outer loop
      vertex 18.9774 49.9452 1.26011
      vertex 20 50.8617 0
      vertex 16.965 52.213 0
    endloop
  endfacet
  facet normal -0.147417 -0.693546 0.705168
    outer loop
      vertex -5.21597 -49.6266 5
      vertex -15.4199 -47.4577 5
      vertex -5.73861 -54.5993 0
    endloop
  endfacet
  facet normal -0.288407 0.647758 0.705146
    outer loop
      vertex -20 50.8617 0
      vertex -20 48.7929 1.90043
      vertex -16.965 52.213 0
    endloop
  endfacet
  facet normal 0.147415 -0.693549 0.705166
    outer loop
      vertex 13.8145 -47.799 5
      vertex 5.73861 -54.5993 0
      vertex 14.3903 -48.2173 4.46822
    endloop
  endfacet
  facet normal 0.147412 -0.693547 0.705169
    outer loop
      vertex 5.73861 -54.5993 0
      vertex 13.8145 -47.799 5
      vertex 5.21597 -49.6266 5
    endloop
  endfacet
  facet normal -0.147417 0.693546 0.705168
    outer loop
      vertex -5.73861 54.5993 0
      vertex -15.4199 47.4577 5
      vertex -5.21597 49.6266 5
    endloop
  endfacet
  facet normal 0.288382 -0.64776 0.705154
    outer loop
      vertex 18.9774 -49.9452 1.26011
      vertex 20 -50.8617 0
      vertex 20 -49.9452 0.841904
    endloop
  endfacet
  facet normal 0.288402 -0.647746 0.705159
    outer loop
      vertex 20 -50.8617 0
      vertex 18.9774 -49.9452 1.26011
      vertex 16.965 -52.213 0
    endloop
  endfacet
  facet normal -0.406738 -0.913545 0
    outer loop
      vertex -20 -45.4185 5
      vertex -15.4199 -47.4577 10
      vertex -20 -45.4185 10
    endloop
  endfacet
  facet normal -0.406738 -0.913545 -0
    outer loop
      vertex -15.4199 -47.4577 10
      vertex -20 -45.4185 5
      vertex -15.4199 -47.4577 5
    endloop
  endfacet
  facet normal 0 0 1
    outer loop
      vertex 5.21597 49.6266 10
      vertex 13.3087 47.4314 10
      vertex 13.8145 47.799 10
    endloop
  endfacet
  facet normal 0 0 1
    outer loop
      vertex 5.21597 49.6266 10
      vertex 11.9098 45.8779 10
      vertex 13.3087 47.4314 10
    endloop
  endfacet
  facet normal 0 0 1
    outer loop
      vertex 5.21597 49.6266 10
      vertex 10.8645 44.0674 10
      vertex 11.9098 45.8779 10
    endloop
  endfacet
  facet normal 0 0 1
    outer loop
      vertex 5.21597 49.6266 10
      vertex 10.2185 42.0791 10
      vertex 10.8645 44.0674 10
    endloop
  endfacet
  facet normal 0 0 1
    outer loop
      vertex 5.21597 49.6266 10
      vertex 10.021 40.2 10
      vertex 10.2185 42.0791 10
    endloop
  endfacet
  facet normal -0 0 1
    outer loop
      vertex -5.21597 49.6266 10
      vertex 10.021 40.2 10
      vertex 5.21597 49.6266 10
    endloop
  endfacet
  facet normal 0 0 1
    outer loop
      vertex -20 40.2 10
      vertex -5.21597 49.6266 10
      vertex -15.4199 47.4577 10
    endloop
  endfacet
  facet normal 0 0 1
    outer loop
      vertex -20 40.2 10
      vertex -15.4199 47.4577 10
      vertex -20 45.4185 10
    endloop
  endfacet
  facet normal 0 0 1
    outer loop
      vertex -5.21597 49.6266 10
      vertex -20 40.2 10
      vertex 10.021 40.2 10
    endloop
  endfacet
  facet normal 0 0 1
    outer loop
      vertex 13.3087 -47.4314 10
      vertex 5.21597 -49.6266 10
      vertex 13.8145 -47.799 10
    endloop
  endfacet
  facet normal 0 0 1
    outer loop
      vertex 11.9098 -45.8779 10
      vertex 5.21597 -49.6266 10
      vertex 13.3087 -47.4314 10
    endloop
  endfacet
  facet normal 0 0 1
    outer loop
      vertex 10.8645 -44.0674 10
      vertex 5.21597 -49.6266 10
      vertex 11.9098 -45.8779 10
    endloop
  endfacet
  facet normal 0 0 1
    outer loop
      vertex 10.2185 -42.0791 10
      vertex 5.21597 -49.6266 10
      vertex 10.8645 -44.0674 10
    endloop
  endfacet
  facet normal 0 0 1
    outer loop
      vertex 10.021 -40.2 10
      vertex 5.21597 -49.6266 10
      vertex 10.2185 -42.0791 10
    endloop
  endfacet
  facet normal 0 0 1
    outer loop
      vertex 10.021 -40.2 10
      vertex -5.21597 -49.6266 10
      vertex 5.21597 -49.6266 10
    endloop
  endfacet
  facet normal -0 0 1
    outer loop
      vertex -20 -40.2 10
      vertex -5.21597 -49.6266 10
      vertex 10.021 -40.2 10
    endloop
  endfacet
  facet normal 0 0 1
    outer loop
      vertex -5.21597 -49.6266 10
      vertex -20 -40.2 10
      vertex -15.4199 -47.4577 10
    endloop
  endfacet
  facet normal 0 0 1
    outer loop
      vertex -15.4199 -47.4577 10
      vertex -20 -40.2 10
      vertex -20 -45.4185 10
    endloop
  endfacet
  facet normal -0.207911 -0.978148 0
    outer loop
      vertex -15.4199 -47.4577 5
      vertex -5.21597 -49.6266 10
      vertex -15.4199 -47.4577 10
    endloop
  endfacet
  facet normal -0.207911 -0.978148 -0
    outer loop
      vertex -5.21597 -49.6266 10
      vertex -15.4199 -47.4577 5
      vertex -5.21597 -49.6266 5
    endloop
  endfacet
  facet normal -0.207911 0.978148 0
    outer loop
      vertex -5.21597 49.6266 5
      vertex -15.4199 47.4577 10
      vertex -5.21597 49.6266 10
    endloop
  endfacet
  facet normal -0.207911 0.978148 0
    outer loop
      vertex -15.4199 47.4577 10
      vertex -5.21597 49.6266 5
      vertex -15.4199 47.4577 5
    endloop
  endfacet
  facet normal -0.406738 0.913545 0
    outer loop
      vertex -15.4199 47.4577 5
      vertex -20 45.4185 10
      vertex -15.4199 47.4577 10
    endloop
  endfacet
  facet normal -0.406738 0.913545 0
    outer loop
      vertex -20 45.4185 10
      vertex -15.4199 47.4577 5
      vertex -20 45.4185 5
    endloop
  endfacet
  facet normal 0.207904 -0.978149 0
    outer loop
      vertex 5.21597 -49.6266 5
      vertex 13.8145 -47.799 10
      vertex 5.21597 -49.6266 10
    endloop
  endfacet
  facet normal 0.207904 -0.978149 0
    outer loop
      vertex 13.8145 -47.799 10
      vertex 5.21597 -49.6266 5
      vertex 13.8145 -47.799 5
    endloop
  endfacet
  facet normal 0 -1 0
    outer loop
      vertex -5.21597 -49.6266 5
      vertex 5.21597 -49.6266 10
      vertex -5.21597 -49.6266 10
    endloop
  endfacet
  facet normal 0 -1 -0
    outer loop
      vertex 5.21597 -49.6266 10
      vertex -5.21597 -49.6266 5
      vertex 5.21597 -49.6266 5
    endloop
  endfacet
  facet normal 0 1 -0
    outer loop
      vertex 5.21597 49.6266 5
      vertex -5.21597 49.6266 10
      vertex 5.21597 49.6266 10
    endloop
  endfacet
  facet normal 0 1 0
    outer loop
      vertex -5.21597 49.6266 10
      vertex 5.21597 49.6266 5
      vertex -5.21597 49.6266 5
    endloop
  endfacet
  facet normal 0.207904 0.978149 -0
    outer loop
      vertex 13.8145 47.799 5
      vertex 5.21597 49.6266 10
      vertex 13.8145 47.799 10
    endloop
  endfacet
  facet normal 0.207904 0.978149 0
    outer loop
      vertex 5.21597 49.6266 10
      vertex 13.8145 47.799 5
      vertex 5.21597 49.6266 5
    endloop
  endfacet
  facet normal 1 0 0
    outer loop
      vertex 20 49.9452 0.841904
      vertex 20 49.9452 0
      vertex 20 50.8617 0
    endloop
  endfacet
  facet normal 1 0 0
    outer loop
      vertex 20 -49.9452 0.841904
      vertex 20 -50.8617 0
      vertex 20 -49.9452 0
    endloop
  endfacet
  facet normal -1 0 0
    outer loop
      vertex -20 45 5
      vertex -20 48.7929 1.90043
      vertex -20 50.8617 0
    endloop
  endfacet
  facet normal -1 0 0
    outer loop
      vertex -20 45 5.2
      vertex -20 45.4185 5
      vertex -20 45 5
    endloop
  endfacet
  facet normal -1 0 0
    outer loop
      vertex -20 48.7929 1.90043
      vertex -20 45 5
      vertex -20 45.4185 5
    endloop
  endfacet
  facet normal -1 0 0
    outer loop
      vertex -20 50.8617 0
      vertex -20 -45 5
      vertex -20 45 5
    endloop
  endfacet
  facet normal -1 0 0
    outer loop
      vertex -20 -45 5
      vertex -20 -45.4185 5
      vertex -20 -45 5.2
    endloop
  endfacet
  facet normal -1 0 0
    outer loop
      vertex -20 -48.7929 1.90043
      vertex -20 -45 5
      vertex -20 50.8617 0
    endloop
  endfacet
  facet normal -1 -0 0
    outer loop
      vertex -20 -45 5
      vertex -20 -48.7929 1.90043
      vertex -20 -45.4185 5
    endloop
  endfacet
  facet normal -1 0 -0
    outer loop
      vertex -20 -48.7929 1.90043
      vertex -20 50.8617 0
      vertex -20 -50.8617 0
    endloop
  endfacet
  facet normal -1 0 0
    outer loop
      vertex -20 45.4185 5
      vertex -20 45 5.2
      vertex -20 45.4185 10
    endloop
  endfacet
  facet normal -1 -0 0
    outer loop
      vertex -20 45.4185 10
      vertex -20 45 5.2
      vertex -20 40.2 10
    endloop
  endfacet
  facet normal -1 0 0
    outer loop
      vertex -20 -45.4185 10
      vertex -20 -45 5.2
      vertex -20 -45.4185 5
    endloop
  endfacet
  facet normal -1 0 0
    outer loop
      vertex -20 -45 5.2
      vertex -20 -45.4185 10
      vertex -20 -40.2 10
    endloop
  endfacet
  facet normal 0 0 1
    outer loop
      vertex -14.2 -6.11436 5
      vertex -4.1 -2.36714 5
      vertex -14.2 6.11436 5
    endloop
  endfacet
  facet normal 0 0 1
    outer loop
      vertex -4.1 -2.36714 5
      vertex -14.2 -6.11436 5
      vertex -13.4 -7.5 5
    endloop
  endfacet
  facet normal -0 0 1
    outer loop
      vertex -15.8 6.11436 5
      vertex -14.2 -6.11436 5
      vertex -14.2 6.11436 5
    endloop
  endfacet
  facet normal 0 0 1
    outer loop
      vertex -15.8 6.11436 5
      vertex -15.8 -6.11436 5
      vertex -14.2 -6.11436 5
    endloop
  endfacet
  facet normal 0 0 1
    outer loop
      vertex -16.6 7.5 5
      vertex -15.8 -6.11436 5
      vertex -15.8 6.11436 5
    endloop
  endfacet
  facet normal 0 0 1
    outer loop
      vertex -15.8 -6.11436 5
      vertex -16.6 7.5 5
      vertex -16.6 -7.5 5
    endloop
  endfacet
  facet normal 0 0 1
    outer loop
      vertex 0 4.73427 5
      vertex -13.4 7.5 5
      vertex -4.1 2.36714 5
    endloop
  endfacet
  facet normal 0 0 1
    outer loop
      vertex -4.1 -2.36714 5
      vertex -6.36963 -23.0946 5
      vertex -5.9 -25 5
    endloop
  endfacet
  facet normal -0 0 1
    outer loop
      vertex -14.2 6.11436 5
      vertex -4.1 2.36714 5
      vertex -13.4 7.5 5
    endloop
  endfacet
  facet normal 0 0 1
    outer loop
      vertex -4.1 2.36714 5
      vertex -14.2 6.11436 5
      vertex -4.1 -2.36714 5
    endloop
  endfacet
  facet normal 0 0 1
    outer loop
      vertex -13.4 7.5 5
      vertex -7.67093 21.6258 5
      vertex -9.5058 20.9299 5
    endloop
  endfacet
  facet normal 0 -0 1
    outer loop
      vertex -7.67093 -21.6258 5
      vertex -4.1 -2.36714 5
      vertex -13.4 -7.5 5
    endloop
  endfacet
  facet normal 0 0 1
    outer loop
      vertex -14.2 8.88564 5
      vertex -9.5058 20.9299 5
      vertex -11.4539 21.1664 5
    endloop
  endfacet
  facet normal 0 0 1
    outer loop
      vertex -4.1 -2.36714 5
      vertex -7.67093 -21.6258 5
      vertex -6.36963 -23.0946 5
    endloop
  endfacet
  facet normal 0 0 1
    outer loop
      vertex -15.8 8.88564 5
      vertex -11.4539 21.1664 5
      vertex -13.0689 22.2812 5
    endloop
  endfacet
  facet normal 0 0 1
    outer loop
      vertex -7.67093 -21.6258 5
      vertex -13.4 -7.5 5
      vertex -9.5058 -20.9299 5
    endloop
  endfacet
  facet normal -0 0 1
    outer loop
      vertex -14.2 -8.88564 5
      vertex -9.5058 -20.9299 5
      vertex -13.4 -7.5 5
    endloop
  endfacet
  facet normal 0 0 1
    outer loop
      vertex -15.8 8.88564 5
      vertex -13.0689 22.2812 5
      vertex -13.9809 24.0188 5
    endloop
  endfacet
  facet normal 0 0 1
    outer loop
      vertex -9.5058 20.9299 5
      vertex -14.2 8.88564 5
      vertex -13.4 7.5 5
    endloop
  endfacet
  facet normal 0 0 1
    outer loop
      vertex -9.5058 -20.9299 5
      vertex -14.2 -8.88564 5
      vertex -11.4539 -21.1664 5
    endloop
  endfacet
  facet normal -0 0 1
    outer loop
      vertex -15.8 -8.88564 5
      vertex -11.4539 -21.1664 5
      vertex -14.2 -8.88564 5
    endloop
  endfacet
  facet normal 0 0 1
    outer loop
      vertex -13.0689 -22.2812 5
      vertex -15.8 -8.88564 5
      vertex -13.9809 -24.0188 5
    endloop
  endfacet
  facet normal 0 0 1
    outer loop
      vertex -11.4539 -21.1664 5
      vertex -15.8 -8.88564 5
      vertex -13.0689 -22.2812 5
    endloop
  endfacet
  facet normal -0 0 1
    outer loop
      vertex 5.8 6.11436 5
      vertex 6.6 -7.5 5
      vertex 6.6 7.5 5
    endloop
  endfacet
  facet normal 0 0 1
    outer loop
      vertex 5.8 6.11436 5
      vertex 5.8 -6.11436 5
      vertex 6.6 -7.5 5
    endloop
  endfacet
  facet normal 0 0 1
    outer loop
      vertex 4.1 2.36714 5
      vertex 5.8 6.11436 5
      vertex 4.2 6.11436 5
    endloop
  endfacet
  facet normal 0 0 1
    outer loop
      vertex 5.8 6.11436 5
      vertex 4.1 2.36714 5
      vertex 5.8 -6.11436 5
    endloop
  endfacet
  facet normal -0 0 1
    outer loop
      vertex 4.1 -2.36714 5
      vertex 5.8 -6.11436 5
      vertex 4.1 2.36714 5
    endloop
  endfacet
  facet normal 0 0 1
    outer loop
      vertex 0 4.73427 5
      vertex 4.2 6.11436 5
      vertex 3.4 7.5 5
    endloop
  endfacet
  facet normal 0 0 1
    outer loop
      vertex 4.2 6.11436 5
      vertex 0 4.73427 5
      vertex 4.1 2.36714 5
    endloop
  endfacet
  facet normal 0 0 1
    outer loop
      vertex 10 40 5
      vertex 6.6 7.5 5
      vertex 10 -40 5
    endloop
  endfacet
  facet normal 0 0 1
    outer loop
      vertex 10 40 5
      vertex 5.8 8.88564 5
      vertex 6.6 7.5 5
    endloop
  endfacet
  facet normal 0 0 1
    outer loop
      vertex -9.5058 29.0701 5
      vertex 10 40 5
      vertex 10.2185 42.0791 5
    endloop
  endfacet
  facet normal 0 0 1
    outer loop
      vertex 10 40 5
      vertex -5.9 25 5
      vertex 5.8 8.88564 5
    endloop
  endfacet
  facet normal -0 0 1
    outer loop
      vertex -6.36963 23.0946 5
      vertex 5.8 8.88564 5
      vertex -5.9 25 5
    endloop
  endfacet
  facet normal 0 0 1
    outer loop
      vertex 5.8 8.88564 5
      vertex -6.36963 23.0946 5
      vertex 4.2 8.88564 5
    endloop
  endfacet
  facet normal 0 0 1
    outer loop
      vertex 4.2 8.88564 5
      vertex 0 4.73427 5
      vertex 3.4 7.5 5
    endloop
  endfacet
  facet normal 0 0 1
    outer loop
      vertex -20 45 5
      vertex 10.2185 42.0791 5
      vertex 10.8645 44.0674 5
    endloop
  endfacet
  facet normal 0 0 1
    outer loop
      vertex 4.2 8.88564 5
      vertex -7.67093 21.6258 5
      vertex 0 4.73427 5
    endloop
  endfacet
  facet normal -0 0 1
    outer loop
      vertex -7.67093 21.6258 5
      vertex 4.2 8.88564 5
      vertex -6.36963 23.0946 5
    endloop
  endfacet
  facet normal -0 0 1
    outer loop
      vertex -20 45 5
      vertex 10.8645 44.0674 5
      vertex 11.403 45 5
    endloop
  endfacet
  facet normal 0 0 1
    outer loop
      vertex 10 40 5
      vertex -6.36963 26.9054 5
      vertex -5.9 25 5
    endloop
  endfacet
  facet normal 0 0 1
    outer loop
      vertex 10 40 5
      vertex -7.67093 28.3742 5
      vertex -6.36963 26.9054 5
    endloop
  endfacet
  facet normal 0 0 1
    outer loop
      vertex 10 40 5
      vertex -9.5058 29.0701 5
      vertex -7.67093 28.3742 5
    endloop
  endfacet
  facet normal 0 0 1
    outer loop
      vertex 10.2185 42.0791 5
      vertex -20 45 5
      vertex -9.5058 29.0701 5
    endloop
  endfacet
  facet normal 0 0 1
    outer loop
      vertex -9.5058 29.0701 5
      vertex -20 45 5
      vertex -11.4539 28.8336 5
    endloop
  endfacet
  facet normal 0 0 1
    outer loop
      vertex -20 45 5
      vertex -13.9809 24.0188 5
      vertex -13.9809 25.9812 5
    endloop
  endfacet
  facet normal 0 0 1
    outer loop
      vertex -11.4539 21.1664 5
      vertex -15.8 8.88564 5
      vertex -14.2 8.88564 5
    endloop
  endfacet
  facet normal 0 0 1
    outer loop
      vertex -13.9809 24.0188 5
      vertex -16.6 7.5 5
      vertex -15.8 8.88564 5
    endloop
  endfacet
  facet normal 0 0 1
    outer loop
      vertex -16.6 7.5 5
      vertex -20 45 5
      vertex -16.6 -7.5 5
    endloop
  endfacet
  facet normal 0 0 1
    outer loop
      vertex -13.9809 24.0188 5
      vertex -20 45 5
      vertex -16.6 7.5 5
    endloop
  endfacet
  facet normal 0 0 1
    outer loop
      vertex -13.0689 27.7188 5
      vertex -20 45 5
      vertex -13.9809 25.9812 5
    endloop
  endfacet
  facet normal 0 0 1
    outer loop
      vertex -11.4539 28.8336 5
      vertex -20 45 5
      vertex -13.0689 27.7188 5
    endloop
  endfacet
  facet normal -0 0 1
    outer loop
      vertex 6.6 -7.5 5
      vertex 10 -40 5
      vertex 6.6 7.5 5
    endloop
  endfacet
  facet normal -0 0 1
    outer loop
      vertex 5.8 -8.88564 5
      vertex 10 -40 5
      vertex 6.6 -7.5 5
    endloop
  endfacet
  facet normal -0 0 1
    outer loop
      vertex -5.9 -25 5
      vertex 10 -40 5
      vertex 5.8 -8.88564 5
    endloop
  endfacet
  facet normal 0 0 1
    outer loop
      vertex -5.9 -25 5
      vertex 5.8 -8.88564 5
      vertex 4.2 -8.88564 5
    endloop
  endfacet
  facet normal 0 0 1
    outer loop
      vertex 0 -4.73427 5
      vertex 4.2 -8.88564 5
      vertex 3.4 -7.5 5
    endloop
  endfacet
  facet normal 0 0 1
    outer loop
      vertex 4.2 -8.88564 5
      vertex 0 -4.73427 5
      vertex -5.9 -25 5
    endloop
  endfacet
  facet normal 0 0 1
    outer loop
      vertex -5.9 -25 5
      vertex 0 -4.73427 5
      vertex -4.1 -2.36714 5
    endloop
  endfacet
  facet normal -0 0 1
    outer loop
      vertex -6.36963 -26.9054 5
      vertex 10 -40 5
      vertex -5.9 -25 5
    endloop
  endfacet
  facet normal -0 0 1
    outer loop
      vertex -13.4 7.5 5
      vertex 0 4.73427 5
      vertex -7.67093 21.6258 5
    endloop
  endfacet
  facet normal -0 0 1
    outer loop
      vertex -7.67093 -28.3742 5
      vertex 10 -40 5
      vertex -6.36963 -26.9054 5
    endloop
  endfacet
  facet normal -0 0 1
    outer loop
      vertex -9.5058 -29.0701 5
      vertex 10 -40 5
      vertex -7.67093 -28.3742 5
    endloop
  endfacet
  facet normal 0 0 1
    outer loop
      vertex 10 -40 5
      vertex -9.5058 -29.0701 5
      vertex 10.2185 -42.0791 5
    endloop
  endfacet
  facet normal 0 0 1
    outer loop
      vertex -20 -45 5
      vertex 10.2185 -42.0791 5
      vertex -9.5058 -29.0701 5
    endloop
  endfacet
  facet normal 0 0 1
    outer loop
      vertex 10.2185 -42.0791 5
      vertex -20 -45 5
      vertex 10.8645 -44.0674 5
    endloop
  endfacet
  facet normal 0 0 1
    outer loop
      vertex -20 -45 5
      vertex -9.5058 -29.0701 5
      vertex -11.4539 -28.8336 5
    endloop
  endfacet
  facet normal 0 0 1
    outer loop
      vertex -20 -45 5
      vertex -11.4539 -28.8336 5
      vertex -13.0689 -27.7188 5
    endloop
  endfacet
  facet normal 0 0 1
    outer loop
      vertex -16.6 -7.5 5
      vertex -13.9809 -24.0188 5
      vertex -15.8 -8.88564 5
    endloop
  endfacet
  facet normal 0 0 1
    outer loop
      vertex -20 -45 5
      vertex -13.9809 -24.0188 5
      vertex -16.6 -7.5 5
    endloop
  endfacet
  facet normal 0 0 1
    outer loop
      vertex 10.8645 -44.0674 5
      vertex -20 -45 5
      vertex 11.403 -45 5
    endloop
  endfacet
  facet normal 0 0 1
    outer loop
      vertex -13.9809 -25.9812 5
      vertex -20 -45 5
      vertex -13.0689 -27.7188 5
    endloop
  endfacet
  facet normal 0 0 1
    outer loop
      vertex -13.9809 -24.0188 5
      vertex -20 -45 5
      vertex -13.9809 -25.9812 5
    endloop
  endfacet
  facet normal 0 0 1
    outer loop
      vertex -20 -45 5
      vertex -16.6 -7.5 5
      vertex -20 45 5
    endloop
  endfacet
  facet normal 0 0 1
    outer loop
      vertex 5.8 -6.11436 5
      vertex 4.1 -2.36714 5
      vertex 4.2 -6.11436 5
    endloop
  endfacet
  facet normal -0 0 1
    outer loop
      vertex 0 -4.73427 5
      vertex 4.2 -6.11436 5
      vertex 4.1 -2.36714 5
    endloop
  endfacet
  facet normal 0 0 1
    outer loop
      vertex 4.2 -6.11436 5
      vertex 0 -4.73427 5
      vertex 3.4 -7.5 5
    endloop
  endfacet
  facet normal 0 -1 0
    outer loop
      vertex -20 45 5
      vertex 11.403 45 5.2
      vertex -20 45 5.2
    endloop
  endfacet
  facet normal 0 -1 -0
    outer loop
      vertex 11.403 45 5.2
      vertex -20 45 5
      vertex 11.403 45 5
    endloop
  endfacet
  facet normal 0 1 -0
    outer loop
      vertex 11.403 -45 5
      vertex -20 -45 5.2
      vertex 11.403 -45 5.2
    endloop
  endfacet
  facet normal 0 1 0
    outer loop
      vertex -20 -45 5.2
      vertex 11.403 -45 5
      vertex -20 -45 5
    endloop
  endfacet
  facet normal 0 -0.707111 -0.707103
    outer loop
      vertex -20 40.2 10
      vertex 10.2185 42.0791 8.12088
      vertex 10.021 40.2 10
    endloop
  endfacet
  facet normal -4.67996e-07 -0.707107 -0.707107
    outer loop
      vertex -20 45 5.2
      vertex 10.2185 42.0791 8.12088
      vertex -20 40.2 10
    endloop
  endfacet
  facet normal 1.2127e-06 -0.707098 -0.707115
    outer loop
      vertex 10.2185 42.0791 8.12088
      vertex -20 45 5.2
      vertex 10.8645 44.0674 6.13263
    endloop
  endfacet
  facet normal 0 -0.707118 -0.707095
    outer loop
      vertex 10.8645 44.0674 6.13263
      vertex -20 45 5.2
      vertex 11.403 45 5.2
    endloop
  endfacet
  facet normal 0 0.707111 -0.707103
    outer loop
      vertex 10.2185 -42.0791 8.12088
      vertex -20 -40.2 10
      vertex 10.021 -40.2 10
    endloop
  endfacet
  facet normal 1.2127e-06 0.707098 -0.707115
    outer loop
      vertex -20 -45 5.2
      vertex 10.2185 -42.0791 8.12088
      vertex 10.8645 -44.0674 6.13263
    endloop
  endfacet
  facet normal 0 0.707118 -0.707095
    outer loop
      vertex -20 -45 5.2
      vertex 10.8645 -44.0674 6.13263
      vertex 11.403 -45 5.2
    endloop
  endfacet
  facet normal -4.67996e-07 0.707107 -0.707107
    outer loop
      vertex 10.2185 -42.0791 8.12088
      vertex -20 -45 5.2
      vertex -20 -40.2 10
    endloop
  endfacet
  facet normal -1 0 0
    outer loop
      vertex 4.1 -2.36714 4
      vertex 4.1 2.36714 5
      vertex 4.1 2.36714 4
    endloop
  endfacet
  facet normal -1 -0 0
    outer loop
      vertex 4.1 2.36714 5
      vertex 4.1 -2.36714 4
      vertex 4.1 -2.36714 5
    endloop
  endfacet
  facet normal 0 0 1
    outer loop
      vertex 4.1 2.36714 4
      vertex 2.7 0 4
      vertex 4.1 -2.36714 4
    endloop
  endfacet
  facet normal 0 0 1
    outer loop
      vertex 4.1 2.36714 4
      vertex 2.06832 1.73553 4
      vertex 2.7 0 4
    endloop
  endfacet
  facet normal 0 0 1
    outer loop
      vertex 4.1 2.36714 4
      vertex 0.468849 2.65898 4
      vertex 2.06832 1.73553 4
    endloop
  endfacet
  facet normal 0 0 1
    outer loop
      vertex 0 4.73427 4
      vertex 0.468849 2.65898 4
      vertex 4.1 2.36714 4
    endloop
  endfacet
  facet normal 0 0 1
    outer loop
      vertex 0 4.73427 4
      vertex -1.35 2.33827 4
      vertex 0.468849 2.65898 4
    endloop
  endfacet
  facet normal -0 0 1
    outer loop
      vertex -4.1 2.36714 4
      vertex -1.35 2.33827 4
      vertex 0 4.73427 4
    endloop
  endfacet
  facet normal 0 0 1
    outer loop
      vertex -2.53717 0.923454 4
      vertex -4.1 2.36714 4
      vertex -2.53717 -0.923454 4
    endloop
  endfacet
  facet normal 0 0 1
    outer loop
      vertex -1.35 2.33827 4
      vertex -4.1 2.36714 4
      vertex -2.53717 0.923454 4
    endloop
  endfacet
  facet normal -0 0 1
    outer loop
      vertex 2.06832 -1.73553 4
      vertex 4.1 -2.36714 4
      vertex 2.7 0 4
    endloop
  endfacet
  facet normal 0 0 1
    outer loop
      vertex 0.468849 -2.65898 4
      vertex 4.1 -2.36714 4
      vertex 2.06832 -1.73553 4
    endloop
  endfacet
  facet normal -0 0 1
    outer loop
      vertex 0.468849 -2.65898 4
      vertex 0 -4.73427 4
      vertex 4.1 -2.36714 4
    endloop
  endfacet
  facet normal 0 0 1
    outer loop
      vertex -1.35 -2.33827 4
      vertex 0 -4.73427 4
      vertex 0.468849 -2.65898 4
    endloop
  endfacet
  facet normal 0 0 1
    outer loop
      vertex -4.1 -2.36714 4
      vertex -1.35 -2.33827 4
      vertex -2.53717 -0.923454 4
    endloop
  endfacet
  facet normal 0 0 1
    outer loop
      vertex -1.35 -2.33827 4
      vertex -4.1 -2.36714 4
      vertex 0 -4.73427 4
    endloop
  endfacet
  facet normal 0 0 1
    outer loop
      vertex -4.1 -2.36714 4
      vertex -2.53717 -0.923454 4
      vertex -4.1 2.36714 4
    endloop
  endfacet
  facet normal 1 -0 0
    outer loop
      vertex -4.1 -2.36714 5
      vertex -4.1 2.36714 4
      vertex -4.1 2.36714 5
    endloop
  endfacet
  facet normal 1 0 0
    outer loop
      vertex -4.1 2.36714 4
      vertex -4.1 -2.36714 5
      vertex -4.1 -2.36714 4
    endloop
  endfacet
  facet normal 0.499999 -0.866026 0
    outer loop
      vertex -4.1 2.36714 4
      vertex 0 4.73427 5
      vertex -4.1 2.36714 5
    endloop
  endfacet
  facet normal 0.499999 -0.866026 0
    outer loop
      vertex 0 4.73427 5
      vertex -4.1 2.36714 4
      vertex 0 4.73427 4
    endloop
  endfacet
  facet normal -0.499999 0.866026 0
    outer loop
      vertex 4.1 -2.36714 4
      vertex 0 -4.73427 5
      vertex 4.1 -2.36714 5
    endloop
  endfacet
  facet normal -0.499999 0.866026 0
    outer loop
      vertex 0 -4.73427 5
      vertex 4.1 -2.36714 4
      vertex 0 -4.73427 4
    endloop
  endfacet
  facet normal 0.499999 0.866026 -0
    outer loop
      vertex 0 -4.73427 4
      vertex -4.1 -2.36714 5
      vertex 0 -4.73427 5
    endloop
  endfacet
  facet normal 0.499999 0.866026 0
    outer loop
      vertex -4.1 -2.36714 5
      vertex 0 -4.73427 4
      vertex -4.1 -2.36714 4
    endloop
  endfacet
  facet normal -0.499999 -0.866026 0
    outer loop
      vertex 0 4.73427 4
      vertex 4.1 2.36714 5
      vertex 0 4.73427 5
    endloop
  endfacet
  facet normal -0.499999 -0.866026 -0
    outer loop
      vertex 4.1 2.36714 5
      vertex 0 4.73427 4
      vertex 4.1 2.36714 4
    endloop
  endfacet
  facet normal -0.499998 -0.866027 0
    outer loop
      vertex 0.468849 2.65898 0
      vertex 2.06832 1.73553 4
      vertex 0.468849 2.65898 4
    endloop
  endfacet
  facet normal -0.499998 -0.866027 -0
    outer loop
      vertex 2.06832 1.73553 4
      vertex 0.468849 2.65898 0
      vertex 2.06832 1.73553 0
    endloop
  endfacet
  facet normal -0.939693 -0.34202 0
    outer loop
      vertex 2.7 0 0
      vertex 2.06832 1.73553 4
      vertex 2.06832 1.73553 0
    endloop
  endfacet
  facet normal -0.939693 -0.34202 0
    outer loop
      vertex 2.06832 1.73553 4
      vertex 2.7 0 0
      vertex 2.7 0 4
    endloop
  endfacet
  facet normal 0.173647 -0.984808 0
    outer loop
      vertex -1.35 2.33827 0
      vertex 0.468849 2.65898 4
      vertex -1.35 2.33827 4
    endloop
  endfacet
  facet normal 0.173647 -0.984808 0
    outer loop
      vertex 0.468849 2.65898 4
      vertex -1.35 2.33827 0
      vertex 0.468849 2.65898 0
    endloop
  endfacet
  facet normal -0.939693 0.34202 0
    outer loop
      vertex 2.06832 -1.73553 0
      vertex 2.7 0 4
      vertex 2.7 0 0
    endloop
  endfacet
  facet normal -0.939693 0.34202 0
    outer loop
      vertex 2.7 0 4
      vertex 2.06832 -1.73553 0
      vertex 2.06832 -1.73553 4
    endloop
  endfacet
  facet normal 0.766045 -0.642787 0
    outer loop
      vertex -2.53717 0.923454 4
      vertex -1.35 2.33827 0
      vertex -1.35 2.33827 4
    endloop
  endfacet
  facet normal 0.766045 -0.642787 0
    outer loop
      vertex -1.35 2.33827 0
      vertex -2.53717 0.923454 4
      vertex -2.53717 0.923454 0
    endloop
  endfacet
  facet normal -0.499998 0.866027 0
    outer loop
      vertex 2.06832 -1.73553 0
      vertex 0.468849 -2.65898 4
      vertex 2.06832 -1.73553 4
    endloop
  endfacet
  facet normal -0.499998 0.866027 0
    outer loop
      vertex 0.468849 -2.65898 4
      vertex 2.06832 -1.73553 0
      vertex 0.468849 -2.65898 0
    endloop
  endfacet
  facet normal 0.173647 0.984808 -0
    outer loop
      vertex 0.468849 -2.65898 0
      vertex -1.35 -2.33827 4
      vertex 0.468849 -2.65898 4
    endloop
  endfacet
  facet normal 0.173647 0.984808 0
    outer loop
      vertex -1.35 -2.33827 4
      vertex 0.468849 -2.65898 0
      vertex -1.35 -2.33827 0
    endloop
  endfacet
  facet normal 0.766045 0.642787 0
    outer loop
      vertex -1.35 -2.33827 4
      vertex -2.53717 -0.923454 0
      vertex -2.53717 -0.923454 4
    endloop
  endfacet
  facet normal 0.766045 0.642787 0
    outer loop
      vertex -2.53717 -0.923454 0
      vertex -1.35 -2.33827 4
      vertex -1.35 -2.33827 0
    endloop
  endfacet
  facet normal 1 -0 0
    outer loop
      vertex -2.53717 -0.923454 4
      vertex -2.53717 0.923454 0
      vertex -2.53717 0.923454 4
    endloop
  endfacet
  facet normal 1 0 0
    outer loop
      vertex -2.53717 0.923454 0
      vertex -2.53717 -0.923454 4
      vertex -2.53717 -0.923454 0
    endloop
  endfacet
  facet normal 0.568081 -0.822973 0
    outer loop
      vertex -13.0689 -22.2812 4
      vertex -11.4539 -21.1664 5
      vertex -13.0689 -22.2812 5
    endloop
  endfacet
  facet normal 0.568081 -0.822973 0
    outer loop
      vertex -11.4539 -21.1664 5
      vertex -13.0689 -22.2812 4
      vertex -11.4539 -21.1664 4
    endloop
  endfacet
  facet normal -0.748496 -0.663139 0
    outer loop
      vertex -6.36963 -23.0946 4
      vertex -7.67093 -21.6258 5
      vertex -7.67093 -21.6258 4
    endloop
  endfacet
  facet normal -0.748496 -0.663139 0
    outer loop
      vertex -7.67093 -21.6258 5
      vertex -6.36963 -23.0946 4
      vertex -6.36963 -23.0946 5
    endloop
  endfacet
  facet normal -0.970943 -0.239311 0
    outer loop
      vertex -5.9 -25 4
      vertex -6.36963 -23.0946 5
      vertex -6.36963 -23.0946 4
    endloop
  endfacet
  facet normal -0.970943 -0.239311 0
    outer loop
      vertex -6.36963 -23.0946 5
      vertex -5.9 -25 4
      vertex -5.9 -25 5
    endloop
  endfacet
  facet normal -0.748496 0.663139 0
    outer loop
      vertex -7.67093 -28.3742 4
      vertex -6.36963 -26.9054 5
      vertex -6.36963 -26.9054 4
    endloop
  endfacet
  facet normal -0.748496 0.663139 0
    outer loop
      vertex -6.36963 -26.9054 5
      vertex -7.67093 -28.3742 4
      vertex -7.67093 -28.3742 5
    endloop
  endfacet
  facet normal 0.885448 0.464738 0
    outer loop
      vertex -13.0689 -27.7188 5
      vertex -13.9809 -25.9812 4
      vertex -13.9809 -25.9812 5
    endloop
  endfacet
  facet normal 0.885448 0.464738 0
    outer loop
      vertex -13.9809 -25.9812 4
      vertex -13.0689 -27.7188 5
      vertex -13.0689 -27.7188 4
    endloop
  endfacet
  facet normal 1 -0 0
    outer loop
      vertex -13.9809 -25.9812 5
      vertex -13.9809 -24.0188 4
      vertex -13.9809 -24.0188 5
    endloop
  endfacet
  facet normal 1 0 0
    outer loop
      vertex -13.9809 -24.0188 4
      vertex -13.9809 -25.9812 5
      vertex -13.9809 -25.9812 4
    endloop
  endfacet
  facet normal -0.970943 0.239311 0
    outer loop
      vertex -6.36963 -26.9054 4
      vertex -5.9 -25 5
      vertex -5.9 -25 4
    endloop
  endfacet
  facet normal -0.970943 0.239311 0
    outer loop
      vertex -5.9 -25 5
      vertex -6.36963 -26.9054 4
      vertex -6.36963 -26.9054 5
    endloop
  endfacet
  facet normal 0 0 1
    outer loop
      vertex -8.4 -25 4
      vertex -5.9 -25 4
      vertex -6.36963 -23.0946 4
    endloop
  endfacet
  facet normal 0 0 1
    outer loop
      vertex -9.2 -23.6144 4
      vertex -6.36963 -23.0946 4
      vertex -7.67093 -21.6258 4
    endloop
  endfacet
  facet normal 0 0 1
    outer loop
      vertex -5.9 -25 4
      vertex -8.4 -25 4
      vertex -6.36963 -26.9054 4
    endloop
  endfacet
  facet normal -0 0 1
    outer loop
      vertex -9.2 -26.3856 4
      vertex -6.36963 -26.9054 4
      vertex -8.4 -25 4
    endloop
  endfacet
  facet normal 0 0 1
    outer loop
      vertex -6.36963 -23.0946 4
      vertex -9.2 -23.6144 4
      vertex -8.4 -25 4
    endloop
  endfacet
  facet normal 0 0 1
    outer loop
      vertex -9.5058 -20.9299 4
      vertex -9.2 -23.6144 4
      vertex -7.67093 -21.6258 4
    endloop
  endfacet
  facet normal 0 0 1
    outer loop
      vertex -9.5058 -20.9299 4
      vertex -10.8 -23.6144 4
      vertex -9.2 -23.6144 4
    endloop
  endfacet
  facet normal -0 0 1
    outer loop
      vertex -11.4539 -21.1664 4
      vertex -10.8 -23.6144 4
      vertex -9.5058 -20.9299 4
    endloop
  endfacet
  facet normal -0 0 1
    outer loop
      vertex -13.0689 -22.2812 4
      vertex -10.8 -23.6144 4
      vertex -11.4539 -21.1664 4
    endloop
  endfacet
  facet normal 0 0 1
    outer loop
      vertex -10.8 -23.6144 4
      vertex -13.0689 -22.2812 4
      vertex -11.6 -25 4
    endloop
  endfacet
  facet normal 0 0 1
    outer loop
      vertex -6.36963 -26.9054 4
      vertex -9.2 -26.3856 4
      vertex -7.67093 -28.3742 4
    endloop
  endfacet
  facet normal 0 0 1
    outer loop
      vertex -9.2 -26.3856 4
      vertex -9.5058 -29.0701 4
      vertex -7.67093 -28.3742 4
    endloop
  endfacet
  facet normal -0 0 1
    outer loop
      vertex -10.8 -26.3856 4
      vertex -9.5058 -29.0701 4
      vertex -9.2 -26.3856 4
    endloop
  endfacet
  facet normal 0 0 1
    outer loop
      vertex -10.8 -26.3856 4
      vertex -11.4539 -28.8336 4
      vertex -9.5058 -29.0701 4
    endloop
  endfacet
  facet normal 0 0 1
    outer loop
      vertex -13.0689 -27.7188 4
      vertex -10.8 -26.3856 4
      vertex -11.6 -25 4
    endloop
  endfacet
  facet normal -0 0 1
    outer loop
      vertex -13.9809 -24.0188 4
      vertex -11.6 -25 4
      vertex -13.0689 -22.2812 4
    endloop
  endfacet
  facet normal 0 0 1
    outer loop
      vertex -10.8 -26.3856 4
      vertex -13.0689 -27.7188 4
      vertex -11.4539 -28.8336 4
    endloop
  endfacet
  facet normal 0 0 1
    outer loop
      vertex -13.9809 -25.9812 4
      vertex -11.6 -25 4
      vertex -13.9809 -24.0188 4
    endloop
  endfacet
  facet normal 0 0 1
    outer loop
      vertex -11.6 -25 4
      vertex -13.9809 -25.9812 4
      vertex -13.0689 -27.7188 4
    endloop
  endfacet
  facet normal -0.354616 -0.935012 0
    outer loop
      vertex -9.5058 -20.9299 4
      vertex -7.67093 -21.6258 5
      vertex -9.5058 -20.9299 5
    endloop
  endfacet
  facet normal -0.354616 -0.935012 -0
    outer loop
      vertex -7.67093 -21.6258 5
      vertex -9.5058 -20.9299 4
      vertex -7.67093 -21.6258 4
    endloop
  endfacet
  facet normal -0.354616 0.935012 0
    outer loop
      vertex -7.67093 -28.3742 4
      vertex -9.5058 -29.0701 5
      vertex -7.67093 -28.3742 5
    endloop
  endfacet
  facet normal -0.354616 0.935012 0
    outer loop
      vertex -9.5058 -29.0701 5
      vertex -7.67093 -28.3742 4
      vertex -9.5058 -29.0701 4
    endloop
  endfacet
  facet normal 0.885448 -0.464738 0
    outer loop
      vertex -13.9809 -24.0188 5
      vertex -13.0689 -22.2812 4
      vertex -13.0689 -22.2812 5
    endloop
  endfacet
  facet normal 0.885448 -0.464738 0
    outer loop
      vertex -13.0689 -22.2812 4
      vertex -13.9809 -24.0188 5
      vertex -13.9809 -24.0188 4
    endloop
  endfacet
  facet normal 0.120516 -0.992711 0
    outer loop
      vertex -11.4539 -21.1664 4
      vertex -9.5058 -20.9299 5
      vertex -11.4539 -21.1664 5
    endloop
  endfacet
  facet normal 0.120516 -0.992711 0
    outer loop
      vertex -9.5058 -20.9299 5
      vertex -11.4539 -21.1664 4
      vertex -9.5058 -20.9299 4
    endloop
  endfacet
  facet normal 0.120516 0.992711 -0
    outer loop
      vertex -9.5058 -29.0701 4
      vertex -11.4539 -28.8336 5
      vertex -9.5058 -29.0701 5
    endloop
  endfacet
  facet normal 0.120516 0.992711 0
    outer loop
      vertex -11.4539 -28.8336 5
      vertex -9.5058 -29.0701 4
      vertex -11.4539 -28.8336 4
    endloop
  endfacet
  facet normal 0.568081 0.822973 -0
    outer loop
      vertex -11.4539 -28.8336 4
      vertex -13.0689 -27.7188 5
      vertex -11.4539 -28.8336 5
    endloop
  endfacet
  facet normal 0.568081 0.822973 0
    outer loop
      vertex -13.0689 -27.7188 5
      vertex -11.4539 -28.8336 4
      vertex -13.0689 -27.7188 4
    endloop
  endfacet
  facet normal -0.748496 -0.663139 0
    outer loop
      vertex -6.36963 26.9054 4
      vertex -7.67093 28.3742 5
      vertex -7.67093 28.3742 4
    endloop
  endfacet
  facet normal -0.748496 -0.663139 0
    outer loop
      vertex -7.67093 28.3742 5
      vertex -6.36963 26.9054 4
      vertex -6.36963 26.9054 5
    endloop
  endfacet
  facet normal -0.970943 -0.239311 0
    outer loop
      vertex -5.9 25 4
      vertex -6.36963 26.9054 5
      vertex -6.36963 26.9054 4
    endloop
  endfacet
  facet normal -0.970943 -0.239311 0
    outer loop
      vertex -6.36963 26.9054 5
      vertex -5.9 25 4
      vertex -5.9 25 5
    endloop
  endfacet
  facet normal 1 -0 0
    outer loop
      vertex -13.9809 24.0188 5
      vertex -13.9809 25.9812 4
      vertex -13.9809 25.9812 5
    endloop
  endfacet
  facet normal 1 0 0
    outer loop
      vertex -13.9809 25.9812 4
      vertex -13.9809 24.0188 5
      vertex -13.9809 24.0188 4
    endloop
  endfacet
  facet normal 0.885448 -0.464738 0
    outer loop
      vertex -13.9809 25.9812 5
      vertex -13.0689 27.7188 4
      vertex -13.0689 27.7188 5
    endloop
  endfacet
  facet normal 0.885448 -0.464738 0
    outer loop
      vertex -13.0689 27.7188 4
      vertex -13.9809 25.9812 5
      vertex -13.9809 25.9812 4
    endloop
  endfacet
  facet normal -0.970943 0.239311 0
    outer loop
      vertex -6.36963 23.0946 4
      vertex -5.9 25 5
      vertex -5.9 25 4
    endloop
  endfacet
  facet normal -0.970943 0.239311 0
    outer loop
      vertex -5.9 25 5
      vertex -6.36963 23.0946 4
      vertex -6.36963 23.0946 5
    endloop
  endfacet
  facet normal 0.568081 -0.822973 0
    outer loop
      vertex -13.0689 27.7188 4
      vertex -11.4539 28.8336 5
      vertex -13.0689 27.7188 5
    endloop
  endfacet
  facet normal 0.568081 -0.822973 0
    outer loop
      vertex -11.4539 28.8336 5
      vertex -13.0689 27.7188 4
      vertex -11.4539 28.8336 4
    endloop
  endfacet
  facet normal 0.120516 0.992711 -0
    outer loop
      vertex -9.5058 20.9299 4
      vertex -11.4539 21.1664 5
      vertex -9.5058 20.9299 5
    endloop
  endfacet
  facet normal 0.120516 0.992711 0
    outer loop
      vertex -11.4539 21.1664 5
      vertex -9.5058 20.9299 4
      vertex -11.4539 21.1664 4
    endloop
  endfacet
  facet normal -0.748496 0.663139 0
    outer loop
      vertex -7.67093 21.6258 4
      vertex -6.36963 23.0946 5
      vertex -6.36963 23.0946 4
    endloop
  endfacet
  facet normal -0.748496 0.663139 0
    outer loop
      vertex -6.36963 23.0946 5
      vertex -7.67093 21.6258 4
      vertex -7.67093 21.6258 5
    endloop
  endfacet
  facet normal -0.354616 0.935012 0
    outer loop
      vertex -7.67093 21.6258 4
      vertex -9.5058 20.9299 5
      vertex -7.67093 21.6258 5
    endloop
  endfacet
  facet normal -0.354616 0.935012 0
    outer loop
      vertex -9.5058 20.9299 5
      vertex -7.67093 21.6258 4
      vertex -9.5058 20.9299 4
    endloop
  endfacet
  facet normal 0.120516 -0.992711 0
    outer loop
      vertex -11.4539 28.8336 4
      vertex -9.5058 29.0701 5
      vertex -11.4539 28.8336 5
    endloop
  endfacet
  facet normal 0.120516 -0.992711 0
    outer loop
      vertex -9.5058 29.0701 5
      vertex -11.4539 28.8336 4
      vertex -9.5058 29.0701 4
    endloop
  endfacet
  facet normal -0.354616 -0.935012 0
    outer loop
      vertex -9.5058 29.0701 4
      vertex -7.67093 28.3742 5
      vertex -9.5058 29.0701 5
    endloop
  endfacet
  facet normal -0.354616 -0.935012 -0
    outer loop
      vertex -7.67093 28.3742 5
      vertex -9.5058 29.0701 4
      vertex -7.67093 28.3742 4
    endloop
  endfacet
  facet normal 0.568081 0.822973 -0
    outer loop
      vertex -11.4539 21.1664 4
      vertex -13.0689 22.2812 5
      vertex -11.4539 21.1664 5
    endloop
  endfacet
  facet normal 0.568081 0.822973 0
    outer loop
      vertex -13.0689 22.2812 5
      vertex -11.4539 21.1664 4
      vertex -13.0689 22.2812 4
    endloop
  endfacet
  facet normal 0.885448 0.464738 0
    outer loop
      vertex -13.0689 22.2812 5
      vertex -13.9809 24.0188 4
      vertex -13.9809 24.0188 5
    endloop
  endfacet
  facet normal 0.885448 0.464738 0
    outer loop
      vertex -13.9809 24.0188 4
      vertex -13.0689 22.2812 5
      vertex -13.0689 22.2812 4
    endloop
  endfacet
  facet normal 0 0 1
    outer loop
      vertex -8.4 25 4
      vertex -5.9 25 4
      vertex -6.36963 26.9054 4
    endloop
  endfacet
  facet normal 0 0 1
    outer loop
      vertex -9.2 26.3856 4
      vertex -6.36963 26.9054 4
      vertex -7.67093 28.3742 4
    endloop
  endfacet
  facet normal 0 0 1
    outer loop
      vertex -5.9 25 4
      vertex -8.4 25 4
      vertex -6.36963 23.0946 4
    endloop
  endfacet
  facet normal -0 0 1
    outer loop
      vertex -9.2 23.6144 4
      vertex -6.36963 23.0946 4
      vertex -8.4 25 4
    endloop
  endfacet
  facet normal 0 0 1
    outer loop
      vertex -6.36963 26.9054 4
      vertex -9.2 26.3856 4
      vertex -8.4 25 4
    endloop
  endfacet
  facet normal 0 0 1
    outer loop
      vertex -9.5058 29.0701 4
      vertex -9.2 26.3856 4
      vertex -7.67093 28.3742 4
    endloop
  endfacet
  facet normal 0 0 1
    outer loop
      vertex -9.5058 29.0701 4
      vertex -10.8 26.3856 4
      vertex -9.2 26.3856 4
    endloop
  endfacet
  facet normal -0 0 1
    outer loop
      vertex -11.4539 28.8336 4
      vertex -10.8 26.3856 4
      vertex -9.5058 29.0701 4
    endloop
  endfacet
  facet normal -0 0 1
    outer loop
      vertex -13.0689 27.7188 4
      vertex -10.8 26.3856 4
      vertex -11.4539 28.8336 4
    endloop
  endfacet
  facet normal 0 0 1
    outer loop
      vertex -10.8 26.3856 4
      vertex -13.0689 27.7188 4
      vertex -11.6 25 4
    endloop
  endfacet
  facet normal 0 0 1
    outer loop
      vertex -6.36963 23.0946 4
      vertex -9.2 23.6144 4
      vertex -7.67093 21.6258 4
    endloop
  endfacet
  facet normal 0 0 1
    outer loop
      vertex -9.2 23.6144 4
      vertex -9.5058 20.9299 4
      vertex -7.67093 21.6258 4
    endloop
  endfacet
  facet normal -0 0 1
    outer loop
      vertex -10.8 23.6144 4
      vertex -9.5058 20.9299 4
      vertex -9.2 23.6144 4
    endloop
  endfacet
  facet normal 0 0 1
    outer loop
      vertex -10.8 23.6144 4
      vertex -11.4539 21.1664 4
      vertex -9.5058 20.9299 4
    endloop
  endfacet
  facet normal 0 0 1
    outer loop
      vertex -13.0689 22.2812 4
      vertex -10.8 23.6144 4
      vertex -11.6 25 4
    endloop
  endfacet
  facet normal -0 0 1
    outer loop
      vertex -13.9809 25.9812 4
      vertex -11.6 25 4
      vertex -13.0689 27.7188 4
    endloop
  endfacet
  facet normal 0 0 1
    outer loop
      vertex -10.8 23.6144 4
      vertex -13.0689 22.2812 4
      vertex -11.4539 21.1664 4
    endloop
  endfacet
  facet normal 0 0 1
    outer loop
      vertex -13.9809 24.0188 4
      vertex -11.6 25 4
      vertex -13.9809 25.9812 4
    endloop
  endfacet
  facet normal 0 0 1
    outer loop
      vertex -11.6 25 4
      vertex -13.9809 24.0188 4
      vertex -13.0689 22.2812 4
    endloop
  endfacet
  facet normal 0 1 -0
    outer loop
      vertex -9.2 -26.3856 0
      vertex -10.8 -26.3856 4
      vertex -9.2 -26.3856 4
    endloop
  endfacet
  facet normal 0 1 0
    outer loop
      vertex -10.8 -26.3856 4
      vertex -9.2 -26.3856 0
      vertex -10.8 -26.3856 0
    endloop
  endfacet
  facet normal -0.866019 0.500011 0
    outer loop
      vertex -9.2 -26.3856 0
      vertex -8.4 -25 4
      vertex -8.4 -25 0
    endloop
  endfacet
  facet normal -0.866019 0.500011 0
    outer loop
      vertex -8.4 -25 4
      vertex -9.2 -26.3856 0
      vertex -9.2 -26.3856 4
    endloop
  endfacet
  facet normal 0 -1 0
    outer loop
      vertex -10.8 -23.6144 0
      vertex -9.2 -23.6144 4
      vertex -10.8 -23.6144 4
    endloop
  endfacet
  facet normal 0 -1 -0
    outer loop
      vertex -9.2 -23.6144 4
      vertex -10.8 -23.6144 0
      vertex -9.2 -23.6144 0
    endloop
  endfacet
  facet normal -0.866019 -0.500011 0
    outer loop
      vertex -8.4 -25 0
      vertex -9.2 -23.6144 4
      vertex -9.2 -23.6144 0
    endloop
  endfacet
  facet normal -0.866019 -0.500011 0
    outer loop
      vertex -9.2 -23.6144 4
      vertex -8.4 -25 0
      vertex -8.4 -25 4
    endloop
  endfacet
  facet normal 0.866019 -0.500011 0
    outer loop
      vertex -11.6 -25 4
      vertex -10.8 -23.6144 0
      vertex -10.8 -23.6144 4
    endloop
  endfacet
  facet normal 0.866019 -0.500011 0
    outer loop
      vertex -10.8 -23.6144 0
      vertex -11.6 -25 4
      vertex -11.6 -25 0
    endloop
  endfacet
  facet normal 0.866019 0.500011 0
    outer loop
      vertex -10.8 -26.3856 4
      vertex -11.6 -25 0
      vertex -11.6 -25 4
    endloop
  endfacet
  facet normal 0.866019 0.500011 0
    outer loop
      vertex -11.6 -25 0
      vertex -10.8 -26.3856 4
      vertex -10.8 -26.3856 0
    endloop
  endfacet
  facet normal 0 -1 0
    outer loop
      vertex -10.8 26.3856 0
      vertex -9.2 26.3856 4
      vertex -10.8 26.3856 4
    endloop
  endfacet
  facet normal 0 -1 -0
    outer loop
      vertex -9.2 26.3856 4
      vertex -10.8 26.3856 0
      vertex -9.2 26.3856 0
    endloop
  endfacet
  facet normal -0.866019 -0.500011 0
    outer loop
      vertex -8.4 25 0
      vertex -9.2 26.3856 4
      vertex -9.2 26.3856 0
    endloop
  endfacet
  facet normal -0.866019 -0.500011 0
    outer loop
      vertex -9.2 26.3856 4
      vertex -8.4 25 0
      vertex -8.4 25 4
    endloop
  endfacet
  facet normal 0.866019 -0.500011 0
    outer loop
      vertex -11.6 25 4
      vertex -10.8 26.3856 0
      vertex -10.8 26.3856 4
    endloop
  endfacet
  facet normal 0.866019 -0.500011 0
    outer loop
      vertex -10.8 26.3856 0
      vertex -11.6 25 4
      vertex -11.6 25 0
    endloop
  endfacet
  facet normal 0.866019 0.500011 0
    outer loop
      vertex -10.8 23.6144 4
      vertex -11.6 25 0
      vertex -11.6 25 4
    endloop
  endfacet
  facet normal 0.866019 0.500011 0
    outer loop
      vertex -11.6 25 0
      vertex -10.8 23.6144 4
      vertex -10.8 23.6144 0
    endloop
  endfacet
  facet normal -0.866019 0.500011 0
    outer loop
      vertex -9.2 23.6144 0
      vertex -8.4 25 4
      vertex -8.4 25 0
    endloop
  endfacet
  facet normal -0.866019 0.500011 0
    outer loop
      vertex -8.4 25 4
      vertex -9.2 23.6144 0
      vertex -9.2 23.6144 4
    endloop
  endfacet
  facet normal 0 1 -0
    outer loop
      vertex -9.2 23.6144 0
      vertex -10.8 23.6144 4
      vertex -9.2 23.6144 4
    endloop
  endfacet
  facet normal 0 1 0
    outer loop
      vertex -10.8 23.6144 4
      vertex -9.2 23.6144 0
      vertex -10.8 23.6144 0
    endloop
  endfacet
  facet normal 0 1 -0
    outer loop
      vertex -14.2 -8.88564 0
      vertex -15.8 -8.88564 5
      vertex -14.2 -8.88564 5
    endloop
  endfacet
  facet normal 0 1 0
    outer loop
      vertex -15.8 -8.88564 5
      vertex -14.2 -8.88564 0
      vertex -15.8 -8.88564 0
    endloop
  endfacet
  facet normal -0.866025 0.5 0
    outer loop
      vertex -14.2 -8.88564 0
      vertex -13.4 -7.5 5
      vertex -13.4 -7.5 0
    endloop
  endfacet
  facet normal -0.866025 0.5 0
    outer loop
      vertex -13.4 -7.5 5
      vertex -14.2 -8.88564 0
      vertex -14.2 -8.88564 5
    endloop
  endfacet
  facet normal 0 -1 0
    outer loop
      vertex -15.8 -6.11436 0
      vertex -14.2 -6.11436 5
      vertex -15.8 -6.11436 5
    endloop
  endfacet
  facet normal 0 -1 -0
    outer loop
      vertex -14.2 -6.11436 5
      vertex -15.8 -6.11436 0
      vertex -14.2 -6.11436 0
    endloop
  endfacet
  facet normal -0.866025 -0.5 0
    outer loop
      vertex -13.4 -7.5 0
      vertex -14.2 -6.11436 5
      vertex -14.2 -6.11436 0
    endloop
  endfacet
  facet normal -0.866025 -0.5 0
    outer loop
      vertex -14.2 -6.11436 5
      vertex -13.4 -7.5 0
      vertex -13.4 -7.5 5
    endloop
  endfacet
  facet normal 0.866025 -0.5 0
    outer loop
      vertex -16.6 -7.5 5
      vertex -15.8 -6.11436 0
      vertex -15.8 -6.11436 5
    endloop
  endfacet
  facet normal 0.866025 -0.5 0
    outer loop
      vertex -15.8 -6.11436 0
      vertex -16.6 -7.5 5
      vertex -16.6 -7.5 0
    endloop
  endfacet
  facet normal 0.866025 0.5 0
    outer loop
      vertex -15.8 -8.88564 5
      vertex -16.6 -7.5 0
      vertex -16.6 -7.5 5
    endloop
  endfacet
  facet normal 0.866025 0.5 0
    outer loop
      vertex -16.6 -7.5 0
      vertex -15.8 -8.88564 5
      vertex -15.8 -8.88564 0
    endloop
  endfacet
  facet normal 0 -1 0
    outer loop
      vertex -15.8 8.88564 0
      vertex -14.2 8.88564 5
      vertex -15.8 8.88564 5
    endloop
  endfacet
  facet normal 0 -1 -0
    outer loop
      vertex -14.2 8.88564 5
      vertex -15.8 8.88564 0
      vertex -14.2 8.88564 0
    endloop
  endfacet
  facet normal -0.866025 -0.5 0
    outer loop
      vertex -13.4 7.5 0
      vertex -14.2 8.88564 5
      vertex -14.2 8.88564 0
    endloop
  endfacet
  facet normal -0.866025 -0.5 0
    outer loop
      vertex -14.2 8.88564 5
      vertex -13.4 7.5 0
      vertex -13.4 7.5 5
    endloop
  endfacet
  facet normal 0.866025 -0.5 0
    outer loop
      vertex -16.6 7.5 5
      vertex -15.8 8.88564 0
      vertex -15.8 8.88564 5
    endloop
  endfacet
  facet normal 0.866025 -0.5 0
    outer loop
      vertex -15.8 8.88564 0
      vertex -16.6 7.5 5
      vertex -16.6 7.5 0
    endloop
  endfacet
  facet normal 0.866025 0.5 0
    outer loop
      vertex -15.8 6.11436 5
      vertex -16.6 7.5 0
      vertex -16.6 7.5 5
    endloop
  endfacet
  facet normal 0.866025 0.5 0
    outer loop
      vertex -16.6 7.5 0
      vertex -15.8 6.11436 5
      vertex -15.8 6.11436 0
    endloop
  endfacet
  facet normal -0.866025 0.5 0
    outer loop
      vertex -14.2 6.11436 0
      vertex -13.4 7.5 5
      vertex -13.4 7.5 0
    endloop
  endfacet
  facet normal -0.866025 0.5 0
    outer loop
      vertex -13.4 7.5 5
      vertex -14.2 6.11436 0
      vertex -14.2 6.11436 5
    endloop
  endfacet
  facet normal 0 1 -0
    outer loop
      vertex -14.2 6.11436 0
      vertex -15.8 6.11436 5
      vertex -14.2 6.11436 5
    endloop
  endfacet
  facet normal 0 1 0
    outer loop
      vertex -15.8 6.11436 5
      vertex -14.2 6.11436 0
      vertex -15.8 6.11436 0
    endloop
  endfacet
  facet normal 0 1 -0
    outer loop
      vertex 5.8 -8.88564 0
      vertex 4.2 -8.88564 5
      vertex 5.8 -8.88564 5
    endloop
  endfacet
  facet normal 0 1 0
    outer loop
      vertex 4.2 -8.88564 5
      vertex 5.8 -8.88564 0
      vertex 4.2 -8.88564 0
    endloop
  endfacet
  facet normal -0.866025 0.5 0
    outer loop
      vertex 5.8 -8.88564 0
      vertex 6.6 -7.5 5
      vertex 6.6 -7.5 0
    endloop
  endfacet
  facet normal -0.866025 0.5 0
    outer loop
      vertex 6.6 -7.5 5
      vertex 5.8 -8.88564 0
      vertex 5.8 -8.88564 5
    endloop
  endfacet
  facet normal 0 -1 0
    outer loop
      vertex 4.2 -6.11436 0
      vertex 5.8 -6.11436 5
      vertex 4.2 -6.11436 5
    endloop
  endfacet
  facet normal 0 -1 -0
    outer loop
      vertex 5.8 -6.11436 5
      vertex 4.2 -6.11436 0
      vertex 5.8 -6.11436 0
    endloop
  endfacet
  facet normal -0.866025 -0.5 0
    outer loop
      vertex 6.6 -7.5 0
      vertex 5.8 -6.11436 5
      vertex 5.8 -6.11436 0
    endloop
  endfacet
  facet normal -0.866025 -0.5 0
    outer loop
      vertex 5.8 -6.11436 5
      vertex 6.6 -7.5 0
      vertex 6.6 -7.5 5
    endloop
  endfacet
  facet normal 0.866025 -0.5 0
    outer loop
      vertex 3.4 -7.5 5
      vertex 4.2 -6.11436 0
      vertex 4.2 -6.11436 5
    endloop
  endfacet
  facet normal 0.866025 -0.5 0
    outer loop
      vertex 4.2 -6.11436 0
      vertex 3.4 -7.5 5
      vertex 3.4 -7.5 0
    endloop
  endfacet
  facet normal 0.866025 0.5 0
    outer loop
      vertex 4.2 -8.88564 5
      vertex 3.4 -7.5 0
      vertex 3.4 -7.5 5
    endloop
  endfacet
  facet normal 0.866025 0.5 0
    outer loop
      vertex 3.4 -7.5 0
      vertex 4.2 -8.88564 5
      vertex 4.2 -8.88564 0
    endloop
  endfacet
  facet normal 0 -1 0
    outer loop
      vertex 4.2 8.88564 0
      vertex 5.8 8.88564 5
      vertex 4.2 8.88564 5
    endloop
  endfacet
  facet normal 0 -1 -0
    outer loop
      vertex 5.8 8.88564 5
      vertex 4.2 8.88564 0
      vertex 5.8 8.88564 0
    endloop
  endfacet
  facet normal -0.866025 -0.5 0
    outer loop
      vertex 6.6 7.5 0
      vertex 5.8 8.88564 5
      vertex 5.8 8.88564 0
    endloop
  endfacet
  facet normal -0.866025 -0.5 0
    outer loop
      vertex 5.8 8.88564 5
      vertex 6.6 7.5 0
      vertex 6.6 7.5 5
    endloop
  endfacet
  facet normal 0.866025 -0.5 0
    outer loop
      vertex 3.4 7.5 5
      vertex 4.2 8.88564 0
      vertex 4.2 8.88564 5
    endloop
  endfacet
  facet normal 0.866025 -0.5 0
    outer loop
      vertex 4.2 8.88564 0
      vertex 3.4 7.5 5
      vertex 3.4 7.5 0
    endloop
  endfacet
  facet normal 0.866025 0.5 0
    outer loop
      vertex 4.2 6.11436 5
      vertex 3.4 7.5 0
      vertex 3.4 7.5 5
    endloop
  endfacet
  facet normal 0.866025 0.5 0
    outer loop
      vertex 3.4 7.5 0
      vertex 4.2 6.11436 5
      vertex 4.2 6.11436 0
    endloop
  endfacet
  facet normal -0.866025 0.5 0
    outer loop
      vertex 5.8 6.11436 0
      vertex 6.6 7.5 5
      vertex 6.6 7.5 0
    endloop
  endfacet
  facet normal -0.866025 0.5 0
    outer loop
      vertex 6.6 7.5 5
      vertex 5.8 6.11436 0
      vertex 5.8 6.11436 5
    endloop
  endfacet
  facet normal 0 1 -0
    outer loop
      vertex 5.8 6.11436 0
      vertex 4.2 6.11436 5
      vertex 5.8 6.11436 5
    endloop
  endfacet
  facet normal 0 1 0
    outer loop
      vertex 4.2 6.11436 5
      vertex 5.8 6.11436 0
      vertex 4.2 6.11436 0
    endloop
  endfacet
  facet normal 1 -0 0
    outer loop
      vertex 10 -40 5
      vertex 10 40 0
      vertex 10 40 5
    endloop
  endfacet
  facet normal 1 0 0
    outer loop
      vertex 10 40 0
      vertex 10 -40 5
      vertex 10 -40 0
    endloop
  endfacet
  facet normal 0.866024 0.500003 0
    outer loop
      vertex 11.9098 -45.8779 10
      vertex 10.8645 -44.0674 6.13263
      vertex 10.8645 -44.0674 10
    endloop
  endfacet
  facet normal 0.866049 0.499959 0
    outer loop
      vertex 11.403 -45 5.2
      vertex 11.9098 -45.8779 10
      vertex 11.403 -45 5
    endloop
  endfacet
  facet normal 0.866008 0.500031 1.75761e-05
    outer loop
      vertex 10.8645 -44.0674 6.13263
      vertex 11.9098 -45.8779 10
      vertex 11.403 -45 5.2
    endloop
  endfacet
  facet normal 0.866 0.500044 0
    outer loop
      vertex 11.403 -45 5
      vertex 10.8645 -44.0674 0
      vertex 10.8645 -44.0674 5
    endloop
  endfacet
  facet normal 0.866024 0.500003 -1.02813e-05
    outer loop
      vertex 11.403 -45 5
      vertex 11.9098 -45.8779 0
      vertex 10.8645 -44.0674 0
    endloop
  endfacet
  facet normal 0.866049 0.499959 -0
    outer loop
      vertex 11.9098 -45.8779 0
      vertex 11.403 -45 5
      vertex 11.9098 -45.8779 10
    endloop
  endfacet
  facet normal 0.587905 0.80893 -0
    outer loop
      vertex 13.8145 -47.799 5
      vertex 13.3087 -47.4314 10
      vertex 13.8145 -47.799 10
    endloop
  endfacet
  facet normal 0.587811 0.808998 3.5021e-06
    outer loop
      vertex 13.3087 -47.4314 0
      vertex 14.3903 -48.2173 4.46822
      vertex 15 -48.6603 3.90506
    endloop
  endfacet
  facet normal 0.587816 0.808995 0
    outer loop
      vertex 13.3087 -47.4314 0
      vertex 15 -48.6603 3.90506
      vertex 15 -48.6603 0
    endloop
  endfacet
  facet normal 0.587905 0.80893 0
    outer loop
      vertex 13.8145 -47.799 5
      vertex 13.3087 -47.4314 0
      vertex 13.3087 -47.4314 10
    endloop
  endfacet
  facet normal 0.587759 0.809036 2.26008e-05
    outer loop
      vertex 14.3903 -48.2173 4.46822
      vertex 13.3087 -47.4314 0
      vertex 13.8145 -47.799 5
    endloop
  endfacet
  facet normal 0.406781 0.913526 -3.96266e-05
    outer loop
      vertex 15 -48.6603 0
      vertex 15.9478 -49.0822 3.29188
      vertex 16.9098 -49.5106 2.50498
    endloop
  endfacet
  facet normal 0.406738 0.913545 0
    outer loop
      vertex 15 -48.6603 0
      vertex 16.9098 -49.5106 2.50498
      vertex 16.9098 -49.5106 0
    endloop
  endfacet
  facet normal 0.406666 0.913577 0
    outer loop
      vertex 15.9478 -49.0822 3.29188
      vertex 15 -48.6603 0
      vertex 15 -48.6603 3.90506
    endloop
  endfacet
  facet normal 0.951062 0.309001 0
    outer loop
      vertex 10.8645 -44.0674 5
      vertex 10.2185 -42.0791 0
      vertex 10.2185 -42.0791 5
    endloop
  endfacet
  facet normal 0.951062 0.309001 0
    outer loop
      vertex 10.2185 -42.0791 0
      vertex 10.8645 -44.0674 5
      vertex 10.8645 -44.0674 0
    endloop
  endfacet
  facet normal 0.951062 0.309001 0
    outer loop
      vertex 10.8645 -44.0674 10
      vertex 10.2185 -42.0791 8.12088
      vertex 10.2185 -42.0791 10
    endloop
  endfacet
  facet normal 0.951062 0.309001 0
    outer loop
      vertex 10.2185 -42.0791 8.12088
      vertex 10.8645 -44.0674 10
      vertex 10.8645 -44.0674 6.13263
    endloop
  endfacet
  facet normal 0.207886 0.978153 0
    outer loop
      vertex 16.9098 -49.5106 0
      vertex 18.9547 -49.9452 1.2694
      vertex 18.9547 -49.9452 0
    endloop
  endfacet
  facet normal 0.207886 0.978153 0
    outer loop
      vertex 18.9547 -49.9452 1.2694
      vertex 16.9098 -49.5106 0
      vertex 16.9098 -49.5106 2.50498
    endloop
  endfacet
  facet normal 0.743116 0.669163 0
    outer loop
      vertex 13.3087 -47.4314 10
      vertex 11.9098 -45.8779 0
      vertex 11.9098 -45.8779 10
    endloop
  endfacet
  facet normal 0.743116 0.669163 0
    outer loop
      vertex 11.9098 -45.8779 0
      vertex 13.3087 -47.4314 10
      vertex 13.3087 -47.4314 0
    endloop
  endfacet
  facet normal 0.994523 0.104518 0
    outer loop
      vertex 10.2185 -42.0791 5
      vertex 10 -40 0
      vertex 10 -40 5
    endloop
  endfacet
  facet normal 0.994523 0.104518 0
    outer loop
      vertex 10 -40 0
      vertex 10.2185 -42.0791 5
      vertex 10.2185 -42.0791 0
    endloop
  endfacet
  facet normal 0.994522 0.104528 0
    outer loop
      vertex 10.2185 -42.0791 10
      vertex 10.2185 -42.0791 8.12088
      vertex 10.021 -40.2 10
    endloop
  endfacet
  facet normal 0 1 0
    outer loop
      vertex 18.9547 -49.9452 0
      vertex 20 -49.9452 0.841904
      vertex 20 -49.9452 0
    endloop
  endfacet
  facet normal 0 1 0
    outer loop
      vertex 20 -49.9452 0.841904
      vertex 18.9547 -49.9452 0
      vertex 18.9774 -49.9452 1.26011
    endloop
  endfacet
  facet normal 0 1 0
    outer loop
      vertex 18.9774 -49.9452 1.26011
      vertex 18.9547 -49.9452 0
      vertex 18.9547 -49.9452 1.2694
    endloop
  endfacet
  facet normal 0 -1 0
    outer loop
      vertex 18.9547 49.9452 0
      vertex 18.9774 49.9452 1.26011
      vertex 18.9547 49.9452 1.2694
    endloop
  endfacet
  facet normal 0 -1 0
    outer loop
      vertex 18.9547 49.9452 0
      vertex 20 49.9452 0.841904
      vertex 18.9774 49.9452 1.26011
    endloop
  endfacet
  facet normal 0 -1 -0
    outer loop
      vertex 20 49.9452 0.841904
      vertex 18.9547 49.9452 0
      vertex 20 49.9452 0
    endloop
  endfacet
  facet normal 0.743116 -0.669163 0
    outer loop
      vertex 11.9098 45.8779 10
      vertex 13.3087 47.4314 0
      vertex 13.3087 47.4314 10
    endloop
  endfacet
  facet normal 0.743116 -0.669163 0
    outer loop
      vertex 13.3087 47.4314 0
      vertex 11.9098 45.8779 10
      vertex 11.9098 45.8779 0
    endloop
  endfacet
  facet normal 0.994523 -0.104518 0
    outer loop
      vertex 10 40 5
      vertex 10.2185 42.0791 0
      vertex 10.2185 42.0791 5
    endloop
  endfacet
  facet normal 0.994523 -0.104518 0
    outer loop
      vertex 10.2185 42.0791 0
      vertex 10 40 5
      vertex 10 40 0
    endloop
  endfacet
  facet normal 0.994522 -0.104528 0
    outer loop
      vertex 10.2185 42.0791 8.12088
      vertex 10.2185 42.0791 10
      vertex 10.021 40.2 10
    endloop
  endfacet
  facet normal 0.406666 -0.913577 0
    outer loop
      vertex 15 48.6603 0
      vertex 15.9478 49.0822 3.29188
      vertex 15 48.6603 3.90506
    endloop
  endfacet
  facet normal 0.406781 -0.913526 -3.96266e-05
    outer loop
      vertex 15.9478 49.0822 3.29188
      vertex 15 48.6603 0
      vertex 16.9098 49.5106 2.50498
    endloop
  endfacet
  facet normal 0.406738 -0.913545 0
    outer loop
      vertex 16.9098 49.5106 2.50498
      vertex 15 48.6603 0
      vertex 16.9098 49.5106 0
    endloop
  endfacet
  facet normal 0.866049 -0.499959 0
    outer loop
      vertex 11.9098 45.8779 10
      vertex 11.403 45 5.2
      vertex 11.9098 45.8779 0
    endloop
  endfacet
  facet normal 0.866024 -0.500003 0
    outer loop
      vertex 10.8645 44.0674 6.13263
      vertex 11.9098 45.8779 10
      vertex 10.8645 44.0674 10
    endloop
  endfacet
  facet normal 0.866008 -0.500031 1.75761e-05
    outer loop
      vertex 11.9098 45.8779 10
      vertex 10.8645 44.0674 6.13263
      vertex 11.403 45 5.2
    endloop
  endfacet
  facet normal 0.866049 -0.499959 0
    outer loop
      vertex 11.403 45 5
      vertex 11.9098 45.8779 0
      vertex 11.403 45 5.2
    endloop
  endfacet
  facet normal 0.866 -0.500044 0
    outer loop
      vertex 10.8645 44.0674 0
      vertex 11.403 45 5
      vertex 10.8645 44.0674 5
    endloop
  endfacet
  facet normal 0.866024 -0.500003 -1.02813e-05
    outer loop
      vertex 11.403 45 5
      vertex 10.8645 44.0674 0
      vertex 11.9098 45.8779 0
    endloop
  endfacet
  facet normal 0.587905 -0.80893 0
    outer loop
      vertex 13.3087 47.4314 10
      vertex 13.8145 47.799 5
      vertex 13.8145 47.799 10
    endloop
  endfacet
  facet normal 0.587759 -0.809036 2.26008e-05
    outer loop
      vertex 13.3087 47.4314 0
      vertex 14.3903 48.2173 4.46822
      vertex 13.8145 47.799 5
    endloop
  endfacet
  facet normal 0.587905 -0.80893 0
    outer loop
      vertex 13.3087 47.4314 0
      vertex 13.8145 47.799 5
      vertex 13.3087 47.4314 10
    endloop
  endfacet
  facet normal 0.587811 -0.808998 3.5021e-06
    outer loop
      vertex 14.3903 48.2173 4.46822
      vertex 13.3087 47.4314 0
      vertex 15 48.6603 3.90506
    endloop
  endfacet
  facet normal 0.587816 -0.808995 0
    outer loop
      vertex 15 48.6603 3.90506
      vertex 13.3087 47.4314 0
      vertex 15 48.6603 0
    endloop
  endfacet
  facet normal 0.207886 -0.978153 0
    outer loop
      vertex 16.9098 49.5106 0
      vertex 18.9547 49.9452 1.2694
      vertex 16.9098 49.5106 2.50498
    endloop
  endfacet
  facet normal 0.207886 -0.978153 0
    outer loop
      vertex 18.9547 49.9452 1.2694
      vertex 16.9098 49.5106 0
      vertex 18.9547 49.9452 0
    endloop
  endfacet
  facet normal 0.951062 -0.309001 0
    outer loop
      vertex 10.2185 42.0791 5
      vertex 10.8645 44.0674 0
      vertex 10.8645 44.0674 5
    endloop
  endfacet
  facet normal 0.951062 -0.309001 0
    outer loop
      vertex 10.8645 44.0674 0
      vertex 10.2185 42.0791 5
      vertex 10.2185 42.0791 0
    endloop
  endfacet
  facet normal 0.951062 -0.309001 0
    outer loop
      vertex 10.2185 42.0791 8.12088
      vertex 10.8645 44.0674 10
      vertex 10.2185 42.0791 10
    endloop
  endfacet
  facet normal 0.951062 -0.309001 0
    outer loop
      vertex 10.8645 44.0674 10
      vertex 10.2185 42.0791 8.12088
      vertex 10.8645 44.0674 6.13263
    endloop
  endfacet
endsolid OpenSCAD_Model
